<svg width="76" height="13" viewBox="0 0 76 13" fill="none" xmlns="http://www.w3.org/2000/svg">
<path d="M6.47802 0.56958L7.98468 5.23051H12.8604L8.91585 8.11111L10.4226 12.772L6.47802 9.89143L2.53353 12.772L4.0402 8.11111L0.0957031 5.23051H4.97136L6.47802 0.56958Z" fill="black"/>
<path d="M22.2426 0.56958L23.7494 5.23051H28.625L24.6805 8.11111L26.1872 12.772L22.2426 9.89143L18.2982 12.772L19.8048 8.11111L15.8604 5.23051H20.736L22.2426 0.56958Z" fill="black"/>
<path d="M38.0073 0.56958L39.514 5.23051H44.3897L40.4451 8.11111L41.9518 12.772L38.0073 9.89143L34.0628 12.772L35.5695 8.11111L31.625 5.23051H36.5007L38.0073 0.56958Z" fill="black"/>
<path d="M53.7719 0.56958L55.2787 5.23051H60.1543L56.2098 8.11111L57.7165 12.772L53.7719 9.89143L49.8275 12.772L51.3341 8.11111L47.3896 5.23051H52.2653L53.7719 0.56958Z" fill="black"/>
<path d="M69.5366 0.56958L71.0433 5.23051H75.919L71.9744 8.11111L73.4811 12.772L69.5366 9.89143L65.5921 12.772L67.0987 8.11111L63.1543 5.23051H68.03L69.5366 0.56958Z" fill="black"/>
</svg>
