<?xml version="1.0" standalone="no"?>
<!DOCTYPE svg PUBLIC "-//W3C//DTD SVG 1.1//EN" "http://www.w3.org/Graphics/SVG/1.1/DTD/svg11.dtd" >
<svg xmlns="http://www.w3.org/2000/svg" xmlns:xlink="http://www.w3.org/1999/xlink" version="1.1">
<metadata>
Created by FontForge 20190801 at Mon Dec  9 14:33:44 2019
 By www-data
Copyright 2019 CoType Foundry. All Rights Reserved
</metadata>
<defs>
<font id="AmbitSemiBold" horiz-adv-x="601" >
  <font-face 
    font-family="AmbitSemiBold"
    font-weight="600"
    font-stretch="normal"
    units-per-em="1000"
    panose-1="0 0 7 0 0 0 0 0 0 0"
    ascent="750"
    descent="-250"
    x-height="485"
    cap-height="695"
    bbox="-362 -231 1346 897"
    underline-thickness="74"
    underline-position="-221"
    unicode-range="U+000D-FB03"
  />
<missing-glyph horiz-adv-x="620" 
d="M60 720h500v-829h-500v829zM217 632q-41 0 -63 -24t-22 -66t22 -66t63 -24q32 0 52 18.5t22 48.5h-46q-7 -29 -30 -29q-35 0 -35 52t35 52q23 0 30 -30h46q-2 31 -22 49.5t-52 18.5zM394 632q-40 0 -63.5 -25.5t-23.5 -64.5q0 -40 23.5 -65t63.5 -25q39 0 63 25t24 65
q0 39 -24 64.5t-63 25.5zM394 490q-39 0 -39 52t39 52t39 -52t-39 -52zM142 400v-40h49v-138h47v138h50v40h-146zM417 288l64 112h-52l-35 -65l-33 65h-55l64 -112v-66h47v66zM231 46q30 0 48.5 16.5t18.5 44.5t-18.5 45t-48.5 17h-74v-178h46v55h28zM463 -9v40h-78v31h60
v37h-60v30h75v40h-122v-178h125zM227 131q24 0 24 -24q0 -23 -24 -23h-24v47h24z" />
    <glyph glyph-name="f_f" unicode="ff" horiz-adv-x="627" 
d="M461 560q0 -31 22 -75h139v-91h-132v-394h-109v394h-185v-394h-109v394h-77v91h73q-19 43 -19 86q0 63 45.5 99.5t110.5 36.5q74 0 108 -36l-46 -72q-24 24 -58 24q-24 0 -40.5 -16.5t-16.5 -46.5q0 -31 22 -75h188q-19 43 -19 86q0 63 46 99.5t112 36.5q118 0 149 -96
l-82 -37q-16 49 -66 49q-23 0 -39.5 -16.5t-16.5 -46.5z" />
    <glyph glyph-name="fi" unicode="fi" horiz-adv-x="557" 
d="M87 0v394h-77v91h73q-19 43 -19 86q0 63 45.5 99.5t110.5 36.5q74 0 108 -36l-46 -72q-24 24 -58 24q-24 0 -40.5 -16.5t-16.5 -46.5q0 -31 22 -75h129v-91h-122v-394h-109zM435 567q-29 0 -48 18t-19 46t19 46.5t48 18.5q28 0 47.5 -18.5t19.5 -46.5q0 -27 -19.5 -45.5
t-47.5 -18.5zM381 0v485h108v-485h-108z" />
    <glyph glyph-name="fl" unicode="fl" horiz-adv-x="558" 
d="M87 0v394h-77v91h73q-19 43 -19 86q0 63 45.5 99.5t110.5 36.5q74 0 108 -36l-46 -72q-24 24 -58 24q-24 0 -40.5 -16.5t-16.5 -46.5q0 -31 22 -75h129v-91h-122v-394h-109zM382 0v695h108v-695h-108z" />
    <glyph glyph-name="f_f_i" unicode="ffi" horiz-adv-x="851" 
d="M518 623q-24 0 -40.5 -16.5t-16.5 -46.5q0 -31 22 -75h129v-91h-122v-394h-109v394h-185v-394h-109v394h-77v91h73q-19 43 -19 86q0 63 45.5 99.5t110.5 36.5q74 0 108 -36l-46 -72q-24 24 -58 24q-24 0 -40.5 -16.5t-16.5 -46.5q0 -31 22 -75h188q-19 43 -19 86
q0 63 45.5 99.5t110.5 36.5q74 0 108 -36l-46 -72q-24 24 -58 24zM729 567q-29 0 -48 18t-19 46t19 46.5t48 18.5q28 0 47.5 -18.5t19.5 -46.5q0 -27 -19.5 -45.5t-47.5 -18.5zM675 0v485h108v-485h-108z" />
    <glyph glyph-name="f_f_l" unicode="ffl" horiz-adv-x="852" 
d="M518 623q-24 0 -40.5 -16.5t-16.5 -46.5q0 -31 22 -75h129v-91h-122v-394h-109v394h-185v-394h-109v394h-77v91h73q-19 43 -19 86q0 63 45.5 99.5t110.5 36.5q74 0 108 -36l-46 -72q-24 24 -58 24q-24 0 -40.5 -16.5t-16.5 -46.5q0 -31 22 -75h188q-19 43 -19 86
q0 63 45.5 99.5t110.5 36.5q74 0 108 -36l-46 -72q-24 24 -58 24zM675 695h109v-695h-109v695z" />
    <glyph glyph-name=".notdef" horiz-adv-x="620" 
d="M60 720h500v-829h-500v829zM217 632q-41 0 -63 -24t-22 -66t22 -66t63 -24q32 0 52 18.5t22 48.5h-46q-7 -29 -30 -29q-35 0 -35 52t35 52q23 0 30 -30h46q-2 31 -22 49.5t-52 18.5zM394 632q-40 0 -63.5 -25.5t-23.5 -64.5q0 -40 23.5 -65t63.5 -25q39 0 63 25t24 65
q0 39 -24 64.5t-63 25.5zM394 490q-39 0 -39 52t39 52t39 -52t-39 -52zM142 400v-40h49v-138h47v138h50v40h-146zM417 288l64 112h-52l-35 -65l-33 65h-55l64 -112v-66h47v66zM231 46q30 0 48.5 16.5t18.5 44.5t-18.5 45t-48.5 17h-74v-178h46v55h28zM463 -9v40h-78v31h60
v37h-60v30h75v40h-122v-178h125zM227 131q24 0 24 -24q0 -23 -24 -23h-24v47h24z" />
    <glyph glyph-name="uni0000" horiz-adv-x="600" 
 />
    <glyph glyph-name="uni0000" horiz-adv-x="600" 
 />
    <glyph glyph-name="glyph2" horiz-adv-x="333" 
 />
    <glyph glyph-name="nonmarkingreturn" unicode="&#xd;" horiz-adv-x="600" 
 />
    <glyph glyph-name="space" unicode=" " horiz-adv-x="230" 
 />
    <glyph glyph-name="exclam" unicode="!" horiz-adv-x="271" 
d="M90 200l-10 495h118l-9 -495h-99zM135 -11q-29 0 -50.5 21.5t-21.5 51.5t21 50.5t51 20.5q31 0 52 -20.5t21 -50.5q0 -31 -21 -52t-52 -21z" />
    <glyph glyph-name="quotedbl" unicode="&#x22;" horiz-adv-x="408" 
d="M74 451l-11 244h111l-10 -244h-90zM245 451l-11 244h111l-10 -244h-90z" />
    <glyph glyph-name="numbersign" unicode="#" horiz-adv-x="703" 
d="M664 440h-134l-26 -185h138l-12 -83h-138l-24 -172h-91l24 172h-150l-24 -172h-90l24 172h-133l11 83h134l26 185h-138l11 83h139l24 172h90l-24 -172h150l24 172h91l-24 -172h133zM413 255l26 185h-150l-26 -185h150z" />
    <glyph glyph-name="dollar" unicode="$" horiz-adv-x="648" 
d="M600 198q0 -91 -64 -147t-169 -64v-96h-81v97q-113 10 -177 67.5t-64 142.5q0 43 15 88l104 -29q-8 -24 -8 -54q0 -49 35 -81t95 -41v225l-6 1q-115 23 -164.5 73t-49.5 129q0 82 61 136.5t159 62.5v96h81v-98q105 -12 162.5 -71.5t65.5 -160.5l-109 -15
q-16 128 -119 152v-215l31 -6q107 -21 154.5 -68.5t47.5 -123.5zM176 514q0 -74 110 -102v204q-51 -5 -80.5 -31.5t-29.5 -70.5zM367 80q58 7 91 35.5t33 73.5q0 75 -116 100l-8 2v-211z" />
    <glyph glyph-name="percent" unicode="%" horiz-adv-x="959" 
d="M216 317q-82 0 -132.5 53.5t-50.5 141.5t50.5 141.5t132.5 53.5t132.5 -53.5t50.5 -141.5t-50.5 -141.5t-132.5 -53.5zM217 0l431 695h96l-431 -695h-96zM216 395q41 0 66.5 32t25.5 85t-25.5 85t-66.5 32q-40 0 -65.5 -32t-25.5 -85t25.5 -85t65.5 -32zM743 -12
q-82 0 -132.5 53.5t-50.5 140.5q0 88 50 142t133 54t133 -54t50 -142q0 -87 -50.5 -140.5t-132.5 -53.5zM743 66q40 0 65.5 32t25.5 84q0 53 -25.5 85.5t-65.5 32.5q-41 0 -66.5 -32.5t-25.5 -85.5q0 -52 25.5 -84t66.5 -32z" />
    <glyph glyph-name="ampersand" unicode="&#x26;" horiz-adv-x="739" 
d="M723 12q-30 -17 -62 -17q-42 0 -75.5 14.5t-81.5 56.5q-98 -80 -216 -80q-113 0 -183 52t-70 139q0 122 146 196q-74 80 -74 157q0 80 56 129.5t150 49.5q87 0 138 -44t51 -120q0 -115 -153 -191l158 -150q50 69 75 186l98 -17q-26 -140 -103 -233q55 -45 92 -45
q21 0 34 9zM310 621q-44 0 -69.5 -24.5t-25.5 -63.5q0 -29 15 -53.5t55 -63.5q55 28 83 56t28 68q0 37 -24.5 59t-61.5 22zM152 191q0 -52 39 -83t101 -31q77 0 143 53l-149 142q-24 21 -44 41q-48 -27 -69 -55t-21 -67z" />
    <glyph glyph-name="quotesingle" unicode="'" horiz-adv-x="237" 
d="M74 451l-11 244h111l-10 -244h-90z" />
    <glyph glyph-name="parenleft" unicode="(" horiz-adv-x="356" 
d="M290 -144q-222 143 -222 437t222 437l43 -72q-171 -121 -171 -365t171 -365z" />
    <glyph glyph-name="parenright" unicode=")" horiz-adv-x="356" 
d="M67 -144l-43 72q171 121 171 365t-171 365l43 72q222 -143 222 -437t-222 -437z" />
    <glyph glyph-name="asterisk" unicode="*" horiz-adv-x="455" 
d="M157 345l-77 55l73 95l-109 34l29 88l109 -37v115h93l-1 -114l109 36l28 -88l-108 -34l72 -95l-76 -55l-72 100z" />
    <glyph glyph-name="plus" unicode="+" horiz-adv-x="496" 
d="M458 342v-91h-163v-170h-96v170h-161v91h161v170h96v-170h163z" />
    <glyph glyph-name="comma" unicode="," horiz-adv-x="235" 
d="M116 129q33 0 55 -25t22 -66q0 -94 -82 -173l-53 39q47 46 50 92q-26 2 -45 20.5t-19 44.5q0 29 21 48.5t51 19.5z" />
    <glyph glyph-name="hyphen" unicode="-" horiz-adv-x="371" 
d="M54 237v97h263v-97h-263z" />
    <glyph glyph-name="period" unicode="." horiz-adv-x="233" 
d="M116 -11q-30 0 -51 21.5t-21 51.5t21 50.5t51 20.5q31 0 52 -20.5t21 -50.5q0 -31 -21 -52t-52 -21z" />
    <glyph glyph-name="slash" unicode="/" horiz-adv-x="431" 
d="M15 -100l302 830h89l-302 -830h-89z" />
    <glyph glyph-name="zero" unicode="0" horiz-adv-x="690" 
d="M346 -14q-139 0 -217.5 97t-78.5 264t78.5 264.5t217.5 97.5q137 0 215.5 -97.5t78.5 -264.5q0 -166 -78.5 -263.5t-215.5 -97.5zM346 84q85 0 132 72.5t47 190.5t-47 191t-132 73q-87 0 -133.5 -73t-46.5 -191t46.5 -190.5t133.5 -72.5z" />
    <glyph glyph-name="one" unicode="1" horiz-adv-x="359" 
d="M163 0v519q-49 -41 -156 -41v104q159 -2 159 113h108v-695h-111z" />
    <glyph glyph-name="two" unicode="2" horiz-adv-x="599" 
d="M41 0v47q0 140 172 236l113 62q58 33 83 68t25 81q0 56 -36.5 87.5t-95.5 31.5q-63 0 -101.5 -36t-38.5 -88q0 -39 15 -72l-103 -33q-23 43 -23 105q0 90 69 155t187 65q109 0 175 -57t66 -151q0 -75 -39 -130t-128 -103l-113 -62q-94 -51 -102 -106h394l-1 -100h-518z
" />
    <glyph glyph-name="three" unicode="3" horiz-adv-x="612" 
d="M313 -14q-123 0 -194 62.5t-71 167.5q0 40 14 80l106 -28q-8 -26 -8 -51q0 -64 41.5 -100.5t111.5 -36.5q63 0 101 31.5t38 85.5q0 51 -37.5 80.5t-102.5 29.5h-43v93h42q59 0 92 28t33 78q0 52 -33.5 80.5t-93.5 28.5q-66 0 -102.5 -41.5t-44.5 -113.5l-108 14
q14 109 80.5 172t177.5 63q112 0 175 -51.5t63 -141.5q0 -59 -38 -102t-94 -55q68 -11 108 -54.5t40 -111.5q0 -94 -69 -150.5t-184 -56.5z" />
    <glyph glyph-name="four" unicode="4" horiz-adv-x="588" 
d="M355 0v161h-331v103q97 89 161.5 200t81.5 231h112q-20 -128 -81.5 -242.5t-151.5 -193.5h209v153h108v-153h98v-98h-98v-161h-108z" />
    <glyph glyph-name="five" unicode="5" horiz-adv-x="598" 
d="M298 -14q-113 0 -183.5 59.5t-76.5 152.5l107 20q2 -56 44.5 -97t106.5 -41q63 0 102.5 39.5t39.5 102.5q0 62 -39.5 101.5t-102.5 39.5q-81 0 -137 -68l-88 27q28 178 33 373h413v-99h-318q-6 -113 -19 -199q50 55 142 55q104 0 167.5 -64t63.5 -166q0 -104 -71 -170
t-184 -66z" />
    <glyph glyph-name="six" unicode="6" horiz-adv-x="633" 
d="M330 -14q-131 0 -205.5 92.5t-74.5 253.5q0 172 77.5 274.5t207.5 102.5q115 0 178.5 -53.5t72.5 -154.5l-108 -16q-13 130 -141 130q-81 0 -130 -73.5t-46 -203.5q52 112 187 112q106 0 174 -63t68 -166t-73.5 -169t-186.5 -66zM329 78q64 0 105.5 39.5t41.5 101.5
q0 61 -41.5 100.5t-105.5 39.5t-106.5 -40t-42.5 -101t42 -100.5t107 -39.5z" />
    <glyph glyph-name="seven" unicode="7" horiz-adv-x="515" 
d="M148 0q6 324 226 597h-370v98h483v-102q-111 -146 -168 -288.5t-60 -304.5h-111z" />
    <glyph glyph-name="eight" unicode="8" horiz-adv-x="634" 
d="M317 -14q-123 0 -195 56.5t-72 156.5q0 55 32 101.5t91 69.5q-99 50 -99 147q0 86 68 139t175 53t175 -53t68 -139q0 -99 -99 -147q58 -23 90.5 -69.5t32.5 -101.5q0 -100 -72.5 -156.5t-194.5 -56.5zM317 409q57 0 93.5 29.5t36.5 76.5q0 46 -36.5 75.5t-93.5 29.5
t-93.5 -29.5t-36.5 -75.5q0 -47 36.5 -76.5t93.5 -29.5zM317 76q69 0 111 32.5t42 89.5q0 54 -43 88.5t-110 34.5t-109.5 -34.5t-42.5 -88.5q0 -57 41.5 -89.5t110.5 -32.5z" />
    <glyph glyph-name="nine" unicode="9" horiz-adv-x="634" 
d="M296 -14q-114 0 -178.5 56t-72.5 158l108 14q17 -134 141 -134q82 0 132 74t47 204q-52 -110 -183 -110q-106 0 -176 63t-70 165t73.5 167.5t186.5 65.5q131 0 205.5 -92t74.5 -252q0 -173 -78.5 -276t-209.5 -103zM305 339q64 0 106 40t42 100q0 59 -42 98.5t-106 39.5
t-105.5 -39.5t-41.5 -99.5t41 -99.5t106 -39.5z" />
    <glyph glyph-name="colon" unicode=":" horiz-adv-x="253" 
d="M126 351q-30 0 -51 21.5t-21 51.5t21 50.5t51 20.5q31 0 52 -20.5t21 -50.5q0 -31 -21 -52t-52 -21zM126 -11q-30 0 -51 21.5t-21 51.5t21 50.5t51 20.5q31 0 52 -20.5t21 -50.5q0 -31 -21 -52t-52 -21z" />
    <glyph glyph-name="semicolon" unicode=";" horiz-adv-x="255" 
d="M126 351q-30 0 -51 21.5t-21 51.5t21 50.5t51 20.5q31 0 52 -20.5t21 -50.5q0 -31 -21 -52t-52 -21zM126 129q33 0 55 -25t22 -66q0 -94 -82 -173l-53 39q47 46 50 92q-26 2 -45 20.5t-19 44.5q0 29 21 48.5t51 19.5z" />
    <glyph glyph-name="less" unicode="&#x3c;" horiz-adv-x="496" 
d="M437 94l-380 156v99l380 156v-99l-274 -107l274 -107v-98z" />
    <glyph glyph-name="equal" unicode="=" horiz-adv-x="496" 
d="M56 352v91h384v-91h-384zM56 151v90h384v-90h-384z" />
    <glyph glyph-name="greater" unicode="&#x3e;" horiz-adv-x="496" 
d="M57 94v98l275 107l-275 107v99l381 -156v-99z" />
    <glyph glyph-name="question" unicode="?" horiz-adv-x="558" 
d="M210 197q0 50 20 86.5t67 72.5q59 47 80.5 77.5t21.5 70.5q0 49 -33 78.5t-89 29.5q-57 0 -92.5 -34t-35.5 -84q0 -32 14 -67l-106 -32q-22 46 -22 99q0 89 68 152t181 63q108 0 169.5 -53.5t61.5 -147.5q0 -62 -32 -109.5t-105 -100.5q-34 -24 -45.5 -45.5t-12.5 -55.5
h-110zM259 -11q-29 0 -50.5 21.5t-21.5 51.5t21 50.5t51 20.5q31 0 52 -20.5t21 -50.5q0 -31 -21 -52t-52 -21z" />
    <glyph glyph-name="at" unicode="@" horiz-adv-x="941" 
d="M457 -196q-177 0 -294.5 111t-117.5 287q0 180 123.5 294.5t307.5 114.5q187 0 306 -106.5t119 -272.5q0 -126 -53 -186t-133 -60q-50 0 -82 23t-40 59q-50 -81 -148 -81q-85 0 -141 63.5t-56 155.5t56 155.5t141 63.5q93 0 140 -69v57h87v-284q0 -30 13.5 -46t36.5 -16
q42 0 66 43t24 121q0 133 -94.5 217.5t-242.5 84.5q-150 0 -245 -92t-95 -239q0 -143 90 -231.5t233 -88.5q99 0 185 55l30 -74q-92 -59 -216 -59zM464 69q53 0 86.5 39t33.5 98t-33.5 98t-86.5 39q-54 0 -87.5 -38.5t-33.5 -98.5t33.5 -98.5t87.5 -38.5z" />
    <glyph glyph-name="A" unicode="A" horiz-adv-x="679" 
d="M556 0l-68 185h-298l-67 -185h-117l260 695h146l261 -695h-117zM224 277h230l-116 313z" />
    <glyph glyph-name="B" unicode="B" horiz-adv-x="673" 
d="M81 0v695h272q115 0 175 -46t60 -134q0 -56 -32 -96.5t-83 -52.5q149 -35 149 -169q0 -96 -62.5 -146.5t-179.5 -50.5h-299zM192 402h155q128 0 128 105q0 99 -128 99h-155v-204zM192 89h172q69 0 106 28.5t37 82.5t-37.5 83t-108.5 29h-169v-223z" />
    <glyph glyph-name="C" unicode="C" horiz-adv-x="740" 
d="M384 -14q-149 0 -244 101.5t-95 259.5q0 157 96.5 259.5t244.5 102.5q125 0 204.5 -69.5t108.5 -198.5l-109 -30q-48 198 -206 198q-98 0 -160 -73.5t-62 -188.5q0 -114 62 -187.5t161 -73.5q81 0 131.5 41t74.5 129l113 -21q-64 -249 -320 -249z" />
    <glyph glyph-name="D" unicode="D" horiz-adv-x="743" 
d="M81 0v695h260q95 0 174.5 -38.5t131 -119t51.5 -190.5q0 -162 -104.5 -254.5t-252.5 -92.5h-260zM192 100h133q110 0 183 60.5t73 187.5q0 65 -21 114.5t-57.5 77.5t-81 41.5t-96.5 13.5h-133v-495z" />
    <glyph glyph-name="E" unicode="E" horiz-adv-x="609" 
d="M81 0v695h484v-97h-373v-198h302v-97h-302v-206h375v-97h-486z" />
    <glyph glyph-name="F" unicode="F" horiz-adv-x="578" 
d="M81 0v695h472v-100h-361v-211h295v-100h-295v-284h-111z" />
    <glyph glyph-name="G" unicode="G" horiz-adv-x="806" 
d="M382 -14q-147 0 -242 101t-95 260q0 157 98 259.5t248 102.5q124 0 203.5 -58.5t106.5 -167.5l-110 -31q-42 158 -202 158q-100 0 -163.5 -73.5t-63.5 -189.5q0 -120 66.5 -191.5t168.5 -71.5q90 0 155.5 55.5t71.5 151.5h-224v93h330v-384h-103v119q-36 -66 -99.5 -99.5
t-145.5 -33.5z" />
    <glyph glyph-name="H" unicode="H" horiz-adv-x="747" 
d="M81 0v695h111v-290h363v290h111v-695h-111v305h-363v-305h-111z" />
    <glyph glyph-name="I" unicode="I" horiz-adv-x="272" 
d="M81 0v695h111v-695h-111z" />
    <glyph glyph-name="J" unicode="J" horiz-adv-x="591" 
d="M276 -14q-114 0 -176 62.5t-62 163.5q0 41 10 81l109 -20q-6 -27 -6 -56q0 -61 32 -96.5t93 -35.5q133 0 133 170v440h112v-462q0 -117 -65 -182t-180 -65z" />
    <glyph glyph-name="K" unicode="K" horiz-adv-x="676" 
d="M639 101q13 0 20 3v-103q-18 -4 -27 -4q-86 0 -143 47.5t-147 180.5l-62 92l-88 -93v-224h-111v695h111v-346l315 346h137l-280 -304l80 -115q71 -103 110 -139t85 -36z" />
    <glyph glyph-name="L" unicode="L" horiz-adv-x="556" 
d="M81 0v695h111v-595h354v-100h-465z" />
    <glyph glyph-name="M" unicode="M" horiz-adv-x="894" 
d="M81 0v695h157l211 -433l206 433h158v-695h-111v561l-204 -422h-103l-203 422v-561h-111z" />
    <glyph glyph-name="N" unicode="N" horiz-adv-x="736" 
d="M81 0v695h115l353 -524v524h106v-695h-115l-353 523v-523h-106z" />
    <glyph glyph-name="O" unicode="O" horiz-adv-x="793" 
d="M396 -14q-152 0 -251.5 102t-99.5 259t99.5 259.5t251.5 102.5t251.5 -102.5t99.5 -259.5t-99.5 -259t-251.5 -102zM396 86q103 0 168.5 73t65.5 188t-65.5 188.5t-168.5 73.5q-101 0 -167 -73.5t-66 -188.5q0 -114 65.5 -187.5t167.5 -73.5z" />
    <glyph glyph-name="P" unicode="P" horiz-adv-x="636" 
d="M81 0v695h276q113 0 181 -57.5t68 -157.5t-68 -158t-181 -58h-165v-264h-111zM192 361h158q67 0 103 31t36 88t-36 87.5t-103 30.5h-158v-237z" />
    <glyph glyph-name="Q" unicode="Q" horiz-adv-x="793" 
d="M675 20l89 -29q-32 -136 -151 -136q-63 0 -105 34.5t-75 98.5q-24 -2 -37 -2q-152 0 -251.5 102t-99.5 259t99.5 259.5t251.5 102.5t251.5 -102.5t99.5 -259.5q0 -120 -60.5 -210.5t-162.5 -128.5q38 -60 88 -60t63 72zM163 347q0 -114 65.5 -187.5t167.5 -73.5
q103 0 168.5 73t65.5 188t-65.5 188.5t-168.5 73.5q-101 0 -167 -73.5t-66 -188.5z" />
    <glyph glyph-name="R" unicode="R" horiz-adv-x="675" 
d="M633 101q13 0 22 3v-103q-18 -4 -31 -4q-89 0 -150.5 47.5t-126.5 177.5l-32 62h-123v-284h-111v695h296q110 0 174 -55t64 -151q0 -82 -47.5 -134.5t-132.5 -62.5l11 -20q53 -98 95.5 -134.5t91.5 -36.5zM192 598v-217h179q128 0 128 108q0 109 -129 109h-178z" />
    <glyph glyph-name="S" unicode="S" horiz-adv-x="648" 
d="M329 -14q-134 0 -209 59t-75 153q0 43 15 88l104 -29q-8 -24 -8 -54q0 -57 48 -90t128 -33q73 0 115 29.5t42 79.5q0 77 -116 102l-92 18q-115 23 -165 72t-50 128q0 89 69.5 144.5t176.5 55.5q130 0 200 -61t78 -174l-110 -15q-21 156 -171 156q-59 0 -95.5 -27
t-36.5 -74q0 -79 129 -105l92 -18q107 -20 154.5 -68.5t47.5 -124.5q0 -98 -76.5 -155t-194.5 -57z" />
    <glyph glyph-name="T" unicode="T" horiz-adv-x="610" 
d="M250 0v595h-229v100h569v-100h-229v-595h-111z" />
    <glyph glyph-name="U" unicode="U" horiz-adv-x="715" 
d="M357 -14q-138 0 -212 73.5t-74 210.5v425h111v-419q0 -93 44.5 -141.5t130.5 -48.5q85 0 130.5 49t45.5 141v419h111v-425q0 -137 -74 -210.5t-213 -73.5z" />
    <glyph glyph-name="V" unicode="V" horiz-adv-x="644" 
d="M250 0l-251 695h117l208 -580l204 580h117l-250 -695h-145z" />
    <glyph glyph-name="W" unicode="W" horiz-adv-x="950" 
d="M193 0l-184 695h114l143 -557l151 557h117l158 -557l134 557h115l-183 -695h-131l-152 534l-153 -534h-129z" />
    <glyph glyph-name="X" unicode="X" horiz-adv-x="640" 
d="M8 0l242 357l-228 338h132l172 -257l169 257h127l-230 -340l240 -355h-134l-181 275l-182 -275h-127z" />
    <glyph glyph-name="Y" unicode="Y" horiz-adv-x="635" 
d="M260 0v284l-261 411h130l188 -305l189 305h130l-265 -411v-284h-111z" />
    <glyph glyph-name="Z" unicode="Z" 
d="M28 0v90l394 505h-384v100h525v-90l-396 -505h407v-100h-546z" />
    <glyph glyph-name="bracketleft" unicode="[" horiz-adv-x="349" 
d="M320 648h-131v-710h131v-82h-223v874h223v-82z" />
    <glyph glyph-name="backslash" unicode="\" horiz-adv-x="433" 
d="M327 -100l-302 830h91l302 -830h-91z" />
    <glyph glyph-name="bracketright" unicode="]" horiz-adv-x="349" 
d="M251 730v-874h-222v80h130v714h-130v80h222z" />
    <glyph glyph-name="asciicircum" unicode="^" horiz-adv-x="503" 
d="M51 411l153 284h97l152 -284h-102l-100 187l-99 -187h-101z" />
    <glyph glyph-name="underscore" unicode="_" horiz-adv-x="469" 
d="M10 -111v90h449v-90h-449z" />
    <glyph glyph-name="grave" unicode="`" horiz-adv-x="400" 
d="M164 544l-123 143h121l92 -143h-90z" />
    <glyph glyph-name="a" unicode="a" horiz-adv-x="538" 
d="M224 -12q-83 0 -134.5 41.5t-51.5 111.5q0 64 53.5 108.5t134.5 44.5q83 0 140 -53v59q0 52 -26.5 80.5t-75.5 28.5q-99 0 -123 -101l-99 21q20 78 79 123t147 45q96 0 151.5 -50.5t55.5 -147.5v-299h-105v61q-53 -73 -146 -73zM244 68q72 0 122 72v15q-50 60 -122 60
q-42 0 -68 -20.5t-26 -52.5q0 -33 25.5 -53.5t68.5 -20.5z" />
    <glyph glyph-name="b" unicode="b" 
d="M342 -12q-115 0 -169 90v-78h-105v695h108v-285q56 87 167 87q96 0 160.5 -73t64.5 -181t-64.5 -181.5t-161.5 -73.5zM317 76q64 0 101 45t37 122t-37 121.5t-101 44.5q-59 0 -100 -48t-41 -118q0 -71 41 -119t100 -48z" />
    <glyph glyph-name="c" unicode="c" horiz-adv-x="533" 
d="M280 -12q-111 0 -179 67.5t-68 187.5q0 109 68.5 181.5t171.5 72.5q90 0 153.5 -51.5t80.5 -152.5l-101 -27q-27 143 -130 143q-61 0 -95.5 -44.5t-34.5 -121.5t36 -122t99 -45q88 0 134 109l89 -47q-74 -150 -224 -150z" />
    <glyph glyph-name="d" unicode="d" 
d="M259 -12q-97 0 -161.5 73.5t-64.5 181.5t64.5 181t160.5 73q113 0 167 -85v283h108v-695h-105v80q-56 -92 -169 -92zM284 76q59 0 100 48t41 119q0 70 -41 118t-100 48q-64 0 -101 -44.5t-37 -121.5t37 -122t101 -45z" />
    <glyph glyph-name="e" unicode="e" horiz-adv-x="554" 
d="M430 172l85 -47q-69 -137 -227 -137q-111 0 -183 70.5t-72 184.5q0 112 70.5 183t177.5 71q106 0 167.5 -67.5t61.5 -179.5q0 -25 -1 -32h-362q5 -66 42.5 -104t99.5 -38q91 0 141 96zM278 412q-53 0 -88 -32t-42 -88h251q-5 58 -35.5 89t-85.5 31z" />
    <glyph glyph-name="f" unicode="f" horiz-adv-x="333" 
d="M87 0v394h-77v91h73q-19 43 -19 86q0 63 46 99.5t112 36.5q118 0 149 -96l-82 -37q-16 49 -66 49q-23 0 -39.5 -16.5t-16.5 -46.5q0 -31 22 -75h139v-91h-132v-394h-109z" />
    <glyph glyph-name="g" unicode="g" horiz-adv-x="564" 
d="M457 489q-23 0 -40 -39q53 -45 53 -119q0 -78 -56.5 -122t-143.5 -44q-48 0 -88 14q-38 -13 -38 -43q0 -17 12 -28t33 -11h179q186 0 186 -141q0 -80 -75.5 -129t-187.5 -49q-130 0 -197 38t-67 104q0 64 75 101q-52 33 -52 92q0 66 70 102q-50 45 -50 116q0 78 56.5 122
t143.5 44q47 0 85 -13q41 84 115 84q40 0 68 -26.5t28 -82.5v-16l-75 -12q-3 58 -34 58zM270 243q42 0 69 23t27 65q0 41 -27.5 64t-68.5 23t-68 -23t-27 -64q0 -42 26.5 -65t68.5 -23zM355 -4h-146q-35 0 -56.5 -16.5t-21.5 -42.5q0 -76 159 -76q68 0 112 23.5t44 60.5
q0 27 -21.5 39t-69.5 12z" />
    <glyph glyph-name="h" unicode="h" horiz-adv-x="575" 
d="M68 0v695h108v-274q51 76 153 76q87 0 134.5 -51.5t47.5 -143.5v-302h-108v287q0 119 -106 119q-53 0 -87 -32t-34 -90v-284h-108z" />
    <glyph glyph-name="i" unicode="i" horiz-adv-x="243" 
d="M122 567q-29 0 -48 18t-19 46t19 46.5t48 18.5q28 0 47.5 -18.5t19.5 -46.5q0 -27 -19.5 -45.5t-47.5 -18.5zM68 0v485h108v-485h-108z" />
    <glyph glyph-name="j" unicode="j" horiz-adv-x="243" 
d="M122 567q-29 0 -48 18t-19 46t19 46.5t48 18.5q28 0 47.5 -18.5t19.5 -46.5q0 -27 -19.5 -45.5t-47.5 -18.5zM39 -222q-72 0 -119 40l40 85q29 -34 63 -34q45 0 45 58v558h108v-560q0 -78 -38.5 -112.5t-98.5 -34.5z" />
    <glyph glyph-name="k" unicode="k" horiz-adv-x="539" 
d="M505 92q13 0 24 3l-1 -96q-20 -4 -45 -4q-65 0 -109.5 33t-94.5 110l-49 78l-54 -53v-163h-108v695h108v-424l212 214h134l-208 -203l49 -76q45 -68 71.5 -91t70.5 -23z" />
    <glyph glyph-name="l" unicode="l" horiz-adv-x="243" 
d="M68 0v695h108v-695h-108z" />
    <glyph glyph-name="m" unicode="m" horiz-adv-x="892" 
d="M648 497q87 0 133.5 -51.5t46.5 -143.5v-302h-108v289q0 117 -100 117q-52 0 -85 -32t-33 -90v-284h-109v289q0 117 -99 117q-52 0 -85 -32t-33 -89v-285h-108v485h105v-64q51 76 149 76q112 0 155 -85q58 85 171 85z" />
    <glyph glyph-name="n" unicode="n" horiz-adv-x="575" 
d="M68 0v485h105v-64q51 76 152 76q89 0 137.5 -51.5t48.5 -143.5v-302h-108v287q0 119 -106 119q-53 0 -87 -32t-34 -90v-284h-108z" />
    <glyph glyph-name="o" unicode="o" horiz-adv-x="574" 
d="M287 -12q-109 0 -181.5 72t-72.5 183t72.5 182.5t181.5 71.5t181 -71.5t72 -182.5t-72 -183t-181 -72zM287 76q64 0 102.5 45t38.5 122q0 76 -39 121t-102 45q-64 0 -102.5 -44.5t-38.5 -121.5t38.5 -122t102.5 -45z" />
    <glyph glyph-name="p" unicode="p" 
d="M68 -210v695h105v-77q55 89 169 89q96 0 161 -73t65 -181q0 -109 -64.5 -182t-160.5 -73q-112 0 -167 85v-283h-108zM317 76q64 0 101 45t37 122t-37 121.5t-101 44.5q-59 0 -100 -48t-41 -118q0 -71 41 -119t100 -48z" />
    <glyph glyph-name="q" unicode="q" 
d="M425 -210v286q-56 -88 -167 -88q-96 0 -160.5 73.5t-64.5 181.5t64.5 181t161.5 73q114 0 169 -89v77h105v-695h-108zM284 79q59 0 100 47t41 117t-41 117t-100 47q-64 0 -101 -44t-37 -120t37 -120t101 -44z" />
    <glyph glyph-name="r" unicode="r" horiz-adv-x="458" 
d="M68 0v485h105v-84q40 92 138 92q58 0 96 -38t38 -102q0 -36 -13 -75l-99 10q4 30 4 40q0 75 -62 75q-42 0 -70.5 -44.5t-28.5 -117.5v-241h-108z" />
    <glyph glyph-name="s" unicode="s" horiz-adv-x="503" 
d="M259 -12q-99 0 -163 44.5t-65 126.5l102 15q9 -104 129 -104q42 0 68 17t26 49q0 26 -16.5 38.5t-56.5 20.5l-56 9q-39 7 -65.5 15.5t-53.5 25t-40.5 44t-13.5 66.5q0 65 54.5 103.5t148.5 38.5q90 0 142.5 -39t63.5 -102l-97 -24q-20 83 -111 83q-44 0 -68.5 -15.5
t-24.5 -43.5t18 -41t63 -21l56 -10q78 -13 122.5 -44t44.5 -101q0 -71 -57.5 -111t-149.5 -40z" />
    <glyph glyph-name="t" unicode="t" horiz-adv-x="413" 
d="M233 -12q-149 0 -149 160v246h-75v91h78l25 143h81v-143h193v-91h-193v-243q0 -67 49 -67q46 0 83 84l84 -43q-62 -137 -176 -137z" />
    <glyph glyph-name="u" unicode="u" horiz-adv-x="567" 
d="M245 -12q-87 0 -134.5 52t-47.5 144v301h109v-290q0 -116 101 -116q52 0 85 31.5t33 87.5v287h109v-485h-105v65q-53 -77 -150 -77z" />
    <glyph glyph-name="v" unicode="v" horiz-adv-x="502" 
d="M189 0l-189 485h116l137 -374l134 374h115l-189 -485h-124z" />
    <glyph glyph-name="w" unicode="w" horiz-adv-x="748" 
d="M160 0l-149 485h113l99 -367l97 367h108l98 -367l98 367h113l-149 -485h-118l-96 345l-95 -345h-119z" />
    <glyph glyph-name="x" unicode="x" horiz-adv-x="510" 
d="M4 0l186 251l-172 234h126l112 -158l114 158h122l-172 -234l186 -251h-126l-126 175l-128 -175h-122z" />
    <glyph glyph-name="y" unicode="y" horiz-adv-x="502" 
d="M127 -222q-85 0 -123 61l66 69q24 -39 60 -39q26 0 42.5 21t33.5 68l16 42h-41l-181 485h116l137 -384l134 384h115l-214 -570q-29 -76 -67.5 -106.5t-93.5 -30.5z" />
    <glyph glyph-name="z" unicode="z" horiz-adv-x="461" 
d="M22 0v80l270 314h-259v91h397v-80l-271 -314h281v-91h-418z" />
    <glyph glyph-name="braceleft" unicode="{" horiz-adv-x="394" 
d="M358 -144q-115 4 -166.5 37t-51.5 103q0 35 18.5 90t18.5 86q0 83 -129 83h-7v75h7q129 0 129 83q0 31 -18.5 87t-18.5 90q0 70 51.5 103t166.5 37v-82q-72 -3 -99.5 -18t-27.5 -57q0 -23 19 -77.5t19 -95.5q0 -91 -98 -108q98 -16 98 -105q0 -42 -19 -96t-19 -77
q0 -43 27.5 -58t99.5 -18v-82z" />
    <glyph glyph-name="bar" unicode="|" horiz-adv-x="286" 
d="M101 -100v830h84v-830h-84z" />
    <glyph glyph-name="braceright" unicode="}" horiz-adv-x="394" 
d="M36 -144v82q72 3 99.5 17.5t27.5 57.5q0 23 -18.5 77.5t-18.5 95.5q0 91 98 108q-98 15 -98 105q0 42 18.5 96t18.5 77q0 43 -27 58t-100 18v82q115 -4 166.5 -37t51.5 -103q0 -34 -18 -89t-18 -87q0 -83 128 -83h7v-75h-7q-128 0 -128 -83q0 -31 18 -86.5t18 -90.5
q0 -70 -51.5 -103t-166.5 -37z" />
    <glyph glyph-name="asciitilde" unicode="~" horiz-adv-x="496" 
d="M330 220q-36 0 -64.5 15.5t-49.5 31t-38 15.5q-43 0 -50 -60l-85 15q14 135 122 135q35 0 63.5 -15.5t49.5 -31t39 -15.5q44 0 51 61l85 -16q-14 -135 -123 -135z" />
    <glyph glyph-name="uni00A0" unicode="&#xa0;" horiz-adv-x="230" 
 />
    <glyph glyph-name="exclamdown" unicode="&#xa1;" horiz-adv-x="271" 
d="M136 498q30 0 51 -21t21 -52q0 -30 -21.5 -51t-50.5 -21q-31 0 -52 21t-21 51q0 31 21 52t52 21zM181 287l10 -495h-118l10 495h98z" />
    <glyph glyph-name="cent" unicode="&#xa2;" horiz-adv-x="558" 
d="M327 78q69 16 109 107l84 -47q-68 -134 -193 -148v-92h-75v93q-95 12 -152 77.5t-57 174.5q0 99 58.5 169.5t150.5 82.5v92h75v-93q76 -10 128.5 -58.5t66.5 -134.5l-96 -27q-23 112 -99 132v-328zM151 243q0 -64 26.5 -107t74.5 -56v326q-48 -13 -74.5 -55.5
t-26.5 -107.5z" />
    <glyph glyph-name="sterling" unicode="&#xa3;" horiz-adv-x="665" 
d="M531 213l107 -4q0 -105 -47 -164t-134 -59q-75 0 -159 76q-46 -76 -147 -76q-65 0 -103.5 33.5t-38.5 90.5q0 54 39.5 87.5t104.5 33.5q36 0 67 -11q-6 30 -35 96h-121v78h87q-25 66 -25 113q0 92 65.5 147t174.5 55q113 0 180.5 -66.5t68.5 -178.5l-110 -8
q-5 72 -43 114.5t-99 42.5q-60 0 -92 -31t-32 -87q0 -37 25 -101h170v-78h-138q31 -78 31 -132q0 -19 -1 -28q4 -3 16 -13t17 -13.5t15.5 -11.5t16 -11.5t14.5 -8.5t16 -7t15.5 -4t16.5 -2q36 0 55 30.5t23 97.5zM156 65q46 0 62 66q-31 21 -61 21q-23 0 -37.5 -12
t-14.5 -32q0 -19 14 -31t37 -12z" />
    <glyph glyph-name="currency" unicode="&#xa4;" horiz-adv-x="458" 
d="M97 134l-64 65l42 41q-24 42 -24 89q0 50 25 89l-43 42l64 64l44 -43q38 23 90 23q48 0 87 -22l43 42l64 -64l-42 -41q25 -41 25 -90q0 -48 -24 -90l41 -40l-63 -65l-43 42q-38 -23 -88 -23t-90 24zM231 220q46 0 77 31t31 78q0 46 -31 77t-77 31q-47 0 -78.5 -31
t-31.5 -77q0 -47 31.5 -78t78.5 -31z" />
    <glyph glyph-name="yen" unicode="&#xa5;" horiz-adv-x="645" 
d="M641 695l-237 -358h135v-78h-163v-84h163v-78h-163v-97h-111v97h-166v78h166v84h-166v78h138l-233 358h130l188 -305l189 305h130z" />
    <glyph glyph-name="brokenbar" unicode="&#xa6;" horiz-adv-x="286" 
d="M101 389v341h84v-341h-84zM101 -100v339h84v-339h-84z" />
    <glyph glyph-name="section" unicode="&#xa7;" horiz-adv-x="574" 
d="M526 320q0 -94 -115 -135q65 -39 65 -117q0 -68 -54.5 -108t-148.5 -40q-93 0 -148.5 38.5t-70.5 108.5l101 24q12 -45 40 -67t78 -22q44 0 69.5 17t25.5 47q0 28 -18 45t-59 28l-74 22q-39 10 -64.5 19.5t-52 26t-39.5 42t-13 60.5q0 47 32 81.5t85 52.5q-67 39 -67 118
q0 68 54.5 108t148.5 40q93 0 148.5 -39t70.5 -108l-101 -24q-25 89 -118 89q-44 0 -69.5 -17t-25.5 -48q0 -27 18 -44t59 -29l74 -21q40 -11 64 -20t51.5 -26t40.5 -42t13 -60zM335 218q36 10 59.5 32t23.5 52q0 32 -19 50t-58 30l-75 21q-18 6 -27 8q-36 -10 -59.5 -32
t-23.5 -52q0 -58 77 -80l75 -21q2 -1 12 -3.5t15 -4.5z" />
    <glyph glyph-name="dieresis" unicode="&#xa8;" horiz-adv-x="400" 
d="M101 555q-27 0 -45 17.5t-18 43.5t18 43t45 17q26 0 44 -17.5t18 -42.5q0 -26 -18 -43.5t-44 -17.5zM300 555q-27 0 -44.5 17.5t-17.5 43.5t17.5 43t44.5 17t44.5 -17t17.5 -43t-17.5 -43.5t-44.5 -17.5z" />
    <glyph glyph-name="copyright" unicode="&#xa9;" horiz-adv-x="809" 
d="M406 -14q-156 0 -258.5 103t-102.5 259t102.5 258.5t257.5 102.5t257 -102t102 -259t-101.5 -259.5t-256.5 -102.5zM405 44q128 0 211 86t83 218t-83 217.5t-211 85.5t-211.5 -85.5t-83.5 -217.5t83.5 -218t211.5 -86zM408 140q-90 0 -145.5 56t-55.5 151q0 90 56 149
t142 59q70 0 120 -40t64 -117l-75 -22q-24 108 -110 108q-52 0 -82 -37t-30 -100t31 -99.5t85 -36.5q42 0 68 22t48 67l67 -36q-60 -124 -183 -124z" />
    <glyph glyph-name="ordfeminine" unicode="&#xaa;" horiz-adv-x="424" 
d="M174 345q-62 0 -99 29.5t-37 80.5q0 46 39 77.5t100 31.5q57 0 99 -38v41q0 35 -19 54.5t-55 19.5q-66 0 -82 -64l-79 15q15 55 58.5 86t108.5 31q71 0 112 -36.5t41 -106.5v-212h-82v43q-39 -52 -105 -52zM190 406q48 0 86 50v10q-37 39 -86 39q-30 0 -47.5 -14
t-17.5 -36t17.5 -35.5t47.5 -13.5z" />
    <glyph glyph-name="guillemotleft" unicode="&#xab;" horiz-adv-x="545" 
d="M259 105l-217 130v97l217 131v-102l-131 -78l131 -75v-103zM492 105l-217 130v97l217 131v-102l-131 -78l131 -75v-103z" />
    <glyph glyph-name="logicalnot" unicode="&#xac;" horiz-adv-x="496" 
d="M327 169v132h-279v90h375v-222h-96z" />
    <glyph glyph-name="uni00AD" unicode="&#xad;" horiz-adv-x="371" 
d="M54 237v97h263v-97h-263z" />
    <glyph glyph-name="registered" unicode="&#xae;" horiz-adv-x="473" 
d="M238 333q-83 0 -138 54t-55 135q0 80 55 133.5t138 53.5q82 0 136 -54t54 -134t-54 -134t-136 -54zM238 371q64 0 106.5 43t42.5 107t-42.5 107t-106.5 43q-65 0 -108 -42.5t-43 -107.5t43 -107.5t108 -42.5zM162 426v202h85q35 0 55 -16t20 -44q0 -51 -51 -59l8 -10
q16 -22 26.5 -28.5t26.5 -6.5v-38q-29 0 -46.5 10.5t-40.5 43.5l-16 22h-27v-76h-40zM202 536h41q38 0 38 29t-38 29h-41v-58z" />
    <glyph glyph-name="macron" unicode="&#xaf;" horiz-adv-x="400" 
d="M52 575v83h296v-83h-296z" />
    <glyph glyph-name="degree" unicode="&#xb0;" horiz-adv-x="383" 
d="M191 432q-63 0 -105 39.5t-42 99.5q0 59 42 98.5t105 39.5q64 0 106 -39.5t42 -98.5q0 -60 -42 -99.5t-106 -39.5zM191 498q31 0 52 21t21 52t-21 52t-52 21t-51.5 -21t-20.5 -52t20.5 -52t51.5 -21z" />
    <glyph glyph-name="plusminus" unicode="&#xb1;" horiz-adv-x="496" 
d="M295 385h163v-91h-163v-149h-96v149h-161v91h161v149h96v-149zM38 0v91h420v-91h-420z" />
    <glyph glyph-name="uni00B2" unicode="&#xb2;" horiz-adv-x="395" 
d="M28 276v25q0 47 28.5 85t96.5 76l54 30q65 37 65 84q0 27 -20 43.5t-55 16.5t-55.5 -19t-20.5 -48q0 -21 8 -40l-81 -19q-12 26 -12 59q0 57 43.5 96.5t121.5 39.5q70 0 113.5 -33.5t44.5 -89.5q1 -47 -25 -80t-82 -62l-56 -30q-54 -27 -63 -59h232v-75h-337z" />
    <glyph glyph-name="uni00B3" unicode="&#xb3;" horiz-adv-x="398" 
d="M202 268q-83 0 -128 38.5t-45 97.5q0 26 9 52l81 -19q-5 -17 -5 -32q0 -31 22.5 -49.5t64.5 -18.5q37 0 59 17t22 46q0 26 -21.5 41t-57.5 15h-23v65h19q34 0 54.5 15.5t20.5 43.5q0 26 -19.5 41.5t-51.5 15.5q-78 0 -88 -82l-83 12q9 61 54.5 99.5t121.5 38.5
q67 0 110 -31.5t43 -84.5q0 -40 -23.5 -65.5t-60.5 -31.5q93 -17 93 -98q0 -58 -46 -92t-122 -34z" />
    <glyph glyph-name="acute" unicode="&#xb4;" horiz-adv-x="400" 
d="M149 544l92 143h120l-124 -143h-88z" />
    <glyph glyph-name="uni00B5" unicode="&#xb5;" horiz-adv-x="572" 
d="M68 -206v691h108v-294q2 -112 102 -112q51 0 84.5 31.5t33.5 87.5v287h108v-485h-105v65q-48 -75 -135 -75q-66 0 -99 36l11 -232h-108z" />
    <glyph glyph-name="paragraph" unicode="&#xb6;" horiz-adv-x="825" 
d="M410 0q-97 0 -178 38t-134 119t-53 192q0 84 30.5 151t82 109t116.5 64t136 22h126v-695h-126zM625 0v695h117v-695h-117z" />
    <glyph glyph-name="periodcentered" unicode="&#xb7;" horiz-adv-x="253" 
d="M126 216q-30 0 -51 21t-21 52q0 30 21 51t51 21q31 0 52 -20.5t21 -51.5t-21 -52t-52 -21z" />
    <glyph glyph-name="cedilla" unicode="&#xb8;" horiz-adv-x="400" 
d="M111 -160l43 167h97l-48 -167h-92z" />
    <glyph glyph-name="uni00B9" unicode="&#xb9;" horiz-adv-x="272" 
d="M111 275v303q-29 -25 -100 -25v78q51 -1 81.5 15t30.5 49h74v-420h-86z" />
    <glyph glyph-name="ordmasculine" unicode="&#xba;" horiz-adv-x="436" 
d="M218 345q-81 0 -133 51t-52 131t52 131t133 51t133 -51t52 -131t-52 -131t-133 -51zM218 414q44 0 70.5 31t26.5 82t-26.5 82t-70.5 31t-70.5 -31t-26.5 -82t26.5 -82t70.5 -31z" />
    <glyph glyph-name="guillemotright" unicode="&#xbb;" horiz-adv-x="545" 
d="M52 105v102l132 76l-132 76v104l217 -131v-97zM285 105v102l132 76l-132 76v104l217 -131v-97z" />
    <glyph glyph-name="onequarter" unicode="&#xbc;" horiz-adv-x="871" 
d="M111 275v303q-29 -25 -100 -25v78q51 -1 81.5 15t30.5 49h74v-420h-86zM135 0l477 695h88l-477 -695h-88zM722 -3v93h-208v85q123 123 139 243h90q-24 -149 -147 -254h126v82h83v-82h53v-74h-53v-93h-83z" />
    <glyph glyph-name="onehalf" unicode="&#xbd;" horiz-adv-x="941" 
d="M111 275v303q-29 -25 -100 -25v78q51 -1 81.5 15t30.5 49h74v-420h-86zM135 0l477 695h88l-477 -695h-88zM574 -2v26q0 46 29 84t96 76l55 31q64 36 64 84q0 27 -20 43t-54 16q-35 0 -56 -18.5t-21 -47.5q0 -21 8 -40l-80 -20q-12 24 -12 60q0 57 43 96.5t121 39.5
q71 0 114.5 -33.5t43.5 -89.5q1 -47 -25 -80t-82 -63l-55 -29q-53 -28 -64 -60h232v-75h-337z" />
    <glyph glyph-name="threequarters" unicode="&#xbe;" horiz-adv-x="998" 
d="M202 268q-83 0 -128 38.5t-45 97.5q0 26 9 52l81 -19q-5 -17 -5 -32q0 -31 22.5 -49.5t64.5 -18.5q37 0 59 17t22 46q0 26 -21.5 41t-57.5 15h-23v65h19q34 0 54.5 15.5t20.5 43.5q0 26 -19.5 41.5t-51.5 15.5q-78 0 -88 -82l-83 12q9 61 54.5 99.5t121.5 38.5
q67 0 110 -31.5t43 -84.5q0 -40 -23.5 -65.5t-60.5 -31.5q93 -17 93 -98q0 -58 -46 -92t-122 -34zM260 0l477 695h88l-477 -695h-88zM848 -2v94h-208v84q123 123 139 243h90q-24 -147 -147 -254h126v83h83v-83h53v-73h-53v-94h-83z" />
    <glyph glyph-name="questiondown" unicode="&#xbf;" horiz-adv-x="558" 
d="M299 498q29 0 50.5 -21t21.5 -52q0 -30 -21.5 -51t-50.5 -21q-31 0 -52 21t-21 51q0 31 21 52t52 21zM349 289q0 -49 -20.5 -86t-66.5 -73q-60 -46 -81.5 -76.5t-21.5 -70.5q0 -49 33 -79t89 -30q57 0 92.5 34.5t35.5 84.5q0 35 -14 66l106 33q22 -46 22 -99
q0 -89 -67.5 -152t-180.5 -63q-109 0 -170.5 53.5t-61.5 146.5q0 63 32 110.5t106 100.5q33 24 44.5 45.5t12.5 54.5h111z" />
    <glyph glyph-name="Agrave" unicode="&#xc0;" horiz-adv-x="679" 
d="M393 754h-90l-123 143h121zM556 0l-68 185h-298l-67 -185h-117l260 695h146l261 -695h-117zM224 277h230l-116 313z" />
    <glyph glyph-name="Aacute" unicode="&#xc1;" horiz-adv-x="679" 
d="M500 897l-124 -143h-88l92 143h120zM556 0l-68 185h-298l-67 -185h-117l260 695h146l261 -695h-117zM224 277h230l-116 313z" />
    <glyph glyph-name="Acircumflex" unicode="&#xc2;" horiz-adv-x="679" 
d="M337 828l-63 -74h-91l107 143h98l107 -143h-95zM556 0l-68 185h-298l-67 -185h-117l260 695h146l261 -695h-117zM224 277h230l-116 313z" />
    <glyph glyph-name="Atilde" unicode="&#xc3;" horiz-adv-x="679" 
d="M285 810q-30 0 -32 -47h-75q0 60 26 92.5t71 32.5q35 0 67 -23t45 -23q29 0 31 46h75q-1 -60 -26.5 -92t-70.5 -32q-35 0 -67 23t-44 23zM556 0l-68 185h-298l-67 -185h-117l260 695h146l261 -695h-117zM224 277h230l-116 313z" />
    <glyph glyph-name="Adieresis" unicode="&#xc4;" horiz-adv-x="679" 
d="M240 765q-27 0 -45 17.5t-18 43.5t18 43t45 17q26 0 44 -17.5t18 -42.5q0 -26 -18 -43.5t-44 -17.5zM439 765q-27 0 -44.5 17.5t-17.5 43.5t17.5 43t44.5 17t44.5 -17t17.5 -43t-17.5 -43.5t-44.5 -17.5zM556 0l-68 185h-298l-67 -185h-117l260 695h146l261 -695h-117z
M224 277h230l-116 313z" />
    <glyph glyph-name="Aring" unicode="&#xc5;" horiz-adv-x="679" 
d="M556 0l-68 185h-298l-67 -185h-117l254 678q-30 28 -30 72t30.5 72.5t78.5 28.5t79 -28.5t31 -72.5t-31 -72l255 -678h-117zM339 791q-19 0 -30.5 -11.5t-11.5 -29.5t11.5 -29.5t30.5 -11.5t30.5 11.5t11.5 29.5t-11.5 29.5t-30.5 11.5zM224 277h230l-116 313z" />
    <glyph glyph-name="AE" unicode="&#xc6;" horiz-adv-x="986" 
d="M569 97h375v-97h-486v196h-256l-89 -196h-115l317 695h627v-97h-373v-198h302v-97h-302v-206zM244 288h214v305h-75z" />
    <glyph glyph-name="Ccedilla" unicode="&#xc7;" horiz-adv-x="740" 
d="M704 235q-58 -226 -275 -247l-42 -146h-92l38 147q-129 18 -208.5 116.5t-79.5 241.5q0 157 96.5 259.5t244.5 102.5q125 0 204.5 -69.5t108.5 -198.5l-109 -30q-48 198 -206 198q-98 0 -160 -73.5t-62 -188.5q0 -114 62 -187.5t161 -73.5q81 0 131.5 41t74.5 129z" />
    <glyph glyph-name="Egrave" unicode="&#xc8;" horiz-adv-x="609" 
d="M286 754l-123 143h121l92 -143h-90zM81 0v695h484v-97h-373v-198h302v-97h-302v-206h375v-97h-486z" />
    <glyph glyph-name="Eacute" unicode="&#xc9;" horiz-adv-x="609" 
d="M271 754l92 143h120l-124 -143h-88zM81 0v695h484v-97h-373v-198h302v-97h-302v-206h375v-97h-486z" />
    <glyph glyph-name="Ecircumflex" unicode="&#xca;" horiz-adv-x="609" 
d="M166 754l107 143h98l107 -143h-95l-63 74l-63 -74h-91zM81 0v695h484v-97h-373v-198h302v-97h-302v-206h375v-97h-486z" />
    <glyph glyph-name="Edieresis" unicode="&#xcb;" horiz-adv-x="609" 
d="M223 765q-27 0 -45 17.5t-18 43.5t18 43t45 17q26 0 44 -17.5t18 -42.5q0 -26 -18 -43.5t-44 -17.5zM422 765q-27 0 -44.5 17.5t-17.5 43.5t17.5 43t44.5 17t44.5 -17t17.5 -43t-17.5 -43.5t-44.5 -17.5zM81 0v695h484v-97h-373v-198h302v-97h-302v-206h375v-97h-486z
" />
    <glyph glyph-name="Igrave" unicode="&#xcc;" horiz-adv-x="272" 
d="M101 754l-123 143h121l92 -143h-90zM81 0v695h111v-695h-111z" />
    <glyph glyph-name="Iacute" unicode="&#xcd;" horiz-adv-x="272" 
d="M86 754l92 143h120l-124 -143h-88zM81 0v695h111v-695h-111z" />
    <glyph glyph-name="Icircumflex" unicode="&#xce;" horiz-adv-x="272" 
d="M-19 754l107 143h98l107 -143h-95l-63 74l-63 -74h-91zM81 0v695h111v-695h-111z" />
    <glyph glyph-name="Idieresis" unicode="&#xcf;" horiz-adv-x="272" 
d="M38 765q-27 0 -45 17.5t-18 43.5t18 43t45 17q26 0 44 -17.5t18 -42.5q0 -26 -18 -43.5t-44 -17.5zM237 765q-27 0 -44.5 17.5t-17.5 43.5t17.5 43t44.5 17t44.5 -17t17.5 -43t-17.5 -43.5t-44.5 -17.5zM81 0v695h111v-695h-111z" />
    <glyph glyph-name="Eth" unicode="&#xd0;" horiz-adv-x="743" 
d="M341 695q95 0 174.5 -38.5t131 -119t51.5 -190.5q0 -162 -104.5 -254.5t-252.5 -92.5h-260v313h-61v84h61v298h260zM325 100q110 0 183 60.5t73 187.5q0 65 -21 114.5t-57.5 77.5t-81 41.5t-96.5 13.5h-133v-198h178v-84h-178v-213h133z" />
    <glyph glyph-name="Ntilde" unicode="&#xd1;" horiz-adv-x="736" 
d="M209 763q0 60 26 92.5t71 32.5q35 0 67 -23t45 -23q29 0 31 46h75q-1 -60 -26.5 -92t-70.5 -32q-35 0 -67 23t-44 23q-30 0 -32 -47h-75zM81 0v695h115l353 -524v524h106v-695h-115l-353 523v-523h-106z" />
    <glyph glyph-name="Ograve" unicode="&#xd2;" horiz-adv-x="793" 
d="M360 754l-123 143h121l92 -143h-90zM396 -14q-152 0 -251.5 102t-99.5 259t99.5 259.5t251.5 102.5t251.5 -102.5t99.5 -259.5t-99.5 -259t-251.5 -102zM396 86q103 0 168.5 73t65.5 188t-65.5 188.5t-168.5 73.5q-101 0 -167 -73.5t-66 -188.5q0 -114 65.5 -187.5
t167.5 -73.5z" />
    <glyph glyph-name="Oacute" unicode="&#xd3;" horiz-adv-x="793" 
d="M345 754l92 143h120l-124 -143h-88zM396 -14q-152 0 -251.5 102t-99.5 259t99.5 259.5t251.5 102.5t251.5 -102.5t99.5 -259.5t-99.5 -259t-251.5 -102zM396 86q103 0 168.5 73t65.5 188t-65.5 188.5t-168.5 73.5q-101 0 -167 -73.5t-66 -188.5q0 -114 65.5 -187.5
t167.5 -73.5z" />
    <glyph glyph-name="Ocircumflex" unicode="&#xd4;" horiz-adv-x="793" 
d="M240 754l107 143h98l107 -143h-95l-63 74l-63 -74h-91zM396 -14q-152 0 -251.5 102t-99.5 259t99.5 259.5t251.5 102.5t251.5 -102.5t99.5 -259.5t-99.5 -259t-251.5 -102zM396 86q103 0 168.5 73t65.5 188t-65.5 188.5t-168.5 73.5q-101 0 -167 -73.5t-66 -188.5
q0 -114 65.5 -187.5t167.5 -73.5z" />
    <glyph glyph-name="Otilde" unicode="&#xd5;" horiz-adv-x="793" 
d="M235 763q0 60 26 92.5t71 32.5q35 0 67 -23t45 -23q29 0 31 46h75q-1 -60 -26.5 -92t-70.5 -32q-35 0 -67 23t-44 23q-30 0 -32 -47h-75zM396 -14q-152 0 -251.5 102t-99.5 259t99.5 259.5t251.5 102.5t251.5 -102.5t99.5 -259.5t-99.5 -259t-251.5 -102zM396 86
q103 0 168.5 73t65.5 188t-65.5 188.5t-168.5 73.5q-101 0 -167 -73.5t-66 -188.5q0 -114 65.5 -187.5t167.5 -73.5z" />
    <glyph glyph-name="Odieresis" unicode="&#xd6;" horiz-adv-x="793" 
d="M297 765q-27 0 -45 17.5t-18 43.5t18 43t45 17q26 0 44 -17.5t18 -42.5q0 -26 -18 -43.5t-44 -17.5zM496 765q-27 0 -44.5 17.5t-17.5 43.5t17.5 43t44.5 17t44.5 -17t17.5 -43t-17.5 -43.5t-44.5 -17.5zM396 -14q-152 0 -251.5 102t-99.5 259t99.5 259.5t251.5 102.5
t251.5 -102.5t99.5 -259.5t-99.5 -259t-251.5 -102zM396 86q103 0 168.5 73t65.5 188t-65.5 188.5t-168.5 73.5q-101 0 -167 -73.5t-66 -188.5q0 -114 65.5 -187.5t167.5 -73.5z" />
    <glyph glyph-name="multiply" unicode="&#xd7;" horiz-adv-x="496" 
d="M444 427l-132 -131l132 -130l-64 -65l-132 131l-132 -131l-64 65l132 130l-132 131l64 64l132 -131l132 131z" />
    <glyph glyph-name="Oslash" unicode="&#xd8;" horiz-adv-x="793" 
d="M659 594q88 -99 88 -247q0 -157 -99.5 -259t-251.5 -102q-114 0 -205 62l-41 -48h-103l86 100q-88 102 -88 247q0 157 99.5 259.5t251.5 102.5q117 0 205 -63l42 49h103zM161 347q0 -94 45 -161l327 380q-59 45 -137 45q-102 0 -168.5 -74.5t-66.5 -189.5zM396 84
q103 0 169 74t66 189q0 94 -45 162l-326 -381q60 -44 136 -44z" />
    <glyph glyph-name="Ugrave" unicode="&#xd9;" horiz-adv-x="715" 
d="M322 754l-123 143h121l92 -143h-90zM357 -14q-138 0 -212 73.5t-74 210.5v425h111v-419q0 -93 44.5 -141.5t130.5 -48.5q85 0 130.5 49t45.5 141v419h111v-425q0 -137 -74 -210.5t-213 -73.5z" />
    <glyph glyph-name="Uacute" unicode="&#xda;" horiz-adv-x="715" 
d="M307 754l92 143h120l-124 -143h-88zM357 -14q-138 0 -212 73.5t-74 210.5v425h111v-419q0 -93 44.5 -141.5t130.5 -48.5q85 0 130.5 49t45.5 141v419h111v-425q0 -137 -74 -210.5t-213 -73.5z" />
    <glyph glyph-name="Ucircumflex" unicode="&#xdb;" horiz-adv-x="715" 
d="M202 754l107 143h98l107 -143h-95l-63 74l-63 -74h-91zM357 -14q-138 0 -212 73.5t-74 210.5v425h111v-419q0 -93 44.5 -141.5t130.5 -48.5q85 0 130.5 49t45.5 141v419h111v-425q0 -137 -74 -210.5t-213 -73.5z" />
    <glyph glyph-name="Udieresis" unicode="&#xdc;" horiz-adv-x="715" 
d="M259 765q-27 0 -45 17.5t-18 43.5t18 43t45 17q26 0 44 -17.5t18 -42.5q0 -26 -18 -43.5t-44 -17.5zM458 765q-27 0 -44.5 17.5t-17.5 43.5t17.5 43t44.5 17t44.5 -17t17.5 -43t-17.5 -43.5t-44.5 -17.5zM357 -14q-138 0 -212 73.5t-74 210.5v425h111v-419
q0 -93 44.5 -141.5t130.5 -48.5q85 0 130.5 49t45.5 141v419h111v-425q0 -137 -74 -210.5t-213 -73.5z" />
    <glyph glyph-name="Yacute" unicode="&#xdd;" horiz-adv-x="635" 
d="M265 754l92 143h120l-124 -143h-88zM260 0v284l-261 411h130l188 -305l189 305h130l-265 -411v-284h-111z" />
    <glyph glyph-name="Thorn" unicode="&#xde;" horiz-adv-x="644" 
d="M81 0v695h111v-127h165q113 0 181 -58t68 -158t-68 -157.5t-181 -57.5h-165v-137h-111zM192 234h158q67 0 103 30.5t36 87.5q0 58 -35.5 88t-103.5 30h-158v-236z" />
    <glyph glyph-name="germandbls" unicode="&#xdf;" horiz-adv-x="649" 
d="M431 -12q-148 0 -200 89l75 66q33 -70 123 -70q38 0 62 17t24 50q0 25 -14.5 39.5t-46.5 24.5l-35 12l-46.5 15.5t-36.5 16.5t-35 24.5t-18 32t-9 47.5q0 30 21 58t45.5 46t45.5 42.5t21 49.5q0 72 -105 72q-59 0 -92 -34.5t-33 -100.5v-485h-109v495q0 100 67 156
t173 56q96 0 155 -36.5t59 -108.5q0 -29 -15 -55t-36 -44.5t-42.5 -34.5t-36.5 -32.5t-15 -31.5q0 -6 1 -11.5t3.5 -10t4.5 -7.5t8 -6.5t9 -5.5t11.5 -5t12.5 -4.5t15 -5t16 -4.5l35 -12q63 -20 97.5 -52.5t34.5 -97.5q0 -73 -54 -113.5t-140 -40.5z" />
    <glyph glyph-name="agrave" unicode="&#xe0;" horiz-adv-x="538" 
d="M233 544l-123 143h121l92 -143h-90zM224 -12q-83 0 -134.5 41.5t-51.5 111.5q0 64 53.5 108.5t134.5 44.5q83 0 140 -53v59q0 52 -26.5 80.5t-75.5 28.5q-99 0 -123 -101l-99 21q20 78 79 123t147 45q96 0 151.5 -50.5t55.5 -147.5v-299h-105v61q-53 -73 -146 -73z
M244 68q72 0 122 72v15q-50 60 -122 60q-42 0 -68 -20.5t-26 -52.5q0 -33 25.5 -53.5t68.5 -20.5z" />
    <glyph glyph-name="aacute" unicode="&#xe1;" horiz-adv-x="538" 
d="M218 544l92 143h120l-124 -143h-88zM224 -12q-83 0 -134.5 41.5t-51.5 111.5q0 64 53.5 108.5t134.5 44.5q83 0 140 -53v59q0 52 -26.5 80.5t-75.5 28.5q-99 0 -123 -101l-99 21q20 78 79 123t147 45q96 0 151.5 -50.5t55.5 -147.5v-299h-105v61q-53 -73 -146 -73z
M244 68q72 0 122 72v15q-50 60 -122 60q-42 0 -68 -20.5t-26 -52.5q0 -33 25.5 -53.5t68.5 -20.5z" />
    <glyph glyph-name="acircumflex" unicode="&#xe2;" horiz-adv-x="538" 
d="M113 544l107 143h98l107 -143h-95l-63 74l-63 -74h-91zM224 -12q-83 0 -134.5 41.5t-51.5 111.5q0 64 53.5 108.5t134.5 44.5q83 0 140 -53v59q0 52 -26.5 80.5t-75.5 28.5q-99 0 -123 -101l-99 21q20 78 79 123t147 45q96 0 151.5 -50.5t55.5 -147.5v-299h-105v61
q-53 -73 -146 -73zM244 68q72 0 122 72v15q-50 60 -122 60q-42 0 -68 -20.5t-26 -52.5q0 -33 25.5 -53.5t68.5 -20.5z" />
    <glyph glyph-name="atilde" unicode="&#xe3;" horiz-adv-x="538" 
d="M108 553q0 60 26 92.5t71 32.5q35 0 67 -23t45 -23q29 0 31 46h75q-1 -60 -26.5 -92t-70.5 -32q-35 0 -67 23t-44 23q-30 0 -32 -47h-75zM224 -12q-83 0 -134.5 41.5t-51.5 111.5q0 64 53.5 108.5t134.5 44.5q83 0 140 -53v59q0 52 -26.5 80.5t-75.5 28.5
q-99 0 -123 -101l-99 21q20 78 79 123t147 45q96 0 151.5 -50.5t55.5 -147.5v-299h-105v61q-53 -73 -146 -73zM244 68q72 0 122 72v15q-50 60 -122 60q-42 0 -68 -20.5t-26 -52.5q0 -33 25.5 -53.5t68.5 -20.5z" />
    <glyph glyph-name="adieresis" unicode="&#xe4;" horiz-adv-x="538" 
d="M170 555q-27 0 -45 17.5t-18 43.5t18 43t45 17q26 0 44 -17.5t18 -42.5q0 -26 -18 -43.5t-44 -17.5zM369 555q-27 0 -44.5 17.5t-17.5 43.5t17.5 43t44.5 17t44.5 -17t17.5 -43t-17.5 -43.5t-44.5 -17.5zM224 -12q-83 0 -134.5 41.5t-51.5 111.5q0 64 53.5 108.5
t134.5 44.5q83 0 140 -53v59q0 52 -26.5 80.5t-75.5 28.5q-99 0 -123 -101l-99 21q20 78 79 123t147 45q96 0 151.5 -50.5t55.5 -147.5v-299h-105v61q-53 -73 -146 -73zM244 68q72 0 122 72v15q-50 60 -122 60q-42 0 -68 -20.5t-26 -52.5q0 -33 25.5 -53.5t68.5 -20.5z" />
    <glyph glyph-name="aring" unicode="&#xe5;" horiz-adv-x="538" 
d="M349 486q126 -39 126 -187v-299h-105v61q-53 -73 -146 -73q-83 0 -134.5 41.5t-51.5 111.5q0 64 53.5 108.5t134.5 44.5q83 0 140 -53v59q0 52 -26.5 80.5t-75.5 28.5q-99 0 -123 -101l-99 21q31 123 148 157q-30 28 -30 72t31 72.5t79 28.5q47 0 78.5 -29t31.5 -72
t-31 -72zM270 598q-19 0 -31 -11.5t-12 -28.5t12 -29t31 -12q18 0 30 12t12 29t-12 28.5t-30 11.5zM366 140v15q-50 60 -122 60q-42 0 -68 -20.5t-26 -52.5q0 -33 25.5 -53.5t68.5 -20.5q72 0 122 72z" />
    <glyph glyph-name="ae" unicode="&#xe6;" horiz-adv-x="884" 
d="M760 174l85 -49q-69 -137 -227 -137q-65 0 -117 26.5t-84 74.5q-83 -101 -192 -101q-83 0 -135 41.5t-52 111.5q0 64 53.5 108.5t134.5 44.5q83 0 140 -53v59q0 52 -26.5 80.5t-75.5 28.5q-99 0 -123 -101l-99 21q20 78 78.5 123t145.5 45q123 0 171 -85q61 85 175 85
q106 0 167.5 -67.5t61.5 -179.5q0 -22 -1 -32h-363q5 -66 42.5 -104t99.5 -38q93 0 141 98zM608 412q-53 0 -86.5 -31.5t-42.5 -88.5h250q-9 120 -121 120zM241 68q72 0 127 86q-55 61 -124 61q-42 0 -68 -20.5t-26 -52.5q0 -33 24.5 -53.5t66.5 -20.5z" />
    <glyph glyph-name="ccedilla" unicode="&#xe7;" horiz-adv-x="533" 
d="M281 76q88 0 134 109l89 -47q-64 -129 -182 -147l-43 -149h-92l39 151q-89 15 -141 80t-52 170q0 109 68.5 181.5t171.5 72.5q90 0 153.5 -51.5t80.5 -152.5l-101 -27q-27 143 -130 143q-61 0 -95.5 -44.5t-34.5 -121.5t36 -122t99 -45z" />
    <glyph glyph-name="egrave" unicode="&#xe8;" horiz-adv-x="554" 
d="M334 544h-90l-123 143h121zM430 172l85 -47q-69 -137 -227 -137q-111 0 -183 70.5t-72 184.5q0 112 70.5 183t177.5 71q106 0 167.5 -67.5t61.5 -179.5q0 -25 -1 -32h-362q5 -66 42.5 -104t99.5 -38q91 0 141 96zM278 412q-53 0 -88 -32t-42 -88h251q-5 58 -35.5 89
t-85.5 31z" />
    <glyph glyph-name="eacute" unicode="&#xe9;" horiz-adv-x="554" 
d="M441 687l-124 -143h-88l92 143h120zM430 172l85 -47q-69 -137 -227 -137q-111 0 -183 70.5t-72 184.5q0 112 70.5 183t177.5 71q106 0 167.5 -67.5t61.5 -179.5q0 -25 -1 -32h-362q5 -66 42.5 -104t99.5 -38q91 0 141 96zM278 412q-53 0 -88 -32t-42 -88h251
q-5 58 -35.5 89t-85.5 31z" />
    <glyph glyph-name="ecircumflex" unicode="&#xea;" horiz-adv-x="554" 
d="M278 618l-63 -74h-91l107 143h98l107 -143h-95zM430 172l85 -47q-69 -137 -227 -137q-111 0 -183 70.5t-72 184.5q0 112 70.5 183t177.5 71q106 0 167.5 -67.5t61.5 -179.5q0 -25 -1 -32h-362q5 -66 42.5 -104t99.5 -38q91 0 141 96zM278 412q-53 0 -88 -32t-42 -88h251
q-5 58 -35.5 89t-85.5 31z" />
    <glyph glyph-name="edieresis" unicode="&#xeb;" horiz-adv-x="554" 
d="M181 555q-27 0 -45 17.5t-18 43.5t18 43t45 17q26 0 44 -17.5t18 -42.5q0 -26 -18 -43.5t-44 -17.5zM380 555q-27 0 -44.5 17.5t-17.5 43.5t17.5 43t44.5 17t44.5 -17t17.5 -43t-17.5 -43.5t-44.5 -17.5zM430 172l85 -47q-69 -137 -227 -137q-111 0 -183 70.5t-72 184.5
q0 112 70.5 183t177.5 71q106 0 167.5 -67.5t61.5 -179.5q0 -25 -1 -32h-362q5 -66 42.5 -104t99.5 -38q91 0 141 96zM278 412q-53 0 -88 -32t-42 -88h251q-5 58 -35.5 89t-85.5 31z" />
    <glyph glyph-name="igrave" unicode="&#xec;" horiz-adv-x="243" 
d="M86 544l-123 143h121l92 -143h-90zM68 0v485h108v-485h-108z" />
    <glyph glyph-name="iacute" unicode="&#xed;" horiz-adv-x="243" 
d="M71 544l92 143h120l-124 -143h-88zM68 0v485h108v-485h-108z" />
    <glyph glyph-name="icircumflex" unicode="&#xee;" horiz-adv-x="243" 
d="M-34 544l107 143h98l107 -143h-95l-63 74l-63 -74h-91zM68 0v485h108v-485h-108z" />
    <glyph glyph-name="idieresis" unicode="&#xef;" horiz-adv-x="243" 
d="M23 555q-27 0 -45 17.5t-18 43.5t18 43t45 17q26 0 44 -17.5t18 -42.5q0 -26 -18 -43.5t-44 -17.5zM222 555q-27 0 -44.5 17.5t-17.5 43.5t17.5 43t44.5 17t44.5 -17t17.5 -43t-17.5 -43.5t-44.5 -17.5zM68 0v485h108v-485h-108z" />
    <glyph glyph-name="eth" unicode="&#xf0;" horiz-adv-x="578" 
d="M382 625q158 -114 158 -325q0 -142 -69 -227t-185 -85q-114 0 -183.5 67.5t-69.5 174.5q0 103 62.5 171t157.5 68q128 0 179 -92q-18 117 -117 187l-57 -52h-95l93 85q-59 27 -139 39l48 73q87 -12 160 -49l47 43h95zM286 76q63 0 100 45t37 118q0 64 -37 103.5
t-101 39.5t-101 -41.5t-37 -110.5q0 -70 37.5 -112t101.5 -42z" />
    <glyph glyph-name="ntilde" unicode="&#xf1;" horiz-adv-x="575" 
d="M135 553q0 60 26 92.5t71 32.5q35 0 67 -23t45 -23q29 0 31 46h75q-1 -60 -26.5 -92t-70.5 -32q-35 0 -67 23t-44 23q-30 0 -32 -47h-75zM68 0v485h105v-64q51 76 152 76q89 0 137.5 -51.5t48.5 -143.5v-302h-108v287q0 119 -106 119q-53 0 -87 -32t-34 -90v-284h-108z
" />
    <glyph glyph-name="ograve" unicode="&#xf2;" horiz-adv-x="574" 
d="M251 544l-123 143h121l92 -143h-90zM287 -12q-109 0 -181.5 72t-72.5 183t72.5 182.5t181.5 71.5t181 -71.5t72 -182.5t-72 -183t-181 -72zM287 76q64 0 102.5 45t38.5 122q0 76 -39 121t-102 45q-64 0 -102.5 -44.5t-38.5 -121.5t38.5 -122t102.5 -45z" />
    <glyph glyph-name="oacute" unicode="&#xf3;" horiz-adv-x="574" 
d="M236 544l92 143h120l-124 -143h-88zM287 -12q-109 0 -181.5 72t-72.5 183t72.5 182.5t181.5 71.5t181 -71.5t72 -182.5t-72 -183t-181 -72zM287 76q64 0 102.5 45t38.5 122q0 76 -39 121t-102 45q-64 0 -102.5 -44.5t-38.5 -121.5t38.5 -122t102.5 -45z" />
    <glyph glyph-name="ocircumflex" unicode="&#xf4;" horiz-adv-x="574" 
d="M131 544l107 143h98l107 -143h-95l-63 74l-63 -74h-91zM287 -12q-109 0 -181.5 72t-72.5 183t72.5 182.5t181.5 71.5t181 -71.5t72 -182.5t-72 -183t-181 -72zM287 76q64 0 102.5 45t38.5 122q0 76 -39 121t-102 45q-64 0 -102.5 -44.5t-38.5 -121.5t38.5 -122t102.5 -45
z" />
    <glyph glyph-name="otilde" unicode="&#xf5;" horiz-adv-x="574" 
d="M126 553q0 60 26 92.5t71 32.5q35 0 67 -23t45 -23q29 0 31 46h75q-1 -60 -26.5 -92t-70.5 -32q-35 0 -67 23t-44 23q-30 0 -32 -47h-75zM287 -12q-109 0 -181.5 72t-72.5 183t72.5 182.5t181.5 71.5t181 -71.5t72 -182.5t-72 -183t-181 -72zM287 76q64 0 102.5 45
t38.5 122q0 76 -39 121t-102 45q-64 0 -102.5 -44.5t-38.5 -121.5t38.5 -122t102.5 -45z" />
    <glyph glyph-name="odieresis" unicode="&#xf6;" horiz-adv-x="574" 
d="M188 555q-27 0 -45 17.5t-18 43.5t18 43t45 17q26 0 44 -17.5t18 -42.5q0 -26 -18 -43.5t-44 -17.5zM387 555q-27 0 -44.5 17.5t-17.5 43.5t17.5 43t44.5 17t44.5 -17t17.5 -43t-17.5 -43.5t-44.5 -17.5zM287 -12q-109 0 -181.5 72t-72.5 183t72.5 182.5t181.5 71.5
t181 -71.5t72 -182.5t-72 -183t-181 -72zM287 76q64 0 102.5 45t38.5 122q0 76 -39 121t-102 45q-64 0 -102.5 -44.5t-38.5 -121.5t38.5 -122t102.5 -45z" />
    <glyph glyph-name="divide" unicode="&#xf7;" horiz-adv-x="496" 
d="M248 409q-24 0 -40 16t-16 40t16 40.5t40 16.5t40 -16.5t16 -40.5t-16 -40t-40 -16zM38 251v91h420v-91h-420zM248 71q-24 0 -40 16t-16 40t16 40t40 16t40 -16t16 -40t-16 -40t-40 -16z" />
    <glyph glyph-name="oslash" unicode="&#xf8;" horiz-adv-x="578" 
d="M543 485l-62 -72q59 -69 59 -170q0 -112 -71 -183.5t-182 -71.5q-81 0 -143 40l-24 -28h-89l62 71q-60 71 -60 172q0 112 71 183t183 71q81 0 143 -40l24 28h89zM144 243q0 -54 18 -93l206 237q-32 24 -81 24q-67 0 -105 -45t-38 -123zM429 243q0 53 -18 91l-206 -236
q33 -24 82 -24q66 0 104 45.5t38 123.5z" />
    <glyph glyph-name="ugrave" unicode="&#xf9;" horiz-adv-x="567" 
d="M247 544l-123 143h121l92 -143h-90zM245 -12q-87 0 -134.5 52t-47.5 144v301h109v-290q0 -116 101 -116q52 0 85 31.5t33 87.5v287h109v-485h-105v65q-53 -77 -150 -77z" />
    <glyph glyph-name="uacute" unicode="&#xfa;" horiz-adv-x="567" 
d="M232 544l92 143h120l-124 -143h-88zM245 -12q-87 0 -134.5 52t-47.5 144v301h109v-290q0 -116 101 -116q52 0 85 31.5t33 87.5v287h109v-485h-105v65q-53 -77 -150 -77z" />
    <glyph glyph-name="ucircumflex" unicode="&#xfb;" horiz-adv-x="567" 
d="M127 544l107 143h98l107 -143h-95l-63 74l-63 -74h-91zM245 -12q-87 0 -134.5 52t-47.5 144v301h109v-290q0 -116 101 -116q52 0 85 31.5t33 87.5v287h109v-485h-105v65q-53 -77 -150 -77z" />
    <glyph glyph-name="udieresis" unicode="&#xfc;" horiz-adv-x="567" 
d="M184 555q-27 0 -45 17.5t-18 43.5t18 43t45 17q26 0 44 -17.5t18 -42.5q0 -26 -18 -43.5t-44 -17.5zM383 555q-27 0 -44.5 17.5t-17.5 43.5t17.5 43t44.5 17t44.5 -17t17.5 -43t-17.5 -43.5t-44.5 -17.5zM245 -12q-87 0 -134.5 52t-47.5 144v301h109v-290
q0 -116 101 -116q52 0 85 31.5t33 87.5v287h109v-485h-105v65q-53 -77 -150 -77z" />
    <glyph glyph-name="yacute" unicode="&#xfd;" horiz-adv-x="502" 
d="M201 544l92 143h120l-124 -143h-88zM127 -222q-85 0 -123 61l66 69q24 -39 60 -39q26 0 42.5 21t33.5 68l16 42h-41l-181 485h116l137 -384l134 384h115l-214 -570q-29 -76 -67.5 -106.5t-93.5 -30.5z" />
    <glyph glyph-name="thorn" unicode="&#xfe;" 
d="M68 -210v905h108v-286q55 88 167 88q96 0 160.5 -73t64.5 -181q0 -109 -64.5 -182t-160.5 -73q-111 0 -167 88v-286h-108zM317 76q64 0 101 45t37 122t-37 121.5t-101 44.5q-59 0 -100 -48t-41 -118q0 -71 41 -119t100 -48z" />
    <glyph glyph-name="ydieresis" unicode="&#xff;" horiz-adv-x="502" 
d="M153 555q-27 0 -45 17.5t-18 43.5t18 43t45 17q26 0 44 -17.5t18 -42.5q0 -26 -18 -43.5t-44 -17.5zM352 555q-27 0 -44.5 17.5t-17.5 43.5t17.5 43t44.5 17t44.5 -17t17.5 -43t-17.5 -43.5t-44.5 -17.5zM127 -222q-85 0 -123 61l66 69q24 -39 60 -39q26 0 42.5 21
t33.5 68l16 42h-41l-181 485h116l137 -384l134 384h115l-214 -570q-29 -76 -67.5 -106.5t-93.5 -30.5z" />
    <glyph glyph-name="Amacron" unicode="&#x100;" horiz-adv-x="679" 
d="M487 868v-83h-296v83h296zM556 0l-68 185h-298l-67 -185h-117l260 695h146l261 -695h-117zM224 277h230l-116 313z" />
    <glyph glyph-name="amacron" unicode="&#x101;" horiz-adv-x="538" 
d="M121 575v83h296v-83h-296zM224 -12q-83 0 -134.5 41.5t-51.5 111.5q0 64 53.5 108.5t134.5 44.5q83 0 140 -53v59q0 52 -26.5 80.5t-75.5 28.5q-99 0 -123 -101l-99 21q20 78 79 123t147 45q96 0 151.5 -50.5t55.5 -147.5v-299h-105v61q-53 -73 -146 -73zM244 68
q72 0 122 72v15q-50 60 -122 60q-42 0 -68 -20.5t-26 -52.5q0 -33 25.5 -53.5t68.5 -20.5z" />
    <glyph glyph-name="Abreve" unicode="&#x102;" horiz-adv-x="679" 
d="M339 751q-66 0 -104 37.5t-38 103.5h77q0 -30 17.5 -47t47.5 -17t47.5 17.5t17.5 46.5h77q0 -67 -37.5 -104t-104.5 -37zM556 0l-68 185h-298l-67 -185h-117l260 695h146l261 -695h-117zM224 277h230l-116 313z" />
    <glyph glyph-name="abreve" unicode="&#x103;" horiz-adv-x="538" 
d="M269 541q-66 0 -104 37.5t-38 103.5h77q0 -30 17.5 -47t47.5 -17t47.5 17.5t17.5 46.5h77q0 -67 -37.5 -104t-104.5 -37zM224 -12q-83 0 -134.5 41.5t-51.5 111.5q0 64 53.5 108.5t134.5 44.5q83 0 140 -53v59q0 52 -26.5 80.5t-75.5 28.5q-99 0 -123 -101l-99 21
q20 78 79 123t147 45q96 0 151.5 -50.5t55.5 -147.5v-299h-105v61q-53 -73 -146 -73zM244 68q72 0 122 72v15q-50 60 -122 60q-42 0 -68 -20.5t-26 -52.5q0 -33 25.5 -53.5t68.5 -20.5z" />
    <glyph glyph-name="Aogonek" unicode="&#x104;" horiz-adv-x="679" 
d="M659 -116l28 -68q-32 -23 -85 -23q-48 0 -79.5 21t-31.5 65q0 66 83 121h-18l-68 185h-298l-67 -185h-117l260 695h146l261 -695q-44 -32 -64 -53.5t-20 -42.5q0 -33 35 -33q16 0 35 13zM224 277h230l-116 313z" />
    <glyph glyph-name="aogonek" unicode="&#x105;" horiz-adv-x="538" 
d="M461 -116l28 -68q-32 -23 -85 -23q-48 0 -79.5 21t-31.5 65q0 66 83 121h-6v61q-53 -73 -146 -73q-83 0 -134.5 41.5t-51.5 111.5q0 64 53.5 108.5t134.5 44.5q83 0 140 -53v59q0 52 -26.5 80.5t-75.5 28.5q-99 0 -123 -101l-99 21q20 78 79 123t147 45q96 0 151.5 -50.5
t55.5 -147.5v-299q-44 -32 -64 -53.5t-20 -42.5q0 -33 35 -33q16 0 35 13zM366 140v15q-50 60 -122 60q-42 0 -68 -20.5t-26 -52.5q0 -33 25.5 -53.5t68.5 -20.5q72 0 122 72z" />
    <glyph glyph-name="Cacute" unicode="&#x106;" horiz-adv-x="740" 
d="M335 754l92 143h120l-124 -143h-88zM384 -14q-149 0 -244 101.5t-95 259.5q0 157 96.5 259.5t244.5 102.5q125 0 204.5 -69.5t108.5 -198.5l-109 -30q-48 198 -206 198q-98 0 -160 -73.5t-62 -188.5q0 -114 62 -187.5t161 -73.5q81 0 131.5 41t74.5 129l113 -21
q-64 -249 -320 -249z" />
    <glyph glyph-name="cacute" unicode="&#x107;" horiz-adv-x="533" 
d="M219 544l92 143h120l-124 -143h-88zM280 -12q-111 0 -179 67.5t-68 187.5q0 109 68.5 181.5t171.5 72.5q90 0 153.5 -51.5t80.5 -152.5l-101 -27q-27 143 -130 143q-61 0 -95.5 -44.5t-34.5 -121.5t36 -122t99 -45q88 0 134 109l89 -47q-74 -150 -224 -150z" />
    <glyph glyph-name="Ccircumflex" unicode="&#x108;" horiz-adv-x="740" 
d="M230 754l107 143h98l107 -143h-95l-63 74l-63 -74h-91zM384 -14q-149 0 -244 101.5t-95 259.5q0 157 96.5 259.5t244.5 102.5q125 0 204.5 -69.5t108.5 -198.5l-109 -30q-48 198 -206 198q-98 0 -160 -73.5t-62 -188.5q0 -114 62 -187.5t161 -73.5q81 0 131.5 41
t74.5 129l113 -21q-64 -249 -320 -249z" />
    <glyph glyph-name="ccircumflex" unicode="&#x109;" horiz-adv-x="533" 
d="M114 544l107 143h98l107 -143h-95l-63 74l-63 -74h-91zM280 -12q-111 0 -179 67.5t-68 187.5q0 109 68.5 181.5t171.5 72.5q90 0 153.5 -51.5t80.5 -152.5l-101 -27q-27 143 -130 143q-61 0 -95.5 -44.5t-34.5 -121.5t36 -122t99 -45q88 0 134 109l89 -47
q-74 -150 -224 -150z" />
    <glyph glyph-name="Cdotaccent" unicode="&#x10a;" horiz-adv-x="740" 
d="M386 765q-26 0 -44.5 17.5t-18.5 43.5t18 43t45 17t45 -17t18 -43t-18.5 -43.5t-44.5 -17.5zM384 -14q-149 0 -244 101.5t-95 259.5q0 157 96.5 259.5t244.5 102.5q125 0 204.5 -69.5t108.5 -198.5l-109 -30q-48 198 -206 198q-98 0 -160 -73.5t-62 -188.5
q0 -114 62 -187.5t161 -73.5q81 0 131.5 41t74.5 129l113 -21q-64 -249 -320 -249z" />
    <glyph glyph-name="cdotaccent" unicode="&#x10b;" horiz-adv-x="533" 
d="M270 555q-26 0 -44.5 17.5t-18.5 43.5t18 43t45 17t45 -17t18 -43t-18.5 -43.5t-44.5 -17.5zM280 -12q-111 0 -179 67.5t-68 187.5q0 109 68.5 181.5t171.5 72.5q90 0 153.5 -51.5t80.5 -152.5l-101 -27q-27 143 -130 143q-61 0 -95.5 -44.5t-34.5 -121.5t36 -122t99 -45
q88 0 134 109l89 -47q-74 -150 -224 -150z" />
    <glyph glyph-name="Ccaron" unicode="&#x10c;" horiz-adv-x="740" 
d="M542 897l-107 -143h-98l-107 143h95l63 -74l63 74h91zM384 -14q-149 0 -244 101.5t-95 259.5q0 157 96.5 259.5t244.5 102.5q125 0 204.5 -69.5t108.5 -198.5l-109 -30q-48 198 -206 198q-98 0 -160 -73.5t-62 -188.5q0 -114 62 -187.5t161 -73.5q81 0 131.5 41t74.5 129
l113 -21q-64 -249 -320 -249z" />
    <glyph glyph-name="ccaron" unicode="&#x10d;" horiz-adv-x="533" 
d="M426 687l-107 -143h-98l-107 143h95l63 -74l63 74h91zM280 -12q-111 0 -179 67.5t-68 187.5q0 109 68.5 181.5t171.5 72.5q90 0 153.5 -51.5t80.5 -152.5l-101 -27q-27 143 -130 143q-61 0 -95.5 -44.5t-34.5 -121.5t36 -122t99 -45q88 0 134 109l89 -47
q-74 -150 -224 -150z" />
    <glyph glyph-name="Dcaron" unicode="&#x10e;" horiz-adv-x="743" 
d="M461 897l-107 -143h-98l-107 143h95l63 -74l63 74h91zM81 0v695h260q95 0 174.5 -38.5t131 -119t51.5 -190.5q0 -162 -104.5 -254.5t-252.5 -92.5h-260zM192 100h133q110 0 183 60.5t73 187.5q0 65 -21 114.5t-57.5 77.5t-81 41.5t-96.5 13.5h-133v-495z" />
    <glyph glyph-name="dcaron" unicode="&#x10f;" horiz-adv-x="683" 
d="M579 521l21 175h99l-43 -175h-77zM259 -12q-97 0 -161.5 73.5t-64.5 181.5t64.5 181t160.5 73q113 0 167 -85v283h108v-695h-105v80q-56 -92 -169 -92zM284 76q59 0 100 48t41 119q0 70 -41 118t-100 48q-64 0 -101 -44.5t-37 -121.5t37 -122t101 -45z" />
    <glyph glyph-name="Dcroat" unicode="&#x110;" horiz-adv-x="743" 
d="M341 695q95 0 174.5 -38.5t131 -119t51.5 -190.5q0 -162 -104.5 -254.5t-252.5 -92.5h-260v313h-61v84h61v298h260zM325 100q110 0 183 60.5t73 187.5q0 65 -21 114.5t-57.5 77.5t-81 41.5t-96.5 13.5h-133v-198h178v-84h-178v-213h133z" />
    <glyph glyph-name="dcroat" unicode="&#x111;" 
d="M601 624v-71h-68v-553h-105v80q-56 -92 -169 -92q-97 0 -161.5 73.5t-64.5 181.5t64.5 181t160.5 73q113 0 167 -85v141h-138v71h138v71h108v-71h68zM284 76q59 0 100 48t41 119q0 70 -41 118t-100 48q-64 0 -101 -44.5t-37 -121.5t37 -122t101 -45z" />
    <glyph glyph-name="Emacron" unicode="&#x112;" horiz-adv-x="609" 
d="M174 785v83h296v-83h-296zM81 0v695h484v-97h-373v-198h302v-97h-302v-206h375v-97h-486z" />
    <glyph glyph-name="emacron" unicode="&#x113;" horiz-adv-x="554" 
d="M428 658v-83h-296v83h296zM430 172l85 -47q-69 -137 -227 -137q-111 0 -183 70.5t-72 184.5q0 112 70.5 183t177.5 71q106 0 167.5 -67.5t61.5 -179.5q0 -25 -1 -32h-362q5 -66 42.5 -104t99.5 -38q91 0 141 96zM278 412q-53 0 -88 -32t-42 -88h251q-5 58 -35.5 89
t-85.5 31z" />
    <glyph glyph-name="Ebreve" unicode="&#x114;" horiz-adv-x="609" 
d="M322 751q-66 0 -104 37.5t-38 103.5h77q0 -30 17.5 -47t47.5 -17t47.5 17.5t17.5 46.5h77q0 -67 -37.5 -104t-104.5 -37zM81 0v695h484v-97h-373v-198h302v-97h-302v-206h375v-97h-486z" />
    <glyph glyph-name="ebreve" unicode="&#x115;" horiz-adv-x="554" 
d="M280 541q-66 0 -104 37.5t-38 103.5h77q0 -30 17.5 -47t47.5 -17t47.5 17.5t17.5 46.5h77q0 -67 -37.5 -104t-104.5 -37zM430 172l85 -47q-69 -137 -227 -137q-111 0 -183 70.5t-72 184.5q0 112 70.5 183t177.5 71q106 0 167.5 -67.5t61.5 -179.5q0 -25 -1 -32h-362
q5 -66 42.5 -104t99.5 -38q91 0 141 96zM278 412q-53 0 -88 -32t-42 -88h251q-5 58 -35.5 89t-85.5 31z" />
    <glyph glyph-name="Edotaccent" unicode="&#x116;" horiz-adv-x="609" 
d="M322 765q-26 0 -44.5 17.5t-18.5 43.5t18 43t45 17t45 -17t18 -43t-18.5 -43.5t-44.5 -17.5zM81 0v695h484v-97h-373v-198h302v-97h-302v-206h375v-97h-486z" />
    <glyph glyph-name="edotaccent" unicode="&#x117;" horiz-adv-x="554" 
d="M280 555q-26 0 -44.5 17.5t-18.5 43.5t18 43t45 17t45 -17t18 -43t-18.5 -43.5t-44.5 -17.5zM430 172l85 -47q-69 -137 -227 -137q-111 0 -183 70.5t-72 184.5q0 112 70.5 183t177.5 71q106 0 167.5 -67.5t61.5 -179.5q0 -25 -1 -32h-362q5 -66 42.5 -104t99.5 -38
q91 0 141 96zM278 412q-53 0 -88 -32t-42 -88h251q-5 58 -35.5 89t-85.5 31z" />
    <glyph glyph-name="Eogonek" unicode="&#x118;" horiz-adv-x="609" 
d="M553 -116l28 -68q-32 -23 -85 -23q-48 0 -79.5 21t-31.5 65q0 66 83 121h-387v695h484v-97h-373v-198h302v-97h-302v-206h375v-97q-44 -32 -64 -53.5t-20 -42.5q0 -33 35 -33q16 0 35 13z" />
    <glyph glyph-name="eogonek" unicode="&#x119;" horiz-adv-x="554" 
d="M424 23q-53 -35 -78.5 -61.5t-25.5 -57.5q0 -33 35 -33q18 0 35 13l28 -68q-31 -23 -86 -23q-47 0 -78.5 21t-31.5 65q0 58 69 109h-3q-111 0 -183 70.5t-72 184.5q0 112 70.5 183t177.5 71q106 0 167.5 -67.5t61.5 -179.5q0 -25 -1 -32h-362q5 -66 42.5 -104t99.5 -38
q91 0 141 96l85 -47q-32 -66 -91 -102zM278 412q-53 0 -88 -32t-42 -88h251q-5 58 -35.5 89t-85.5 31z" />
    <glyph glyph-name="Ecaron" unicode="&#x11a;" horiz-adv-x="609" 
d="M478 897l-107 -143h-98l-107 143h95l63 -74l63 74h91zM81 0v695h484v-97h-373v-198h302v-97h-302v-206h375v-97h-486z" />
    <glyph glyph-name="ecaron" unicode="&#x11b;" horiz-adv-x="554" 
d="M329 544h-98l-107 143h95l63 -74l63 74h91zM430 172l85 -47q-69 -137 -227 -137q-111 0 -183 70.5t-72 184.5q0 112 70.5 183t177.5 71q106 0 167.5 -67.5t61.5 -179.5q0 -25 -1 -32h-362q5 -66 42.5 -104t99.5 -38q91 0 141 96zM278 412q-53 0 -88 -32t-42 -88h251
q-5 58 -35.5 89t-85.5 31z" />
    <glyph glyph-name="Gcircumflex" unicode="&#x11c;" horiz-adv-x="806" 
d="M232 754l107 143h98l107 -143h-95l-63 74l-63 -74h-91zM382 -14q-147 0 -242 101t-95 260q0 157 98 259.5t248 102.5q124 0 203.5 -58.5t106.5 -167.5l-110 -31q-42 158 -202 158q-100 0 -163.5 -73.5t-63.5 -189.5q0 -120 66.5 -191.5t168.5 -71.5q90 0 155.5 55.5
t71.5 151.5h-224v93h330v-384h-103v119q-36 -66 -99.5 -99.5t-145.5 -33.5z" />
    <glyph glyph-name="gcircumflex" unicode="&#x11d;" horiz-adv-x="564" 
d="M457 489q-23 0 -40 -39q53 -45 53 -119q0 -78 -56.5 -122t-143.5 -44q-48 0 -88 14q-38 -13 -38 -43q0 -17 12 -28t33 -11h179q186 0 186 -141q0 -80 -75.5 -129t-187.5 -49q-130 0 -197 38t-67 104q0 64 75 101q-52 33 -52 92q0 66 70 102q-50 45 -50 116q0 78 56.5 122
t143.5 44q47 0 85 -13q18 38 45 60h-70l-63 74l-63 -74h-91l107 143h98l99 -132q23 13 53 13q40 0 68 -26.5t28 -82.5v-16l-75 -12q-3 58 -34 58zM270 243q42 0 69 23t27 65q0 41 -27.5 64t-68.5 23t-68 -23t-27 -64q0 -42 26.5 -65t68.5 -23zM355 -4h-146
q-35 0 -56.5 -16.5t-21.5 -42.5q0 -76 159 -76q68 0 112 23.5t44 60.5q0 27 -21.5 39t-69.5 12z" />
    <glyph glyph-name="Gbreve" unicode="&#x11e;" horiz-adv-x="806" 
d="M388 751q-66 0 -104 37.5t-38 103.5h77q0 -30 17.5 -47t47.5 -17t47.5 17.5t17.5 46.5h77q0 -67 -37.5 -104t-104.5 -37zM382 -14q-147 0 -242 101t-95 260q0 157 98 259.5t248 102.5q124 0 203.5 -58.5t106.5 -167.5l-110 -31q-42 158 -202 158q-100 0 -163.5 -73.5
t-63.5 -189.5q0 -120 66.5 -191.5t168.5 -71.5q90 0 155.5 55.5t71.5 151.5h-224v93h330v-384h-103v119q-36 -66 -99.5 -99.5t-145.5 -33.5z" />
    <glyph glyph-name="gbreve" unicode="&#x11f;" horiz-adv-x="564" 
d="M269 541q-66 0 -104 37.5t-38 103.5h77q0 -30 17.5 -47t47.5 -17t47.5 17.5t17.5 46.5h77q0 -67 -37.5 -104t-104.5 -37zM457 489q-23 0 -40 -39q53 -45 53 -119q0 -78 -56.5 -122t-143.5 -44q-48 0 -88 14q-38 -13 -38 -43q0 -17 12 -28t33 -11h179q186 0 186 -141
q0 -80 -75.5 -129t-187.5 -49q-130 0 -197 38t-67 104q0 64 75 101q-52 33 -52 92q0 66 70 102q-50 45 -50 116q0 78 56.5 122t143.5 44q47 0 85 -13q41 84 115 84q40 0 68 -26.5t28 -82.5v-16l-75 -12q-3 58 -34 58zM270 243q42 0 69 23t27 65q0 41 -27.5 64t-68.5 23
t-68 -23t-27 -64q0 -42 26.5 -65t68.5 -23zM355 -4h-146q-35 0 -56.5 -16.5t-21.5 -42.5q0 -76 159 -76q68 0 112 23.5t44 60.5q0 27 -21.5 39t-69.5 12z" />
    <glyph glyph-name="Gdotaccent" unicode="&#x120;" horiz-adv-x="806" 
d="M388 765q-26 0 -44.5 17.5t-18.5 43.5t18 43t45 17t45 -17t18 -43t-18.5 -43.5t-44.5 -17.5zM382 -14q-147 0 -242 101t-95 260q0 157 98 259.5t248 102.5q124 0 203.5 -58.5t106.5 -167.5l-110 -31q-42 158 -202 158q-100 0 -163.5 -73.5t-63.5 -189.5
q0 -120 66.5 -191.5t168.5 -71.5q90 0 155.5 55.5t71.5 151.5h-224v93h330v-384h-103v119q-36 -66 -99.5 -99.5t-145.5 -33.5z" />
    <glyph glyph-name="gdotaccent" unicode="&#x121;" horiz-adv-x="564" 
d="M269 555q-26 0 -44.5 17.5t-18.5 43.5t18 43t45 17t45 -17t18 -43t-18.5 -43.5t-44.5 -17.5zM457 489q-23 0 -40 -39q53 -45 53 -119q0 -78 -56.5 -122t-143.5 -44q-48 0 -88 14q-38 -13 -38 -43q0 -17 12 -28t33 -11h179q186 0 186 -141q0 -80 -75.5 -129t-187.5 -49
q-130 0 -197 38t-67 104q0 64 75 101q-52 33 -52 92q0 66 70 102q-50 45 -50 116q0 78 56.5 122t143.5 44q47 0 85 -13q41 84 115 84q40 0 68 -26.5t28 -82.5v-16l-75 -12q-3 58 -34 58zM270 243q42 0 69 23t27 65q0 41 -27.5 64t-68.5 23t-68 -23t-27 -64q0 -42 26.5 -65
t68.5 -23zM355 -4h-146q-35 0 -56.5 -16.5t-21.5 -42.5q0 -76 159 -76q68 0 112 23.5t44 60.5q0 27 -21.5 39t-69.5 12z" />
    <glyph glyph-name="uni0122" unicode="&#x122;" horiz-adv-x="806" 
d="M382 -14q-147 0 -242 101t-95 260q0 157 98 259.5t248 102.5q124 0 203.5 -58.5t106.5 -167.5l-110 -31q-42 158 -202 158q-100 0 -163.5 -73.5t-63.5 -189.5q0 -120 66.5 -191.5t168.5 -71.5q90 0 155.5 55.5t71.5 151.5h-224v93h330v-384h-103v119q-36 -66 -99.5 -99.5
t-145.5 -33.5zM301 -231l42 168h99l-54 -168h-87z" />
    <glyph glyph-name="uni0123" unicode="&#x123;" horiz-adv-x="564" 
d="M356 712l-42 -168h-99l55 168h86zM457 489q-23 0 -40 -39q53 -45 53 -119q0 -78 -56.5 -122t-143.5 -44q-48 0 -88 14q-38 -13 -38 -43q0 -17 12 -28t33 -11h179q186 0 186 -141q0 -80 -75.5 -129t-187.5 -49q-130 0 -197 38t-67 104q0 64 75 101q-52 33 -52 92
q0 66 70 102q-50 45 -50 116q0 78 56.5 122t143.5 44q47 0 85 -13q41 84 115 84q40 0 68 -26.5t28 -82.5v-16l-75 -12q-3 58 -34 58zM270 243q42 0 69 23t27 65q0 41 -27.5 64t-68.5 23t-68 -23t-27 -64q0 -42 26.5 -65t68.5 -23zM355 -4h-146q-35 0 -56.5 -16.5
t-21.5 -42.5q0 -76 159 -76q68 0 112 23.5t44 60.5q0 27 -21.5 39t-69.5 12z" />
    <glyph glyph-name="Hcircumflex" unicode="&#x124;" horiz-adv-x="747" 
d="M217 754l107 143h98l107 -143h-95l-63 74l-63 -74h-91zM81 0v695h111v-290h363v290h111v-695h-111v305h-363v-305h-111z" />
    <glyph glyph-name="hcircumflex" unicode="&#x125;" horiz-adv-x="575" 
d="M-34 736l107 143h98l107 -143h-95l-63 74l-63 -74h-91zM68 0v695h108v-274q51 76 153 76q87 0 134.5 -51.5t47.5 -143.5v-302h-108v287q0 119 -106 119q-53 0 -87 -32t-34 -90v-284h-108z" />
    <glyph glyph-name="Hbar" unicode="&#x126;" horiz-adv-x="747" 
d="M730 582v-84h-64v-498h-111v290h-363v-290h-111v498h-65v84h65v113h111v-113h363v113h111v-113h64zM555 388v110h-363v-110h363z" />
    <glyph glyph-name="hbar" unicode="&#x127;" horiz-adv-x="575" 
d="M329 497q87 0 134.5 -51.5t47.5 -143.5v-302h-108v287q0 119 -106 119q-53 0 -87 -32t-34 -90v-284h-108v553h-68v71h68v71h108v-71h138v-71h-138v-132q51 76 153 76z" />
    <glyph glyph-name="Itilde" unicode="&#x128;" horiz-adv-x="272" 
d="M-24 763q0 60 26 92.5t71 32.5q35 0 67 -23t45 -23q29 0 31 46h75q-1 -60 -26.5 -92t-70.5 -32q-35 0 -67 23t-44 23q-30 0 -32 -47h-75zM81 0v695h111v-695h-111z" />
    <glyph glyph-name="itilde" unicode="&#x129;" horiz-adv-x="243" 
d="M-39 553q0 60 26 92.5t71 32.5q35 0 67 -23t45 -23q29 0 31 46h75q-1 -60 -26.5 -92t-70.5 -32q-35 0 -67 23t-44 23q-30 0 -32 -47h-75zM68 0v485h108v-485h-108z" />
    <glyph glyph-name="Imacron" unicode="&#x12a;" horiz-adv-x="272" 
d="M-11 785v83h296v-83h-296zM81 0v695h111v-695h-111z" />
    <glyph glyph-name="imacron" unicode="&#x12b;" horiz-adv-x="243" 
d="M-26 575v83h296v-83h-296zM68 0v485h108v-485h-108z" />
    <glyph glyph-name="Ibreve" unicode="&#x12c;" horiz-adv-x="272" 
d="M137 751q-66 0 -104 37.5t-38 103.5h77q0 -30 17.5 -47t47.5 -17t47.5 17.5t17.5 46.5h77q0 -67 -37.5 -104t-104.5 -37zM81 0v695h111v-695h-111z" />
    <glyph glyph-name="ibreve" unicode="&#x12d;" horiz-adv-x="243" 
d="M122 541q-66 0 -104 37.5t-38 103.5h77q0 -30 17.5 -47t47.5 -17t47.5 17.5t17.5 46.5h77q0 -67 -37.5 -104t-104.5 -37zM68 0v485h108v-485h-108z" />
    <glyph glyph-name="Iogonek" unicode="&#x12e;" horiz-adv-x="272" 
d="M193 -116l28 -68q-32 -23 -85 -23q-48 0 -79.5 21t-31.5 65q0 65 73 121h-17v695h111v-695q-37 -33 -53 -54.5t-16 -41.5q0 -33 34 -33q17 0 36 13z" />
    <glyph glyph-name="iogonek" unicode="&#x12f;" horiz-adv-x="243" 
d="M122 567q-29 0 -48 18t-19 46t19 46.5t48 18.5q28 0 47.5 -18.5t19.5 -46.5q0 -27 -19.5 -45.5t-47.5 -18.5zM177 -116l28 -68q-32 -23 -85 -23q-48 0 -79.5 21t-31.5 65q0 65 73 121h-14v485h108v-485q-37 -33 -53 -54.5t-16 -41.5q0 -33 34 -33q17 0 36 13z" />
    <glyph glyph-name="Idotaccent" unicode="&#x130;" horiz-adv-x="272" 
d="M137 765q-26 0 -44.5 17.5t-18.5 43.5t18 43t45 17t45 -17t18 -43t-18.5 -43.5t-44.5 -17.5zM81 0v695h111v-695h-111z" />
    <glyph glyph-name="dotlessi" unicode="&#x131;" horiz-adv-x="243" 
d="M68 0v485h108v-485h-108z" />
    <glyph glyph-name="IJ" unicode="&#x132;" horiz-adv-x="700" 
d="M71 328v367h111v-367h-111zM351 -14q-136 0 -206 65.5t-70 167.5q0 23 2 33h109v-24q0 -63 43.5 -103t121.5 -40q167 0 167 186v424h112v-432q0 -133 -73 -205t-206 -72z" />
    <glyph glyph-name="ij" unicode="&#x133;" horiz-adv-x="487" 
d="M122 567q-29 0 -48 18t-19 46t19 46.5t48 18.5q28 0 47.5 -18.5t19.5 -46.5q0 -27 -19.5 -45.5t-47.5 -18.5zM365 567q-29 0 -48 18t-19 46t19 46.5t48 18.5q28 0 47.5 -18.5t19.5 -46.5q0 -27 -19.5 -45.5t-47.5 -18.5zM68 0v485h108v-485h-108zM282 -222q-72 0 -119 40
l40 85q29 -34 63 -34q45 0 45 58v558h108v-560q0 -78 -38.5 -112.5t-98.5 -34.5z" />
    <glyph glyph-name="Jcircumflex" unicode="&#x134;" horiz-adv-x="591" 
d="M310 754l107 143h98l107 -143h-95l-63 74l-63 -74h-91zM276 -14q-114 0 -176 62.5t-62 163.5q0 41 10 81l109 -20q-6 -27 -6 -56q0 -61 32 -96.5t93 -35.5q133 0 133 170v440h112v-462q0 -117 -65 -182t-180 -65z" />
    <glyph glyph-name="jcircumflex" unicode="&#x135;" horiz-adv-x="243" 
d="M-34 544l107 143h98l107 -143h-95l-63 74l-63 -74h-91zM39 -222q-72 0 -119 40l40 85q29 -34 63 -34q45 0 45 58v558h108v-560q0 -78 -38.5 -112.5t-98.5 -34.5z" />
    <glyph glyph-name="uni0136" unicode="&#x136;" horiz-adv-x="676" 
d="M639 101q13 0 20 3v-103q-18 -4 -27 -4q-86 0 -143 47.5t-147 180.5l-62 92l-88 -93v-224h-111v695h111v-346l315 346h137l-280 -304l80 -115q71 -103 110 -139t85 -36zM271 -231l42 168h99l-54 -168h-87z" />
    <glyph glyph-name="uni0137" unicode="&#x137;" horiz-adv-x="539" 
d="M505 92q13 0 24 3l-1 -96q-20 -4 -45 -4q-65 0 -109.5 33t-94.5 110l-49 78l-54 -53v-163h-108v695h108v-424l212 214h134l-208 -203l49 -76q45 -68 71.5 -91t70.5 -23zM174 -231l42 168h99l-54 -168h-87z" />
    <glyph glyph-name="kgreenlandic" unicode="&#x138;" horiz-adv-x="539" 
d="M505 92q13 0 24 3l-1 -96q-20 -4 -45 -4q-65 0 -110.5 34t-93.5 109l-51 80l-52 -49v-169h-108v485h108v-211l211 211h134l-208 -201l50 -78q43 -67 70 -90.5t72 -23.5z" />
    <glyph glyph-name="Lacute" unicode="&#x139;" horiz-adv-x="556" 
d="M86 754l92 143h120l-124 -143h-88zM81 0v695h111v-595h354v-100h-465z" />
    <glyph glyph-name="lacute" unicode="&#x13a;" horiz-adv-x="243" 
d="M71 736l92 143h120l-124 -143h-88zM68 0v695h108v-695h-108z" />
    <glyph glyph-name="uni013B" unicode="&#x13b;" horiz-adv-x="556" 
d="M81 0v695h111v-595h354v-100h-465zM221 -231l42 168h99l-54 -168h-87z" />
    <glyph glyph-name="uni013C" unicode="&#x13c;" horiz-adv-x="243" 
d="M68 0v695h108v-695h-108zM31 -231l42 168h99l-54 -168h-87z" />
    <glyph glyph-name="Lcaron" unicode="&#x13d;" horiz-adv-x="556" 
d="M81 0v695h111v-595h354v-100h-465zM256 520l21 175h99l-43 -175h-77z" />
    <glyph glyph-name="lcaron" unicode="&#x13e;" horiz-adv-x="325" 
d="M68 0v695h108v-695h-108zM221 520l21 175h99l-43 -175h-77z" />
    <glyph glyph-name="Ldot" unicode="&#x13f;" horiz-adv-x="556" 
d="M81 0v695h111v-595h354v-100h-465zM414 291q-30 0 -51 21.5t-21 51.5t21 50.5t51 20.5q31 0 52 -20.5t21 -50.5q0 -31 -21 -52t-52 -21z" />
    <glyph glyph-name="ldot" unicode="&#x140;" horiz-adv-x="334" 
d="M68 0v695h108v-695h-108zM288 276q-30 0 -51 21t-21 52q0 30 21 50.5t51 20.5q31 0 52 -20.5t21 -50.5q0 -31 -21 -52t-52 -21z" />
    <glyph glyph-name="Lslash" unicode="&#x141;" horiz-adv-x="556" 
d="M192 100h354v-100h-465v316l-60 -22v88l60 22v291h111v-249l174 65v-88l-174 -65v-258z" />
    <glyph glyph-name="lslash" unicode="&#x142;" horiz-adv-x="243" 
d="M254 447v-77l-78 -32v-338h-108v293l-78 -32v77l78 32v325h108v-280z" />
    <glyph glyph-name="Nacute" unicode="&#x143;" horiz-adv-x="736" 
d="M319 754l92 143h120l-124 -143h-88zM81 0v695h115l353 -524v524h106v-695h-115l-353 523v-523h-106z" />
    <glyph glyph-name="nacute" unicode="&#x144;" horiz-adv-x="575" 
d="M245 544l92 143h120l-124 -143h-88zM68 0v485h105v-64q51 76 152 76q89 0 137.5 -51.5t48.5 -143.5v-302h-108v287q0 119 -106 119q-53 0 -87 -32t-34 -90v-284h-108z" />
    <glyph glyph-name="uni0145" unicode="&#x145;" horiz-adv-x="736" 
d="M81 0v695h115l353 -524v524h106v-695h-115l-353 523v-523h-106zM271 -231l42 168h99l-54 -168h-87z" />
    <glyph glyph-name="uni0146" unicode="&#x146;" horiz-adv-x="575" 
d="M68 0v485h105v-64q51 76 152 76q89 0 137.5 -51.5t48.5 -143.5v-302h-108v287q0 119 -106 119q-53 0 -87 -32t-34 -90v-284h-108zM195 -231l42 168h99l-54 -168h-87z" />
    <glyph glyph-name="Ncaron" unicode="&#x147;" horiz-adv-x="736" 
d="M526 897l-107 -143h-98l-107 143h95l63 -74l63 74h91zM81 0v695h115l353 -524v524h106v-695h-115l-353 523v-523h-106z" />
    <glyph glyph-name="ncaron" unicode="&#x148;" horiz-adv-x="575" 
d="M452 687l-107 -143h-98l-107 143h95l63 -74l63 74h91zM68 0v485h105v-64q51 76 152 76q89 0 137.5 -51.5t48.5 -143.5v-302h-108v287q0 119 -106 119q-53 0 -87 -32t-34 -90v-284h-108z" />
    <glyph glyph-name="napostrophe" unicode="&#x149;" horiz-adv-x="810" 
d="M116 706q33 0 55 -25t22 -67q0 -94 -82 -173l-53 40q47 46 50 91q-26 2 -45 20.5t-19 44.5q0 30 21 49.5t51 19.5zM560 497q89 0 137.5 -51.5t48.5 -143.5v-302h-108v287q0 119 -106 119q-53 0 -87 -32t-34 -90v-284h-108v485h105v-64q51 76 152 76z" />
    <glyph glyph-name="Eng" unicode="&#x14a;" horiz-adv-x="742" 
d="M514 -222q-78 0 -129 44l41 89q33 -38 73 -38q56 0 56 65v65l-365 520v-523h-109v695h118l353 -506v506h109v-764q0 -81 -41.5 -117t-105.5 -36z" />
    <glyph glyph-name="eng" unicode="&#x14b;" horiz-adv-x="575" 
d="M372 -224q-74 0 -121 40l40 85q31 -34 65 -34q47 0 47 58v362q0 119 -106 119q-53 0 -87 -32t-34 -90v-284h-108v485h105v-64q51 76 152 76q89 0 137.5 -51.5t48.5 -143.5v-378q0 -78 -39 -113t-100 -35z" />
    <glyph glyph-name="Omacron" unicode="&#x14c;" horiz-adv-x="793" 
d="M248 785v83h296v-83h-296zM396 -14q-152 0 -251.5 102t-99.5 259t99.5 259.5t251.5 102.5t251.5 -102.5t99.5 -259.5t-99.5 -259t-251.5 -102zM396 86q103 0 168.5 73t65.5 188t-65.5 188.5t-168.5 73.5q-101 0 -167 -73.5t-66 -188.5q0 -114 65.5 -187.5t167.5 -73.5z
" />
    <glyph glyph-name="omacron" unicode="&#x14d;" horiz-adv-x="574" 
d="M139 575v83h296v-83h-296zM287 -12q-109 0 -181.5 72t-72.5 183t72.5 182.5t181.5 71.5t181 -71.5t72 -182.5t-72 -183t-181 -72zM287 76q64 0 102.5 45t38.5 122q0 76 -39 121t-102 45q-64 0 -102.5 -44.5t-38.5 -121.5t38.5 -122t102.5 -45z" />
    <glyph glyph-name="Obreve" unicode="&#x14e;" horiz-adv-x="793" 
d="M396 751q-66 0 -104 37.5t-38 103.5h77q0 -30 17.5 -47t47.5 -17t47.5 17.5t17.5 46.5h77q0 -67 -37.5 -104t-104.5 -37zM396 -14q-152 0 -251.5 102t-99.5 259t99.5 259.5t251.5 102.5t251.5 -102.5t99.5 -259.5t-99.5 -259t-251.5 -102zM396 86q103 0 168.5 73
t65.5 188t-65.5 188.5t-168.5 73.5q-101 0 -167 -73.5t-66 -188.5q0 -114 65.5 -187.5t167.5 -73.5z" />
    <glyph glyph-name="obreve" unicode="&#x14f;" horiz-adv-x="574" 
d="M287 541q-66 0 -104 37.5t-38 103.5h77q0 -30 17.5 -47t47.5 -17t47.5 17.5t17.5 46.5h77q0 -67 -37.5 -104t-104.5 -37zM287 -12q-109 0 -181.5 72t-72.5 183t72.5 182.5t181.5 71.5t181 -71.5t72 -182.5t-72 -183t-181 -72zM287 76q64 0 102.5 45t38.5 122
q0 76 -39 121t-102 45q-64 0 -102.5 -44.5t-38.5 -121.5t38.5 -122t102.5 -45z" />
    <glyph glyph-name="Ohungarumlaut" unicode="&#x150;" horiz-adv-x="793" 
d="M270 754l78 143h111l-109 -143h-80zM437 754l78 143h112l-109 -143h-81zM396 -14q-152 0 -251.5 102t-99.5 259t99.5 259.5t251.5 102.5t251.5 -102.5t99.5 -259.5t-99.5 -259t-251.5 -102zM396 86q103 0 168.5 73t65.5 188t-65.5 188.5t-168.5 73.5q-101 0 -167 -73.5
t-66 -188.5q0 -114 65.5 -187.5t167.5 -73.5z" />
    <glyph glyph-name="ohungarumlaut" unicode="&#x151;" horiz-adv-x="574" 
d="M161 544l78 143h111l-109 -143h-80zM328 544l78 143h112l-109 -143h-81zM287 -12q-109 0 -181.5 72t-72.5 183t72.5 182.5t181.5 71.5t181 -71.5t72 -182.5t-72 -183t-181 -72zM287 76q64 0 102.5 45t38.5 122q0 76 -39 121t-102 45q-64 0 -102.5 -44.5t-38.5 -121.5
t38.5 -122t102.5 -45z" />
    <glyph glyph-name="OE" unicode="&#x152;" horiz-adv-x="1085" 
d="M668 97h375v-97h-486v36q-75 -50 -173 -50q-149 0 -245 102t-96 259q0 158 96 260t245 102q96 0 173 -51v37h484v-97h-373v-198h302v-97h-302v-206zM392 86q100 0 165 71v379q-63 73 -165 73t-167 -74t-65 -188t65 -187.5t167 -73.5z" />
    <glyph glyph-name="oe" unicode="&#x153;" horiz-adv-x="940" 
d="M816 174l85 -49q-69 -137 -227 -137q-127 0 -197 92q-68 -92 -190 -92q-112 0 -183 71t-71 183t71 183.5t183 71.5q126 0 193 -91q67 91 187 91q106 0 167.5 -67.5t61.5 -179.5q0 -25 -1 -32h-362q5 -66 42.5 -104t99.5 -38q91 0 141 98zM664 412q-53 0 -88 -32t-42 -88
h251q-9 120 -121 120zM287 76q66 0 103.5 44.5t37.5 121.5t-37.5 122t-103.5 45t-103.5 -45t-37.5 -122t37.5 -121.5t103.5 -44.5z" />
    <glyph glyph-name="Racute" unicode="&#x154;" horiz-adv-x="675" 
d="M471 897l-124 -143h-88l92 143h120zM633 101q13 0 22 3v-103q-18 -4 -31 -4q-89 0 -150.5 47.5t-126.5 177.5l-32 62h-123v-284h-111v695h296q110 0 174 -55t64 -151q0 -82 -47.5 -134.5t-132.5 -62.5l11 -20q53 -98 95.5 -134.5t91.5 -36.5zM192 598v-217h179
q128 0 128 108q0 109 -129 109h-178z" />
    <glyph glyph-name="racute" unicode="&#x155;" horiz-adv-x="458" 
d="M201 544l92 143h120l-124 -143h-88zM68 0v485h105v-84q40 92 138 92q58 0 96 -38t38 -102q0 -36 -13 -75l-99 10q4 30 4 40q0 75 -62 75q-42 0 -70.5 -44.5t-28.5 -117.5v-241h-108z" />
    <glyph glyph-name="uni0156" unicode="&#x156;" horiz-adv-x="675" 
d="M633 101q13 0 22 3v-103q-18 -4 -31 -4q-89 0 -150.5 47.5t-126.5 177.5l-32 62h-123v-284h-111v695h296q110 0 174 -55t64 -151q0 -82 -47.5 -134.5t-132.5 -62.5l11 -20q53 -98 95.5 -134.5t91.5 -36.5zM192 598v-217h179q128 0 128 108q0 109 -129 109h-178zM277 -231
l42 168h99l-54 -168h-87z" />
    <glyph glyph-name="uni0157" unicode="&#x157;" horiz-adv-x="458" 
d="M68 0v485h105v-84q40 92 138 92q58 0 96 -38t38 -102q0 -36 -13 -75l-99 10q4 30 4 40q0 75 -62 75q-42 0 -70.5 -44.5t-28.5 -117.5v-241h-108zM30 -231l42 168h99l-54 -168h-87z" />
    <glyph glyph-name="Rcaron" unicode="&#x158;" horiz-adv-x="675" 
d="M359 754h-98l-107 143h95l63 -74l63 74h91zM633 101q13 0 22 3v-103q-18 -4 -31 -4q-89 0 -150.5 47.5t-126.5 177.5l-32 62h-123v-284h-111v695h296q110 0 174 -55t64 -151q0 -82 -47.5 -134.5t-132.5 -62.5l11 -20q53 -98 95.5 -134.5t91.5 -36.5zM192 598v-217h179
q128 0 128 108q0 109 -129 109h-178z" />
    <glyph glyph-name="rcaron" unicode="&#x159;" horiz-adv-x="458" 
d="M408 687l-107 -143h-98l-107 143h95l63 -74l63 74h91zM68 0v485h105v-84q40 92 138 92q58 0 96 -38t38 -102q0 -36 -13 -75l-99 10q4 30 4 40q0 75 -62 75q-42 0 -70.5 -44.5t-28.5 -117.5v-241h-108z" />
    <glyph glyph-name="Sacute" unicode="&#x15a;" horiz-adv-x="648" 
d="M269 754l92 143h120l-124 -143h-88zM329 -14q-134 0 -209 59t-75 153q0 43 15 88l104 -29q-8 -24 -8 -54q0 -57 48 -90t128 -33q73 0 115 29.5t42 79.5q0 77 -116 102l-92 18q-115 23 -165 72t-50 128q0 89 69.5 144.5t176.5 55.5q130 0 200 -61t78 -174l-110 -15
q-21 156 -171 156q-59 0 -95.5 -27t-36.5 -74q0 -79 129 -105l92 -18q107 -20 154.5 -68.5t47.5 -124.5q0 -98 -76.5 -155t-194.5 -57z" />
    <glyph glyph-name="sacute" unicode="&#x15b;" horiz-adv-x="503" 
d="M207 544l92 143h120l-124 -143h-88zM259 -12q-99 0 -163 44.5t-65 126.5l102 15q9 -104 129 -104q42 0 68 17t26 49q0 26 -16.5 38.5t-56.5 20.5l-56 9q-39 7 -65.5 15.5t-53.5 25t-40.5 44t-13.5 66.5q0 65 54.5 103.5t148.5 38.5q90 0 142.5 -39t63.5 -102l-97 -24
q-20 83 -111 83q-44 0 -68.5 -15.5t-24.5 -43.5t18 -41t63 -21l56 -10q78 -13 122.5 -44t44.5 -101q0 -71 -57.5 -111t-149.5 -40z" />
    <glyph glyph-name="Scircumflex" unicode="&#x15c;" horiz-adv-x="648" 
d="M164 754l107 143h98l107 -143h-95l-63 74l-63 -74h-91zM329 -14q-134 0 -209 59t-75 153q0 43 15 88l104 -29q-8 -24 -8 -54q0 -57 48 -90t128 -33q73 0 115 29.5t42 79.5q0 77 -116 102l-92 18q-115 23 -165 72t-50 128q0 89 69.5 144.5t176.5 55.5q130 0 200 -61
t78 -174l-110 -15q-21 156 -171 156q-59 0 -95.5 -27t-36.5 -74q0 -79 129 -105l92 -18q107 -20 154.5 -68.5t47.5 -124.5q0 -98 -76.5 -155t-194.5 -57z" />
    <glyph glyph-name="scircumflex" unicode="&#x15d;" horiz-adv-x="503" 
d="M102 544l107 143h98l107 -143h-95l-63 74l-63 -74h-91zM259 -12q-99 0 -163 44.5t-65 126.5l102 15q9 -104 129 -104q42 0 68 17t26 49q0 26 -16.5 38.5t-56.5 20.5l-56 9q-39 7 -65.5 15.5t-53.5 25t-40.5 44t-13.5 66.5q0 65 54.5 103.5t148.5 38.5q90 0 142.5 -39
t63.5 -102l-97 -24q-20 83 -111 83q-44 0 -68.5 -15.5t-24.5 -43.5t18 -41t63 -21l56 -10q78 -13 122.5 -44t44.5 -101q0 -71 -57.5 -111t-149.5 -40z" />
    <glyph glyph-name="Scedilla" unicode="&#x15e;" horiz-adv-x="648" 
d="M600 198q0 -87 -61.5 -142t-161.5 -67l-42 -147h-92l38 146q-112 11 -174 68t-62 142q0 43 15 88l104 -29q-8 -24 -8 -54q0 -57 48 -90t128 -33q73 0 115 29.5t42 79.5q0 77 -116 102l-92 18q-115 23 -165 72t-50 128q0 89 69.5 144.5t176.5 55.5q130 0 200 -61t78 -174
l-110 -15q-21 156 -171 156q-59 0 -95.5 -27t-36.5 -74q0 -79 129 -105l92 -18q107 -20 154.5 -68.5t47.5 -124.5z" />
    <glyph glyph-name="scedilla" unicode="&#x15f;" horiz-adv-x="503" 
d="M466 139q0 -61 -43 -99.5t-115 -48.5l-43 -149h-92l38 149q-80 10 -129.5 53t-50.5 115l102 15q9 -104 129 -104q42 0 68 17t26 49q0 26 -16.5 38.5t-56.5 20.5l-56 9q-39 7 -65.5 15.5t-53.5 25t-40.5 44t-13.5 66.5q0 65 54.5 103.5t148.5 38.5q90 0 142.5 -39
t63.5 -102l-97 -24q-20 83 -111 83q-44 0 -68.5 -15.5t-24.5 -43.5t18 -41t63 -21l56 -10q78 -13 122.5 -44t44.5 -101z" />
    <glyph glyph-name="Scaron" unicode="&#x160;" horiz-adv-x="648" 
d="M476 897l-107 -143h-98l-107 143h95l63 -74l63 74h91zM329 -14q-134 0 -209 59t-75 153q0 43 15 88l104 -29q-8 -24 -8 -54q0 -57 48 -90t128 -33q73 0 115 29.5t42 79.5q0 77 -116 102l-92 18q-115 23 -165 72t-50 128q0 89 69.5 144.5t176.5 55.5q130 0 200 -61
t78 -174l-110 -15q-21 156 -171 156q-59 0 -95.5 -27t-36.5 -74q0 -79 129 -105l92 -18q107 -20 154.5 -68.5t47.5 -124.5q0 -98 -76.5 -155t-194.5 -57z" />
    <glyph glyph-name="scaron" unicode="&#x161;" horiz-adv-x="503" 
d="M414 687l-107 -143h-98l-107 143h95l63 -74l63 74h91zM259 -12q-99 0 -163 44.5t-65 126.5l102 15q9 -104 129 -104q42 0 68 17t26 49q0 26 -16.5 38.5t-56.5 20.5l-56 9q-39 7 -65.5 15.5t-53.5 25t-40.5 44t-13.5 66.5q0 65 54.5 103.5t148.5 38.5q90 0 142.5 -39
t63.5 -102l-97 -24q-20 83 -111 83q-44 0 -68.5 -15.5t-24.5 -43.5t18 -41t63 -21l56 -10q78 -13 122.5 -44t44.5 -101q0 -71 -57.5 -111t-149.5 -40z" />
    <glyph glyph-name="uni0162" unicode="&#x162;" horiz-adv-x="610" 
d="M250 0v595h-229v100h569v-100h-229v-595h-111zM214 -231l42 168h99l-54 -168h-87z" />
    <glyph glyph-name="uni0163" unicode="&#x163;" horiz-adv-x="413" 
d="M233 -12q-149 0 -149 160v246h-75v91h78l25 143h81v-143h193v-91h-193v-243q0 -67 49 -67q46 0 83 84l84 -43q-62 -137 -176 -137zM131 -231l42 168h99l-54 -168h-87z" />
    <glyph glyph-name="Tcaron" unicode="&#x164;" horiz-adv-x="610" 
d="M461 897l-107 -143h-98l-107 143h95l63 -74l63 74h91zM250 0v595h-229v100h569v-100h-229v-595h-111z" />
    <glyph glyph-name="tcaron" unicode="&#x165;" horiz-adv-x="413" 
d="M260 541l21 175h99l-43 -175h-77zM233 -12q-149 0 -149 160v246h-75v91h78l25 143h81v-143h193v-91h-193v-243q0 -67 49 -67q46 0 83 84l84 -43q-62 -137 -176 -137z" />
    <glyph glyph-name="Tbar" unicode="&#x166;" horiz-adv-x="610" 
d="M590 595h-229v-205h119v-84h-119v-306h-111v306h-120v84h120v205h-229v100h569v-100z" />
    <glyph glyph-name="tbar" unicode="&#x167;" horiz-adv-x="413" 
d="M324 162l85 -42q-28 -62 -74 -97t-102 -35q-149 0 -149 160v93h-75v72h75v87h-75v85h78l25 143h81v-143h193v-85h-193v-87h163v-72h-163v-91q0 -68 49 -68q46 0 82 80z" />
    <glyph glyph-name="Utilde" unicode="&#x168;" horiz-adv-x="715" 
d="M197 763q0 60 26 92.5t71 32.5q35 0 67 -23t45 -23q29 0 31 46h75q-1 -60 -26.5 -92t-70.5 -32q-35 0 -67 23t-44 23q-30 0 -32 -47h-75zM357 -14q-138 0 -212 73.5t-74 210.5v425h111v-419q0 -93 44.5 -141.5t130.5 -48.5q85 0 130.5 49t45.5 141v419h111v-425
q0 -137 -74 -210.5t-213 -73.5z" />
    <glyph glyph-name="utilde" unicode="&#x169;" horiz-adv-x="567" 
d="M122 553q0 60 26 92.5t71 32.5q35 0 67 -23t45 -23q29 0 31 46h75q-1 -60 -26.5 -92t-70.5 -32q-35 0 -67 23t-44 23q-30 0 -32 -47h-75zM245 -12q-87 0 -134.5 52t-47.5 144v301h109v-290q0 -116 101 -116q52 0 85 31.5t33 87.5v287h109v-485h-105v65q-53 -77 -150 -77z
" />
    <glyph glyph-name="Umacron" unicode="&#x16a;" horiz-adv-x="715" 
d="M210 785v83h296v-83h-296zM357 -14q-138 0 -212 73.5t-74 210.5v425h111v-419q0 -93 44.5 -141.5t130.5 -48.5q85 0 130.5 49t45.5 141v419h111v-425q0 -137 -74 -210.5t-213 -73.5z" />
    <glyph glyph-name="umacron" unicode="&#x16b;" horiz-adv-x="567" 
d="M135 575v83h296v-83h-296zM245 -12q-87 0 -134.5 52t-47.5 144v301h109v-290q0 -116 101 -116q52 0 85 31.5t33 87.5v287h109v-485h-105v65q-53 -77 -150 -77z" />
    <glyph glyph-name="Ubreve" unicode="&#x16c;" horiz-adv-x="715" 
d="M358 751q-66 0 -104 37.5t-38 103.5h77q0 -30 17.5 -47t47.5 -17t47.5 17.5t17.5 46.5h77q0 -67 -37.5 -104t-104.5 -37zM357 -14q-138 0 -212 73.5t-74 210.5v425h111v-419q0 -93 44.5 -141.5t130.5 -48.5q85 0 130.5 49t45.5 141v419h111v-425q0 -137 -74 -210.5
t-213 -73.5z" />
    <glyph glyph-name="ubreve" unicode="&#x16d;" horiz-adv-x="567" 
d="M283 541q-66 0 -104 37.5t-38 103.5h77q0 -30 17.5 -47t47.5 -17t47.5 17.5t17.5 46.5h77q0 -67 -37.5 -104t-104.5 -37zM245 -12q-87 0 -134.5 52t-47.5 144v301h109v-290q0 -116 101 -116q52 0 85 31.5t33 87.5v287h109v-485h-105v65q-53 -77 -150 -77z" />
    <glyph glyph-name="Uring" unicode="&#x16e;" horiz-adv-x="715" 
d="M359 678q-48 0 -79 28.5t-31 72.5t31 72.5t79 28.5q47 0 78.5 -29t31.5 -72t-31.5 -72t-78.5 -29zM359 738q18 0 30 12t12 29t-12 28.5t-30 11.5q-19 0 -31 -11.5t-12 -28.5t12 -29t31 -12zM357 -14q-138 0 -212 73.5t-74 210.5v425h111v-419q0 -93 44.5 -141.5
t130.5 -48.5q85 0 130.5 49t45.5 141v419h111v-425q0 -137 -74 -210.5t-213 -73.5z" />
    <glyph glyph-name="uring" unicode="&#x16f;" horiz-adv-x="567" 
d="M284 497q-48 0 -79 29t-31 73t31 72t79 28q47 0 78.5 -28.5t31.5 -71.5q0 -44 -31.5 -73t-78.5 -29zM284 558q19 0 30.5 11.5t11.5 29.5q0 17 -11.5 28.5t-30.5 11.5t-31 -11.5t-12 -28.5q0 -18 12 -29.5t31 -11.5zM245 -12q-87 0 -134.5 52t-47.5 144v301h109v-290
q0 -116 101 -116q52 0 85 31.5t33 87.5v287h109v-485h-105v65q-53 -77 -150 -77z" />
    <glyph glyph-name="Uhungarumlaut" unicode="&#x170;" horiz-adv-x="715" 
d="M232 754l78 143h111l-109 -143h-80zM399 754l78 143h112l-109 -143h-81zM357 -14q-138 0 -212 73.5t-74 210.5v425h111v-419q0 -93 44.5 -141.5t130.5 -48.5q85 0 130.5 49t45.5 141v419h111v-425q0 -137 -74 -210.5t-213 -73.5z" />
    <glyph glyph-name="uhungarumlaut" unicode="&#x171;" horiz-adv-x="567" 
d="M157 544l78 143h111l-109 -143h-80zM324 544l78 143h112l-109 -143h-81zM245 -12q-87 0 -134.5 52t-47.5 144v301h109v-290q0 -116 101 -116q52 0 85 31.5t33 87.5v287h109v-485h-105v65q-53 -77 -150 -77z" />
    <glyph glyph-name="Uogonek" unicode="&#x172;" horiz-adv-x="715" 
d="M533 695h111v-425q0 -174 -117 -244q-55 -37 -82 -64t-27 -58q0 -33 35 -33q18 0 35 13l28 -68q-31 -23 -86 -23q-47 0 -78.5 21t-31.5 65q0 57 67 108q-9 -1 -30 -1q-138 0 -212 73.5t-74 210.5v425h111v-419q0 -93 44.5 -141.5t130.5 -48.5q85 0 130.5 49t45.5 141v419
z" />
    <glyph glyph-name="uogonek" unicode="&#x173;" horiz-adv-x="567" 
d="M486 -116l28 -68q-32 -23 -85 -23q-48 0 -79.5 21t-31.5 65q0 66 83 121h-6v65q-53 -77 -150 -77q-87 0 -134.5 52t-47.5 144v301h109v-290q0 -116 101 -116q52 0 85 31.5t33 87.5v287h109v-485q-44 -32 -64 -53.5t-20 -42.5q0 -33 35 -33q16 0 35 13z" />
    <glyph glyph-name="Wcircumflex" unicode="&#x174;" horiz-adv-x="950" 
d="M316 754l107 143h98l107 -143h-95l-63 74l-63 -74h-91zM193 0l-184 695h114l143 -557l151 557h117l158 -557l134 557h115l-183 -695h-131l-152 534l-153 -534h-129z" />
    <glyph glyph-name="wcircumflex" unicode="&#x175;" horiz-adv-x="748" 
d="M223 544l107 143h98l107 -143h-95l-63 74l-63 -74h-91zM160 0l-149 485h113l99 -367l97 367h108l98 -367l98 367h113l-149 -485h-118l-96 345l-95 -345h-119z" />
    <glyph glyph-name="Ycircumflex" unicode="&#x176;" horiz-adv-x="635" 
d="M160 754l107 143h98l107 -143h-95l-63 74l-63 -74h-91zM260 0v284l-261 411h130l188 -305l189 305h130l-265 -411v-284h-111z" />
    <glyph glyph-name="ycircumflex" unicode="&#x177;" horiz-adv-x="502" 
d="M96 544l107 143h98l107 -143h-95l-63 74l-63 -74h-91zM127 -222q-85 0 -123 61l66 69q24 -39 60 -39q26 0 42.5 21t33.5 68l16 42h-41l-181 485h116l137 -384l134 384h115l-214 -570q-29 -76 -67.5 -106.5t-93.5 -30.5z" />
    <glyph glyph-name="Ydieresis" unicode="&#x178;" horiz-adv-x="635" 
d="M217 765q-27 0 -45 17.5t-18 43.5t18 43t45 17q26 0 44 -17.5t18 -42.5q0 -26 -18 -43.5t-44 -17.5zM416 765q-27 0 -44.5 17.5t-17.5 43.5t17.5 43t44.5 17t44.5 -17t17.5 -43t-17.5 -43.5t-44.5 -17.5zM260 0v284l-261 411h130l188 -305l189 305h130l-265 -411v-284
h-111z" />
    <glyph glyph-name="Zacute" unicode="&#x179;" 
d="M248 754l92 143h120l-124 -143h-88zM28 0v90l394 505h-384v100h525v-90l-396 -505h407v-100h-546z" />
    <glyph glyph-name="zacute" unicode="&#x17a;" horiz-adv-x="461" 
d="M180 544l92 143h120l-124 -143h-88zM22 0v80l270 314h-259v91h397v-80l-271 -314h281v-91h-418z" />
    <glyph glyph-name="Zdotaccent" unicode="&#x17b;" 
d="M299 765q-26 0 -44.5 17.5t-18.5 43.5t18 43t45 17t45 -17t18 -43t-18.5 -43.5t-44.5 -17.5zM28 0v90l394 505h-384v100h525v-90l-396 -505h407v-100h-546z" />
    <glyph glyph-name="zdotaccent" unicode="&#x17c;" horiz-adv-x="461" 
d="M231 555q-26 0 -44.5 17.5t-18.5 43.5t18 43t45 17t45 -17t18 -43t-18.5 -43.5t-44.5 -17.5zM22 0v80l270 314h-259v91h397v-80l-271 -314h281v-91h-418z" />
    <glyph glyph-name="Zcaron" unicode="&#x17d;" 
d="M455 897l-107 -143h-98l-107 143h95l63 -74l63 74h91zM28 0v90l394 505h-384v100h525v-90l-396 -505h407v-100h-546z" />
    <glyph glyph-name="zcaron" unicode="&#x17e;" horiz-adv-x="461" 
d="M387 687l-107 -143h-98l-107 143h95l63 -74l63 74h91zM22 0v80l270 314h-259v91h397v-80l-271 -314h281v-91h-418z" />
    <glyph glyph-name="florin" unicode="&#x192;" horiz-adv-x="487" 
d="M392 619q-56 0 -68 -76l-18 -131h133l-14 -82h-131l-24 -174q-25 -168 -177 -168q-53 0 -82 19l16 97q30 -26 67 -26q56 0 68 76l25 176h-118l14 82h115l18 129q23 168 177 168q52 0 82 -19l-17 -97q-29 26 -66 26z" />
    <glyph glyph-name="uni0218" unicode="&#x218;" horiz-adv-x="648" 
d="M329 -14q-134 0 -209 59t-75 153q0 43 15 88l104 -29q-8 -24 -8 -54q0 -57 48 -90t128 -33q73 0 115 29.5t42 79.5q0 77 -116 102l-92 18q-115 23 -165 72t-50 128q0 89 69.5 144.5t176.5 55.5q130 0 200 -61t78 -174l-110 -15q-21 156 -171 156q-59 0 -95.5 -27
t-36.5 -74q0 -79 129 -105l92 -18q107 -20 154.5 -68.5t47.5 -124.5q0 -98 -76.5 -155t-194.5 -57zM241 -231l42 168h99l-54 -168h-87z" />
    <glyph glyph-name="uni0219" unicode="&#x219;" horiz-adv-x="503" 
d="M259 -12q-99 0 -163 44.5t-65 126.5l102 15q9 -104 129 -104q42 0 68 17t26 49q0 26 -16.5 38.5t-56.5 20.5l-56 9q-39 7 -65.5 15.5t-53.5 25t-40.5 44t-13.5 66.5q0 65 54.5 103.5t148.5 38.5q90 0 142.5 -39t63.5 -102l-97 -24q-20 83 -111 83q-44 0 -68.5 -15.5
t-24.5 -43.5t18 -41t63 -21l56 -10q78 -13 122.5 -44t44.5 -101q0 -71 -57.5 -111t-149.5 -40zM171 -231l42 168h99l-54 -168h-87z" />
    <glyph glyph-name="uni021A" unicode="&#x21a;" horiz-adv-x="610" 
d="M250 0v595h-229v100h569v-100h-229v-595h-111zM214 -231l42 168h99l-54 -168h-87z" />
    <glyph glyph-name="uni021B" unicode="&#x21b;" horiz-adv-x="413" 
d="M233 -12q-149 0 -149 160v246h-75v91h78l25 143h81v-143h193v-91h-193v-243q0 -67 49 -67q46 0 83 84l84 -43q-62 -137 -176 -137zM131 -231l42 168h99l-54 -168h-87z" />
    <glyph glyph-name="uni0237" unicode="&#x237;" horiz-adv-x="243" 
d="M39 -222q-72 0 -119 40l40 85q29 -34 63 -34q45 0 45 58v558h108v-560q0 -78 -38.5 -112.5t-98.5 -34.5z" />
    <glyph glyph-name="circumflex" unicode="&#x2c6;" horiz-adv-x="400" 
d="M44 544l107 143h98l107 -143h-95l-63 74l-63 -74h-91z" />
    <glyph glyph-name="caron" unicode="&#x2c7;" horiz-adv-x="400" 
d="M356 687l-107 -143h-98l-107 143h95l63 -74l63 74h91z" />
    <glyph glyph-name="breve" unicode="&#x2d8;" horiz-adv-x="400" 
d="M200 541q-66 0 -104 37.5t-38 103.5h77q0 -30 17.5 -47t47.5 -17t47.5 17.5t17.5 46.5h77q0 -67 -37.5 -104t-104.5 -37z" />
    <glyph glyph-name="dotaccent" unicode="&#x2d9;" horiz-adv-x="400" 
d="M200 555q-26 0 -44.5 17.5t-18.5 43.5t18 43t45 17t45 -17t18 -43t-18.5 -43.5t-44.5 -17.5z" />
    <glyph glyph-name="ring" unicode="&#x2da;" horiz-adv-x="400" 
d="M201 497q-48 0 -79 29t-31 73t31 72t79 28q47 0 78.5 -28.5t31.5 -71.5q0 -44 -31.5 -73t-78.5 -29zM201 558q19 0 30.5 11.5t11.5 29.5q0 17 -11.5 28.5t-30.5 11.5t-31 -11.5t-12 -28.5q0 -18 12 -29.5t31 -11.5z" />
    <glyph glyph-name="ogonek" unicode="&#x2db;" horiz-adv-x="400" 
d="M212 -207q-48 0 -79.5 21t-31.5 65q0 79 115 140l67 -19q-44 -32 -64 -53.5t-20 -42.5q0 -33 35 -33q16 0 35 13l28 -68q-32 -23 -85 -23z" />
    <glyph glyph-name="tilde" unicode="&#x2dc;" horiz-adv-x="400" 
d="M39 552q0 60 26 92.5t71 32.5q35 0 67 -23t45 -23q29 0 31 46h75q-1 -60 -26.5 -92t-70.5 -32q-35 0 -67 23t-44 23q-30 0 -32 -47h-75z" />
    <glyph glyph-name="hungarumlaut" unicode="&#x2dd;" horiz-adv-x="400" 
d="M74 544l78 143h111l-109 -143h-80zM241 544l78 143h112l-109 -143h-81z" />
    <glyph glyph-name="gravecomb" unicode="&#x300;" horiz-adv-x="0" 
d="M-236 544l-123 143h121l92 -143h-90z" />
    <glyph glyph-name="acutecomb" unicode="&#x301;" horiz-adv-x="0" 
d="M-251 544l92 143h120l-124 -143h-88z" />
    <glyph glyph-name="uni0302" unicode="&#x302;" horiz-adv-x="0" 
d="M-356 544l107 143h98l107 -143h-95l-63 74l-63 -74h-91z" />
    <glyph glyph-name="tildecomb" unicode="&#x303;" horiz-adv-x="0" 
d="M-361 552q0 60 26 92.5t71 32.5q35 0 67 -23t45 -23q29 0 31 46h75q-1 -60 -26.5 -92t-70.5 -32q-35 0 -67 23t-44 23q-30 0 -32 -47h-75z" />
    <glyph glyph-name="uni0304" unicode="&#x304;" horiz-adv-x="0" 
d="M-348 575v83h296v-83h-296z" />
    <glyph glyph-name="uni0306" unicode="&#x306;" horiz-adv-x="0" 
d="M-200 541q-66 0 -104 37.5t-38 103.5h77q0 -30 17.5 -47t47.5 -17t47.5 17.5t17.5 46.5h77q0 -67 -37.5 -104t-104.5 -37z" />
    <glyph glyph-name="uni0307" unicode="&#x307;" horiz-adv-x="0" 
d="M-200 555q-26 0 -44.5 17.5t-18.5 43.5t18 43t45 17t45 -17t18 -43t-18.5 -43.5t-44.5 -17.5z" />
    <glyph glyph-name="uni0308" unicode="&#x308;" horiz-adv-x="0" 
d="M-299 555q-27 0 -45 17.5t-18 43.5t18 43t45 17q26 0 44 -17.5t18 -42.5q0 -26 -18 -43.5t-44 -17.5zM-100 555q-27 0 -44.5 17.5t-17.5 43.5t17.5 43t44.5 17t44.5 -17t17.5 -43t-17.5 -43.5t-44.5 -17.5z" />
    <glyph glyph-name="uni030A" unicode="&#x30a;" horiz-adv-x="0" 
d="M-199 497q-48 0 -79 29t-31 73t31 72t79 28q47 0 78.5 -28.5t31.5 -71.5q0 -44 -31.5 -73t-78.5 -29zM-199 558q19 0 30.5 11.5t11.5 29.5q0 17 -11.5 28.5t-30.5 11.5t-31 -11.5t-12 -28.5q0 -18 12 -29.5t31 -11.5z" />
    <glyph glyph-name="uni030B" unicode="&#x30b;" horiz-adv-x="0" 
d="M-326 544l78 143h111l-109 -143h-80zM-159 544l78 143h112l-109 -143h-81z" />
    <glyph glyph-name="uni030C" unicode="&#x30c;" horiz-adv-x="0" 
d="M-44 687l-107 -143h-98l-107 143h95l63 -74l63 74h91z" />
    <glyph glyph-name="uni0312" unicode="&#x312;" horiz-adv-x="0" 
d="M-113 712l-42 -168h-99l55 168h86z" />
    <glyph glyph-name="uni0326" unicode="&#x326;" horiz-adv-x="0" 
d="M-291 -231l42 168h99l-54 -168h-87z" />
    <glyph glyph-name="uni0327" unicode="&#x327;" horiz-adv-x="0" 
d="M-289 -160l43 167h97l-48 -167h-92z" />
    <glyph glyph-name="uni0328" unicode="&#x328;" horiz-adv-x="0" 
d="M-188 -207q-48 0 -79.5 21t-31.5 65q0 79 115 140l67 -19q-44 -32 -64 -53.5t-20 -42.5q0 -33 35 -33q16 0 35 13l28 -68q-32 -23 -85 -23z" />
    <glyph glyph-name="uni0394" unicode="&#x394;" horiz-adv-x="723" 
d="M32 0v88l269 607h119l269 -607v-88h-657zM159 102h402l-202 476z" />
    <glyph glyph-name="uni03A9" unicode="&#x3a9;" horiz-adv-x="800" 
d="M59 0v99h175v45q-75 41 -124 107.5t-49 157.5q0 131 95.5 215.5t243.5 84.5t243.5 -84.5t95.5 -215.5q0 -89 -50 -154.5t-123 -107.5v-48h175v-99h-277v168q68 41 112.5 100t44.5 133q0 93 -62 151.5t-159 58.5t-159 -58.5t-62 -151.5q0 -135 157 -233v-168h-277z" />
    <glyph glyph-name="uni03BC" unicode="&#x3bc;" horiz-adv-x="572" 
d="M68 -206v691h108v-294q2 -112 102 -112q51 0 84.5 31.5t33.5 87.5v287h108v-485h-105v65q-48 -75 -135 -75q-66 0 -99 36l11 -232h-108z" />
    <glyph glyph-name="pi" unicode="&#x3c0;" horiz-adv-x="624" 
d="M608 394h-109v-261q0 -43 34 -43q20 0 38 19l25 -87q-32 -29 -86 -29q-119 0 -119 133v268h-183v-394h-108v394h-90v91h598v-91z" />
    <glyph glyph-name="Wgrave" unicode="&#x1e80;" horiz-adv-x="950" 
d="M436 754l-123 143h121l92 -143h-90zM193 0l-184 695h114l143 -557l151 557h117l158 -557l134 557h115l-183 -695h-131l-152 534l-153 -534h-129z" />
    <glyph glyph-name="wgrave" unicode="&#x1e81;" horiz-adv-x="748" 
d="M343 544l-123 143h121l92 -143h-90zM160 0l-149 485h113l99 -367l97 367h108l98 -367l98 367h113l-149 -485h-118l-96 345l-95 -345h-119z" />
    <glyph glyph-name="Wacute" unicode="&#x1e82;" horiz-adv-x="950" 
d="M421 754l92 143h120l-124 -143h-88zM193 0l-184 695h114l143 -557l151 557h117l158 -557l134 557h115l-183 -695h-131l-152 534l-153 -534h-129z" />
    <glyph glyph-name="wacute" unicode="&#x1e83;" horiz-adv-x="748" 
d="M328 544l92 143h120l-124 -143h-88zM160 0l-149 485h113l99 -367l97 367h108l98 -367l98 367h113l-149 -485h-118l-96 345l-95 -345h-119z" />
    <glyph glyph-name="Wdieresis" unicode="&#x1e84;" horiz-adv-x="950" 
d="M373 765q-27 0 -45 17.5t-18 43.5t18 43t45 17q26 0 44 -17.5t18 -42.5q0 -26 -18 -43.5t-44 -17.5zM572 765q-27 0 -44.5 17.5t-17.5 43.5t17.5 43t44.5 17t44.5 -17t17.5 -43t-17.5 -43.5t-44.5 -17.5zM193 0l-184 695h114l143 -557l151 557h117l158 -557l134 557h115
l-183 -695h-131l-152 534l-153 -534h-129z" />
    <glyph glyph-name="wdieresis" unicode="&#x1e85;" horiz-adv-x="748" 
d="M280 555q-27 0 -45 17.5t-18 43.5t18 43t45 17q26 0 44 -17.5t18 -42.5q0 -26 -18 -43.5t-44 -17.5zM479 555q-27 0 -44.5 17.5t-17.5 43.5t17.5 43t44.5 17t44.5 -17t17.5 -43t-17.5 -43.5t-44.5 -17.5zM160 0l-149 485h113l99 -367l97 367h108l98 -367l98 367h113
l-149 -485h-118l-96 345l-95 -345h-119z" />
    <glyph glyph-name="uni1E9E" unicode="&#x1e9e;" horiz-adv-x="775" 
d="M486 -14q-157 0 -228 99l72 76q47 -80 160 -80q60 0 94 28.5t34 78.5q0 55 -64.5 89t-180.5 39l-23 70l216 214h-374v-600h-111v695h599v-112l-196 -188q119 -15 184 -70.5t65 -134.5q0 -97 -68 -150.5t-179 -53.5z" />
    <glyph glyph-name="Ygrave" unicode="&#x1ef2;" horiz-adv-x="635" 
d="M280 754l-123 143h121l92 -143h-90zM260 0v284l-261 411h130l188 -305l189 305h130l-265 -411v-284h-111z" />
    <glyph glyph-name="ygrave" unicode="&#x1ef3;" horiz-adv-x="502" 
d="M216 544l-123 143h121l92 -143h-90zM127 -222q-85 0 -123 61l66 69q24 -39 60 -39q26 0 42.5 21t33.5 68l16 42h-41l-181 485h116l137 -384l134 384h115l-214 -570q-29 -76 -67.5 -106.5t-93.5 -30.5z" />
    <glyph glyph-name="endash" unicode="&#x2013;" horiz-adv-x="587" 
d="M60 259v90h466v-90h-466z" />
    <glyph glyph-name="emdash" unicode="&#x2014;" horiz-adv-x="1000" 
d="M35 259v90h930v-90h-930z" />
    <glyph glyph-name="quoteleft" unicode="&#x2018;" horiz-adv-x="235" 
d="M127 575q26 -2 45 -20.5t19 -44.5q0 -29 -21 -49t-51 -20q-33 0 -55 25.5t-22 66.5q0 94 82 173l53 -39q-47 -47 -50 -92z" />
    <glyph glyph-name="quoteright" unicode="&#x2019;" horiz-adv-x="235" 
d="M116 706q33 0 55 -25t22 -67q0 -94 -82 -173l-53 40q47 46 50 91q-26 2 -45 20.5t-19 44.5q0 30 21 49.5t51 19.5z" />
    <glyph glyph-name="quotesinglbase" unicode="&#x201a;" horiz-adv-x="235" 
d="M116 129q33 0 55 -25t22 -66q0 -94 -82 -173l-53 39q47 46 50 92q-26 2 -45 20.5t-19 44.5q0 29 21 48.5t51 19.5z" />
    <glyph glyph-name="quotedblleft" unicode="&#x201c;" horiz-adv-x="417" 
d="M127 575q26 -2 45 -20.5t19 -44.5q0 -29 -21 -49t-51 -20q-33 0 -55 25.5t-22 66.5q0 94 82 173l53 -39q-47 -47 -50 -92zM309 575q26 -2 44.5 -20.5t18.5 -44.5q0 -29 -21 -49t-50 -20q-34 0 -56 25.5t-22 66.5q0 94 82 173l53 -39q-46 -46 -49 -92z" />
    <glyph glyph-name="quotedblright" unicode="&#x201d;" horiz-adv-x="417" 
d="M116 706q33 0 55 -25t22 -67q0 -94 -82 -173l-53 40q47 46 50 91q-26 2 -45 20.5t-19 44.5q0 30 21 49.5t51 19.5zM297 705q34 0 56 -25t22 -66q0 -94 -82 -173l-53 39q46 43 49 92q-26 2 -44.5 20.5t-18.5 43.5q0 30 20.5 49.5t50.5 19.5z" />
    <glyph glyph-name="quotedblbase" unicode="&#x201e;" horiz-adv-x="420" 
d="M116 129q33 0 55 -25t22 -66q0 -94 -82 -173l-53 39q47 46 50 92q-26 2 -45 20.5t-19 44.5q0 29 21 48.5t51 19.5zM301 129q33 0 55 -25t22 -66q0 -94 -82 -173l-53 39q46 45 49 92q-26 2 -44.5 20.5t-18.5 44.5q0 29 21 48.5t51 19.5z" />
    <glyph glyph-name="dagger" unicode="&#x2020;" horiz-adv-x="454" 
d="M422 543v-90h-147v-217h-96v217h-148v90h148v152h96v-152h147z" />
    <glyph glyph-name="daggerdbl" unicode="&#x2021;" horiz-adv-x="454" 
d="M422 473h-147v-102h147v-89h-147v-133h-96v133h-148v89h148v102h-148v90h148v132h96v-132h147v-90z" />
    <glyph glyph-name="bullet" unicode="&#x2022;" horiz-adv-x="380" 
d="M189 203q-51 0 -88 37t-37 89q0 53 36.5 89t88.5 36q54 0 90.5 -36t36.5 -89t-36.5 -89.5t-90.5 -36.5z" />
    <glyph glyph-name="ellipsis" unicode="&#x2026;" horiz-adv-x="675" 
d="M116 -11q-30 0 -51 21.5t-21 51.5t21 50.5t51 20.5q31 0 52 -20.5t21 -50.5q0 -31 -21 -52t-52 -21zM337 -11q-29 0 -50.5 21t-21.5 51t21 51t51 21q31 0 52 -20.5t21 -51.5q0 -30 -21 -51t-52 -21zM558 -11q-30 0 -51 21.5t-21 51.5t21 50.5t51 20.5q31 0 52 -20.5
t21 -50.5q0 -31 -21 -52t-52 -21z" />
    <glyph glyph-name="perthousand" unicode="&#x2030;" horiz-adv-x="1379" 
d="M216 317q-82 0 -132.5 53.5t-50.5 141.5t50.5 141.5t132.5 53.5t132.5 -53.5t50.5 -141.5t-50.5 -141.5t-132.5 -53.5zM217 0l431 695h96l-431 -695h-96zM216 395q41 0 66.5 32t25.5 85t-25.5 85t-66.5 32q-40 0 -65.5 -32t-25.5 -85t25.5 -85t65.5 -32zM743 -12
q-82 0 -132.5 53.5t-50.5 140.5q0 88 50 142t133 54t133 -54t50 -142q0 -87 -50.5 -140.5t-132.5 -53.5zM1163 -12q-82 0 -132.5 53.5t-50.5 140.5q0 88 50 142t133 54t133 -54t50 -142q0 -87 -50.5 -140.5t-132.5 -53.5zM743 66q40 0 65.5 32t25.5 84q0 53 -25.5 85.5
t-65.5 32.5q-41 0 -66.5 -32.5t-25.5 -85.5q0 -52 25.5 -84t66.5 -32zM1163 66q41 0 66 32t25 84q0 53 -25 85.5t-66 32.5t-66.5 -32.5t-25.5 -85.5q0 -52 25.5 -84t66.5 -32z" />
    <glyph glyph-name="guilsinglleft" unicode="&#x2039;" horiz-adv-x="312" 
d="M259 105l-217 130v97l217 131v-102l-131 -78l131 -75v-103z" />
    <glyph glyph-name="guilsinglright" unicode="&#x203a;" horiz-adv-x="312" 
d="M52 105v102l132 76l-132 76v104l217 -131v-97z" />
    <glyph glyph-name="fraction" unicode="&#x2044;" horiz-adv-x="290" 
d="M-137 0l477 695h87l-477 -695h-87z" />
    <glyph glyph-name="uni2074" unicode="&#x2074;" horiz-adv-x="378" 
d="M228 275v93h-207v84q122 124 138 243h91q-24 -147 -148 -253h126v82h83v-82h54v-74h-54v-93h-83z" />
    <glyph glyph-name="Euro" unicode="&#x20ac;" horiz-adv-x="739" 
d="M581 232l112 -21q-60 -225 -301 -225q-110 0 -188 63.5t-107 174.5h-93v76h80q-2 30 -2 47q0 22 1 32h-79v76h90q28 117 109.5 185.5t192.5 68.5q115 0 189.5 -60.5t100.5 -173.5l-108 -28q-42 167 -184 167q-66 0 -114.5 -41.5t-69.5 -117.5h212v-76h-224q-1 -10 -1 -32
q0 -17 2 -47h223v-76h-207q22 -69 69 -106t109 -37q73 0 119.5 35.5t68.5 115.5z" />
    <glyph glyph-name="trademark" unicode="&#x2122;" horiz-adv-x="634" 
d="M103 441v204h-82v50h219v-50h-82v-204h-55zM271 441v254h73l80 -143l78 143h71v-254h-54v181l-77 -133h-40l-77 133v-181h-54z" />
    <glyph glyph-name="uni2126" unicode="&#x2126;" horiz-adv-x="800" 
d="M59 0v99h175v45q-75 41 -124 107.5t-49 157.5q0 131 95.5 215.5t243.5 84.5t243.5 -84.5t95.5 -215.5q0 -89 -50 -154.5t-123 -107.5v-48h175v-99h-277v168q68 41 112.5 100t44.5 133q0 93 -62 151.5t-159 58.5t-159 -58.5t-62 -151.5q0 -135 157 -233v-168h-277z" />
    <glyph glyph-name="arrowleft" unicode="&#x2190;" horiz-adv-x="721" 
d="M587 319q53 -26 69 -68t16 -145l-112 -9q0 83 -16 125.5t-66 42.5h-217q31 -25 45 -64t15 -115l-108 -6q-12 80 -49 122t-120 83v68q83 42 120 84t49 122l108 -6q-1 -77 -15 -115.5t-45 -63.5h217q27 0 44 12t25 37.5t10.5 52t2.5 66.5l112 -11q0 -101 -16 -144t-69 -68z
" />
    <glyph glyph-name="arrowup" unicode="&#x2191;" horiz-adv-x="720" 
d="M593 403q-76 1 -115 15t-64 45v-242q0 -52 42.5 -68.5t125.5 -16.5l-10 -112q-101 0 -144.5 16t-68.5 69q-25 -53 -67 -68.5t-145 -15.5l-10 111q83 0 125.5 17t42.5 68v242q-25 -31 -63.5 -45t-115.5 -15l-6 108q80 12 122 49t84 120h68q41 -83 83 -120t122 -49z" />
    <glyph glyph-name="arrowright" unicode="&#x2192;" horiz-adv-x="721" 
d="M508 559q11 -80 48 -122t120 -84v-68q-82 -41 -119.5 -83t-48.5 -122l-108 6q1 77 14.5 115.5t45.5 63.5h-217q-27 0 -44 -12t-25 -37.5t-10.5 -52t-2.5 -66.5l-113 10q0 101 16 144.5t69 68.5q-53 26 -69 68t-16 144l113 10q0 -83 16 -125.5t66 -42.5h217
q-32 25 -45.5 63.5t-14.5 115.5z" />
    <glyph glyph-name="arrowdown" unicode="&#x2193;" horiz-adv-x="720" 
d="M593 292l6 -109q-80 -11 -122 -48t-83 -120h-68q-42 83 -84 120t-122 48l6 109q77 -2 115.5 -15.5t63.5 -44.5v241q0 28 -12 45.5t-37.5 26t-51.5 11t-67 2.5l11 112q101 0 144 -16t68 -69q26 53 68 69t144 16l10 -112q-83 0 -125.5 -16.5t-42.5 -68.5v-241
q25 31 63.5 44.5t115.5 15.5z" />
    <glyph glyph-name="arrowboth" unicode="&#x2194;" horiz-adv-x="861" 
d="M648 554q12 -78 49 -119t120 -82v-68q-83 -42 -120 -83t-49 -119l-108 6q1 74 15 112t45 63h-339q31 -25 45 -63t15 -112l-108 -6q-12 78 -49 119t-120 83v68q83 41 120 82t49 119l108 -6q-1 -74 -15 -112t-45 -63h339q-31 25 -45 63t-15 112z" />
    <glyph glyph-name="arrowupdn" unicode="&#x2195;" horiz-adv-x="712" 
d="M410 154q25 31 63 45t112 15l6 -108q-77 -12 -118.5 -49.5t-82.5 -120.5h-68q-42 83 -83.5 120.5t-118.5 49.5l6 108q74 -1 112 -15t64 -45v371q-25 -31 -63 -44.5t-113 -15.5l-6 109q77 11 118.5 48t83.5 120h68q41 -82 82.5 -119.5t118.5 -48.5l-6 -109
q-74 2 -112 15.5t-63 44.5v-371z" />
    <glyph glyph-name="uni2196" unicode="&#x2196;" horiz-adv-x="720" 
d="M709 295q-72 -72 -114 -91t-97 1q20 -56 1 -97t-91 -113l-86 72q28 29 45 49.5t29 44.5t8 45t-23 40l-171 171q4 -41 -13.5 -77.5t-71.5 -91.5l-80 72q48 65 52 126t-26 138l48 48q78 -29 138.5 -25.5t125.5 51.5l73 -80q-56 -53 -93 -71t-76 -14l179 -179
q18 -14 38.5 -15.5t42.5 10.5t42 28.5t47 43.5z" />
    <glyph glyph-name="uni2197" unicode="&#x2197;" horiz-adv-x="720" 
d="M649 584q-29 -78 -25.5 -138.5t51.5 -125.5l-80 -73q-53 55 -71 92t-14 77l-171 -171q-19 -19 -23 -40.5t8 -45t28.5 -43.5t45.5 -49l-86 -73q-72 72 -91.5 114t0.5 97q-55 -20 -96 -1t-113 91l72 86q28 -28 49 -45t44.5 -29t44.5 -8t41 23l171 171q-41 -4 -77.5 13.5
t-91.5 70.5l72 81q65 -48 126 -52t138 26z" />
    <glyph glyph-name="uni2198" unicode="&#x2198;" horiz-adv-x="720" 
d="M675 331q-48 -65 -52 -126t26 -138l-48 -48q-78 29 -139 25.5t-126 -51.5l-72 80q55 53 92 71t77 14l-171 170q-20 20 -41 23.5t-44.5 -8t-44 -28.5t-48.5 -45l-73 86q72 72 114 91t97 -1q-20 56 -1 97t91 113l86 -72q-28 -28 -45 -49.5t-29 -45t-8 -44.5t23 -40
l171 -171q-5 40 13 76.5t71 92.5z" />
    <glyph glyph-name="uni2199" unicode="&#x2199;" horiz-adv-x="720" 
d="M499 446q55 20 96 1t113 -91l-72 -86q-28 28 -49 45t-44.5 29t-44.5 8t-41 -23l-171 -171q41 4 77.5 -13.5t91.5 -70.5l-72 -81q-65 48 -126 52t-138 -26l-48 48q29 78 25.5 138.5t-51.5 125.5l80 73q53 -55 71 -92t14 -77l171 171q19 19 23 40.5t-8 45t-28.5 43.5
t-45.5 49l86 73q72 -72 91.5 -114t-0.5 -97z" />
    <glyph glyph-name="partialdiff" unicode="&#x2202;" horiz-adv-x="575" 
d="M284 -12q-114 0 -183.5 67.5t-69.5 174.5q0 103 62.5 170t158.5 67q128 0 177 -90q-32 206 -329 251l41 81q180 -26 288 -135t108 -274q0 -142 -68.5 -227t-184.5 -85zM284 76q63 0 100 45t37 118q0 64 -37 103.5t-101 39.5t-101.5 -42t-37.5 -110q0 -70 37.5 -112
t102.5 -42z" />
    <glyph glyph-name="uni2206" unicode="&#x2206;" horiz-adv-x="723" 
d="M32 0v88l269 607h119l269 -607v-88h-657zM159 102h402l-202 476z" />
    <glyph glyph-name="product" unicode="&#x220f;" horiz-adv-x="802" 
d="M773 695v-100h-106v-685h-111v685h-310v-685h-111v685h-106v100h744z" />
    <glyph glyph-name="summation" unicode="&#x2211;" horiz-adv-x="623" 
d="M36 -90v89l238 317l-247 290v89h556v-100h-407l207 -242v-67l-206 -276h426v-100h-567z" />
    <glyph glyph-name="minus" unicode="&#x2212;" horiz-adv-x="496" 
d="M38 251v91h420v-91h-420z" />
    <glyph glyph-name="radical" unicode="&#x221a;" horiz-adv-x="684" 
d="M290 -85l-170 409h-73v87h143l153 -372l225 657h93l-269 -781h-102z" />
    <glyph glyph-name="infinity" unicode="&#x221e;" horiz-adv-x="730" 
d="M539 463q70 0 114.5 -47.5t44.5 -118.5t-45.5 -119t-114.5 -48q-47 0 -87.5 24.5t-86.5 76.5q-43 -52 -83 -76.5t-92 -24.5q-70 0 -113.5 47t-43.5 117q0 72 45.5 120.5t114.5 48.5q46 0 86 -25t88 -77q42 52 82 77t91 25zM532 216q32 0 52.5 22t20.5 58q0 35 -21.5 58.5
t-53.5 23.5q-47 0 -110 -81q66 -81 112 -81zM199 214q47 0 111 82q-35 42 -61 61.5t-52 19.5q-32 0 -53 -22.5t-21 -57.5q0 -36 21.5 -59.5t54.5 -23.5z" />
    <glyph glyph-name="integral" unicode="&#x222b;" horiz-adv-x="414" 
d="M99 -100q-56 0 -98 22l31 88q27 -19 57 -19q31 0 47.5 19t16.5 53v492q0 73 44.5 112.5t118.5 39.5q56 0 98 -22l-31 -88q-27 19 -57 19q-31 0 -47.5 -19t-16.5 -53v-492q0 -73 -44.5 -112.5t-118.5 -39.5z" />
    <glyph glyph-name="approxequal" unicode="&#x2248;" horiz-adv-x="496" 
d="M324 321q-37 0 -83 28t-64 28q-41 0 -48 -51l-83 11q12 127 121 127q37 0 83.5 -28t63.5 -28q43 0 48 51l83 -11q-12 -127 -121 -127zM324 130q-37 0 -83 28.5t-64 28.5q-41 0 -48 -51l-83 11q12 127 121 127q37 0 83.5 -28t63.5 -28q43 0 48 51l83 -11
q-12 -128 -121 -128z" />
    <glyph glyph-name="notequal" unicode="&#x2260;" horiz-adv-x="496" 
d="M440 352h-128l-54 -111h182v-90h-227l-43 -87h-75l43 87h-82v90h127l56 111h-183v91h228l43 86h73l-43 -86h83v-91z" />
    <glyph glyph-name="lessequal" unicode="&#x2264;" horiz-adv-x="496" 
d="M440 110l-381 145v99l381 145v-99l-269 -95l269 -95v-100zM58 0v91h382v-91h-382z" />
    <glyph glyph-name="greaterequal" unicode="&#x2265;" horiz-adv-x="496" 
d="M58 110v100l270 95l-270 95v99l382 -145v-99zM58 0v91h382v-91h-382z" />
    <glyph glyph-name="filledbox" unicode="&#x25a0;" horiz-adv-x="865" 
d="M81 697h704v-697h-704v697z" />
    <glyph glyph-name="uni25A1" unicode="&#x25a1;" horiz-adv-x="852" 
d="M81 695h691v-695h-691v695zM188 597v-498h477v498h-477z" />
    <glyph glyph-name="uni25AF" unicode="&#x25af;" horiz-adv-x="640" 
d="M81 695h478v-695h-478v695zM188 597v-499h264v499h-264z" />
    <glyph glyph-name="triagup" unicode="&#x25b2;" horiz-adv-x="833" 
d="M418 711l406 -711h-816z" />
    <glyph glyph-name="uni25B3" unicode="&#x25b3;" horiz-adv-x="833" 
d="M8 0l410 711l406 -711h-816zM184 99h465l-232 416z" />
    <glyph glyph-name="uni25B6" unicode="&#x25b6;" horiz-adv-x="520" 
d="M68 506l446 -256l-446 -256v512z" />
    <glyph glyph-name="uni25B7" unicode="&#x25b7;" horiz-adv-x="528" 
d="M68 517l454 -261l-454 -261v522zM157 144l194 112l-194 111v-223z" />
    <glyph glyph-name="uni25C0" unicode="&#x25c0;" horiz-adv-x="520" 
d="M452 506v-512l-446 256z" />
    <glyph glyph-name="uni25C1" unicode="&#x25c1;" horiz-adv-x="528" 
d="M460 517v-522l-454 261zM371 144v223l-194 -111z" />
    <glyph glyph-name="lozenge" unicode="&#x25ca;" horiz-adv-x="584" 
d="M259 0l-215 301l212 305h68l216 -302l-212 -304h-69zM294 99l140 204l-142 203l-142 -203z" />
    <glyph glyph-name="circle" unicode="&#x25cb;" horiz-adv-x="820" 
d="M410 -14q-159 0 -262 102t-103 259q0 158 103 260t262 102t261.5 -102t102.5 -260t-102 -259.5t-262 -101.5zM410 85q113 0 184 73t71 189t-71.5 190t-183.5 74t-183.5 -74t-71.5 -190t71 -189t184 -73z" />
    <glyph glyph-name="uni25CF" unicode="&#x25cf;" horiz-adv-x="819" 
d="M410 709q-160 0 -262.5 -102t-102.5 -260t102.5 -259.5t262.5 -101.5q159 0 261.5 101.5t102.5 259.5t-102.5 260t-261.5 102z" />
    <glyph glyph-name="uni25FD" unicode="&#x25fd;" horiz-adv-x="655" 
d="M68 516h520v-516h-520v516zM175 417v-319h306v319h-306z" />
    <glyph glyph-name="uni25FE" unicode="&#x25fe;" horiz-adv-x="655" 
d="M68 516h520v-516h-520v516z" />
    <glyph glyph-name="Q.ss03" horiz-adv-x="793" 
d="M396 -14q-152 0 -251.5 102t-99.5 259t99.5 259.5t251.5 102.5t251.5 -102t99.5 -259q0 -121 -62 -212q21 -24 47 -33t68 -8v-97q-114 -3 -177 68q-96 -80 -227 -80zM396 84q96 0 157 63q-29 41 -58.5 55t-80.5 14v98q119 0 190 -87q26 52 26 120q0 116 -65.5 190
t-168.5 74q-101 0 -167 -74.5t-66 -189.5t65.5 -189t167.5 -74z" />
    <glyph glyph-name="i.loclTRK" horiz-adv-x="243" 
d="M122 567q-29 0 -48 18t-19 46t19 46.5t48 18.5q28 0 47.5 -18.5t19.5 -46.5q0 -27 -19.5 -45.5t-47.5 -18.5zM68 0v485h108v-485h-108z" />
    <glyph glyph-name="f.short" horiz-adv-x="303" 
d="M87 0v394h-77v91h73q-19 43 -19 86q0 63 45.5 99.5t110.5 36.5q74 0 108 -36l-46 -72q-24 24 -58 24q-24 0 -40.5 -16.5t-16.5 -46.5q0 -31 22 -75h129v-91h-122v-394h-109z" />
    <glyph glyph-name="a.ss01" 
d="M259 -12q-97 0 -161.5 73.5t-64.5 181.5t64.5 181t160.5 73q114 0 170 -89v78h105v-486h-105v80q-56 -92 -169 -92zM284 76q59 0 100 48t41 119q0 70 -41 118t-100 48q-64 0 -101 -44.5t-37 -121.5t37 -122t101 -45z" />
    <glyph glyph-name="aacute.ss01" 
d="M236 544l92 143h120l-124 -143h-88zM259 -12q-97 0 -161.5 73.5t-64.5 181.5t64.5 181t160.5 73q114 0 170 -89v78h105v-486h-105v80q-56 -92 -169 -92zM284 76q59 0 100 48t41 119q0 70 -41 118t-100 48q-64 0 -101 -44.5t-37 -121.5t37 -122t101 -45z" />
    <glyph glyph-name="abreve.ss01" 
d="M287 541q-66 0 -104 37.5t-38 103.5h77q0 -30 17.5 -47t47.5 -17t47.5 17.5t17.5 46.5h77q0 -67 -37.5 -104t-104.5 -37zM259 -12q-97 0 -161.5 73.5t-64.5 181.5t64.5 181t160.5 73q114 0 170 -89v78h105v-486h-105v80q-56 -92 -169 -92zM284 76q59 0 100 48t41 119
q0 70 -41 118t-100 48q-64 0 -101 -44.5t-37 -121.5t37 -122t101 -45z" />
    <glyph glyph-name="acircumflex.ss01" 
d="M131 544l107 143h98l107 -143h-95l-63 74l-63 -74h-91zM259 -12q-97 0 -161.5 73.5t-64.5 181.5t64.5 181t160.5 73q114 0 170 -89v78h105v-486h-105v80q-56 -92 -169 -92zM284 76q59 0 100 48t41 119q0 70 -41 118t-100 48q-64 0 -101 -44.5t-37 -121.5t37 -122t101 -45
z" />
    <glyph glyph-name="adieresis.ss01" 
d="M188 555q-27 0 -45 17.5t-18 43.5t18 43t45 17q26 0 44 -17.5t18 -42.5q0 -26 -18 -43.5t-44 -17.5zM387 555q-27 0 -44.5 17.5t-17.5 43.5t17.5 43t44.5 17t44.5 -17t17.5 -43t-17.5 -43.5t-44.5 -17.5zM259 -12q-97 0 -161.5 73.5t-64.5 181.5t64.5 181t160.5 73
q114 0 170 -89v78h105v-486h-105v80q-56 -92 -169 -92zM284 76q59 0 100 48t41 119q0 70 -41 118t-100 48q-64 0 -101 -44.5t-37 -121.5t37 -122t101 -45z" />
    <glyph glyph-name="agrave.ss01" 
d="M251 544l-123 143h121l92 -143h-90zM259 -12q-97 0 -161.5 73.5t-64.5 181.5t64.5 181t160.5 73q114 0 170 -89v78h105v-486h-105v80q-56 -92 -169 -92zM284 76q59 0 100 48t41 119q0 70 -41 118t-100 48q-64 0 -101 -44.5t-37 -121.5t37 -122t101 -45z" />
    <glyph glyph-name="amacron.ss01" 
d="M139 575v83h296v-83h-296zM259 -12q-97 0 -161.5 73.5t-64.5 181.5t64.5 181t160.5 73q114 0 170 -89v78h105v-486h-105v80q-56 -92 -169 -92zM284 76q59 0 100 48t41 119q0 70 -41 118t-100 48q-64 0 -101 -44.5t-37 -121.5t37 -122t101 -45z" />
    <glyph glyph-name="aogonek.ss01" 
d="M519 -116l28 -68q-32 -23 -85 -23q-48 0 -79.5 21t-31.5 65q0 66 83 121h-6v80q-56 -92 -169 -92q-97 0 -161.5 73.5t-64.5 181.5t64.5 181t160.5 73q114 0 170 -89v78h105v-486q-44 -32 -64 -53.5t-20 -42.5q0 -33 35 -33q16 0 35 13zM284 76q59 0 100 48t41 119
q0 70 -41 118t-100 48q-64 0 -101 -44.5t-37 -121.5t37 -122t101 -45z" />
    <glyph glyph-name="aring.ss01" 
d="M428 486h105v-486h-105v80q-56 -92 -169 -92q-97 0 -161.5 73.5t-64.5 181.5q0 89 45.5 156.5t119.5 89.5q-28 26 -28 69q0 44 31 72t79 28q47 0 78.5 -28.5t31.5 -71.5q0 -51 -40 -80q47 -23 78 -70v78zM280 598q-19 0 -31 -11.5t-12 -28.5q0 -18 12 -29.5t31 -11.5
q18 0 30 11.5t12 29.5q0 17 -12 28.5t-30 11.5zM284 76q59 0 100 48t41 119q0 70 -41 118t-100 48q-64 0 -101 -44.5t-37 -121.5t37 -122t101 -45z" />
    <glyph glyph-name="atilde.ss01" 
d="M126 553q0 60 26 92.5t71 32.5q35 0 67 -23t45 -23q29 0 31 46h75q-1 -60 -26.5 -92t-70.5 -32q-35 0 -67 23t-44 23q-30 0 -32 -47h-75zM259 -12q-97 0 -161.5 73.5t-64.5 181.5t64.5 181t160.5 73q114 0 170 -89v78h105v-486h-105v80q-56 -92 -169 -92zM284 76
q59 0 100 48t41 119q0 70 -41 118t-100 48q-64 0 -101 -44.5t-37 -121.5t37 -122t101 -45z" />
    <glyph glyph-name="g.ss01" 
d="M270 -222q-91 0 -154.5 40t-82.5 112l95 38q11 -49 48.5 -75.5t93.5 -26.5q80 0 119 36.5t39 113.5v71q-57 -93 -169 -93q-96 0 -161 72.5t-65 179.5t64.5 179t160.5 72q114 0 170 -88v77h105v-470q0 -114 -68 -176t-195 -62zM284 83q60 0 100.5 47t40.5 116
q0 70 -40.5 116.5t-100.5 46.5q-65 0 -101.5 -43.5t-36.5 -119.5t37 -119.5t101 -43.5z" />
    <glyph glyph-name="gbreve.ss01" 
d="M287 541q-66 0 -104 37.5t-38 103.5h77q0 -30 17.5 -47t47.5 -17t47.5 17.5t17.5 46.5h77q0 -67 -37.5 -104t-104.5 -37zM270 -222q-91 0 -154.5 40t-82.5 112l95 38q11 -49 48.5 -75.5t93.5 -26.5q80 0 119 36.5t39 113.5v71q-57 -93 -169 -93q-96 0 -161 72.5
t-65 179.5t64.5 179t160.5 72q114 0 170 -88v77h105v-470q0 -114 -68 -176t-195 -62zM284 83q60 0 100.5 47t40.5 116q0 70 -40.5 116.5t-100.5 46.5q-65 0 -101.5 -43.5t-36.5 -119.5t37 -119.5t101 -43.5z" />
    <glyph glyph-name="gcircumflex.ss01" 
d="M131 544l107 143h98l107 -143h-95l-63 74l-63 -74h-91zM270 -222q-91 0 -154.5 40t-82.5 112l95 38q11 -49 48.5 -75.5t93.5 -26.5q80 0 119 36.5t39 113.5v71q-57 -93 -169 -93q-96 0 -161 72.5t-65 179.5t64.5 179t160.5 72q114 0 170 -88v77h105v-470q0 -114 -68 -176
t-195 -62zM284 83q60 0 100.5 47t40.5 116q0 70 -40.5 116.5t-100.5 46.5q-65 0 -101.5 -43.5t-36.5 -119.5t37 -119.5t101 -43.5z" />
    <glyph glyph-name="uni0123.ss01" 
d="M374 712l-42 -168h-99l55 168h86zM270 -222q-91 0 -154.5 40t-82.5 112l95 38q11 -49 48.5 -75.5t93.5 -26.5q80 0 119 36.5t39 113.5v71q-57 -93 -169 -93q-96 0 -161 72.5t-65 179.5t64.5 179t160.5 72q114 0 170 -88v77h105v-470q0 -114 -68 -176t-195 -62zM284 83
q60 0 100.5 47t40.5 116q0 70 -40.5 116.5t-100.5 46.5q-65 0 -101.5 -43.5t-36.5 -119.5t37 -119.5t101 -43.5z" />
    <glyph glyph-name="gdotaccent.ss01" 
d="M287 555q-26 0 -44.5 17.5t-18.5 43.5t18 43t45 17t45 -17t18 -43t-18.5 -43.5t-44.5 -17.5zM270 -222q-91 0 -154.5 40t-82.5 112l95 38q11 -49 48.5 -75.5t93.5 -26.5q80 0 119 36.5t39 113.5v71q-57 -93 -169 -93q-96 0 -161 72.5t-65 179.5t64.5 179t160.5 72
q114 0 170 -88v77h105v-470q0 -114 -68 -176t-195 -62zM284 83q60 0 100.5 47t40.5 116q0 70 -40.5 116.5t-100.5 46.5q-65 0 -101.5 -43.5t-36.5 -119.5t37 -119.5t101 -43.5z" />
    <glyph glyph-name="y.ss01" horiz-adv-x="567" 
d="M266 -222q-85 0 -144 38.5t-80 107.5l92 42q27 -100 130 -100q66 0 98.5 36.5t32.5 115.5v48q-52 -77 -150 -77q-87 0 -134.5 52t-47.5 144v300h109v-288q0 -117 101 -117q52 0 85 32t33 88v285h109v-476q0 -114 -61 -172.5t-173 -58.5z" />
    <glyph glyph-name="yacute.ss01" horiz-adv-x="567" 
d="M232 544l92 143h120l-124 -143h-88zM266 -222q-85 0 -144 38.5t-80 107.5l92 42q27 -100 130 -100q66 0 98.5 36.5t32.5 115.5v48q-52 -77 -150 -77q-87 0 -134.5 52t-47.5 144v300h109v-288q0 -117 101 -117q52 0 85 32t33 88v285h109v-476q0 -114 -61 -172.5
t-173 -58.5z" />
    <glyph glyph-name="ycircumflex.ss01" horiz-adv-x="567" 
d="M127 544l107 143h98l107 -143h-95l-63 74l-63 -74h-91zM266 -222q-85 0 -144 38.5t-80 107.5l92 42q27 -100 130 -100q66 0 98.5 36.5t32.5 115.5v48q-52 -77 -150 -77q-87 0 -134.5 52t-47.5 144v300h109v-288q0 -117 101 -117q52 0 85 32t33 88v285h109v-476
q0 -114 -61 -172.5t-173 -58.5z" />
    <glyph glyph-name="ydieresis.ss01" horiz-adv-x="567" 
d="M184 555q-27 0 -45 17.5t-18 43.5t18 43t45 17q26 0 44 -17.5t18 -42.5q0 -26 -18 -43.5t-44 -17.5zM383 555q-27 0 -44.5 17.5t-17.5 43.5t17.5 43t44.5 17t44.5 -17t17.5 -43t-17.5 -43.5t-44.5 -17.5zM266 -222q-85 0 -144 38.5t-80 107.5l92 42q27 -100 130 -100
q66 0 98.5 36.5t32.5 115.5v48q-52 -77 -150 -77q-87 0 -134.5 52t-47.5 144v300h109v-288q0 -117 101 -117q52 0 85 32t33 88v285h109v-476q0 -114 -61 -172.5t-173 -58.5z" />
    <glyph glyph-name="ygrave.ss01" horiz-adv-x="567" 
d="M247 544l-123 143h121l92 -143h-90zM266 -222q-85 0 -144 38.5t-80 107.5l92 42q27 -100 130 -100q66 0 98.5 36.5t32.5 115.5v48q-52 -77 -150 -77q-87 0 -134.5 52t-47.5 144v300h109v-288q0 -117 101 -117q52 0 85 32t33 88v285h109v-476q0 -114 -61 -172.5
t-173 -58.5z" />
    <glyph glyph-name="f.ss02" horiz-adv-x="327" 
d="M87 0v394h-77v91h73v77q0 68 40 106.5t109 38.5q84 0 131 -47l-54 -77q-29 36 -68 36q-52 0 -52 -59v-75h132v-91h-125v-394h-109z" />
    <glyph glyph-name="r.ss02" horiz-adv-x="378" 
d="M68 0v485h105v-86q18 46 55.5 70t85.5 24q32 0 54 -8v-106q-34 11 -69 11q-55 0 -89 -34t-34 -103v-253h-108z" />
    <glyph glyph-name="racute.ss02" horiz-adv-x="378" 
d="M175 544l92 143h120l-124 -143h-88zM68 0v485h105v-86q18 46 55.5 70t85.5 24q32 0 54 -8v-106q-34 11 -69 11q-55 0 -89 -34t-34 -103v-253h-108z" />
    <glyph glyph-name="rcaron.ss02" horiz-adv-x="378" 
d="M382 687l-107 -143h-98l-107 143h95l63 -74l63 74h91zM68 0v485h105v-86q18 46 55.5 70t85.5 24q32 0 54 -8v-106q-34 11 -69 11q-55 0 -89 -34t-34 -103v-253h-108z" />
    <glyph glyph-name="uni0157.ss02" horiz-adv-x="378" 
d="M68 0v485h105v-86q18 46 55.5 70t85.5 24q32 0 54 -8v-106q-34 11 -69 11q-55 0 -89 -34t-34 -103v-253h-108zM30 -231l42 168h99l-54 -168h-87z" />
    <glyph glyph-name="f.short.ss02" horiz-adv-x="315" 
d="M87 0v394h-77v91h73v77q0 68 42 106.5t114 38.5q59 0 98 -21l-29 -86q-28 19 -58 19q-29 0 -45 -18t-16 -47v-69h132v-91h-125v-394h-109z" />
    <glyph glyph-name="f_f.ss02" horiz-adv-x="622" 
d="M484 560v-75h132v-91h-125v-394h-109v394h-186v-394h-109v394h-77v91h73v77q0 68 42 106.5t114 38.5q59 0 98 -21l-29 -86q-28 19 -58 19q-29 0 -45 -18t-16 -47v-69h189v77q0 68 40 106.5t109 38.5q84 0 131 -47l-54 -77q-29 36 -68 36q-52 0 -52 -59z" />
    <glyph glyph-name="f_f_i.ss02" horiz-adv-x="853" 
d="M545 619q-29 0 -45 -18t-16 -47v-69h132v-91h-125v-394h-109v394h-186v-394h-109v394h-77v91h73v77q0 68 42 106.5t114 38.5q59 0 98 -21l-29 -86q-28 19 -58 19q-29 0 -45 -18t-16 -47v-69h189v77q0 68 42 106.5t114 38.5q59 0 98 -21l-29 -86q-28 19 -58 19zM731 567
q-28 0 -47.5 18.5t-19.5 45.5q0 28 19.5 46.5t47.5 18.5q29 0 48 -18.5t19 -46.5t-19 -46t-48 -18zM677 0v485h109v-485h-109z" />
    <glyph glyph-name="f_f_l.ss02" horiz-adv-x="853" 
d="M545 619q-29 0 -45 -18t-16 -47v-69h132v-91h-125v-394h-109v394h-186v-394h-109v394h-77v91h73v77q0 68 42 106.5t114 38.5q59 0 98 -21l-29 -86q-28 19 -58 19q-29 0 -45 -18t-16 -47v-69h189v77q0 68 42 106.5t114 38.5q59 0 98 -21l-29 -86q-28 19 -58 19zM677 695
h109v-695h-109v695z" />
    <glyph glyph-name="fi.ss02" horiz-adv-x="558" 
d="M87 0v394h-77v91h73v77q0 68 42 106.5t114 38.5q59 0 98 -21l-29 -86q-28 19 -58 19q-29 0 -45 -18t-16 -47v-69h132v-91h-125v-394h-109zM437 567q-29 0 -48 18t-19 46t19 46.5t48 18.5q28 0 47.5 -18.5t19.5 -46.5q0 -27 -19.5 -45.5t-47.5 -18.5zM383 0v485h108v-485
h-108z" />
    <glyph glyph-name="fl.ss02" horiz-adv-x="558" 
d="M87 0v394h-77v91h73v77q0 68 42 106.5t114 38.5q59 0 98 -21l-29 -86q-28 19 -58 19q-29 0 -45 -18t-16 -47v-69h132v-91h-125v-394h-109zM383 0v695h108v-695h-108z" />
    <glyph glyph-name="zero.osf" horiz-adv-x="608" 
d="M304 -12q-115 0 -190.5 76t-75.5 201t75.5 201.5t190.5 76.5t190.5 -76.5t75.5 -201.5t-75.5 -201t-190.5 -76zM304 76q69 0 111 51t42 138t-42 138t-111 51t-111 -50.5t-42 -138.5q0 -87 42 -138t111 -51z" />
    <glyph glyph-name="one.osf" horiz-adv-x="340" 
d="M154 0v379q-46 -37 -137 -37v99q67 -6 105.5 17.5t38.5 72.5h101v-531h-108z" />
    <glyph glyph-name="two.osf" horiz-adv-x="533" 
d="M26 0v33q0 62 42 111.5t145 92.5l51 21q63 25 89.5 48.5t26.5 64.5q0 40 -27.5 63t-79.5 23q-63 0 -97.5 -38t-40.5 -103l-106 10q6 97 70 157t178 60q101 0 158.5 -46t57.5 -119q0 -74 -43.5 -113.5t-144.5 -77.5l-44 -17q-53 -19 -76 -36.5t-30 -39.5h345v-94h-474z
" />
    <glyph glyph-name="three.osf" horiz-adv-x="564" 
d="M280 -176q-118 0 -186 62.5t-68 163.5q0 39 13 72l104 -21q-8 -26 -8 -50q0 -62 40.5 -100.5t105.5 -38.5q62 0 99.5 32.5t37.5 88.5q0 51 -36 81.5t-98 30.5h-42v88h40q56 0 88.5 30t32.5 81t-33 80.5t-90 29.5q-128 0 -142 -154l-106 12q14 110 78 170.5t173 60.5
q108 0 170 -51t62 -140q0 -60 -37.5 -103t-93.5 -55q67 -11 107 -54t40 -110q0 -94 -69 -150t-182 -56z" />
    <glyph glyph-name="four.osf" horiz-adv-x="553" 
d="M346 -164v164h-330v94q194 201 228 437h111q-41 -249 -223 -442h214v155h106v-155h92v-89h-92v-164h-106z" />
    <glyph glyph-name="five.osf" horiz-adv-x="570" 
d="M287 -176q-111 0 -180 58t-77 151l105 18q2 -56 44 -96.5t104 -40.5t101.5 39t39.5 105q0 63 -38.5 102.5t-100.5 39.5q-81 0 -135 -68l-89 28q30 189 33 371h404v-94h-314q-6 -111 -18 -199q50 52 140 52q103 0 167 -64t64 -167q0 -104 -70 -169.5t-180 -65.5z" />
    <glyph glyph-name="six.osf" horiz-adv-x="594" 
d="M318 707q108 0 171 -54.5t70 -154.5l-107 -14q-15 135 -135 135q-79 0 -125.5 -75t-43.5 -205q50 107 178 107q101 0 167.5 -62.5t66.5 -162.5q0 -102 -70.5 -167.5t-180.5 -65.5q-127 0 -199 91.5t-72 251.5q0 172 75.5 274t204.5 102zM308 358q-62 0 -102 -39.5
t-40 -102.5t39.5 -101.5t102.5 -38.5q61 0 100.5 39t39.5 102q0 62 -39.5 101.5t-100.5 39.5z" />
    <glyph glyph-name="seven.osf" horiz-adv-x="527" 
d="M149 -164q6 327 231 601h-366v94h474v-94q-226 -290 -230 -601h-109z" />
    <glyph glyph-name="eight.osf" horiz-adv-x="580" 
d="M290 -12q-117 0 -187 56t-70 155q0 56 33.5 101.5t93.5 69.5q-104 49 -104 146q0 86 65.5 138.5t168.5 52.5t168.5 -52.5t65.5 -138.5q0 -99 -99 -146q58 -23 90 -69t32 -102q0 -99 -69.5 -155t-187.5 -56zM290 408q54 0 88.5 29.5t34.5 76.5t-34.5 76.5t-88.5 29.5
t-88.5 -29.5t-34.5 -76.5t34.5 -76.5t88.5 -29.5zM290 76q65 0 104.5 33t39.5 89q0 54 -40.5 88t-103.5 34t-103 -33.5t-40 -88.5q0 -56 39.5 -89t103.5 -33z" />
    <glyph glyph-name="nine.osf" horiz-adv-x="594" 
d="M276 -176q-108 0 -171 54.5t-70 154.5l106 14q17 -135 136 -135q78 0 124.5 75t44.5 205q-51 -107 -178 -107q-101 0 -168 62.5t-67 162.5q0 102 71 167.5t181 65.5q127 0 198.5 -91.5t71.5 -251.5q0 -172 -75 -274t-204 -102zM286 173q62 0 102 39.5t40 102.5t-39.5 101
t-102.5 38q-62 0 -101 -38.5t-39 -101.5t39.5 -102t100.5 -39z" />
    <glyph glyph-name="zero.tf" horiz-adv-x="640" 
d="M320 -14q-132 0 -207 98.5t-75 262.5t75 263t207 99q131 0 206.5 -99t75.5 -263t-75.5 -262.5t-206.5 -98.5zM320 82q81 0 125 71.5t44 193.5t-44 194t-125 72t-125 -72t-44 -194t43.5 -193.5t125.5 -71.5z" />
    <glyph glyph-name="one.tf" horiz-adv-x="640" 
d="M399 99h180v-99h-469v99h179v419q-52 -52 -182 -52v104q185 -3 185 125h107v-596z" />
    <glyph glyph-name="two.tf" horiz-adv-x="640" 
d="M69 0v47q0 140 172 236l112 62q59 33 84 68t25 81q0 56 -36.5 87.5t-96.5 31.5q-63 0 -101 -36t-38 -88q0 -42 15 -72l-104 -33q-23 46 -23 105q0 90 69.5 155t187.5 65q109 0 174.5 -57t65.5 -151q0 -75 -38.5 -129.5t-127.5 -103.5l-114 -62q-95 -52 -101 -106h393
l-1 -100h-517z" />
    <glyph glyph-name="three.tf" horiz-adv-x="640" 
d="M322 -14q-123 0 -194 62.5t-71 167.5q0 40 14 80l106 -28q-8 -26 -8 -51q0 -64 41.5 -100.5t111.5 -36.5q63 0 101 31.5t38 85.5q0 51 -37.5 80.5t-102.5 29.5h-43v93h42q59 0 92 28t33 78q0 52 -33.5 80.5t-93.5 28.5q-65 0 -102 -41.5t-45 -113.5l-108 14
q14 109 80.5 172t177.5 63q112 0 175 -51.5t63 -141.5q0 -59 -38 -102t-94 -55q68 -11 108 -54.5t40 -111.5q0 -94 -69 -150.5t-184 -56.5z" />
    <glyph glyph-name="four.tf" horiz-adv-x="640" 
d="M382 0v161h-332v103q97 89 161.5 200t81.5 231h112q-20 -128 -81.5 -242.5t-151.5 -193.5h210v153h107v-153h98v-98h-98v-161h-107z" />
    <glyph glyph-name="five.tf" horiz-adv-x="640" 
d="M313 -14q-113 0 -183.5 59.5t-76.5 152.5l107 20q3 -56 45.5 -97t106.5 -41q63 0 102.5 39.5t39.5 102.5q0 62 -39.5 101.5t-103.5 39.5q-82 0 -136 -68l-89 27q26 159 34 373h412v-99h-318q-6 -109 -18 -199q49 55 141 55q104 0 167.5 -63.5t63.5 -166.5
q0 -104 -71 -170t-184 -66z" />
    <glyph glyph-name="six.tf" horiz-adv-x="640" 
d="M333 -14q-130 0 -204.5 92.5t-74.5 253.5q0 172 77.5 274.5t207.5 102.5q115 0 178.5 -53.5t72.5 -154.5l-108 -16q-13 130 -141 130q-81 0 -130 -73.5t-46 -203.5q51 112 186 112q106 0 174.5 -63t68.5 -166t-73.5 -169t-187.5 -66zM333 78q64 0 105.5 39.5t41.5 101.5
q0 61 -41.5 100.5t-105.5 39.5t-106.5 -40t-42.5 -101t42 -100.5t107 -39.5z" />
    <glyph glyph-name="seven.tf" horiz-adv-x="640" 
d="M198 0q6 323 225 597h-369v98h483v-102q-112 -146 -169 -288.5t-59 -304.5h-111z" />
    <glyph glyph-name="eight.tf" horiz-adv-x="640" 
d="M321 -14q-123 0 -195 56.5t-72 156.5q0 55 32 101.5t91 69.5q-99 50 -99 147q0 86 68 139t175 53t175 -53t68 -139q0 -99 -99 -147q58 -23 90.5 -69.5t32.5 -101.5q0 -100 -72.5 -156.5t-194.5 -56.5zM321 409q57 0 93.5 29.5t36.5 76.5q0 46 -36.5 75.5t-93.5 29.5
t-93.5 -29.5t-36.5 -75.5q0 -47 36.5 -76.5t93.5 -29.5zM321 76q69 0 111 32.5t42 89.5q0 54 -43 88.5t-110 34.5t-109.5 -34.5t-42.5 -88.5q0 -57 41.5 -89.5t110.5 -32.5z" />
    <glyph glyph-name="nine.tf" horiz-adv-x="640" 
d="M301 -14q-114 0 -179 56t-73 158l108 14q17 -134 141 -134q83 0 132.5 74t46.5 204q-51 -110 -182 -110q-107 0 -177 63t-70 165t73.5 167.5t186.5 65.5q131 0 205.5 -92t74.5 -252q0 -172 -78 -275.5t-209 -103.5zM309 339q64 0 106.5 40t42.5 100q0 59 -42.5 98.5
t-106.5 39.5t-105.5 -39.5t-41.5 -99.5t41.5 -99.5t105.5 -39.5z" />
    <glyph glyph-name="zero.tosf" horiz-adv-x="600" 
d="M300 -12q-113 0 -187 76.5t-74 201.5t74 201t187 76t187 -76t74 -201t-74 -201.5t-187 -76.5zM300 76q67 0 108 51.5t41 138.5q0 86 -41 137.5t-108 51.5t-108 -51t-41 -138q0 -88 41 -139t108 -51z" />
    <glyph glyph-name="one.tosf" horiz-adv-x="600" 
d="M377 90h142v-90h-411v90h160v289q-49 -40 -157 -40v99q70 -6 115 18.5t45 74.5h106v-441z" />
    <glyph glyph-name="two.tosf" horiz-adv-x="600" 
d="M56 0v33q0 62 42 111.5t145 92.5l51 21q63 25 89.5 48.5t26.5 64.5q0 40 -27.5 63t-79.5 23q-63 0 -97.5 -38t-40.5 -103l-106 10q6 97 70 157t178 60q101 0 158.5 -46t57.5 -119q0 -74 -43.5 -113.5t-144.5 -77.5l-44 -17q-53 -19 -76 -36.5t-30 -39.5h345v-94h-474z
" />
    <glyph glyph-name="three.tosf" horiz-adv-x="600" 
d="M297 -176q-118 0 -186.5 62.5t-68.5 163.5q0 35 13 71l105 -20q-8 -26 -8 -50q0 -62 40 -100.5t105 -38.5q62 0 100 32.5t38 87.5q0 51 -36.5 82t-97.5 31h-43v88h41q55 0 87.5 30t32.5 81t-32.5 80.5t-90.5 29.5q-128 0 -142 -155l-105 13q13 110 77 170.5t173 60.5
q108 0 170 -51t62 -140q0 -60 -37.5 -103t-92.5 -55q67 -11 106.5 -54t39.5 -110q0 -94 -69 -150t-181 -56z" />
    <glyph glyph-name="four.tosf" horiz-adv-x="600" 
d="M373 -164v164h-330v94q194 201 228 437h112q-41 -248 -224 -442h214v155h106v-155h92v-89h-92v-164h-106z" />
    <glyph glyph-name="five.tosf" horiz-adv-x="600" 
d="M308 -176q-111 0 -179.5 57.5t-76.5 151.5l105 18q2 -56 44 -96.5t104 -40.5t101.5 39t39.5 105q0 63 -38.5 102.5t-100.5 39.5q-81 0 -135 -68l-89 28q30 189 33 371h404v-94h-314q-6 -111 -18 -199q50 52 140 52q103 0 167 -64t64 -167q0 -104 -70 -169.5t-181 -65.5z
" />
    <glyph glyph-name="six.tosf" horiz-adv-x="600" 
d="M324 707q108 0 171 -54.5t70 -154.5l-106 -14q-17 135 -136 135q-78 0 -124.5 -75t-44.5 -205q51 107 178 107q101 0 168 -62.5t67 -162.5q0 -102 -71 -167.5t-181 -65.5q-127 0 -198.5 91.5t-71.5 251.5q0 172 75 274t204 102zM314 358q-62 0 -102 -39.5t-40 -102.5
t39.5 -101.5t102.5 -38.5q62 0 101 39t39 102t-39.5 102t-100.5 39z" />
    <glyph glyph-name="seven.tosf" horiz-adv-x="600" 
d="M179 -164q6 327 231 601h-366v94h474v-94q-226 -290 -230 -601h-109z" />
    <glyph glyph-name="eight.tosf" horiz-adv-x="600" 
d="M299 -12q-117 0 -187 56t-70 155q0 56 33.5 101.5t93.5 69.5q-104 49 -104 146q0 86 65.5 138.5t168.5 52.5t169 -52.5t66 -138.5q0 -49 -27 -86.5t-73 -59.5q58 -23 90 -69t32 -102q0 -99 -69.5 -155t-187.5 -56zM299 408q55 0 89 29.5t34 76.5t-34 76.5t-89 29.5
q-54 0 -88.5 -29.5t-34.5 -76.5t34.5 -76.5t88.5 -29.5zM299 76q65 0 104.5 33t39.5 89q0 54 -40.5 88t-103.5 34t-103 -33.5t-40 -88.5q0 -56 39.5 -89t103.5 -33z" />
    <glyph glyph-name="nine.tosf" horiz-adv-x="600" 
d="M282 -176q-108 0 -171.5 54.5t-70.5 154.5l107 14q17 -135 135 -135q79 0 125.5 75t43.5 205q-50 -107 -178 -107q-100 0 -167 62.5t-67 162.5q0 103 71 168t181 65q127 0 198.5 -91.5t71.5 -251.5q0 -172 -75 -274t-204 -102zM291 173q63 0 102.5 39.5t39.5 102.5
t-39.5 101t-102.5 38q-61 0 -100 -38.5t-39 -101.5q0 -62 39 -101.5t100 -39.5z" />
    <glyph glyph-name="exclamdown.case" horiz-adv-x="271" 
d="M136 706q30 0 51 -21t21 -52q0 -30 -21 -50.5t-51 -20.5q-31 0 -52 20.5t-21 50.5q0 31 21 52t52 21zM181 495l10 -495h-118l10 495h98z" />
    <glyph glyph-name="questiondown.case" horiz-adv-x="558" 
d="M291 706q30 0 51.5 -21t21.5 -52q0 -30 -21.5 -50.5t-51.5 -20.5q-31 0 -52 20.5t-21 50.5q0 31 21 52t52 21zM341 498q0 -50 -20 -86.5t-67 -72.5q-60 -47 -81.5 -77.5t-21.5 -70.5q0 -49 33.5 -78.5t88.5 -29.5q57 0 92.5 34t35.5 84q0 36 -14 67l106 32q22 -43 22 -99
q0 -89 -67.5 -152t-180.5 -63q-108 0 -170 53.5t-62 147.5q0 62 32 109.5t106 100.5q33 24 44.5 45.5t12.5 55.5h111z" />
    <glyph glyph-name="periodcentered.case" horiz-adv-x="253" 
d="M126 281q-30 0 -51 21.5t-21 51.5t21 50.5t51 20.5q31 0 52 -20.5t21 -50.5q0 -31 -21 -52t-52 -21z" />
    <glyph glyph-name="slash.case" horiz-adv-x="421" 
d="M15 -67l302 830h89l-302 -830h-89z" />
    <glyph glyph-name="backslash.case" horiz-adv-x="423" 
d="M317 -67l-302 830h91l302 -830h-91z" />
    <glyph glyph-name="parenleft.case" horiz-adv-x="356" 
d="M290 -90q-222 143 -222 437t222 437l43 -72q-171 -121 -171 -365t171 -365z" />
    <glyph glyph-name="parenright.case" horiz-adv-x="356" 
d="M67 -90l-43 72q171 121 171 365t-171 365l43 72q222 -143 222 -437t-222 -437z" />
    <glyph glyph-name="braceleft.case" horiz-adv-x="394" 
d="M358 -90q-115 4 -166.5 37t-51.5 103q0 35 18.5 90t18.5 86q0 83 -129 83h-7v75h7q129 0 129 83q0 31 -18.5 87t-18.5 90q0 70 51.5 103t166.5 37v-82q-72 -3 -99.5 -18t-27.5 -57q0 -23 19 -77.5t19 -95.5q0 -91 -98 -108q98 -16 98 -105q0 -42 -19 -96t-19 -77
q0 -43 27.5 -58t99.5 -18v-82z" />
    <glyph glyph-name="braceright.case" horiz-adv-x="394" 
d="M36 -90v82q72 3 99.5 17.5t27.5 57.5q0 23 -18.5 77.5t-18.5 95.5q0 91 98 108q-98 15 -98 105q0 42 18.5 96t18.5 77q0 43 -27 58t-100 18v82q115 -4 166.5 -37t51.5 -103q0 -34 -18 -89t-18 -87q0 -83 128 -83h7v-75h-7q-128 0 -128 -83q0 -31 18 -86.5t18 -90.5
q0 -70 -51.5 -103t-166.5 -37z" />
    <glyph glyph-name="bracketleft.case" horiz-adv-x="349" 
d="M320 702h-131v-710h131v-82h-223v874h223v-82z" />
    <glyph glyph-name="bracketright.case" horiz-adv-x="349" 
d="M251 784v-874h-222v80h130v714h-130v80h222z" />
    <glyph glyph-name="hyphen.case" horiz-adv-x="371" 
d="M54 307v96h263v-96h-263z" />
    <glyph glyph-name="endash.case" horiz-adv-x="587" 
d="M60 309v90h466v-90h-466z" />
    <glyph glyph-name="emdash.case" horiz-adv-x="1000" 
d="M35 308v90h930v-90h-930z" />
    <glyph glyph-name="guillemotleft.case" horiz-adv-x="545" 
d="M259 174l-217 131v97l217 130v-102l-131 -77l131 -76v-103zM492 174l-217 131v97l217 130v-102l-131 -77l131 -76v-103z" />
    <glyph glyph-name="guillemotright.case" horiz-adv-x="545" 
d="M52 174v102l132 77l-132 76v103l217 -130v-97zM285 174v102l132 77l-132 76v103l217 -130v-97z" />
    <glyph glyph-name="guilsinglleft.case" horiz-adv-x="304" 
d="M259 174l-217 131v97l217 130v-102l-131 -77l131 -76v-103z" />
    <glyph glyph-name="guilsinglright.case" horiz-adv-x="312" 
d="M52 175v102l132 77l-132 75v104l217 -130v-98z" />
    <glyph glyph-name="at.case" horiz-adv-x="941" 
d="M457 -66q-177 0 -294.5 111t-117.5 287q0 180 123.5 294.5t307.5 114.5q187 0 306 -106.5t119 -272.5q0 -126 -53 -186t-133 -60q-50 0 -82 23t-40 59q-50 -81 -148 -81q-85 0 -141 63.5t-56 155.5t56 155.5t141 63.5q93 0 140 -69v57h87v-284q0 -30 13.5 -46t36.5 -16
q42 0 66 43t24 121q0 133 -94.5 217.5t-242.5 84.5q-150 0 -245 -92t-95 -239q0 -143 90 -231.5t233 -88.5q99 0 185 55l30 -74q-92 -59 -216 -59zM464 199q53 0 86.5 39t33.5 98t-33.5 98t-86.5 39q-54 0 -87.5 -38.5t-33.5 -98.5t33.5 -98.5t87.5 -38.5z" />
    <glyph glyph-name="bar.case" horiz-adv-x="286" 
d="M101 -67v830h84v-830h-84z" />
    <glyph glyph-name="brokenbar.case" horiz-adv-x="286" 
d="M101 422v341h84v-341h-84zM101 -67v339h84v-339h-84z" />
    <glyph glyph-name="uni030C.alt" horiz-adv-x="0" 
d="M-208 520l21 175h99l-43 -175h-77z" />
    </font>
</defs>
</svg>
