<svg width="29" height="27" viewBox="0 0 29 27" fill="none" xmlns="http://www.w3.org/2000/svg">
<path fill-rule="evenodd" clip-rule="evenodd" d="M9.75257 10.3495C12.2858 7.81634 13.7089 4.38058 13.7089 0.798096L12.5949 0.798096C12.5949 4.08512 11.2891 7.23752 8.96483 9.56179C6.64055 11.8861 3.48815 13.1918 0.20113 13.1918V13.3133V14.3059V14.4273C3.48815 14.4273 6.64055 15.7331 8.96483 18.0574C11.2891 20.3817 12.5949 23.534 12.5949 26.8211H13.7089C13.7089 23.2386 12.2858 19.8028 9.75257 17.2696C8.50166 16.0187 7.03066 15.0385 5.43059 14.3666L28.3728 14.3666V13.2526L5.43044 13.2526C7.03057 12.5807 8.50162 11.6005 9.75257 10.3495Z" fill="black"/>
</svg>
