<svg width="29" height="27" viewBox="0 0 29 27" fill="none" xmlns="http://www.w3.org/2000/svg">
<path fill-rule="evenodd" clip-rule="evenodd" d="M19.2477 10.3495C16.7145 7.81634 15.2913 4.38058 15.2913 0.798096L16.4054 0.798096C16.4054 4.08512 17.7111 7.23752 20.0354 9.56179C22.3597 11.8861 25.5121 13.1918 28.7991 13.1918V13.3133V14.3059V14.4273C25.5121 14.4273 22.3597 15.7331 20.0354 18.0574C17.7111 20.3817 16.4054 23.534 16.4054 26.8211H15.2913C15.2913 23.2386 16.7145 19.8028 19.2477 17.2696C20.4986 16.0187 21.9696 15.0385 23.5697 14.3666L0.627441 14.3666L0.627441 13.2526L23.5698 13.2526C21.9697 12.5807 20.4986 11.6005 19.2477 10.3495Z" fill="black"/>
</svg>
