<svg width="13" height="15" viewBox="0 0 13 15" fill="none" xmlns="http://www.w3.org/2000/svg">
<path fill-rule="evenodd" clip-rule="evenodd" d="M1.94947 0H11.0646C11.9948 0 12.7533 0.758478 12.7511 1.68873V13.3113C12.7511 14.2415 11.9948 15 11.0623 15H1.94947C1.01922 15 0.260742 14.2438 0.260742 13.3113V1.68873C0.260742 0.758478 1.01699 0 1.94947 0ZM11.0646 13.6615C11.2564 13.6615 11.4148 13.5054 11.4148 13.3113H11.4126V1.68873C11.4126 1.49688 11.2564 1.33849 11.0623 1.33849H1.94947C1.75762 1.33849 1.59923 1.49465 1.59923 1.68873V13.3113C1.59923 13.5031 1.75539 13.6615 1.94947 13.6615H11.0646ZM8.65084 3.53142C8.74899 3.17449 9.11708 2.96479 9.47401 3.06295C9.83094 3.1611 10.0406 3.52919 9.94248 3.88389C9.47178 5.59046 8.16006 6.6501 6.5561 6.6501C6.46464 6.6501 6.37318 6.64787 6.28171 6.64117C4.69337 6.52294 3.41288 5.42315 3.10057 3.90173C3.02472 3.54034 3.25896 3.18564 3.62035 3.11202C3.98174 3.03618 4.33644 3.27041 4.41006 3.6318C4.60191 4.56205 5.39385 5.23353 6.37987 5.30715C7.45735 5.38969 8.32737 4.70706 8.65084 3.53142Z" fill="white"/>
</svg>
