<svg width="76" height="77" viewBox="0 0 76 77" fill="none" xmlns="http://www.w3.org/2000/svg">
<path d="M75.7191 38.3726C75.7191 59.2044 58.8316 76.0919 37.9998 76.0919C17.168 76.0919 0.280518 59.2044 0.280518 38.3726C0.280518 17.5408 17.168 0.65332 37.9998 0.65332C58.8316 0.65332 75.7191 17.5408 75.7191 38.3726Z" fill="#FEBF49"/>
<path d="M44.6643 28.6301C44.4364 28.6301 44.2512 28.8296 44.0945 29.1857C44.5646 29.5846 44.8495 30.1545 44.8495 30.8811C44.8495 32.4197 43.5816 33.246 42.0002 33.246C41.5443 33.246 41.117 33.1748 40.7465 33.0465C40.4474 33.1463 40.2052 33.36 40.2052 33.6591C40.2052 33.9726 40.4331 34.2147 40.8463 34.2147H43.3964C45.2627 34.2147 46.0462 34.9556 46.0462 36.2235C46.0462 37.7764 44.3794 38.7594 42.2994 38.7594C39.7635 38.7594 38.5383 37.9473 38.5383 36.7364C38.5383 36.0953 38.923 35.6394 39.6068 35.2975C39.1367 34.9983 38.866 34.5567 38.866 33.9868C38.866 33.2887 39.2791 32.8328 39.8633 32.5337C39.4216 32.1348 39.1509 31.5934 39.1509 30.8811C39.1509 29.3424 40.4189 28.5161 42.0002 28.5161C42.4276 28.5161 42.8408 28.5731 43.2112 28.7013C43.6243 27.8608 44.1515 27.5046 44.8495 27.5046C45.5049 27.5046 46.2172 27.9035 46.2172 29.0575V29.2855L45.1487 29.4564C45.1202 28.8581 44.9778 28.6301 44.6643 28.6301ZM42.0002 32.1348C42.7553 32.1348 43.3679 31.7074 43.3679 30.8811C43.3679 30.0833 42.7553 29.6416 42.0002 29.6416C41.2452 29.6416 40.6468 30.0833 40.6468 30.8811C40.6468 31.7074 41.2452 32.1348 42.0002 32.1348ZM43.2112 35.6536H41.1312C40.4759 35.6536 40.02 35.9956 40.02 36.4942C40.02 37.178 40.7038 37.5769 42.2852 37.5769C43.5674 37.5769 44.5076 37.0925 44.5076 36.3802C44.5076 35.8673 44.123 35.6536 43.2112 35.6536Z" fill="black"/>
<path d="M33.885 35.7963C31.691 35.7963 30.2949 34.5142 30.1809 32.7761L31.7053 32.4911C31.748 33.5169 32.6028 34.4572 33.8565 34.4572C35.039 34.4572 35.8795 33.6451 35.8795 32.4342C35.8795 31.2517 35.0532 30.4254 33.8565 30.4254C33.0445 30.4254 32.4176 30.7673 31.9047 31.3942L30.651 31.0095C30.879 29.5421 31.0784 27.2627 31.1212 25.6956H37.005V27.106H32.4746C32.4319 27.918 32.3464 29.0008 32.2039 29.941C32.674 29.4281 33.4291 29.1575 34.2269 29.1575C36.2072 29.1575 37.5179 30.4966 37.5179 32.4342C37.5179 34.4002 36.0362 35.7963 33.885 35.7963Z" fill="black"/>
<path d="M46.9244 51.0497C46.5993 51.0497 46.4368 50.8872 46.4368 50.5621C46.4368 50.4956 46.4442 50.4292 46.459 50.3627C46.4812 50.2962 46.5033 50.2297 46.5255 50.1632L48.9632 43.3819C49.0519 43.1381 49.159 42.9682 49.2845 42.8722C49.4101 42.7688 49.5911 42.717 49.8275 42.717C50.0639 42.717 50.2449 42.7688 50.3705 42.8722C50.496 42.9682 50.6031 43.1381 50.6918 43.3819L53.1295 50.1632C53.1517 50.2297 53.1702 50.2962 53.1849 50.3627C53.2071 50.4292 53.2182 50.4956 53.2182 50.5621C53.2182 50.8872 53.0557 51.0497 52.7306 51.0497C52.6198 51.0497 52.5127 51.0201 52.4093 50.961C52.3059 50.8945 52.2209 50.7616 52.1544 50.5621L51.4564 48.5676H48.1876L47.5006 50.5621C47.4341 50.7616 47.3491 50.8945 47.2457 50.961C47.1423 51.0201 47.0352 51.0497 46.9244 51.0497ZM48.5089 47.6368H51.135L49.8275 43.8362L48.5089 47.6368Z" fill="black"/>
<path d="M39.0787 51.0497C38.7536 51.0497 38.5911 50.8872 38.5911 50.5621C38.5911 50.4956 38.5985 50.4292 38.6133 50.3627C38.6354 50.2962 38.6576 50.2297 38.6798 50.1632L41.1175 43.3819C41.2062 43.1381 41.3133 42.9682 41.4388 42.8722C41.5644 42.7688 41.7454 42.717 41.9818 42.717C42.2182 42.717 42.3992 42.7688 42.5247 42.8722C42.6503 42.9682 42.7574 43.1381 42.8461 43.3819L45.2838 50.1632C45.306 50.2297 45.3245 50.2962 45.3392 50.3627C45.3614 50.4292 45.3725 50.4956 45.3725 50.5621C45.3725 50.8872 45.21 51.0497 44.8849 51.0497C44.7741 51.0497 44.667 51.0201 44.5636 50.961C44.4602 50.8945 44.3752 50.7616 44.3087 50.5621L43.6106 48.5676H40.3419L39.6549 50.5621C39.5884 50.7616 39.5034 50.8945 39.4 50.961C39.2966 51.0201 39.1895 51.0497 39.0787 51.0497ZM40.6632 47.6368H43.2893L41.9818 43.8362L40.6632 47.6368Z" fill="black"/>
<path d="M34.4455 51.0497C33.8545 51.0497 33.3263 50.9463 32.8609 50.7394C32.3955 50.5252 32.0003 50.2334 31.6753 49.864C31.3577 49.4947 31.1102 49.0552 30.9329 48.5455C30.763 48.0357 30.678 47.4817 30.678 46.8834C30.678 46.285 30.763 45.731 30.9329 45.2213C31.1102 44.7116 31.3577 44.272 31.6753 43.9027C32.0003 43.5333 32.3955 43.2452 32.8609 43.0384C33.3263 42.8242 33.8545 42.717 34.4455 42.717C34.8517 42.717 35.2359 42.7651 35.5978 42.8611C35.9598 42.9497 36.2738 43.0679 36.5397 43.2157C36.813 43.356 37.0272 43.5148 37.1824 43.6921C37.3375 43.8694 37.4151 44.0467 37.4151 44.224C37.4151 44.3348 37.3781 44.4308 37.3043 44.5121C37.2378 44.586 37.127 44.6229 36.9718 44.6229C36.8167 44.6229 36.6653 44.5749 36.5175 44.4789C36.3698 44.3754 36.1999 44.2646 36.0078 44.1464C35.8231 44.0209 35.6015 43.9064 35.343 43.8029C35.0918 43.6995 34.7779 43.6478 34.4011 43.6478C34.0318 43.6478 33.6883 43.7143 33.3706 43.8473C33.053 43.9728 32.776 44.1686 32.5396 44.4345C32.3106 44.7005 32.1259 45.0366 31.9856 45.4429C31.8526 45.8492 31.7861 46.3293 31.7861 46.8834C31.7861 47.4374 31.8526 47.9175 31.9856 48.3238C32.1259 48.7301 32.3106 49.0662 32.5396 49.3322C32.776 49.5981 33.053 49.7976 33.3706 49.9305C33.6883 50.0561 34.0318 50.1189 34.4011 50.1189C34.7779 50.1189 35.0918 50.0709 35.343 49.9749C35.6015 49.8714 35.8231 49.7606 36.0078 49.6424C36.1999 49.5169 36.3698 49.4024 36.5175 49.2989C36.6653 49.1955 36.8167 49.1438 36.9718 49.1438C37.127 49.1438 37.2378 49.1844 37.3043 49.2657C37.3781 49.3396 37.4151 49.4319 37.4151 49.5427C37.4151 49.72 37.3375 49.901 37.1824 50.0857C37.0272 50.2629 36.813 50.4255 36.5397 50.5732C36.2738 50.7136 35.9598 50.8281 35.5978 50.9167C35.2359 51.0054 34.8517 51.0497 34.4455 51.0497Z" fill="black"/>
<path d="M23.7119 50.9613C23.3573 50.9613 23.18 50.7987 23.18 50.4737V43.2935C23.18 42.9684 23.3573 42.8059 23.7119 42.8059H25.7507C26.2161 42.8059 26.6261 42.8576 26.9806 42.961C27.3352 43.0645 27.6307 43.2122 27.8671 43.4043C28.1035 43.5889 28.2808 43.8106 28.399 44.0691C28.5245 44.3276 28.5873 44.6084 28.5873 44.9112C28.5873 45.2732 28.4876 45.5908 28.2882 45.8642C28.0961 46.1375 27.8265 46.3591 27.4793 46.529C27.9742 46.7211 28.3546 46.987 28.6206 47.3268C28.8939 47.6666 29.0306 48.0803 29.0306 48.5678C29.0306 48.915 28.9641 49.2364 28.8311 49.5318C28.7055 49.8199 28.5135 50.0711 28.2549 50.2853C28.0038 50.4922 27.6861 50.6584 27.302 50.784C26.9252 50.9022 26.482 50.9613 25.9723 50.9613H23.7119ZM24.2437 50.0305H26.0166C26.6667 50.0305 27.1469 49.8975 27.4571 49.6316C27.7674 49.3656 27.9225 49.0111 27.9225 48.5678C27.9225 48.132 27.7711 47.7848 27.4682 47.5263C27.1727 47.2603 26.7184 47.12 26.1053 47.1052H24.2437V50.0305ZM25.795 46.2631C26.3269 46.2631 26.7406 46.156 27.0361 45.9417C27.3315 45.7275 27.4793 45.4135 27.4793 44.9999C27.4793 44.5862 27.3315 44.2722 27.0361 44.058C26.7406 43.8438 26.3269 43.7367 25.795 43.7367H24.2437V46.2631H25.795Z" fill="black"/>
</svg>
