<svg width="76" height="76" viewBox="0 0 76 76" fill="none" xmlns="http://www.w3.org/2000/svg">
<path d="M75.7191 38.1939C75.7191 59.0257 58.8316 75.9132 37.9998 75.9132C17.168 75.9132 0.280518 59.0257 0.280518 38.1939C0.280518 17.3621 17.168 0.474609 37.9998 0.474609C58.8316 0.474609 75.7191 17.3621 75.7191 38.1939Z" fill="#FEBF49"/>
<path d="M47.5041 36.933C44.8543 36.933 43.2872 34.9385 43.2872 31.7901C43.2872 28.6416 44.8543 26.6328 47.5041 26.6328C50.1113 26.6328 51.6926 28.6416 51.6926 31.7901C51.6926 34.9385 50.1113 36.933 47.5041 36.933ZM47.5041 35.5369C49.171 35.5369 50.0543 33.9555 50.0543 31.7901C50.0543 29.6246 49.171 28.029 47.5041 28.029C45.8088 28.029 44.9398 29.6246 44.9398 31.7901C44.9398 33.9555 45.8088 35.5369 47.5041 35.5369Z" fill="black"/>
<path d="M37.6683 36.933C35.0184 36.933 33.4513 34.9385 33.4513 31.7901C33.4513 28.6416 35.0184 26.6328 37.6683 26.6328C40.2754 26.6328 41.8567 28.6416 41.8567 31.7901C41.8567 34.9385 40.2754 36.933 37.6683 36.933ZM37.6683 35.5369C39.3351 35.5369 40.2184 33.9555 40.2184 31.7901C40.2184 29.6246 39.3351 28.029 37.6683 28.029C35.9729 28.029 35.1039 29.6246 35.1039 31.7901C35.1039 33.9555 35.9729 35.5369 37.6683 35.5369Z" fill="black"/>
<path d="M29.4208 36.7336V34.4399H24.7052V32.9725C26.4718 31.3484 27.8252 29.183 28.1671 26.8323H29.7627C29.3781 29.2684 28.1386 31.5479 26.4433 33.0438H29.4208V30.864H30.9594V33.0438H32.3556V34.4399H30.9594V36.7336H29.4208Z" fill="black"/>
<path d="M47.1996 49.755C46.8229 49.755 46.4757 49.707 46.158 49.611C45.8478 49.5149 45.5781 49.3894 45.3491 49.2342C45.1201 49.0717 44.9429 48.8907 44.8173 48.6913C44.6917 48.4918 44.6289 48.285 44.6289 48.0708C44.6289 47.9156 44.6695 47.7974 44.7508 47.7162C44.8321 47.6275 44.9392 47.5832 45.0721 47.5832C45.1977 47.5832 45.3011 47.6165 45.3824 47.6829C45.4636 47.742 45.5375 47.8196 45.604 47.9156C45.6779 48.0117 45.7554 48.1151 45.8367 48.2259C45.9179 48.3367 46.0214 48.4401 46.147 48.5362C46.2725 48.6322 46.4277 48.7134 46.6123 48.7799C46.8044 48.839 47.0445 48.8686 47.3326 48.8686C47.8423 48.8686 48.2264 48.7762 48.485 48.5916C48.7509 48.4069 48.8839 48.1594 48.8839 47.8492C48.8839 47.5389 48.7583 47.3173 48.5071 47.1843C48.2633 47.044 47.8866 46.9405 47.3769 46.8741L47.0223 46.8297C46.7416 46.8002 46.4646 46.7522 46.1913 46.6857C45.9253 46.6192 45.6853 46.5232 45.471 46.3976C45.2642 46.272 45.0943 46.1058 44.9613 45.899C44.8284 45.6921 44.7619 45.4262 44.7619 45.1012C44.7619 44.7835 44.8284 44.5102 44.9613 44.2812C45.1017 44.0448 45.2864 43.8564 45.5154 43.7161C45.7517 43.5683 46.0177 43.4612 46.3132 43.3947C46.6086 43.3209 46.9189 43.2839 47.2439 43.2839C47.6281 43.2839 47.9753 43.332 48.2855 43.428C48.6032 43.524 48.8691 43.6459 49.0833 43.7936C49.3049 43.9414 49.4748 44.1076 49.593 44.2923C49.7112 44.477 49.7703 44.6579 49.7703 44.8352C49.7703 44.9682 49.7297 45.0753 49.6484 45.1566C49.5746 45.2378 49.4822 45.2784 49.3714 45.2784C49.2458 45.2784 49.1424 45.2526 49.0612 45.2009C48.9799 45.1418 48.9023 45.0716 48.8285 44.9904C48.7546 44.9091 48.677 44.8204 48.5958 44.7244C48.5145 44.6284 48.4111 44.5397 48.2855 44.4585C48.1673 44.3772 48.0159 44.3107 47.8312 44.259C47.6539 44.1999 47.4286 44.1704 47.1553 44.1704C46.7121 44.1704 46.3723 44.2406 46.1359 44.3809C45.8995 44.5139 45.7813 44.7244 45.7813 45.0125C45.7813 45.3006 45.9032 45.4964 46.147 45.5998C46.3981 45.7032 46.7785 45.7882 47.2883 45.8546L47.6428 45.899C47.9826 45.9433 48.2929 46.0098 48.5736 46.0984C48.8543 46.1871 49.0907 46.3053 49.2828 46.453C49.4822 46.5933 49.6337 46.7743 49.7371 46.9959C49.8479 47.2102 49.9033 47.465 49.9033 47.7605C49.9033 48.0855 49.8331 48.3736 49.6927 48.6248C49.5598 48.8686 49.3714 49.0754 49.1276 49.2453C48.8913 49.4078 48.6068 49.5334 48.2744 49.6221C47.942 49.7107 47.5837 49.755 47.1996 49.755Z" fill="black"/>
<path d="M42.1855 49.7549C41.8457 49.7549 41.6758 49.5924 41.6758 49.2673V41.3779C41.6758 41.0529 41.8457 40.8904 42.1855 40.8904C42.5253 40.8904 42.6952 41.0529 42.6952 41.3779V49.2673C42.6952 49.5924 42.5253 49.7549 42.1855 49.7549Z" fill="black"/>
<path d="M36.1472 49.755C35.8 49.755 35.4749 49.7107 35.1721 49.6221C34.8766 49.5334 34.6143 49.4078 34.3853 49.2453C34.1637 49.0754 33.9864 48.8686 33.8535 48.6248C33.7279 48.3736 33.6651 48.0855 33.6651 47.7605C33.6651 47.4429 33.7316 47.1548 33.8646 46.8962C33.9975 46.6303 34.1896 46.405 34.4407 46.2203C34.6993 46.0282 35.0059 45.8842 35.3604 45.7882C35.7224 45.6847 36.1324 45.633 36.5904 45.633C36.9302 45.633 37.2331 45.6515 37.499 45.6884C37.7649 45.7254 38.0383 45.7808 38.319 45.8546V45.5001C38.319 45.1012 38.2008 44.7872 37.9644 44.5582C37.7354 44.3292 37.366 44.2147 36.8563 44.2147C36.5682 44.2147 36.3245 44.2443 36.125 44.3034C35.9329 44.3625 35.763 44.4289 35.6153 44.5028C35.4749 44.5767 35.342 44.6432 35.2164 44.7023C35.0908 44.7614 34.9578 44.7909 34.8175 44.7909C34.6845 44.7909 34.57 44.7577 34.474 44.6912C34.378 44.6247 34.3299 44.525 34.3299 44.392C34.3299 44.2369 34.3927 44.0928 34.5183 43.9599C34.6439 43.8269 34.8138 43.7124 35.028 43.6164C35.2496 43.5129 35.5082 43.4317 35.8037 43.3726C36.0991 43.3135 36.4205 43.2839 36.7677 43.2839C37.1296 43.2839 37.4658 43.3283 37.776 43.4169C38.0937 43.4982 38.367 43.6274 38.596 43.8047C38.8324 43.982 39.0134 44.2073 39.1389 44.4806C39.2719 44.754 39.3384 45.079 39.3384 45.4557V49.2675C39.3384 49.5925 39.1685 49.755 38.8287 49.755C38.4889 49.755 38.319 49.5925 38.319 49.2675V48.8575C38.0678 49.116 37.7612 49.3303 37.3993 49.5002C37.0373 49.6701 36.6199 49.755 36.1472 49.755ZM36.2801 48.8686C36.5239 48.8686 36.7492 48.839 36.956 48.7799C37.1629 48.7208 37.3476 48.647 37.5101 48.5583C37.68 48.4623 37.8314 48.3626 37.9644 48.2591C38.0974 48.1483 38.2155 48.0412 38.319 47.9378V46.7854C38.0974 46.7189 37.8462 46.6598 37.5655 46.6081C37.2922 46.549 36.9671 46.5195 36.5904 46.5195C35.992 46.5195 35.5303 46.6266 35.2053 46.8408C34.8877 47.055 34.7288 47.3616 34.7288 47.7605C34.7288 48.1594 34.8766 48.4438 35.1721 48.6137C35.4675 48.7836 35.8369 48.8686 36.2801 48.8686Z" fill="black"/>
<path d="M29.7297 49.755C29.2495 49.755 28.81 49.6775 28.4111 49.5223C28.0196 49.3598 27.6798 49.1382 27.3917 48.8575C27.111 48.5694 26.8893 48.2296 26.7268 47.8381C26.5717 47.4392 26.4941 46.9996 26.4941 46.5195C26.4941 46.0467 26.5717 45.6109 26.7268 45.212C26.8893 44.8131 27.111 44.4733 27.3917 44.1925C27.6798 43.9045 28.0196 43.6828 28.4111 43.5277C28.81 43.3652 29.2495 43.2839 29.7297 43.2839C30.1507 43.2839 30.5238 43.332 30.8488 43.428C31.1812 43.524 31.462 43.6459 31.691 43.7936C31.92 43.934 32.0936 44.0965 32.2117 44.2812C32.3299 44.4585 32.389 44.6284 32.389 44.7909C32.389 44.9239 32.3484 45.031 32.2671 45.1122C32.1859 45.1935 32.0788 45.2341 31.9458 45.2341C31.7907 45.2341 31.6577 45.1787 31.5469 45.0679C31.4361 44.9571 31.3068 44.8352 31.1591 44.7023C31.0187 44.5693 30.8377 44.4474 30.6161 44.3366C30.4019 44.2258 30.1064 44.1704 29.7297 44.1704C29.4194 44.1704 29.1313 44.2221 28.8654 44.3255C28.5995 44.4215 28.3705 44.5693 28.1784 44.7687C27.9863 44.9608 27.8349 45.2046 27.7241 45.5001C27.6133 45.7955 27.5579 46.1354 27.5579 46.5195C27.5579 46.911 27.6133 47.2545 27.7241 47.55C27.8349 47.8381 27.9863 48.0818 28.1784 48.2813C28.3705 48.4734 28.5995 48.6211 28.8654 48.7245C29.1313 48.8206 29.4194 48.8686 29.7297 48.8686C30.1064 48.8686 30.4019 48.8132 30.6161 48.7024C30.8377 48.5916 31.0187 48.4697 31.1591 48.3367C31.3068 48.2037 31.4361 48.0818 31.5469 47.971C31.6577 47.8602 31.7907 47.8048 31.9458 47.8048C32.0788 47.8048 32.1859 47.8455 32.2671 47.9267C32.3484 48.008 32.389 48.1151 32.389 48.2481C32.389 48.418 32.3299 48.5916 32.2117 48.7688C32.0936 48.9461 31.92 49.1087 31.691 49.2564C31.462 49.3967 31.1812 49.5149 30.8488 49.611C30.5238 49.707 30.1507 49.755 29.7297 49.755Z" fill="black"/>
</svg>
