<svg width="17" height="13" viewBox="0 0 17 13" fill="none" xmlns="http://www.w3.org/2000/svg">
<mask id="mask0_4884_800" style="mask-type:alpha" maskUnits="userSpaceOnUse" x="0" y="0" width="17" height="13">
<rect x="0.19043" y="0.5" width="16" height="12" fill="white"/>
</mask>
<g mask="url(#mask0_4884_800)">
<path fill-rule="evenodd" clip-rule="evenodd" d="M0.19043 0.5V12.5H16.1904V0.5H0.19043Z" fill="#2E42A5"/>
<mask id="mask1_4884_800" style="mask-type:alpha" maskUnits="userSpaceOnUse" x="0" y="0" width="17" height="13">
<path fill-rule="evenodd" clip-rule="evenodd" d="M0.19043 0.5V12.5H16.1904V0.5H0.19043Z" fill="white"/>
</mask>
<g mask="url(#mask1_4884_800)">
<mask id="mask2_4884_800" style="mask-type:alpha" maskUnits="userSpaceOnUse" x="0" y="0" width="17" height="13">
<rect x="0.19043" y="0.5" width="16" height="12" fill="white"/>
</mask>
<g mask="url(#mask2_4884_800)">
<path d="M-1.59119 11.6426L1.92966 13.1316L16.2703 2.11878L18.1274 -0.0939589L14.3624 -0.591637L8.51321 4.1541L3.80521 7.35161L-1.59119 11.6426Z" fill="white"/>
<path d="M-1.10919 12.6859L0.684516 13.55L17.4605 -0.299421H14.942L-1.10919 12.6859Z" fill="#F50100"/>
<path d="M17.972 11.6426L14.4511 13.1316L0.110521 2.11878L-1.74664 -0.0939589L2.01839 -0.591637L7.86759 4.1541L12.5756 7.35161L17.972 11.6426Z" fill="white"/>
<path d="M17.8519 12.3913L16.0582 13.2554L8.91476 7.32569L6.79689 6.66318L-1.92533 -0.0864143H0.593248L9.31057 6.50298L11.6261 7.2974L17.8519 12.3913Z" fill="#F50100"/>
<mask id="path-9-inside-1_4884_800" fill="white">
<path fill-rule="evenodd" clip-rule="evenodd" d="M10.0793 -0.5H6.30151V4.5H-0.795837V8.5H6.30151V13.5H10.0793V8.5H17.2042V4.5H10.0793V-0.5Z"/>
</mask>
<path fill-rule="evenodd" clip-rule="evenodd" d="M10.0793 -0.5H6.30151V4.5H-0.795837V8.5H6.30151V13.5H10.0793V8.5H17.2042V4.5H10.0793V-0.5Z" fill="#F50100"/>
<path d="M6.30151 -0.5V-1.5H5.30151V-0.5H6.30151ZM10.0793 -0.5H11.0793V-1.5H10.0793V-0.5ZM6.30151 4.5V5.5H7.30151V4.5H6.30151ZM-0.795837 4.5V3.5H-1.79584V4.5H-0.795837ZM-0.795837 8.5H-1.79584V9.5H-0.795837V8.5ZM6.30151 8.5H7.30151V7.5H6.30151V8.5ZM6.30151 13.5H5.30151V14.5H6.30151V13.5ZM10.0793 13.5V14.5H11.0793V13.5H10.0793ZM10.0793 8.5V7.5H9.07928V8.5H10.0793ZM17.2042 8.5V9.5H18.2042V8.5H17.2042ZM17.2042 4.5H18.2042V3.5H17.2042V4.5ZM10.0793 4.5H9.07928V5.5H10.0793V4.5ZM6.30151 0.5H10.0793V-1.5H6.30151V0.5ZM7.30151 4.5V-0.5H5.30151V4.5H7.30151ZM-0.795837 5.5H6.30151V3.5H-0.795837V5.5ZM0.204163 8.5V4.5H-1.79584V8.5H0.204163ZM6.30151 7.5H-0.795837V9.5H6.30151V7.5ZM7.30151 13.5V8.5H5.30151V13.5H7.30151ZM10.0793 12.5H6.30151V14.5H10.0793V12.5ZM9.07928 8.5V13.5H11.0793V8.5H9.07928ZM17.2042 7.5H10.0793V9.5H17.2042V7.5ZM16.2042 4.5V8.5H18.2042V4.5H16.2042ZM10.0793 5.5H17.2042V3.5H10.0793V5.5ZM9.07928 -0.5V4.5H11.0793V-0.5H9.07928Z" fill="white" mask="url(#path-9-inside-1_4884_800)"/>
</g>
</g>
</g>
</svg>
