<svg width="163" height="20" viewBox="0 0 163 20" fill="none" xmlns="http://www.w3.org/2000/svg">
<g clip-path="url(#clip0_5145_922)">
<path d="M-0.00228882 1.24579H2.77584L6.2615 15.8837L9.94048 1.24579H12.7917L16.6421 15.8837L19.9072 1.24579H22.7101L18.2501 19.5104H15.0581L11.3535 5.47774L7.62537 19.5104H4.4817L-0.00228882 1.24579Z" fill="white"/>
<path d="M24.7247 1.24579H27.4293V8.86743H36.2754V1.24579H38.98V19.5104H36.2754V11.4946H27.4293V19.5104H24.7247V1.24579Z" fill="white"/>
<path d="M40.995 10.3921C40.995 4.87328 44.6013 0.878723 49.5483 0.878723C54.4953 0.878723 58.102 4.87328 58.102 10.3921C58.102 15.8842 54.4953 19.8783 49.5483 19.8783C44.6013 19.8783 40.995 15.8842 40.995 10.3921ZM55.2504 10.3921C55.2504 6.37124 52.9109 3.50672 49.5483 3.50672C46.2588 3.50672 43.8702 6.37124 43.8702 10.3921C43.8702 14.4129 46.2588 17.2507 49.5483 17.2507C52.9109 17.2507 55.2504 14.4129 55.2504 10.3921Z" fill="white"/>
<path d="M60.1169 1.24579H62.8216V16.8824H71.448V19.5104H60.1169V1.24579Z" fill="white"/>
<path d="M73.4629 1.24579H85.2566V3.79582H76.1671V8.99927H83.5267V11.548H76.1671V16.9608H85.3057V19.5104H73.4629L73.4629 1.24579Z" fill="white"/>
<path d="M140.172 0.87915H146.897C150.528 0.87915 152.965 3.00827 152.965 6.52979C152.965 10.0771 150.528 12.2058 146.897 12.2058H142.876V19.1438H140.172V0.87915ZM146.727 9.65667C148.92 9.65667 150.114 8.52707 150.114 6.52979C150.114 4.53251 148.92 3.42875 146.727 3.42875H142.876V9.65668L146.727 9.65667Z" fill="white"/>
<path d="M155.289 1.78057H153.972V0.878723H157.515V1.78057H156.206V5.48736H155.289V1.78057Z" fill="white"/>
<path d="M158.255 0.878723H159.534L160.61 3.4454L161.712 0.878723H162.998V5.48736H162.081V2.07228L161.06 4.51938H160.192L159.17 2.07228V5.48736H158.255V0.878723Z" fill="white"/>
<path d="M125.363 0.87915H132.089C135.72 0.87915 138.157 3.00827 138.157 6.52979C138.157 10.0771 135.72 12.2058 132.089 12.2058H128.068V19.1438H125.363V0.87915ZM131.918 9.65667C134.112 9.65667 135.305 8.52707 135.305 6.52979C135.305 4.53251 134.112 3.42875 131.918 3.42875H128.068V9.65668L131.918 9.65667Z" fill="white"/>
<path d="M93.8283 14.3074C93.8283 13.5457 93.9745 12.7047 94.1939 11.9947L96.7279 12.7568C96.5817 13.2303 96.5329 13.7296 96.5329 14.176C96.5329 16.1995 98.2628 17.4084 100.822 17.4084C103.185 17.4084 104.648 16.3046 104.648 14.5434C104.648 12.9934 103.405 12.2317 101.821 11.8638L99.5791 11.3907C95.7287 10.576 94.3397 8.78856 94.3397 6.13428C94.3397 3.0074 96.8741 0.878723 100.335 0.878723C104.623 0.878723 106.865 3.1388 107.109 7.05452L104.429 7.44829C104.112 4.87329 102.917 3.34905 100.261 3.34905C98.3846 3.34905 97.0447 4.32141 97.0447 6.00333C97.0447 7.68525 98.5069 8.39481 100.188 8.76229L102.43 9.23577C106.037 9.97117 107.353 11.7582 107.353 14.3074C107.353 17.8026 104.501 19.8783 100.748 19.8783C96.2892 19.8783 93.8283 17.5135 93.8283 14.3074Z" fill="white"/>
<path d="M109.368 12.4152V1.24622H112.072V12.2575C112.072 15.4895 113.534 17.2507 116.337 17.2507C119.115 17.2507 120.625 15.4895 120.625 12.2575V1.24622H123.33V12.4152C123.33 17.1977 120.869 19.8787 116.337 19.8787C111.853 19.8787 109.368 17.1977 109.368 12.4152Z" fill="white"/>
</g>
<defs>
<clipPath id="clip0_5145_922">
<rect width="163" height="19" fill="white" transform="translate(-0.00228882 0.878723)"/>
</clipPath>
</defs>
</svg>
