<svg width="76" height="77" viewBox="0 0 76 77" fill="none" xmlns="http://www.w3.org/2000/svg">
<path d="M75.7191 38.3131C75.7191 59.1448 58.8316 76.0324 37.9998 76.0324C17.168 76.0324 0.280518 59.1448 0.280518 38.3131C0.280518 17.4813 17.168 0.59375 37.9998 0.59375C58.8316 0.59375 75.7191 17.4813 75.7191 38.3131Z" fill="#FEBF49"/>
<path d="M50.3988 31.7588V33.0553H48.0766V35.4772H46.7089V33.0553H44.4152V31.7588H46.7089V29.3369H48.0766V31.7588H50.3988Z" fill="black"/>
<path d="M38.9672 36.8305C36.3174 36.8305 34.7502 34.836 34.7502 31.6875C34.7502 28.539 36.3174 26.5303 38.9672 26.5303C41.5743 26.5303 43.1557 28.539 43.1557 31.6875C43.1557 34.836 41.5743 36.8305 38.9672 36.8305ZM38.9672 35.4343C40.6341 35.4343 41.5173 33.853 41.5173 31.6875C41.5173 29.522 40.6341 27.9264 38.9672 27.9264C37.2719 27.9264 36.4028 29.522 36.4028 31.6875C36.4028 33.853 37.2719 35.4343 38.9672 35.4343Z" fill="black"/>
<path d="M29.7736 36.8305C27.4087 36.8305 25.9983 35.5198 25.9983 33.5538C25.9983 33.1692 26.0695 32.7845 26.1977 32.4141L27.7079 32.813C27.6366 33.0409 27.5939 33.2974 27.5939 33.5396C27.5939 34.7648 28.4487 35.4913 29.7736 35.4913C30.9703 35.4913 31.7539 34.8645 31.7539 33.8245C31.7539 32.8557 30.9988 32.2574 29.7594 32.2574H29.1468V30.9324H29.7451C30.8564 30.9324 31.5259 30.3768 31.5259 29.4223C31.5259 28.4393 30.8421 27.8694 29.7166 27.8694C28.4202 27.8694 27.7649 28.767 27.6224 30.0777L26.0838 29.8782C26.3402 27.8552 27.6082 26.5303 29.7594 26.5303C31.8821 26.5303 33.15 27.5703 33.15 29.2799C33.15 30.4481 32.281 31.3029 31.2695 31.5166C32.5232 31.716 33.378 32.5566 33.378 33.8815C33.378 35.6623 31.9676 36.8305 29.7736 36.8305Z" fill="black"/>
<path d="M64.6001 50.0956C64.2234 50.0956 63.8762 50.0476 63.5585 49.9516C63.2483 49.8555 62.9787 49.7299 62.7497 49.5748C62.5207 49.4123 62.3434 49.2313 62.2178 49.0319C62.0922 48.8324 62.0294 48.6256 62.0294 48.4113C62.0294 48.2562 62.07 48.138 62.1513 48.0568C62.2326 47.9681 62.3397 47.9238 62.4726 47.9238C62.5982 47.9238 62.7016 47.957 62.7829 48.0235C62.8642 48.0826 62.938 48.1602 63.0045 48.2562C63.0784 48.3522 63.1559 48.4557 63.2372 48.5665C63.3185 48.6773 63.4219 48.7807 63.5475 48.8767C63.673 48.9728 63.8282 49.054 64.0128 49.1205C64.2049 49.1796 64.445 49.2091 64.7331 49.2091C65.2428 49.2091 65.6269 49.1168 65.8855 48.9321C66.1514 48.7475 66.2844 48.5 66.2844 48.1897C66.2844 47.8795 66.1588 47.6579 65.9076 47.5249C65.6639 47.3845 65.2871 47.2811 64.7774 47.2146L64.4228 47.1703C64.1421 47.1408 63.8651 47.0927 63.5918 47.0263C63.3259 46.9598 63.0858 46.8637 62.8715 46.7382C62.6647 46.6126 62.4948 46.4464 62.3618 46.2395C62.2289 46.0327 62.1624 45.7668 62.1624 45.4417C62.1624 45.1241 62.2289 44.8508 62.3618 44.6218C62.5022 44.3854 62.6869 44.197 62.9159 44.0567C63.1523 43.9089 63.4182 43.8018 63.7137 43.7353C64.0092 43.6614 64.3194 43.6245 64.6444 43.6245C65.0286 43.6245 65.3758 43.6725 65.686 43.7686C66.0037 43.8646 66.2696 43.9865 66.4838 44.1342C66.7054 44.282 66.8753 44.4482 66.9935 44.6328C67.1117 44.8175 67.1708 44.9985 67.1708 45.1758C67.1708 45.3088 67.1302 45.4159 67.0489 45.4971C66.9751 45.5784 66.8827 45.619 66.7719 45.619C66.6463 45.619 66.5429 45.5932 66.4617 45.5415C66.3804 45.4824 66.3028 45.4122 66.229 45.3309C66.1551 45.2497 66.0775 45.161 65.9963 45.065C65.915 44.969 65.8116 44.8803 65.686 44.7991C65.5678 44.7178 65.4164 44.6513 65.2317 44.5996C65.0544 44.5405 64.8291 44.511 64.5558 44.511C64.1126 44.511 63.7728 44.5811 63.5364 44.7215C63.3 44.8545 63.1818 45.065 63.1818 45.3531C63.1818 45.6412 63.3037 45.8369 63.5475 45.9404C63.7986 46.0438 64.1791 46.1287 64.6888 46.1952L65.0433 46.2395C65.3832 46.2839 65.6934 46.3503 65.9741 46.439C66.2548 46.5276 66.4912 46.6458 66.6833 46.7936C66.8827 46.9339 67.0342 47.1149 67.1376 47.3365C67.2484 47.5507 67.3038 47.8056 67.3038 48.1011C67.3038 48.4261 67.2336 48.7142 67.0933 48.9654C66.9603 49.2091 66.7719 49.416 66.5282 49.5859C66.2918 49.7484 66.0074 49.874 65.6749 49.9626C65.3425 50.0513 64.9842 50.0956 64.6001 50.0956Z" fill="black"/>
<path d="M55.0517 44.9101C54.8966 44.9101 54.7821 44.8731 54.7082 44.7993C54.6418 44.718 54.6085 44.6146 54.6085 44.489C54.6085 44.3634 54.6418 44.2637 54.7082 44.1898C54.7821 44.1086 54.8966 44.068 55.0517 44.068H56.0712V42.2507C56.0712 41.9257 56.2411 41.7632 56.5809 41.7632C56.9207 41.7632 57.0906 41.9257 57.0906 42.2507V44.068H59.7943C59.9494 44.068 60.0602 44.1086 60.1267 44.1898C60.2005 44.2637 60.2375 44.3634 60.2375 44.489C60.2375 44.6146 60.2005 44.718 60.1267 44.7993C60.0602 44.8731 59.9494 44.9101 59.7943 44.9101H57.0906V47.8354C57.0906 48.2786 57.2051 48.611 57.4341 48.8326C57.6631 49.0542 58.0214 49.165 58.5089 49.165C58.8192 49.165 59.0814 49.1355 59.2956 49.0764C59.5172 49.0173 59.7093 48.9508 59.8718 48.8769C60.0417 48.8031 60.1858 48.7366 60.304 48.6775C60.4295 48.6184 60.5551 48.5889 60.6807 48.5889C60.8358 48.5889 60.954 48.6295 61.0353 48.7107C61.1239 48.7846 61.1683 48.8769 61.1683 48.9878C61.1683 49.1355 61.0944 49.2758 60.9466 49.4088C60.8063 49.5418 60.6142 49.66 60.3705 49.7634C60.1267 49.8594 59.8423 49.9407 59.5172 50.0072C59.1996 50.0663 58.8635 50.0958 58.5089 50.0958C57.7259 50.0958 57.1238 49.9074 56.7028 49.5307C56.2817 49.1466 56.0712 48.5962 56.0712 47.8797V44.9101H55.0517Z" fill="black"/>
<path d="M48.5694 50.0956C48.2296 50.0956 48.0597 49.9331 48.0597 49.6081V44.1121C48.0597 43.787 48.2296 43.6245 48.5694 43.6245C48.9092 43.6245 49.0791 43.787 49.0791 44.1121V44.4556C49.2712 44.2192 49.5113 44.0234 49.7993 43.8683C50.0874 43.7058 50.4531 43.6245 50.8963 43.6245C51.2509 43.6245 51.5686 43.6836 51.8493 43.8018C52.1374 43.9126 52.3811 44.0714 52.5806 44.2783C52.78 44.4851 52.9315 44.7289 53.0349 45.0096C53.1457 45.2903 53.2011 45.5969 53.2011 45.9293V49.6081C53.2011 49.9331 53.0312 50.0956 52.6914 50.0956C52.3516 50.0956 52.1817 49.9331 52.1817 49.6081V46.1066C52.1817 45.6412 52.045 45.2681 51.7717 44.9874C51.5058 44.6993 51.1401 44.5553 50.6747 44.5553C50.4383 44.5553 50.2241 44.5922 50.032 44.6661C49.84 44.74 49.6701 44.8471 49.5223 44.9874C49.382 45.1204 49.2712 45.2829 49.1899 45.475C49.116 45.667 49.0791 45.8776 49.0791 46.1066V49.6081C49.0791 49.9331 48.9092 50.0956 48.5694 50.0956Z" fill="black"/>
<path d="M43.1062 50.0956C42.6186 50.0956 42.1717 50.018 41.7654 49.8629C41.3665 49.7004 41.023 49.4788 40.7349 49.1981C40.4468 48.91 40.2215 48.5702 40.059 48.1786C39.9039 47.7797 39.8263 47.3402 39.8263 46.8601C39.8263 46.3873 39.9039 45.9514 40.059 45.5525C40.2215 45.1536 40.4394 44.8138 40.7127 44.5331C40.9935 44.245 41.3259 44.0234 41.71 43.8683C42.0941 43.7058 42.5152 43.6245 42.9732 43.6245C43.4238 43.6245 43.8412 43.7021 44.2253 43.8572C44.6168 44.0123 44.9492 44.2303 45.2226 44.511C45.5033 44.7843 45.7212 45.113 45.8763 45.4971C46.0388 45.8813 46.1201 46.306 46.1201 46.7714C46.1201 46.9044 46.0832 47.0115 46.0093 47.0927C45.9428 47.174 45.832 47.2146 45.6769 47.2146H40.9011C40.9676 47.8795 41.1966 48.3781 41.5881 48.7105C41.9796 49.0429 42.4856 49.2091 43.1062 49.2091C43.4164 49.2091 43.6934 49.1648 43.9372 49.0762C44.181 48.9875 44.4026 48.8915 44.602 48.7881C44.8015 48.6847 44.9825 48.5886 45.145 48.5C45.3149 48.4113 45.4774 48.367 45.6325 48.367C45.7655 48.367 45.8726 48.4076 45.9539 48.4889C46.0351 48.5628 46.0758 48.6551 46.0758 48.7659C46.0758 48.9211 45.9871 49.0799 45.8098 49.2424C45.6399 49.3975 45.4146 49.5379 45.1339 49.6635C44.8606 49.789 44.5429 49.8925 44.181 49.9737C43.8264 50.055 43.4681 50.0956 43.1062 50.0956ZM42.9732 44.511C42.4413 44.511 41.987 44.6698 41.6103 44.9874C41.2335 45.2977 41.0045 45.7594 40.9233 46.3725H45.0342C45.0046 46.0696 44.9308 45.8037 44.8126 45.5747C44.7018 45.3383 44.554 45.1426 44.3694 44.9874C44.1921 44.8323 43.9815 44.7141 43.7378 44.6328C43.5014 44.5516 43.2465 44.511 42.9732 44.511Z" fill="black"/>
<path d="M37.3592 50.0958C37.0194 50.0958 36.8495 49.9333 36.8495 49.6083V44.1123C36.8495 43.7872 37.0194 43.6247 37.3592 43.6247C37.699 43.6247 37.8689 43.7872 37.8689 44.1123V49.6083C37.8689 49.9333 37.699 50.0958 37.3592 50.0958ZM37.3592 42.5167C37.2115 42.5167 37.0896 42.5093 36.9936 42.4945C36.9049 42.4723 36.8348 42.4317 36.783 42.3726C36.7387 42.3135 36.7092 42.2286 36.6944 42.1178C36.6796 41.9996 36.6722 41.8444 36.6722 41.6524C36.6722 41.4603 36.6796 41.3089 36.6944 41.1981C36.7092 41.0799 36.7387 40.9912 36.783 40.9321C36.8348 40.873 36.9049 40.8361 36.9936 40.8213C37.0896 40.7992 37.2115 40.7881 37.3592 40.7881C37.507 40.7881 37.6252 40.7992 37.7138 40.8213C37.8099 40.8361 37.88 40.873 37.9243 40.9321C37.9761 40.9912 38.0093 41.0799 38.0241 41.1981C38.0388 41.3089 38.0462 41.4603 38.0462 41.6524C38.0462 41.8444 38.0388 41.9996 38.0241 42.1178C38.0093 42.2286 37.9761 42.3135 37.9243 42.3726C37.88 42.4317 37.8099 42.4723 37.7138 42.4945C37.6252 42.5093 37.507 42.5167 37.3592 42.5167Z" fill="black"/>
<path d="M31.5596 50.0956C31.2198 50.0956 31.0499 49.9331 31.0499 49.6081V44.1121C31.0499 43.787 31.2198 43.6245 31.5596 43.6245C31.8994 43.6245 32.0693 43.787 32.0693 44.1121V44.7991C32.3057 44.4371 32.5791 44.1527 32.8893 43.9458C33.207 43.7316 33.5837 43.6245 34.0195 43.6245C34.4628 43.6245 34.81 43.7169 35.0611 43.9015C35.3123 44.0862 35.4379 44.2893 35.4379 44.511C35.4379 44.6218 35.4009 44.7326 35.327 44.8434C35.2532 44.9468 35.1276 44.9985 34.9503 44.9985C34.8395 44.9985 34.7398 44.9763 34.6511 44.932C34.5699 44.8877 34.4849 44.8397 34.3963 44.788C34.315 44.7289 34.2227 44.6772 34.1193 44.6328C34.0158 44.5811 33.894 44.5553 33.7536 44.5553C33.5837 44.5553 33.4249 44.5922 33.2771 44.6661C33.1294 44.7326 32.9853 44.8286 32.845 44.9542C32.7046 45.0724 32.568 45.209 32.435 45.3642C32.3094 45.5193 32.1875 45.6781 32.0693 45.8406V49.6081C32.0693 49.9331 31.8994 50.0956 31.5596 50.0956Z" fill="black"/>
<path d="M23.6064 44.9101C23.4513 44.9101 23.3368 44.8731 23.2629 44.7993C23.1964 44.718 23.1632 44.6146 23.1632 44.489C23.1632 44.3634 23.1964 44.2637 23.2629 44.1898C23.3368 44.1086 23.4513 44.068 23.6064 44.068H24.6259V42.2507C24.6259 41.9257 24.7958 41.7632 25.1356 41.7632C25.4754 41.7632 25.6453 41.9257 25.6453 42.2507V44.068H28.3489C28.5041 44.068 28.6149 44.1086 28.6814 44.1898C28.7552 44.2637 28.7922 44.3634 28.7922 44.489C28.7922 44.6146 28.7552 44.718 28.6814 44.7993C28.6149 44.8731 28.5041 44.9101 28.3489 44.9101H25.6453V47.8354C25.6453 48.2786 25.7598 48.611 25.9888 48.8326C26.2178 49.0542 26.576 49.165 27.0636 49.165C27.3738 49.165 27.6361 49.1355 27.8503 49.0764C28.0719 49.0173 28.264 48.9508 28.4265 48.8769C28.5964 48.8031 28.7405 48.7366 28.8586 48.6775C28.9842 48.6184 29.1098 48.5889 29.2354 48.5889C29.3905 48.5889 29.5087 48.6295 29.59 48.7107C29.6786 48.7846 29.7229 48.8769 29.7229 48.9878C29.7229 49.1355 29.6491 49.2758 29.5013 49.4088C29.361 49.5418 29.1689 49.66 28.9251 49.7634C28.6814 49.8594 28.397 49.9407 28.0719 50.0072C27.7543 50.0663 27.4182 50.0958 27.0636 50.0958C26.2806 50.0958 25.6785 49.9074 25.2574 49.5307C24.8364 49.1466 24.6259 48.5962 24.6259 47.8797V44.9101H23.6064Z" fill="black"/>
<path d="M18.7766 50.0958C18.4221 50.0958 18.1007 50.0404 17.8126 49.9296C17.5319 49.8114 17.2918 49.6489 17.0924 49.4421C16.8929 49.2352 16.7378 48.9915 16.627 48.7108C16.5236 48.4301 16.4719 48.1235 16.4719 47.7911V44.1123C16.4719 43.7873 16.6418 43.6248 16.9816 43.6248C17.3214 43.6248 17.4913 43.7873 17.4913 44.1123V47.6138C17.4913 48.0792 17.6242 48.4559 17.8902 48.744C18.1635 49.0247 18.5329 49.1651 18.9982 49.1651C19.2272 49.1651 19.4378 49.1281 19.6298 49.0543C19.8293 48.9804 19.9992 48.877 20.1395 48.744C20.2873 48.6037 20.3981 48.4411 20.472 48.2565C20.5532 48.0644 20.5939 47.8502 20.5939 47.6138V44.1123C20.5939 43.7873 20.7638 43.6248 21.1036 43.6248C21.4434 43.6248 21.6133 43.7873 21.6133 44.1123V49.6083C21.6133 49.9333 21.4434 50.0958 21.1036 50.0958C20.7638 50.0958 20.5939 49.9333 20.5939 49.6083V49.2648C20.4018 49.5012 20.1617 49.7006 19.8736 49.8631C19.5855 50.0183 19.2199 50.0958 18.7766 50.0958Z" fill="black"/>
<path d="M9.60352 50.0958C9.26371 50.0958 9.09381 49.9333 9.09381 49.6083V44.1123C9.09381 43.7873 9.26371 43.6248 9.60352 43.6248C9.94333 43.6248 10.1132 43.7873 10.1132 44.1123V44.4558C10.3053 44.2194 10.5454 44.0237 10.8335 43.8685C11.1216 43.706 11.4872 43.6248 11.9305 43.6248C12.285 43.6248 12.6027 43.6839 12.8834 43.802C13.1715 43.9129 13.4153 44.0717 13.6147 44.2785C13.8142 44.4854 13.9656 44.7291 14.069 45.0098C14.1798 45.2905 14.2352 45.5971 14.2352 45.9295V49.6083C14.2352 49.9333 14.0653 50.0958 13.7255 50.0958C13.3857 50.0958 13.2158 49.9333 13.2158 49.6083V46.1068C13.2158 45.6414 13.0791 45.2684 12.8058 44.9877C12.5399 44.6996 12.1742 44.5555 11.7088 44.5555C11.4725 44.5555 11.2582 44.5925 11.0662 44.6663C10.8741 44.7402 10.7042 44.8473 10.5565 44.9877C10.4161 45.1206 10.3053 45.2832 10.224 45.4752C10.1502 45.6673 10.1132 45.8778 10.1132 46.1068V49.6083C10.1132 49.9333 9.94333 50.0958 9.60352 50.0958Z" fill="black"/>
</svg>
