<svg width="76" height="76" viewBox="0 0 76 76" fill="none" xmlns="http://www.w3.org/2000/svg">
<path d="M75.7191 38.2535C75.7191 59.0853 58.8316 75.9728 37.9998 75.9728C17.168 75.9728 0.280518 59.0853 0.280518 38.2535C0.280518 17.4217 17.168 0.53418 37.9998 0.53418C58.8316 0.53418 75.7191 17.4217 75.7191 38.2535Z" fill="#FEBF49"/>
<path d="M47.2571 26.8381C47.0292 26.8381 46.844 27.0376 46.6872 27.3937C47.1574 27.7926 47.4423 28.3625 47.4423 29.0891C47.4423 30.6277 46.1744 31.454 44.593 31.454C44.1371 31.454 43.7097 31.3828 43.3393 31.2545C43.0401 31.3543 42.7979 31.568 42.7979 31.8671C42.7979 32.1806 43.0259 32.4228 43.439 32.4228H45.9892C47.8555 32.4228 48.639 33.1636 48.639 34.4315C48.639 35.9844 46.9722 36.9674 44.8922 36.9674C42.3563 36.9674 41.1311 36.1553 41.1311 34.9444C41.1311 34.3033 41.5158 33.8474 42.1996 33.5055C41.7295 33.2063 41.4588 32.7647 41.4588 32.1948C41.4588 31.4967 41.8719 31.0408 42.456 30.7417C42.0144 30.3428 41.7437 29.8014 41.7437 29.0891C41.7437 27.5504 43.0116 26.7241 44.593 26.7241C45.0204 26.7241 45.4336 26.7811 45.804 26.9094C46.2171 26.0688 46.7442 25.7126 47.4423 25.7126C48.0977 25.7126 48.81 26.1115 48.81 27.2655V27.4935L47.7415 27.6644C47.713 27.0661 47.5705 26.8381 47.2571 26.8381ZM44.593 30.3428C45.3481 30.3428 45.9607 29.9154 45.9607 29.0891C45.9607 28.2913 45.3481 27.8496 44.593 27.8496C43.8379 27.8496 43.2396 28.2913 43.2396 29.0891C43.2396 29.9154 43.8379 30.3428 44.593 30.3428ZM45.804 33.8617H43.724C43.0686 33.8617 42.6127 34.2036 42.6127 34.7022C42.6127 35.386 43.2966 35.7849 44.8779 35.7849C46.1601 35.7849 47.1004 35.3006 47.1004 34.5882C47.1004 34.0754 46.7157 33.8617 45.804 33.8617Z" fill="black"/>
<path d="M37.9493 33.8047V26.4107C37.4506 26.8239 36.7098 26.9948 35.7268 26.9948V25.5132C37.1657 25.5274 37.992 25.0858 37.992 23.9033H39.5306V33.8047H37.9493Z" fill="black"/>
<path d="M31.3625 34.0041C28.9976 34.0041 27.5872 32.6934 27.5872 30.7274C27.5872 30.3427 27.6584 29.9581 27.7866 29.5877L29.2967 29.9866C29.2255 30.2145 29.1828 30.471 29.1828 30.7131C29.1828 31.9383 30.0376 32.6649 31.3625 32.6649C32.5592 32.6649 33.3428 32.0381 33.3428 30.9981C33.3428 30.0293 32.5877 29.431 31.3482 29.431H30.7356V28.106H31.334C32.4452 28.106 33.1148 27.5504 33.1148 26.5959C33.1148 25.6129 32.431 25.043 31.3055 25.043C30.0091 25.043 29.3537 25.9406 29.2113 27.2512L27.6726 27.0518C27.9291 25.0288 29.197 23.7039 31.3482 23.7039C33.471 23.7039 34.7389 24.7439 34.7389 26.4534C34.7389 27.6217 33.8699 28.4764 32.8584 28.6901C34.1121 28.8896 34.9669 29.7301 34.9669 31.0551C34.9669 32.8359 33.5565 34.0041 31.3625 34.0041Z" fill="black"/>
<path d="M56.1298 50.2326C55.79 50.2326 55.6201 50.07 55.6201 49.745V44.249C55.6201 43.924 55.79 43.7615 56.1298 43.7615C56.4696 43.7615 56.6395 43.924 56.6395 44.249V44.5925C56.8316 44.3561 57.0717 44.1604 57.3598 44.0052C57.6479 43.8427 58.0135 43.7615 58.4568 43.7615C58.8113 43.7615 59.129 43.8206 59.4097 43.9388C59.6978 44.0496 59.9416 44.2084 60.141 44.4152C60.3405 44.6221 60.4919 44.8658 60.5953 45.1466C60.7061 45.4273 60.7615 45.7338 60.7615 46.0662V49.745C60.7615 50.07 60.5916 50.2326 60.2518 50.2326C59.912 50.2326 59.7421 50.07 59.7421 49.745V46.2435C59.7421 45.7781 59.6055 45.4051 59.3321 45.1244C59.0662 44.8363 58.7005 44.6922 58.2351 44.6922C57.9988 44.6922 57.7845 44.7292 57.5925 44.8031C57.4004 44.8769 57.2305 44.984 57.0828 45.1244C56.9424 45.2574 56.8316 45.4199 56.7503 45.6119C56.6765 45.804 56.6395 46.0145 56.6395 46.2435V49.745C56.6395 50.07 56.4696 50.2326 56.1298 50.2326Z" fill="black"/>
<path d="M52.7212 50.2325C52.3814 50.2325 52.2115 50.07 52.2115 49.745V44.249C52.2115 43.924 52.3814 43.7614 52.7212 43.7614C53.061 43.7614 53.2309 43.924 53.2309 44.249V49.745C53.2309 50.07 53.061 50.2325 52.7212 50.2325ZM52.7212 42.6534C52.5734 42.6534 52.4515 42.646 52.3555 42.6312C52.2669 42.6091 52.1967 42.5684 52.145 42.5093C52.1007 42.4502 52.0711 42.3653 52.0563 42.2545C52.0416 42.1363 52.0342 41.9812 52.0342 41.7891C52.0342 41.597 52.0416 41.4456 52.0563 41.3348C52.0711 41.2166 52.1007 41.1279 52.145 41.0689C52.1967 41.0098 52.2669 40.9728 52.3555 40.958C52.4515 40.9359 52.5734 40.9248 52.7212 40.9248C52.8689 40.9248 52.9871 40.9359 53.0758 40.958C53.1718 40.9728 53.242 41.0098 53.2863 41.0689C53.338 41.1279 53.3712 41.2166 53.386 41.3348C53.4008 41.4456 53.4082 41.597 53.4082 41.7891C53.4082 41.9812 53.4008 42.1363 53.386 42.2545C53.3712 42.3653 53.338 42.4502 53.2863 42.5093C53.242 42.5684 53.1718 42.6091 53.0758 42.6312C52.9871 42.646 52.8689 42.6534 52.7212 42.6534Z" fill="black"/>
<path d="M47.2574 50.2326C46.7699 50.2326 46.3229 50.155 45.9166 49.9999C45.5177 49.8374 45.1742 49.6157 44.8861 49.335C44.5981 49.0469 44.3727 48.7071 44.2102 48.3156C44.0551 47.9167 43.9775 47.4772 43.9775 46.997C43.9775 46.5242 44.0551 46.0884 44.2102 45.6895C44.3727 45.2906 44.5907 44.9508 44.864 44.6701C45.1447 44.382 45.4771 44.1604 45.8612 44.0052C46.2454 43.8427 46.6664 43.7615 47.1244 43.7615C47.575 43.7615 47.9924 43.839 48.3765 43.9942C48.7681 44.1493 49.1005 44.3672 49.3738 44.6479C49.6545 44.9212 49.8724 45.25 50.0276 45.6341C50.1901 46.0182 50.2713 46.443 50.2713 46.9084C50.2713 47.0413 50.2344 47.1485 50.1605 47.2297C50.094 47.311 49.9832 47.3516 49.8281 47.3516H45.0524C45.1188 48.0164 45.3478 48.5151 45.7394 48.8475C46.1309 49.1799 46.6369 49.3461 47.2574 49.3461C47.5677 49.3461 47.8447 49.3018 48.0885 49.2131C48.3322 49.1245 48.5538 49.0285 48.7533 48.925C48.9527 48.8216 49.1337 48.7256 49.2962 48.637C49.4661 48.5483 49.6287 48.504 49.7838 48.504C49.9168 48.504 50.0239 48.5446 50.1051 48.6259C50.1864 48.6997 50.227 48.7921 50.227 48.9029C50.227 49.058 50.1384 49.2168 49.9611 49.3794C49.7912 49.5345 49.5659 49.6748 49.2852 49.8004C49.0118 49.926 48.6942 50.0294 48.3322 50.1107C47.9776 50.1919 47.6194 50.2326 47.2574 50.2326ZM47.1244 44.6479C46.5926 44.6479 46.1383 44.8067 45.7615 45.1244C45.3848 45.4346 45.1558 45.8963 45.0745 46.5095H49.1854C49.1559 46.2066 49.082 45.9407 48.9638 45.7117C48.853 45.4753 48.7053 45.2795 48.5206 45.1244C48.3433 44.9693 48.1328 44.8511 47.889 44.7698C47.6526 44.6886 47.3978 44.6479 47.1244 44.6479Z" fill="black"/>
<path d="M36.9657 45.0468C36.8106 45.0468 36.6961 45.0099 36.6222 44.936C36.5557 44.8547 36.5225 44.7513 36.5225 44.6257C36.5225 44.5002 36.5557 44.4004 36.6222 44.3266C36.6961 44.2453 36.8106 44.2047 36.9657 44.2047H37.9851V42.3874C37.9851 42.0624 38.155 41.8999 38.4948 41.8999C38.8346 41.8999 39.0045 42.0624 39.0045 42.3874V44.2047H41.7082C41.8633 44.2047 41.9741 44.2453 42.0406 44.3266C42.1145 44.4004 42.1514 44.5002 42.1514 44.6257C42.1514 44.7513 42.1145 44.8547 42.0406 44.936C41.9741 45.0099 41.8633 45.0468 41.7082 45.0468H39.0045V47.9721C39.0045 48.4153 39.119 48.7477 39.348 48.9693C39.577 49.191 39.9353 49.3018 40.4228 49.3018C40.7331 49.3018 40.9953 49.2722 41.2096 49.2131C41.4312 49.154 41.6232 49.0875 41.7858 49.0137C41.9557 48.9398 42.0997 48.8733 42.2179 48.8142C42.3435 48.7551 42.4691 48.7256 42.5946 48.7256C42.7498 48.7256 42.868 48.7662 42.9492 48.8475C43.0379 48.9213 43.0822 49.0137 43.0822 49.1245C43.0822 49.2722 43.0083 49.4126 42.8606 49.5455C42.7202 49.6785 42.5282 49.7967 42.2844 49.9001C42.0406 49.9961 41.7562 50.0774 41.4312 50.1439C41.1135 50.203 40.7774 50.2325 40.4228 50.2325C39.6398 50.2325 39.0378 50.0442 38.6167 49.6674C38.1956 49.2833 37.9851 48.733 37.9851 48.0164V45.0468H36.9657Z" fill="black"/>
<path d="M32.2795 50.2326C31.8141 50.2326 31.382 50.155 30.9831 49.9999C30.5915 49.8374 30.2517 49.6157 29.9636 49.335C29.6755 49.0469 29.4502 48.7071 29.2877 48.3156C29.1252 47.9167 29.0439 47.4772 29.0439 46.997C29.0439 46.5242 29.1252 46.0884 29.2877 45.6895C29.4502 45.2906 29.6755 44.9508 29.9636 44.6701C30.2517 44.382 30.5915 44.1604 30.9831 44.0052C31.382 43.8427 31.8141 43.7615 32.2795 43.7615C32.7449 43.7615 33.1733 43.8427 33.5648 44.0052C33.9637 44.1604 34.3072 44.382 34.5953 44.6701C34.8834 44.9508 35.1087 45.2906 35.2713 45.6895C35.4338 46.0884 35.515 46.5242 35.515 46.997C35.515 47.4772 35.4338 47.9167 35.2713 48.3156C35.1087 48.7071 34.8834 49.0469 34.5953 49.335C34.3072 49.6157 33.9637 49.8374 33.5648 49.9999C33.1733 50.155 32.7449 50.2326 32.2795 50.2326ZM32.2795 49.3461C32.5897 49.3461 32.8778 49.2981 33.1438 49.2021C33.4097 49.0986 33.6387 48.9509 33.8308 48.7588C34.0228 48.5594 34.1743 48.3156 34.2851 48.0275C34.3959 47.732 34.4513 47.3885 34.4513 46.997C34.4513 46.6129 34.3959 46.2731 34.2851 45.9776C34.1743 45.6821 34.0228 45.4383 33.8308 45.2463C33.6387 45.0468 33.4097 44.8991 33.1438 44.8031C32.8778 44.6996 32.5897 44.6479 32.2795 44.6479C31.9692 44.6479 31.6811 44.6996 31.4152 44.8031C31.1493 44.8991 30.9203 45.0468 30.7282 45.2463C30.5361 45.4383 30.3847 45.6821 30.2739 45.9776C30.1631 46.2731 30.1077 46.6129 30.1077 46.997C30.1077 47.3885 30.1631 47.732 30.2739 48.0275C30.3847 48.3156 30.5361 48.5594 30.7282 48.7588C30.9203 48.9509 31.1493 49.0986 31.4152 49.2021C31.6811 49.2981 31.9692 49.3461 32.2795 49.3461Z" fill="black"/>
<path d="M24.3593 50.2326C24.0195 50.2326 23.8495 50.07 23.8495 49.745V44.249C23.8495 43.924 24.0195 43.7615 24.3593 43.7615C24.6991 43.7615 24.869 43.924 24.869 44.249V44.936C25.1054 44.5741 25.3787 44.2897 25.6889 44.0828C26.0066 43.8686 26.3833 43.7615 26.8192 43.7615C27.2624 43.7615 27.6096 43.8538 27.8607 44.0385C28.1119 44.2232 28.2375 44.4263 28.2375 44.6479C28.2375 44.7587 28.2005 44.8695 28.1267 44.9803C28.0528 45.0838 27.9272 45.1355 27.7499 45.1355C27.6391 45.1355 27.5394 45.1133 27.4508 45.069C27.3695 45.0247 27.2845 44.9767 27.1959 44.9249C27.1146 44.8658 27.0223 44.8141 26.9189 44.7698C26.8155 44.7181 26.6936 44.6922 26.5532 44.6922C26.3833 44.6922 26.2245 44.7292 26.0768 44.8031C25.929 44.8695 25.785 44.9656 25.6446 45.0911C25.5043 45.2093 25.3676 45.346 25.2346 45.5011C25.109 45.6563 24.9872 45.8151 24.869 45.9776V49.745C24.869 50.07 24.6991 50.2326 24.3593 50.2326Z" fill="black"/>
<path d="M18.8279 50.2326C18.3404 50.2326 17.9156 50.1439 17.5537 49.9666C17.1917 49.7819 16.8925 49.5234 16.6561 49.191V52.3157C16.6561 52.6407 16.4862 52.8033 16.1464 52.8033C15.8066 52.8033 15.6367 52.6407 15.6367 52.3157V44.249C15.6367 43.924 15.8066 43.7615 16.1464 43.7615C16.4862 43.7615 16.6561 43.924 16.6561 44.249V44.8031C16.8925 44.4706 17.1917 44.2158 17.5537 44.0385C17.9156 43.8538 18.3404 43.7615 18.8279 43.7615C19.2785 43.7615 19.6922 43.8464 20.069 44.0163C20.4457 44.1788 20.767 44.4078 21.033 44.7033C21.3063 44.9914 21.5168 45.3349 21.6646 45.7338C21.8123 46.1253 21.8862 46.5464 21.8862 46.997C21.8862 47.455 21.8123 47.8798 21.6646 48.2713C21.5168 48.6628 21.3063 49.0063 21.033 49.3018C20.767 49.5899 20.4457 49.8189 20.069 49.9888C19.6922 50.1513 19.2785 50.2326 18.8279 50.2326ZM18.7393 49.3461C19.0348 49.3461 19.3081 49.2981 19.5593 49.2021C19.8178 49.0986 20.0394 48.9509 20.2241 48.7588C20.4162 48.5594 20.5639 48.3156 20.6673 48.0275C20.7707 47.732 20.8225 47.3885 20.8225 46.997C20.8225 46.6129 20.7707 46.2731 20.6673 45.9776C20.5639 45.6821 20.4162 45.4383 20.2241 45.2463C20.0394 45.0468 19.8178 44.8991 19.5593 44.8031C19.3081 44.6996 19.0348 44.6479 18.7393 44.6479C18.4438 44.6479 18.1705 44.6959 17.9193 44.792C17.6756 44.888 17.4613 45.0321 17.2767 45.2241C17.092 45.4088 16.9442 45.6415 16.8334 45.9222C16.7226 46.1955 16.6635 46.5169 16.6561 46.8862V47.1189C16.6635 47.4883 16.7226 47.8133 16.8334 48.094C16.9442 48.3673 17.092 48.6 17.2767 48.7921C17.4613 48.9768 17.6756 49.1171 17.9193 49.2131C18.1705 49.3018 18.4438 49.3461 18.7393 49.3461Z" fill="black"/>
</svg>
