<svg width="69" height="11" viewBox="0 0 69 11" fill="none" xmlns="http://www.w3.org/2000/svg">
<path d="M18.5117 8.83713L16.748 6.57867C17.8804 6.31495 18.6721 5.57958 18.6721 4.36076V4.33995C18.6721 3.72858 18.4474 3.18467 18.0678 2.80667C17.5827 2.32413 16.823 2.0354 15.8752 2.0354H13.0772C12.8023 2.0354 12.5654 2.26867 12.5654 2.55504V9.19486C12.5654 9.48131 12.8023 9.71458 13.0772 9.71458C13.364 9.71458 13.5992 9.48067 13.5992 9.19486V6.77176H15.6037L17.6792 9.45386C17.7931 9.60504 17.947 9.71458 18.1497 9.71458C18.4115 9.71458 18.6721 9.47895 18.6721 9.20504C18.6721 9.06613 18.6126 8.95031 18.5117 8.83713ZM17.6276 4.37176L17.6277 4.39295H17.6276C17.6276 5.29704 16.8608 5.82822 15.8002 5.82822H13.5992V3.00013H15.8109C16.9509 3.00013 17.6276 3.50858 17.6276 4.37176Z" fill="white"/>
<path d="M20.179 9.14186C20.179 9.42786 20.4159 9.66122 20.6908 9.66122H25.3898C25.6563 9.66122 25.8692 9.44904 25.8692 9.18395C25.8692 8.91922 25.6564 8.70704 25.3898 8.70704H21.2129V6.2934H24.8559C25.1225 6.2934 25.3357 6.08158 25.3357 5.81649C25.3357 5.56458 25.1225 5.33922 24.8559 5.33922H21.2129V2.98995H25.3365C25.6026 2.98995 25.8163 2.77776 25.8163 2.51267C25.8163 2.24758 25.6026 2.0354 25.3365 2.0354H20.6908C20.416 2.0354 20.179 2.26867 20.179 2.55513V9.14186Z" fill="white"/>
<path d="M30.216 9.74627L30.272 9.74609C30.5517 9.74127 30.726 9.58454 30.8366 9.33954L33.7326 2.68554C33.7584 2.62154 33.7714 2.55754 33.7714 2.48072C33.7714 2.219 33.549 1.98218 33.2596 1.98218C33.0303 1.98218 32.8476 2.15436 32.758 2.33172C32.757 2.33372 32.7561 2.33572 32.7552 2.33781L30.2483 8.311L27.7513 2.359C27.6623 2.14354 27.4808 1.98218 27.2259 1.98218C26.9375 1.98218 26.7031 2.231 26.7031 2.4909C26.7031 2.58172 26.717 2.64627 26.7556 2.72354L29.637 9.33754C29.7374 9.58663 29.9276 9.74627 30.216 9.74627Z" fill="white"/>
<path d="M35.1394 2.50181V9.19463C35.1394 9.48109 35.3763 9.71436 35.6512 9.71436C35.9379 9.71436 36.1732 9.48045 36.1732 9.19463V2.50181C36.1732 2.216 35.9379 1.98218 35.6512 1.98218C35.3763 1.98218 35.1394 2.21536 35.1394 2.50181Z" fill="white"/>
<path d="M43.2351 2.03558L43.2227 2.0354H38.5767C38.3022 2.0354 38.0652 2.26867 38.0652 2.55513V9.14186C38.0652 9.42786 38.3021 9.66122 38.5767 9.66122C38.5766 9.66122 43.276 9.66122 43.276 9.66122C43.5421 9.66122 43.7554 9.44904 43.7554 9.18395C43.7554 8.91922 43.5421 8.70704 43.276 8.70704H39.0991V6.2934H42.7417C43.0088 6.2934 43.2215 6.08158 43.2215 5.81649C43.2215 5.56458 43.0088 5.33922 42.7417 5.33922H39.0991V2.98995H43.2227C43.4887 2.98995 43.7025 2.77776 43.7025 2.51267C43.7025 2.25176 43.4953 2.04204 43.2351 2.03558Z" fill="white"/>
<path d="M52.3941 9.75685H52.4819C52.731 9.75158 52.9101 9.58176 52.9978 9.33212C52.9974 9.33294 55.39 2.72539 55.39 2.72539C55.3903 2.72448 55.3906 2.72367 55.3909 2.72276C55.4148 2.65003 55.449 2.56412 55.449 2.49139C55.449 2.23094 55.2014 1.98267 54.9265 1.98267C54.6804 1.98267 54.5083 2.14467 54.4302 2.37648C54.4306 2.37548 52.4512 8.03867 52.4512 8.03867L50.5847 2.37667C50.5074 2.14539 50.3361 1.98267 50.0782 1.98267V1.98348L50.0245 1.98267C49.7533 1.98267 49.5949 2.14539 49.5176 2.37667L47.6511 8.03848L45.6824 2.3963C45.6061 2.16876 45.4104 1.98267 45.1545 1.98267C44.8678 1.98267 44.6218 2.22976 44.6218 2.50203C44.6218 2.57594 44.6443 2.64976 44.669 2.72321L47.0619 9.3323C47.1499 9.59394 47.3292 9.75194 47.5778 9.75685H47.6656C47.9143 9.75158 48.0939 9.58167 48.1811 9.33194L50.0247 3.88194L51.8786 9.33212C51.9662 9.58176 52.1458 9.75158 52.3941 9.75685Z" fill="white"/>
<path d="M60.8427 7.63302V7.6542C60.8427 8.34047 60.2119 8.82393 59.272 8.82393C58.3484 8.82393 57.6627 8.54547 56.9777 7.9682L56.9758 7.96647C56.9081 7.90065 56.7886 7.8462 56.6556 7.8462C56.3794 7.8462 56.154 8.06756 56.154 8.35529C56.154 8.52584 56.2348 8.66984 56.3527 8.75029C57.2025 9.42111 58.1288 9.76747 59.24 9.76747C60.7843 9.76747 61.8872 8.89547 61.8872 7.56938V7.54774C61.8872 6.36956 61.1043 5.72674 59.3776 5.3522C59.3775 5.3522 59.3774 5.35211 59.3772 5.35211C57.8085 5.01756 57.4233 4.66874 57.4233 3.99965V3.97847C57.4233 3.35374 58.0125 2.87274 58.9193 2.87274C59.5935 2.87274 60.1845 3.05911 60.7966 3.50265C60.7968 3.50284 60.7969 3.50293 60.7971 3.50311C60.8882 3.5682 60.98 3.59511 61.0983 3.59511C61.3747 3.59511 61.599 3.37256 61.599 3.09665C61.599 2.90256 61.4838 2.7592 61.3794 2.68111C61.3788 2.68074 61.3783 2.68029 61.3777 2.67993C60.6782 2.17984 59.9466 1.9292 58.9407 1.9292C57.4606 1.9292 56.389 2.83538 56.389 4.05302L56.4842 4.14774C56.4841 4.14774 56.389 4.05365 56.389 4.05365V4.07338L56.4842 4.16856L56.389 4.07393C56.389 5.33929 57.1934 5.92784 58.9742 6.31265C58.9743 6.31265 58.9745 6.31274 58.9747 6.31274C60.4689 6.62647 60.8427 6.97565 60.8427 7.63302Z" fill="white"/>
<path d="M63.0643 8.66952L63.0552 8.66943C62.8544 8.66943 62.7113 8.81252 62.7113 9.00543V9.12434C62.7113 9.31698 62.8547 9.46643 63.0552 9.46643C63.2487 9.46643 63.393 9.31734 63.393 9.12434C63.393 9.1558 63.3674 9.18116 63.3359 9.18116C63.3359 9.18116 63.393 9.1748 63.393 9.12171V9.00543C63.393 8.81516 63.2535 8.67389 63.0643 8.66952ZM62.7734 9.18034C62.7703 9.18098 62.7684 9.18116 62.7684 9.18116C62.7702 9.18116 62.7719 9.18116 62.7736 9.18098L62.7734 9.18034Z" fill="white"/>
<path d="M64.2829 6.50986V9.17768C64.2829 9.3404 64.4096 9.46631 64.5727 9.46631C64.7372 9.46631 64.8571 9.34077 64.8571 9.17768V6.50986C64.8571 6.34668 64.7306 6.22122 64.567 6.22122C64.4106 6.22122 64.2829 6.35431 64.2829 6.50986ZM64.2411 5.4224C64.2411 5.59686 64.3846 5.72277 64.567 5.72277C64.7564 5.72277 64.8986 5.5965 64.8986 5.4224V5.3455C64.8986 5.16395 64.7564 5.04468 64.567 5.04468C64.3846 5.04468 64.241 5.16359 64.241 5.3455L64.2411 5.4224Z" fill="white"/>
<path fill-rule="evenodd" clip-rule="evenodd" d="M68.9549 7.84809L68.955 7.83518C68.955 6.93646 68.25 6.18555 67.2913 6.18555C66.3265 6.18555 65.6212 6.94882 65.6212 7.84691L65.633 7.85873L65.6212 7.84727V7.85873C65.6212 8.75709 66.3204 9.50791 67.2792 9.50791C68.2439 9.50791 68.9545 8.74564 68.9549 7.84809ZM68.369 7.85873V7.84691C68.369 7.21946 67.8987 6.703 67.2792 6.703C66.6429 6.703 66.2072 7.21927 66.2072 7.83518V7.84691C66.2072 8.47427 66.6719 8.98409 67.2913 8.98409C67.9272 8.98409 68.369 8.47455 68.369 7.85873Z" fill="white"/>
<path d="M1.52228 5.87205C1.52228 8.42242 3.60105 10.4902 6.16493 10.4902C8.72926 10.4902 10.8079 8.42242 10.8079 5.87205C10.8079 3.32124 8.72926 1.25342 6.16493 1.25342C3.60105 1.25342 1.52228 3.32124 1.52228 5.87205ZM4.75376 6.70733C4.80257 6.55369 4.74828 6.38624 4.6185 6.28978C4.27488 6.03451 3.5974 5.53124 3.14218 5.19305C3.07647 5.14424 3.0496 5.05905 3.07546 4.9816C3.10133 4.90414 3.17407 4.85196 3.25614 4.85196H5.02053C5.18476 4.85196 5.33044 4.74724 5.38207 4.59224C5.52117 4.17433 5.79763 3.34378 5.98096 2.79324C6.00673 2.71587 6.07939 2.66351 6.16136 2.66342C6.24334 2.66333 6.31627 2.71542 6.34223 2.79269C6.52747 3.34369 6.80722 4.1756 6.94769 4.59333C6.99969 4.74778 7.14509 4.85196 7.30886 4.85196C7.72625 4.85196 8.5303 4.85196 9.07773 4.85196C9.15953 4.85196 9.23227 4.90396 9.25823 4.98124C9.28418 5.05851 9.25768 5.1436 9.19225 5.1926C8.7384 5.53269 8.06055 6.04051 7.71766 6.29742C7.58861 6.39405 7.53497 6.56124 7.58368 6.71433C7.71628 7.13087 7.98223 7.96624 8.16191 8.53051C8.18695 8.60933 8.1577 8.69533 8.08962 8.74278C8.02153 8.79024 7.93041 8.78833 7.86443 8.73796C7.40848 8.38978 6.74233 7.88114 6.39349 7.61487C6.25632 7.51014 6.06549 7.51042 5.92868 7.61569C5.58322 7.88133 4.92613 8.38678 4.47402 8.73451C4.40821 8.78514 4.31691 8.78742 4.24865 8.73996C4.18038 8.6926 4.15095 8.6066 4.17599 8.52769C4.35566 7.96178 4.62125 7.12496 4.75376 6.70733Z" fill="white"/>
</svg>
