<svg width="150" height="25" viewBox="0 0 150 25" fill="none" xmlns="http://www.w3.org/2000/svg">
<path d="M38.5889 18.9154L34.7547 13.9879C37.2165 13.4125 38.9376 11.8081 38.9376 9.14884V9.10342C38.9376 7.76953 38.4491 6.58282 37.6238 5.75809C36.5692 4.70527 34.9178 4.07532 32.8573 4.07532H26.7747C26.1771 4.07532 25.6621 4.58428 25.6621 5.20907V19.6959C25.6621 20.3209 26.1771 20.8299 26.7747 20.8299C27.3981 20.8299 27.9095 20.3195 27.9095 19.6959V14.4092H32.2671L36.779 20.261C37.0267 20.5909 37.3613 20.8299 37.802 20.8299C38.371 20.8299 38.9376 20.3158 38.9376 19.7182C38.9376 19.4151 38.8083 19.1624 38.5889 18.9154ZM36.6669 9.17284L36.6671 9.21905H36.6669C36.6669 11.1916 34.9999 12.3506 32.6942 12.3506H27.9095V6.18018H32.7175C35.1957 6.18018 36.6669 7.28953 36.6669 9.17284Z" fill="white"/>
<path d="M42.2134 19.5803C42.2134 20.2043 42.7283 20.7135 43.326 20.7135H53.5413C54.1206 20.7135 54.5835 20.2505 54.5835 19.6721C54.5835 19.0946 54.1208 18.6316 53.5413 18.6316H44.461V13.3655H52.3806C52.9601 13.3655 53.4236 12.9034 53.4236 12.325C53.4236 11.7754 52.9601 11.2836 52.3806 11.2836H44.461V6.15796H53.4254C54.0038 6.15796 54.4685 5.69502 54.4685 5.11664C54.4685 4.53826 54.0038 4.07532 53.4254 4.07532H43.326C42.7285 4.07532 42.2134 4.58428 42.2134 5.20927V19.5803Z" fill="white"/>
<path d="M64.0327 20.8993L64.1545 20.8989C64.7626 20.8884 65.1415 20.5464 65.3819 20.0119L71.6775 5.49408C71.7335 5.35445 71.762 5.21481 71.762 5.04721C71.762 4.47617 71.2784 3.95947 70.6494 3.95947C70.1509 3.95947 69.7535 4.33514 69.5588 4.72212C69.5567 4.72648 69.5547 4.73084 69.5527 4.73541L64.103 17.7678L58.6748 4.78162C58.4813 4.31154 58.0867 3.95947 57.5326 3.95947C56.9056 3.95947 56.396 4.50235 56.396 5.06942C56.396 5.26757 56.4262 5.4084 56.5102 5.57699L62.7741 20.0075C62.9924 20.551 63.4059 20.8993 64.0327 20.8993Z" fill="white"/>
<path d="M74.7358 5.09322V19.6957C74.7358 20.3207 75.2508 20.8297 75.8484 20.8297C76.4719 20.8297 76.9833 20.3193 76.9833 19.6957V5.09322C76.9833 4.46962 76.4719 3.95947 75.8484 3.95947C75.2508 3.95947 74.7358 4.46823 74.7358 5.09322Z" fill="white"/>
<path d="M92.3355 4.07571L92.3085 4.07532H82.2085C81.6118 4.07532 81.0967 4.58428 81.0967 5.20927V19.5803C81.0967 20.2043 81.6116 20.7135 82.2085 20.7135C82.2083 20.7135 92.4244 20.7135 92.4244 20.7135C93.0029 20.7135 93.4666 20.2505 93.4666 19.6721C93.4666 19.0946 93.0029 18.6316 92.4244 18.6316H83.3441V13.3655H91.2629C91.8434 13.3655 92.3059 12.9034 92.3059 12.325C92.3059 11.7754 91.8434 11.2836 91.2629 11.2836H83.3441V6.15796H92.3085C92.8869 6.15796 93.3516 5.69502 93.3516 5.11664C93.3516 4.54738 92.9012 4.0898 92.3355 4.07571Z" fill="white"/>
<path d="M112.246 20.9219H112.437C112.979 20.9104 113.368 20.5399 113.559 19.9953C113.558 19.997 118.759 5.58058 118.759 5.58058C118.76 5.5786 118.76 5.57681 118.761 5.57483C118.813 5.41615 118.887 5.22871 118.887 5.07003C118.887 4.50177 118.349 3.96008 117.752 3.96008C117.217 3.96008 116.842 4.31354 116.673 4.81932C116.674 4.81714 112.371 17.1732 112.371 17.1732L108.313 4.81972C108.145 4.31512 107.772 3.96008 107.212 3.96008V3.96187L107.095 3.96008C106.506 3.96008 106.161 4.31512 105.993 4.81972L101.936 17.1728L97.6557 4.86256C97.4898 4.3661 97.0645 3.96008 96.5082 3.96008C95.8849 3.96008 95.3501 4.49919 95.3501 5.09324C95.3501 5.2545 95.399 5.41555 95.4526 5.57582L100.655 19.9957C100.846 20.5665 101.236 20.9112 101.776 20.9219H101.967C102.508 20.9104 102.898 20.5397 103.088 19.9949L107.096 8.10395L111.126 19.9953C111.316 20.5399 111.707 20.9104 112.246 20.9219Z" fill="white"/>
<path d="M130.613 16.2883V16.3345C130.613 17.8319 129.241 18.8867 127.198 18.8867C125.19 18.8867 123.7 18.2791 122.211 17.0196L122.206 17.0159C122.059 16.8723 121.799 16.7534 121.51 16.7534C120.91 16.7534 120.42 17.2364 120.42 17.8642C120.42 18.2363 120.596 18.5505 120.852 18.726C122.699 20.1896 124.713 20.9453 127.129 20.9453C130.486 20.9453 132.883 19.0428 132.883 16.1495V16.1023C132.883 13.5317 131.181 12.1292 127.428 11.312C127.427 11.312 127.427 11.3118 127.427 11.3118C124.017 10.5819 123.179 9.82082 123.179 8.36098V8.31477C123.179 6.95173 124.46 5.90227 126.431 5.90227C127.897 5.90227 129.182 6.30888 130.512 7.27662C130.513 7.27702 130.513 7.27721 130.514 7.27761C130.712 7.41963 130.911 7.47834 131.168 7.47834C131.769 7.47834 132.257 6.99278 132.257 6.3908C132.257 5.96733 132.006 5.65454 131.779 5.48416C131.778 5.48336 131.777 5.48237 131.776 5.48158C130.255 4.39047 128.665 3.84363 126.478 3.84363C123.26 3.84363 120.931 5.82075 120.931 8.47741L121.138 8.68409C121.138 8.68409 120.931 8.4788 120.931 8.4788V8.52184L121.138 8.72951L120.931 8.52303C120.931 11.2838 122.679 12.5679 126.551 13.4075C126.551 13.4075 126.551 13.4077 126.552 13.4077C129.8 14.0922 130.613 14.8541 130.613 16.2883Z" fill="white"/>
<path d="M135.442 18.5493L135.422 18.5491C134.986 18.5491 134.675 18.8613 134.675 19.2822V19.5416C134.675 19.9619 134.987 20.288 135.422 20.288C135.843 20.288 136.157 19.9627 136.157 19.5416C136.157 19.6102 136.101 19.6656 136.033 19.6656C136.033 19.6656 136.157 19.6517 136.157 19.5358V19.2822C136.157 18.867 135.854 18.5588 135.442 18.5493ZM134.81 19.6638C134.803 19.6652 134.799 19.6656 134.799 19.6656C134.803 19.6656 134.807 19.6656 134.81 19.6652L134.81 19.6638Z" fill="white"/>
<path d="M138.091 13.8375V19.6582C138.091 20.0132 138.367 20.288 138.721 20.288C139.079 20.288 139.339 20.014 139.339 19.6582V13.8375C139.339 13.4815 139.064 13.2078 138.709 13.2078C138.369 13.2078 138.091 13.4981 138.091 13.8375ZM138 11.4649C138 11.8455 138.312 12.1202 138.709 12.1202C139.121 12.1202 139.43 11.8447 139.43 11.4649V11.2971C139.43 10.901 139.121 10.6407 138.709 10.6407C138.312 10.6407 138 10.9002 138 11.2971L138 11.4649Z" fill="white"/>
<path fill-rule="evenodd" clip-rule="evenodd" d="M148.248 16.7574L148.248 16.7292C148.248 14.7684 146.715 13.13 144.631 13.13C142.534 13.13 141 14.7953 141 16.7548L141.026 16.7806L141 16.7556V16.7806C141 18.7406 142.521 20.3788 144.605 20.3788C146.702 20.3788 148.247 18.7157 148.248 16.7574ZM146.974 16.7806V16.7548C146.974 15.3858 145.952 14.259 144.605 14.259C143.222 14.259 142.274 15.3854 142.274 16.7292V16.7548C142.274 18.1236 143.285 19.2359 144.631 19.2359C146.013 19.2359 146.974 18.1242 146.974 16.7806Z" fill="white"/>
<path fill-rule="evenodd" clip-rule="evenodd" d="M18.903 5.35767L17.9049 5.8575C19.8507 7.42623 20.802 9.45254 20.9788 11.9045C20.831 16.6373 18.5943 19.6791 14.7521 20.9836C10.3131 22.3189 7.50024 21.2385 4.77839 18.4698L4.60693 19.5341L5.71356 20.6853C9.56289 24.6902 15.9449 24.8217 19.9564 20.9787C23.9679 17.1355 24.0996 10.7642 20.25 6.75919L18.903 5.35767Z" fill="#FEEF7C"/>
<path fill-rule="evenodd" clip-rule="evenodd" d="M4.05949 18.9411L4.72823 18.3579C1.94975 14.4271 1.83333 8.67224 5.63578 5.50405C8.45439 3.15562 14.0471 1.93836 18.5215 5.87138L18.8554 5.28487L17.7651 4.15033C13.9156 0.1455 7.53372 0.0139958 3.52207 3.85717C-0.489389 7.70014 -0.620913 14.0716 3.22843 18.0765L4.05949 18.9411Z" fill="#5CD3CB"/>
<path d="M1.65527 12.4464C1.65527 18.0108 6.17435 22.5224 11.748 22.5224C17.3226 22.5224 21.8415 18.0108 21.8415 12.4464C21.8415 6.88099 17.3226 2.36938 11.748 2.36938C6.17435 2.36938 1.65527 6.88099 1.65527 12.4464ZM8.68024 14.2688C8.78633 13.9336 8.66832 13.5683 8.3862 13.3578C7.63918 12.8009 6.1664 11.7028 5.1768 10.965C5.03395 10.8584 4.97554 10.6726 5.03176 10.5036C5.08799 10.3346 5.24613 10.2208 5.42455 10.2208H9.26017C9.61719 10.2208 9.93388 9.99226 10.0461 9.65408C10.3485 8.74228 10.9495 6.93018 11.3481 5.72899C11.4041 5.56019 11.562 5.44595 11.7402 5.44575C11.9185 5.44555 12.077 5.5592 12.1334 5.7278C12.5361 6.92998 13.1443 8.74505 13.4496 9.65646C13.5627 9.99345 13.8788 10.2208 14.2348 10.2208C15.1422 10.2208 16.8901 10.2208 18.0802 10.2208C18.258 10.2208 18.4161 10.3342 18.4726 10.5028C18.529 10.6714 18.4714 10.8571 18.3291 10.964C17.3425 11.706 15.8689 12.8139 15.1235 13.3745C14.843 13.5853 14.7263 13.9501 14.8322 14.2841C15.1205 15.1929 15.6987 17.0155 16.0892 18.2467C16.1437 18.4186 16.0801 18.6063 15.9321 18.7098C15.7841 18.8134 15.586 18.8092 15.4426 18.6993C14.4514 17.9396 13.0032 16.8299 12.2449 16.2489C11.9467 16.0204 11.5318 16.021 11.2344 16.2507C10.4834 16.8303 9.05494 17.9331 8.07209 18.6918C7.92905 18.8022 7.73057 18.8072 7.58216 18.7037C7.43375 18.6003 7.36978 18.4127 7.42421 18.2405C7.81481 17.0058 8.39216 15.18 8.68024 14.2688Z" fill="white"/>
</svg>
