<svg width="26" height="25" viewBox="0 0 26 25" fill="none" xmlns="http://www.w3.org/2000/svg">
<g id="Tick-icn" clip-path="url(#clip0_4944_3406)">
<circle id="Ellipse 16" cx="13.228" cy="12.272" r="12.272" fill="#77FBB9"/>
<path id="Union" fill-rule="evenodd" clip-rule="evenodd" d="M5.59357 12.5C5.59357 8.29375 8.99747 4.86554 13.228 4.86554C13.4955 4.86554 13.7143 5.08436 13.7143 5.35181C13.7143 5.61926 13.4955 5.83808 13.228 5.83808C9.55669 5.83808 6.56612 8.82865 6.56612 12.5C6.56612 16.1713 9.55669 19.1619 13.228 19.1619C16.8994 19.1619 19.89 16.1713 19.89 12.5C19.89 12.2326 20.1088 12.0137 20.3762 12.0137C20.6437 12.0137 20.8625 12.2326 20.8625 12.5C20.8625 16.7306 17.4586 20.1345 13.228 20.1345C8.99747 20.1345 5.59357 16.7062 5.59357 12.5ZM9.41079 11.1384C9.6053 10.9682 9.92138 10.9925 10.0916 11.187L12.6931 13.9831L19.7441 6.93217C19.9386 6.73766 20.2303 6.73766 20.4248 6.93217C20.6194 7.12668 20.6194 7.41844 20.4248 7.61295L13.0092 15.0286C12.9119 15.1258 12.7904 15.1745 12.6688 15.1745C12.5472 15.1745 12.4257 15.1258 12.3284 15.0286L9.38648 11.8435L9.36217 11.8192C9.19197 11.6247 9.21629 11.3086 9.41079 11.1384Z" fill="black"/>
</g>
<defs>
<clipPath id="clip0_4944_3406">
<rect width="25" height="25" fill="white" transform="translate(0.5)"/>
</clipPath>
</defs>
</svg>
