<svg width="280" height="321" viewBox="0 0 280 321" fill="none" xmlns="http://www.w3.org/2000/svg">
<g clip-path="url(#clip0_5017_2227)">
<path d="M74.9731 94.5214H73.1596C73.1596 90.0474 71.8487 87.8571 70.4612 85.5377C69.0076 83.1087 67.5049 80.5962 67.5049 75.6181C67.5049 70.6408 69.0076 68.1283 70.4612 65.6985C71.8487 63.3792 73.1596 61.1888 73.1596 56.7149C73.1596 52.241 71.8487 50.0506 70.4612 47.7313C69.0076 45.3015 67.5049 42.789 67.5049 37.8117C67.5049 32.8329 69.0076 30.3203 70.4612 27.8906C71.8487 25.5712 73.1596 23.3801 73.1596 18.9054C73.1596 14.4316 71.8487 12.2405 70.4612 9.92107C69.0076 7.4906 67.5049 4.97806 67.5049 0H69.3184C69.3184 4.47467 70.6292 6.66575 72.0168 8.98511C73.4704 11.4149 74.9731 13.9274 74.9731 18.9054C74.9731 23.8843 73.4704 26.3968 72.0168 28.8266C70.6292 31.1459 69.3184 33.337 69.3184 37.8117C69.3184 42.2856 70.6292 44.476 72.0168 46.7953C73.4704 49.2243 74.9731 51.7368 74.9731 56.7149C74.9731 61.6929 73.4704 64.2047 72.0168 66.6345C70.6292 68.9538 69.3184 71.1442 69.3184 75.6181C69.3184 80.0921 70.6292 82.2832 72.0168 84.6017C73.4704 87.0315 74.9731 89.544 74.9731 94.5214Z" fill="#2F4327"/>
<path d="M61.5102 94.5214H59.6967C59.6967 90.0474 58.3858 87.8571 56.9983 85.5377C55.5447 83.1087 54.042 80.5962 54.042 75.6181C54.042 70.6408 55.5447 68.1283 56.9983 65.6985C58.3858 63.3792 59.6967 61.1888 59.6967 56.7149C59.6967 52.241 58.3858 50.0506 56.9983 47.7313C55.5447 45.3015 54.042 42.789 54.042 37.8117C54.042 32.8329 55.5447 30.3203 56.9983 27.8906C58.3858 25.5712 59.6967 23.3801 59.6967 18.9054C59.6967 14.4316 58.3858 12.2405 56.9983 9.92107C55.5447 7.4906 54.042 4.97806 54.042 0H55.8562C55.8562 4.47467 57.1664 6.66575 58.5539 8.98511C60.0075 11.4149 61.5102 13.9274 61.5102 18.9054C61.5102 23.8843 60.0075 26.3968 58.5539 28.8266C57.1664 31.1459 55.8562 33.337 55.8562 37.8117C55.8562 42.2856 57.1664 44.476 58.5539 46.7953C60.0075 49.2243 61.5102 51.7368 61.5102 56.7149C61.5102 61.6929 60.0075 64.2047 58.5539 66.6345C57.1664 68.9538 55.8562 71.1442 55.8562 75.6181C55.8562 80.0921 57.1664 82.2832 58.5539 84.6017C60.0075 87.0315 61.5102 89.544 61.5102 94.5214Z" fill="#2F4327"/>
<path d="M48.0473 94.5214H46.2338C46.2338 90.0474 44.9229 87.8571 43.5354 85.5377C42.0826 83.1087 40.5791 80.5962 40.5791 75.6181C40.5791 70.6408 42.0826 68.1283 43.5354 65.6985C44.9229 63.3792 46.2338 61.1888 46.2338 56.7149C46.2338 52.241 44.9229 50.0506 43.5354 47.7313C42.0826 45.3015 40.5791 42.789 40.5791 37.8117C40.5791 32.8329 42.0826 30.3203 43.5354 27.8906C44.9229 25.5712 46.2338 23.3801 46.2338 18.9054C46.2338 14.4316 44.9229 12.2405 43.5354 9.92107C42.0826 7.4906 40.5791 4.97806 40.5791 0H42.3933C42.3933 4.47467 43.7035 6.66575 45.091 8.98511C46.5446 11.4149 48.0473 13.9274 48.0473 18.9054C48.0473 23.8843 46.5446 26.3968 45.091 28.8266C43.7035 31.1459 42.3933 33.337 42.3933 37.8117C42.3933 42.2856 43.7035 44.476 45.091 46.7953C46.5446 49.2243 48.0473 51.7368 48.0473 56.7149C48.0473 61.6929 46.5446 64.2047 45.091 66.6345C43.7035 68.9538 42.3933 71.1442 42.3933 75.6181C42.3933 80.0921 43.7035 82.2832 45.091 84.6017C46.5446 87.0315 48.0473 89.544 48.0473 94.5214Z" fill="#2F4327"/>
<path d="M34.5845 94.5214H32.771C32.771 90.0474 31.46 87.8571 30.0726 85.5377C28.6197 83.1087 27.1162 80.5962 27.1162 75.6181C27.1162 70.6408 28.6197 68.1283 30.0726 65.6985C31.46 63.3792 32.771 61.1888 32.771 56.7149C32.771 52.241 31.46 50.0506 30.0726 47.7313C28.6197 45.3015 27.1162 42.789 27.1162 37.8117C27.1162 32.8329 28.6197 30.3203 30.0726 27.8906C31.46 25.5712 32.771 23.3801 32.771 18.9054C32.771 14.4316 31.46 12.2405 30.0726 9.92107C28.6197 7.4906 27.1162 4.97806 27.1162 0H28.9304C28.9304 4.47467 30.2406 6.66575 31.6281 8.98511C33.0817 11.4149 34.5845 13.9274 34.5845 18.9054C34.5845 23.8843 33.0817 26.3968 31.6281 28.8266C30.2406 31.1459 28.9304 33.337 28.9304 37.8117C28.9304 42.2856 30.2406 44.476 31.6281 46.7953C33.0817 49.2243 34.5845 51.7368 34.5845 56.7149C34.5845 61.6929 33.0817 64.2047 31.6281 66.6345C30.2406 68.9538 28.9304 71.1442 28.9304 75.6181C28.9304 80.0921 30.2406 82.2832 31.6281 84.6017C33.0817 87.0315 34.5845 89.544 34.5845 94.5214Z" fill="#2F4327"/>
<path d="M21.1216 94.5214H19.3081C19.3081 90.0474 17.9971 87.8571 16.6097 85.5377C15.156 83.1087 13.6533 80.5962 13.6533 75.6181C13.6533 70.6408 15.156 68.1283 16.6097 65.6985C17.9971 63.3792 19.3081 61.1888 19.3081 56.7149C19.3081 52.241 17.9971 50.0506 16.6097 47.7313C15.156 45.3015 13.6533 42.789 13.6533 37.8117C13.6533 32.8329 15.156 30.3203 16.6097 27.8906C17.9971 25.5712 19.3081 23.3801 19.3081 18.9054C19.3081 14.4316 17.9971 12.2405 16.6097 9.92107C15.156 7.4906 13.6533 4.97806 13.6533 0H15.4668C15.4668 4.47467 16.7777 6.66575 18.1652 8.98511C19.6188 11.4149 21.1216 13.9274 21.1216 18.9054C21.1216 23.8843 19.6188 26.3968 18.1652 28.8266C16.7777 31.1459 15.4668 33.337 15.4668 37.8117C15.4668 42.2856 16.7777 44.476 18.1652 46.7953C19.6188 49.2243 21.1216 51.7368 21.1216 56.7149C21.1216 61.6929 19.6188 64.2047 18.1652 66.6345C16.7777 68.9538 15.4668 71.1442 15.4668 75.6181C15.4668 80.0921 16.7777 82.2832 18.1652 84.6017C19.6188 87.0315 21.1216 89.544 21.1216 94.5214Z" fill="#2F4327"/>
<path d="M7.65869 94.5213H5.84518C5.84518 90.0474 4.53424 87.8571 3.14679 85.5377C1.69316 83.1087 0.190437 80.5962 0.190437 75.6181C0.190437 70.6408 1.69317 68.1283 3.14679 65.6985C4.53424 63.3792 5.84518 61.1888 5.84518 56.7149C5.84518 52.2409 4.53424 50.0506 3.14679 47.7313C1.69316 45.3015 0.190437 42.789 0.190437 37.8117C0.190437 32.8329 1.69317 30.3203 3.14679 27.8906C4.53424 25.5712 5.84518 23.3801 5.84518 18.9054C5.84518 14.4316 4.53424 12.2405 3.14679 9.92106C1.69316 7.4906 0.19043 4.97806 0.19043 0H2.00394C2.00394 4.47467 3.31479 6.66575 4.70233 8.98511C6.15596 11.4149 7.65868 13.9274 7.65868 18.9054C7.65868 23.8843 6.15595 26.3968 4.70233 28.8266C3.31479 31.1459 2.00394 33.337 2.00394 37.8117C2.00394 42.2856 3.31479 44.476 4.70233 46.7953C6.15596 49.2243 7.65868 51.7368 7.65868 56.7149C7.65868 61.6929 6.15595 64.2047 4.70233 66.6345C3.31479 68.9538 2.00394 71.1442 2.00394 75.6181C2.00394 80.0921 3.31479 82.2832 4.70233 84.6017C6.15596 87.0315 7.65869 89.544 7.65869 94.5213Z" fill="#2F4327"/>
<path d="M156.379 94.5214H154.565C154.565 90.0474 153.254 87.8571 151.867 85.5377C150.413 83.1087 148.911 80.5962 148.911 75.6181C148.911 70.6408 150.413 68.1283 151.867 65.6985C153.254 63.3792 154.565 61.1888 154.565 56.7149C154.565 52.241 153.254 50.0506 151.867 47.7313C150.413 45.3015 148.911 42.789 148.911 37.8117C148.911 32.8329 150.413 30.3203 151.867 27.8906C153.254 25.5712 154.565 23.3801 154.565 18.9054C154.565 14.4316 153.254 12.2405 151.867 9.92107C150.413 7.4906 148.911 4.97806 148.911 0H150.724C150.724 4.47467 152.035 6.66575 153.423 8.98511C154.876 11.4149 156.379 13.9274 156.379 18.9054C156.379 23.8843 154.876 26.3968 153.423 28.8266C152.035 31.1459 150.724 33.337 150.724 37.8117C150.724 42.2856 152.035 44.476 153.423 46.7953C154.876 49.2243 156.379 51.7368 156.379 56.7149C156.379 61.6929 154.876 64.2047 153.423 66.6345C152.035 68.9538 150.724 71.1442 150.724 75.6181C150.724 80.0921 152.035 82.2832 153.423 84.6017C154.876 87.0315 156.379 89.544 156.379 94.5214Z" fill="#2F4327"/>
<path d="M142.916 94.5214H141.102C141.102 90.0474 139.792 87.8571 138.404 85.5377C136.95 83.1087 135.448 80.5962 135.448 75.6181C135.448 70.6408 136.95 68.1283 138.404 65.6985C139.792 63.3792 141.102 61.1888 141.102 56.7149C141.102 52.241 139.792 50.0506 138.404 47.7313C136.95 45.3015 135.448 42.789 135.448 37.8117C135.448 32.8329 136.95 30.3203 138.404 27.8906C139.792 25.5712 141.102 23.3801 141.102 18.9054C141.102 14.4316 139.792 12.2405 138.404 9.92107C136.95 7.4906 135.448 4.97806 135.448 0H137.261C137.261 4.47467 138.572 6.66575 139.96 8.98511C141.413 11.4149 142.916 13.9274 142.916 18.9054C142.916 23.8843 141.413 26.3968 139.96 28.8266C138.572 31.1459 137.261 33.337 137.261 37.8117C137.261 42.2856 138.572 44.476 139.96 46.7953C141.413 49.2243 142.916 51.7368 142.916 56.7149C142.916 61.6929 141.413 64.2047 139.96 66.6345C138.572 68.9538 137.261 71.1442 137.261 75.6181C137.261 80.0921 138.572 82.2832 139.96 84.6017C141.413 87.0315 142.916 89.544 142.916 94.5214Z" fill="#2F4327"/>
<path d="M129.453 94.5214H127.64C127.64 90.0474 126.329 87.8571 124.941 85.5377C123.488 83.1087 121.985 80.5962 121.985 75.6181C121.985 70.6408 123.488 68.1283 124.941 65.6985C126.329 63.3792 127.64 61.1888 127.64 56.7149C127.64 52.241 126.329 50.0506 124.941 47.7313C123.488 45.3015 121.985 42.789 121.985 37.8117C121.985 32.8329 123.488 30.3203 124.941 27.8906C126.329 25.5712 127.64 23.3801 127.64 18.9054C127.64 14.4316 126.329 12.2405 124.941 9.92107C123.488 7.4906 121.985 4.97806 121.985 0H123.799C123.799 4.47467 125.109 6.66575 126.497 8.98511C127.95 11.4149 129.453 13.9274 129.453 18.9054C129.453 23.8843 127.95 26.3968 126.497 28.8266C125.109 31.1459 123.799 33.337 123.799 37.8117C123.799 42.2856 125.109 44.476 126.497 46.7953C127.95 49.2243 129.453 51.7368 129.453 56.7149C129.453 61.6929 127.95 64.2047 126.497 66.6345C125.109 68.9538 123.799 71.1442 123.799 75.6181C123.799 80.0921 125.109 82.2832 126.497 84.6017C127.95 87.0315 129.453 89.544 129.453 94.5214Z" fill="#2F4327"/>
<path d="M115.99 94.5214H114.177C114.177 90.0474 112.866 87.8571 111.478 85.5377C110.025 83.1087 108.522 80.5962 108.522 75.6181C108.522 70.6408 110.025 68.1283 111.478 65.6985C112.866 63.3792 114.177 61.1888 114.177 56.7149C114.177 52.241 112.866 50.0506 111.478 47.7313C110.025 45.3015 108.522 42.789 108.522 37.8117C108.522 32.8329 110.025 30.3203 111.478 27.8906C112.866 25.5712 114.177 23.3801 114.177 18.9054C114.177 14.4316 112.866 12.2405 111.478 9.92107C110.025 7.4906 108.522 4.97806 108.522 0H110.336C110.336 4.47467 111.646 6.66575 113.034 8.98511C114.487 11.4149 115.99 13.9274 115.99 18.9054C115.99 23.8843 114.487 26.3968 113.034 28.8266C111.646 31.1459 110.336 33.337 110.336 37.8117C110.336 42.2856 111.646 44.476 113.034 46.7953C114.487 49.2243 115.99 51.7368 115.99 56.7149C115.99 61.6929 114.487 64.2047 113.034 66.6345C111.646 68.9538 110.336 71.1442 110.336 75.6181C110.336 80.0921 111.646 82.2832 113.034 84.6017C114.487 87.0315 115.99 89.544 115.99 94.5214Z" fill="#2F4327"/>
<path d="M102.527 94.5214H100.714C100.714 90.0474 99.4029 87.8571 98.0154 85.5377C96.5618 83.1087 95.0591 80.5962 95.0591 75.6181C95.0591 70.6408 96.5618 68.1283 98.0154 65.6985C99.4029 63.3792 100.714 61.1888 100.714 56.7149C100.714 52.241 99.4029 50.0506 98.0154 47.7313C96.5618 45.3015 95.0591 42.789 95.0591 37.8117C95.0591 32.8329 96.5618 30.3203 98.0154 27.8906C99.4029 25.5712 100.714 23.3801 100.714 18.9054C100.714 14.4316 99.4029 12.2405 98.0154 9.92107C96.5618 7.4906 95.0591 4.97806 95.0591 0H96.8726C96.8726 4.47467 98.1834 6.66575 99.571 8.98511C101.025 11.4149 102.527 13.9274 102.527 18.9054C102.527 23.8843 101.025 26.3968 99.571 28.8266C98.1834 31.1459 96.8726 33.337 96.8726 37.8117C96.8726 42.2856 98.1834 44.476 99.571 46.7953C101.025 49.2243 102.527 51.7368 102.527 56.7149C102.527 61.6929 101.025 64.2047 99.571 66.6345C98.1834 68.9538 96.8726 71.1442 96.8726 75.6181C96.8726 80.0921 98.1834 82.2832 99.571 84.6017C101.025 87.0315 102.527 89.544 102.527 94.5214Z" fill="#2F4327"/>
<path d="M89.0644 94.5214H87.2509C87.2509 90.0474 85.94 87.8571 84.5525 85.5377C83.0989 83.1087 81.5962 80.5962 81.5962 75.6181C81.5962 70.6408 83.0989 68.1283 84.5525 65.6985C85.94 63.3792 87.2509 61.1888 87.2509 56.7149C87.2509 52.241 85.94 50.0506 84.5525 47.7313C83.0989 45.3015 81.5962 42.789 81.5962 37.8117C81.5962 32.8329 83.0989 30.3203 84.5525 27.8906C85.94 25.5712 87.2509 23.3801 87.2509 18.9054C87.2509 14.4316 85.94 12.2405 84.5525 9.92107C83.0989 7.4906 81.5962 4.97806 81.5962 0H83.4097C83.4097 4.47467 84.7205 6.66575 86.1081 8.98511C87.5617 11.4149 89.0644 13.9274 89.0644 18.9054C89.0644 23.8843 87.5617 26.3968 86.1081 28.8266C84.7205 31.1459 83.4097 33.337 83.4097 37.8117C83.4097 42.2856 84.7205 44.476 86.1081 46.7953C87.5617 49.2243 89.0644 51.7368 89.0644 56.7149C89.0644 61.6929 87.5617 64.2047 86.1081 66.6345C84.7205 68.9538 83.4097 71.1442 83.4097 75.6181C83.4097 80.0921 84.7205 82.2832 86.1081 84.6017C87.5617 87.0315 89.0644 89.544 89.0644 94.5214Z" fill="#2F4327"/>
<path d="M74.9731 170.418H73.1596C73.1596 165.944 71.8487 163.754 70.4612 161.434C69.0076 159.005 67.5049 156.493 67.5049 151.515C67.5049 146.537 69.0076 144.025 70.4612 141.595C71.8487 139.276 73.1596 137.085 73.1596 132.611C73.1596 128.138 71.8487 125.947 70.4612 123.628C69.0076 121.198 67.5049 118.685 67.5049 113.708C67.5049 108.729 69.0076 106.217 70.4612 103.787C71.8487 101.468 73.1596 99.2766 73.1596 94.802C73.1596 90.328 71.8487 88.137 70.4612 85.8175C69.0076 83.3871 67.5049 80.8745 67.5049 75.8965H69.3184C69.3184 80.3712 70.6292 82.5622 72.0168 84.8816C73.4704 87.3114 74.9731 89.8239 74.9731 94.802C74.9731 99.7808 73.4704 102.293 72.0168 104.723C70.6292 107.042 69.3184 109.233 69.3184 113.708C69.3184 118.181 70.6292 120.372 72.0168 122.692C73.4704 125.121 74.9731 127.633 74.9731 132.611C74.9731 137.59 73.4704 140.101 72.0168 142.531C70.6292 144.85 69.3184 147.041 69.3184 151.515C69.3184 155.989 70.6292 158.18 72.0168 160.498C73.4704 162.928 74.9731 165.441 74.9731 170.418Z" fill="#2F4327"/>
<path d="M61.5102 170.418H59.6967C59.6967 165.944 58.3858 163.754 56.9983 161.434C55.5447 159.005 54.042 156.493 54.042 151.515C54.042 146.537 55.5447 144.025 56.9983 141.595C58.3858 139.276 59.6967 137.085 59.6967 132.611C59.6967 128.138 58.3858 125.947 56.9983 123.628C55.5447 121.198 54.042 118.685 54.042 113.708C54.042 108.729 55.5447 106.217 56.9983 103.787C58.3858 101.468 59.6967 99.2766 59.6967 94.802C59.6967 90.328 58.3858 88.137 56.9983 85.8175C55.5447 83.3871 54.042 80.8745 54.042 75.8965H55.8562C55.8562 80.3712 57.1664 82.5622 58.5539 84.8816C60.0075 87.3114 61.5102 89.8239 61.5102 94.802C61.5102 99.7808 60.0075 102.293 58.5539 104.723C57.1664 107.042 55.8562 109.233 55.8562 113.708C55.8562 118.181 57.1664 120.372 58.5539 122.692C60.0075 125.121 61.5102 127.633 61.5102 132.611C61.5102 137.59 60.0075 140.101 58.5539 142.531C57.1664 144.85 55.8562 147.041 55.8562 151.515C55.8562 155.989 57.1664 158.18 58.5539 160.498C60.0075 162.928 61.5102 165.441 61.5102 170.418Z" fill="#2F4327"/>
<path d="M48.0473 170.418H46.2338C46.2338 165.944 44.9229 163.754 43.5354 161.434C42.0826 159.005 40.5791 156.493 40.5791 151.515C40.5791 146.537 42.0826 144.025 43.5354 141.595C44.9229 139.276 46.2338 137.085 46.2338 132.611C46.2338 128.138 44.9229 125.947 43.5354 123.628C42.0826 121.198 40.5791 118.685 40.5791 113.708C40.5791 108.729 42.0826 106.217 43.5354 103.787C44.9229 101.468 46.2338 99.2766 46.2338 94.802C46.2338 90.328 44.9229 88.137 43.5354 85.8175C42.0826 83.3871 40.5791 80.8745 40.5791 75.8965H42.3933C42.3933 80.3712 43.7035 82.5622 45.091 84.8816C46.5446 87.3114 48.0473 89.8239 48.0473 94.802C48.0473 99.7808 46.5446 102.293 45.091 104.723C43.7035 107.042 42.3933 109.233 42.3933 113.708C42.3933 118.181 43.7035 120.372 45.091 122.692C46.5446 125.121 48.0473 127.633 48.0473 132.611C48.0473 137.59 46.5446 140.101 45.091 142.531C43.7035 144.85 42.3933 147.041 42.3933 151.515C42.3933 155.989 43.7035 158.18 45.091 160.498C46.5446 162.928 48.0473 165.441 48.0473 170.418Z" fill="#2F4327"/>
<path d="M34.5845 170.418H32.771C32.771 165.944 31.46 163.754 30.0726 161.434C28.6197 159.005 27.1162 156.493 27.1162 151.515C27.1162 146.537 28.6197 144.025 30.0726 141.595C31.46 139.276 32.771 137.085 32.771 132.611C32.771 128.138 31.46 125.947 30.0726 123.628C28.6197 121.198 27.1162 118.685 27.1162 113.708C27.1162 108.729 28.6197 106.217 30.0726 103.787C31.46 101.468 32.771 99.2766 32.771 94.802C32.771 90.328 31.46 88.137 30.0726 85.8175C28.6197 83.3871 27.1162 80.8745 27.1162 75.8965H28.9304C28.9304 80.3712 30.2406 82.5622 31.6281 84.8816C33.0817 87.3114 34.5845 89.8239 34.5845 94.802C34.5845 99.7808 33.0817 102.293 31.6281 104.723C30.2406 107.042 28.9304 109.233 28.9304 113.708C28.9304 118.181 30.2406 120.372 31.6281 122.692C33.0817 125.121 34.5845 127.633 34.5845 132.611C34.5845 137.59 33.0817 140.101 31.6281 142.531C30.2406 144.85 28.9304 147.041 28.9304 151.515C28.9304 155.989 30.2406 158.18 31.6281 160.498C33.0817 162.928 34.5845 165.441 34.5845 170.418Z" fill="#2F4327"/>
<path d="M21.1216 170.418H19.3081C19.3081 165.944 17.9971 163.754 16.6097 161.434C15.156 159.005 13.6533 156.493 13.6533 151.515C13.6533 146.537 15.156 144.025 16.6097 141.595C17.9971 139.276 19.3081 137.085 19.3081 132.611C19.3081 128.138 17.9971 125.947 16.6097 123.628C15.156 121.198 13.6533 118.685 13.6533 113.708C13.6533 108.729 15.156 106.217 16.6097 103.787C17.9971 101.468 19.3081 99.2766 19.3081 94.802C19.3081 90.328 17.9971 88.137 16.6097 85.8175C15.156 83.3871 13.6533 80.8745 13.6533 75.8965H15.4668C15.4668 80.3712 16.7777 82.5622 18.1652 84.8816C19.6188 87.3114 21.1216 89.8239 21.1216 94.802C21.1216 99.7808 19.6188 102.293 18.1652 104.723C16.7777 107.042 15.4668 109.233 15.4668 113.708C15.4668 118.181 16.7777 120.372 18.1652 122.692C19.6188 125.121 21.1216 127.633 21.1216 132.611C21.1216 137.59 19.6188 140.101 18.1652 142.531C16.7777 144.85 15.4668 147.041 15.4668 151.515C15.4668 155.989 16.7777 158.18 18.1652 160.498C19.6188 162.928 21.1216 165.441 21.1216 170.418Z" fill="#2F4327"/>
<path d="M7.65868 170.418H5.84517C5.84517 165.944 4.53424 163.754 3.14678 161.434C1.69315 159.005 0.19043 156.493 0.19043 151.515C0.19043 146.537 1.69316 144.025 3.14678 141.595C4.53424 139.276 5.84517 137.085 5.84517 132.611C5.84517 128.138 4.53424 125.947 3.14678 123.628C1.69315 121.198 0.19043 118.685 0.19043 113.708C0.19043 108.729 1.69316 106.217 3.14678 103.787C4.53424 101.468 5.84517 99.2766 5.84517 94.802C5.84517 90.328 4.53424 88.137 3.14678 85.8175C1.69315 83.3871 0.19043 80.8745 0.19043 75.8965H2.00394C2.00394 80.3712 3.31479 82.5622 4.70233 84.8816C6.15596 87.3114 7.65868 89.8239 7.65868 94.802C7.65868 99.7808 6.15595 102.293 4.70233 104.723C3.31479 107.042 2.00394 109.233 2.00394 113.708C2.00394 118.181 3.31479 120.372 4.70233 122.692C6.15596 125.121 7.65868 127.633 7.65868 132.611C7.65868 137.59 6.15595 140.101 4.70233 142.531C3.31479 144.85 2.00394 147.041 2.00394 151.515C2.00394 155.989 3.31479 158.18 4.70233 160.498C6.15596 162.928 7.65868 165.441 7.65868 170.418Z" fill="#2F4327"/>
<path d="M156.379 170.418H154.565C154.565 165.944 153.254 163.754 151.867 161.434C150.413 159.005 148.911 156.493 148.911 151.515C148.911 146.537 150.413 144.025 151.867 141.595C153.254 139.276 154.565 137.085 154.565 132.611C154.565 128.138 153.254 125.947 151.867 123.628C150.413 121.198 148.911 118.685 148.911 113.708C148.911 108.729 150.413 106.217 151.867 103.787C153.254 101.468 154.565 99.2766 154.565 94.802C154.565 90.328 153.254 88.137 151.867 85.8175C150.413 83.3871 148.911 80.8745 148.911 75.8965H150.724C150.724 80.3712 152.035 82.5622 153.423 84.8816C154.876 87.3114 156.379 89.8239 156.379 94.802C156.379 99.7808 154.876 102.293 153.423 104.723C152.035 107.042 150.724 109.233 150.724 113.708C150.724 118.181 152.035 120.372 153.423 122.692C154.876 125.121 156.379 127.633 156.379 132.611C156.379 137.59 154.876 140.101 153.423 142.531C152.035 144.85 150.724 147.041 150.724 151.515C150.724 155.989 152.035 158.18 153.423 160.498C154.876 162.928 156.379 165.441 156.379 170.418Z" fill="#2F4327"/>
<path d="M142.916 170.418H141.102C141.102 165.944 139.792 163.754 138.404 161.434C136.95 159.005 135.448 156.493 135.448 151.515C135.448 146.537 136.95 144.025 138.404 141.595C139.792 139.276 141.102 137.085 141.102 132.611C141.102 128.138 139.792 125.947 138.404 123.628C136.95 121.198 135.448 118.685 135.448 113.708C135.448 108.729 136.95 106.217 138.404 103.787C139.792 101.468 141.102 99.2766 141.102 94.802C141.102 90.328 139.792 88.137 138.404 85.8175C136.95 83.3871 135.448 80.8745 135.448 75.8965H137.261C137.261 80.3712 138.572 82.5622 139.96 84.8816C141.413 87.3114 142.916 89.8239 142.916 94.802C142.916 99.7808 141.413 102.293 139.96 104.723C138.572 107.042 137.261 109.233 137.261 113.708C137.261 118.181 138.572 120.372 139.96 122.692C141.413 125.121 142.916 127.633 142.916 132.611C142.916 137.59 141.413 140.101 139.96 142.531C138.572 144.85 137.261 147.041 137.261 151.515C137.261 155.989 138.572 158.18 139.96 160.498C141.413 162.928 142.916 165.441 142.916 170.418Z" fill="#2F4327"/>
<path d="M129.453 170.418H127.64C127.64 165.944 126.329 163.754 124.941 161.434C123.488 159.005 121.985 156.493 121.985 151.515C121.985 146.537 123.488 144.025 124.941 141.595C126.329 139.276 127.64 137.085 127.64 132.611C127.64 128.138 126.329 125.947 124.941 123.628C123.488 121.198 121.985 118.685 121.985 113.708C121.985 108.729 123.488 106.217 124.941 103.787C126.329 101.468 127.64 99.2766 127.64 94.802C127.64 90.328 126.329 88.137 124.941 85.8175C123.488 83.3871 121.985 80.8745 121.985 75.8965H123.799C123.799 80.3712 125.109 82.5622 126.497 84.8816C127.95 87.3114 129.453 89.8239 129.453 94.802C129.453 99.7808 127.95 102.293 126.497 104.723C125.109 107.042 123.799 109.233 123.799 113.708C123.799 118.181 125.109 120.372 126.497 122.692C127.95 125.121 129.453 127.633 129.453 132.611C129.453 137.59 127.95 140.101 126.497 142.531C125.109 144.85 123.799 147.041 123.799 151.515C123.799 155.989 125.109 158.18 126.497 160.498C127.95 162.928 129.453 165.441 129.453 170.418Z" fill="#2F4327"/>
<path d="M115.99 170.418H114.177C114.177 165.944 112.866 163.754 111.478 161.434C110.025 159.005 108.522 156.493 108.522 151.515C108.522 146.537 110.025 144.025 111.478 141.595C112.866 139.276 114.177 137.085 114.177 132.611C114.177 128.138 112.866 125.947 111.478 123.628C110.025 121.198 108.522 118.685 108.522 113.708C108.522 108.729 110.025 106.217 111.478 103.787C112.866 101.468 114.177 99.2766 114.177 94.802C114.177 90.328 112.866 88.137 111.478 85.8175C110.025 83.3871 108.522 80.8745 108.522 75.8965H110.336C110.336 80.3712 111.646 82.5622 113.034 84.8816C114.487 87.3114 115.99 89.8239 115.99 94.802C115.99 99.7808 114.487 102.293 113.034 104.723C111.646 107.042 110.336 109.233 110.336 113.708C110.336 118.181 111.646 120.372 113.034 122.692C114.487 125.121 115.99 127.633 115.99 132.611C115.99 137.59 114.487 140.101 113.034 142.531C111.646 144.85 110.336 147.041 110.336 151.515C110.336 155.989 111.646 158.18 113.034 160.498C114.487 162.928 115.99 165.441 115.99 170.418Z" fill="#2F4327"/>
<path d="M102.527 170.418H100.714C100.714 165.944 99.4029 163.754 98.0154 161.434C96.5618 159.005 95.0591 156.493 95.0591 151.515C95.0591 146.537 96.5618 144.025 98.0154 141.595C99.4029 139.276 100.714 137.085 100.714 132.611C100.714 128.138 99.4029 125.947 98.0154 123.628C96.5618 121.198 95.0591 118.685 95.0591 113.708C95.0591 108.729 96.5618 106.217 98.0154 103.787C99.4029 101.468 100.714 99.2766 100.714 94.802C100.714 90.328 99.4029 88.137 98.0154 85.8175C96.5618 83.3871 95.0591 80.8745 95.0591 75.8965H96.8726C96.8726 80.3712 98.1834 82.5622 99.571 84.8816C101.025 87.3114 102.527 89.8239 102.527 94.802C102.527 99.7808 101.025 102.293 99.571 104.723C98.1834 107.042 96.8726 109.233 96.8726 113.708C96.8726 118.181 98.1834 120.372 99.571 122.692C101.025 125.121 102.527 127.633 102.527 132.611C102.527 137.59 101.025 140.101 99.571 142.531C98.1834 144.85 96.8726 147.041 96.8726 151.515C96.8726 155.989 98.1834 158.18 99.571 160.498C101.025 162.928 102.527 165.441 102.527 170.418Z" fill="#2F4327"/>
<path d="M89.0644 170.418H87.2509C87.2509 165.944 85.94 163.754 84.5525 161.434C83.0989 159.005 81.5962 156.493 81.5962 151.515C81.5962 146.537 83.0989 144.025 84.5525 141.595C85.94 139.276 87.2509 137.085 87.2509 132.611C87.2509 128.138 85.94 125.947 84.5525 123.628C83.0989 121.198 81.5962 118.685 81.5962 113.708C81.5962 108.729 83.0989 106.217 84.5525 103.787C85.94 101.468 87.2509 99.2766 87.2509 94.802C87.2509 90.328 85.94 88.137 84.5525 85.8175C83.0989 83.3871 81.5962 80.8745 81.5962 75.8965H83.4097C83.4097 80.3712 84.7205 82.5622 86.1081 84.8816C87.5617 87.3114 89.0644 89.8239 89.0644 94.802C89.0644 99.7808 87.5617 102.293 86.1081 104.723C84.7205 107.042 83.4097 109.233 83.4097 113.708C83.4097 118.181 84.7205 120.372 86.1081 122.692C87.5617 125.121 89.0644 127.633 89.0644 132.611C89.0644 137.59 87.5617 140.101 86.1081 142.531C84.7205 144.85 83.4097 147.041 83.4097 151.515C83.4097 155.989 84.7205 158.18 86.1081 160.498C87.5617 162.928 89.0644 165.441 89.0644 170.418Z" fill="#2F4327"/>
<path d="M237.785 94.5214H235.971C235.971 90.0474 234.66 87.8571 233.273 85.5377C231.819 83.1087 230.316 80.5962 230.316 75.6181C230.316 70.6408 231.819 68.1283 233.273 65.6985C234.66 63.3792 235.971 61.1888 235.971 56.7149C235.971 52.241 234.66 50.0506 233.273 47.7313C231.819 45.3015 230.316 42.789 230.316 37.8117C230.316 32.8329 231.819 30.3203 233.273 27.8906C234.66 25.5712 235.971 23.3801 235.971 18.9054C235.971 14.4316 234.66 12.2405 233.273 9.92107C231.819 7.4906 230.316 4.97806 230.316 0H232.13C232.13 4.47467 233.441 6.66575 234.828 8.98511C236.282 11.4149 237.785 13.9274 237.785 18.9054C237.785 23.8843 236.282 26.3968 234.828 28.8266C233.441 31.1459 232.13 33.337 232.13 37.8117C232.13 42.2856 233.441 44.476 234.828 46.7953C236.282 49.2243 237.785 51.7368 237.785 56.7149C237.785 61.6929 236.282 64.2047 234.828 66.6345C233.441 68.9538 232.13 71.1442 232.13 75.6181C232.13 80.0921 233.441 82.2832 234.828 84.6017C236.282 87.0315 237.785 89.544 237.785 94.5214Z" fill="#2F4327"/>
<path d="M224.322 94.5214H222.508C222.508 90.0474 221.197 87.8571 219.81 85.5377C218.356 83.1087 216.854 80.5962 216.854 75.6181C216.854 70.6408 218.356 68.1283 219.81 65.6985C221.197 63.3792 222.508 61.1888 222.508 56.7149C222.508 52.241 221.197 50.0506 219.81 47.7313C218.356 45.3015 216.854 42.789 216.854 37.8117C216.854 32.8329 218.356 30.3203 219.81 27.8906C221.197 25.5712 222.508 23.3801 222.508 18.9054C222.508 14.4316 221.197 12.2405 219.81 9.92107C218.356 7.4906 216.854 4.97806 216.854 0H218.667C218.667 4.47467 219.978 6.66575 221.365 8.98511C222.819 11.4149 224.322 13.9274 224.322 18.9054C224.322 23.8843 222.819 26.3968 221.365 28.8266C219.978 31.1459 218.667 33.337 218.667 37.8117C218.667 42.2856 219.978 44.476 221.365 46.7953C222.819 49.2243 224.322 51.7368 224.322 56.7149C224.322 61.6929 222.819 64.2047 221.365 66.6345C219.978 68.9538 218.667 71.1442 218.667 75.6181C218.667 80.0921 219.978 82.2832 221.365 84.6017C222.819 87.0315 224.322 89.544 224.322 94.5214Z" fill="#2F4327"/>
<path d="M210.859 94.5214H209.045C209.045 90.0474 207.734 87.8571 206.347 85.5377C204.894 83.1087 203.391 80.5962 203.391 75.6181C203.391 70.6408 204.894 68.1283 206.347 65.6985C207.734 63.3792 209.045 61.1888 209.045 56.7149C209.045 52.241 207.734 50.0506 206.347 47.7313C204.894 45.3015 203.391 42.789 203.391 37.8117C203.391 32.8329 204.894 30.3203 206.347 27.8906C207.734 25.5712 209.045 23.3801 209.045 18.9054C209.045 14.4316 207.734 12.2405 206.347 9.92107C204.894 7.4906 203.391 4.97806 203.391 0H205.205C205.205 4.47467 206.515 6.66575 207.903 8.98511C209.356 11.4149 210.859 13.9274 210.859 18.9054C210.859 23.8843 209.356 26.3968 207.903 28.8266C206.515 31.1459 205.205 33.337 205.205 37.8117C205.205 42.2856 206.515 44.476 207.903 46.7953C209.356 49.2243 210.859 51.7368 210.859 56.7149C210.859 61.6929 209.356 64.2047 207.903 66.6345C206.515 68.9538 205.205 71.1442 205.205 75.6181C205.205 80.0921 206.515 82.2832 207.903 84.6017C209.356 87.0315 210.859 89.544 210.859 94.5214Z" fill="#2F4327"/>
<path d="M197.396 94.5214H195.582C195.582 90.0474 194.272 87.8571 192.884 85.5377C191.431 83.1087 189.928 80.5962 189.928 75.6181C189.928 70.6408 191.431 68.1283 192.884 65.6985C194.272 63.3792 195.582 61.1888 195.582 56.7149C195.582 52.241 194.272 50.0506 192.884 47.7313C191.431 45.3015 189.928 42.789 189.928 37.8117C189.928 32.8329 191.431 30.3203 192.884 27.8906C194.272 25.5712 195.582 23.3801 195.582 18.9054C195.582 14.4316 194.272 12.2405 192.884 9.92107C191.431 7.4906 189.928 4.97806 189.928 0H191.742C191.742 4.47467 193.052 6.66575 194.44 8.98511C195.893 11.4149 197.396 13.9274 197.396 18.9054C197.396 23.8843 195.893 26.3968 194.44 28.8266C193.052 31.1459 191.742 33.337 191.742 37.8117C191.742 42.2856 193.052 44.476 194.44 46.7953C195.893 49.2243 197.396 51.7368 197.396 56.7149C197.396 61.6929 195.893 64.2047 194.44 66.6345C193.052 68.9538 191.742 71.1442 191.742 75.6181C191.742 80.0921 193.052 82.2832 194.44 84.6017C195.893 87.0315 197.396 89.544 197.396 94.5214Z" fill="#2F4327"/>
<path d="M183.933 94.5214H182.12C182.12 90.0474 180.809 87.8571 179.421 85.5377C177.968 83.1087 176.465 80.5962 176.465 75.6181C176.465 70.6408 177.968 68.1283 179.421 65.6985C180.809 63.3792 182.12 61.1888 182.12 56.7149C182.12 52.241 180.809 50.0506 179.421 47.7313C177.968 45.3015 176.465 42.789 176.465 37.8117C176.465 32.8329 177.968 30.3203 179.421 27.8906C180.809 25.5712 182.12 23.3801 182.12 18.9054C182.12 14.4316 180.809 12.2405 179.421 9.92107C177.968 7.4906 176.465 4.97806 176.465 0H178.278C178.278 4.47467 179.589 6.66575 180.977 8.98511C182.43 11.4149 183.933 13.9274 183.933 18.9054C183.933 23.8843 182.43 26.3968 180.977 28.8266C179.589 31.1459 178.278 33.337 178.278 37.8117C178.278 42.2856 179.589 44.476 180.977 46.7953C182.43 49.2243 183.933 51.7368 183.933 56.7149C183.933 61.6929 182.43 64.2047 180.977 66.6345C179.589 68.9538 178.278 71.1442 178.278 75.6181C178.278 80.0921 179.589 82.2832 180.977 84.6017C182.43 87.0315 183.933 89.544 183.933 94.5214Z" fill="#2F4327"/>
<path d="M170.47 94.5214H168.657C168.657 90.0474 167.346 87.8571 165.958 85.5377C164.505 83.1087 163.002 80.5962 163.002 75.6181C163.002 70.6408 164.505 68.1283 165.958 65.6985C167.346 63.3792 168.657 61.1888 168.657 56.7149C168.657 52.241 167.346 50.0506 165.958 47.7313C164.505 45.3015 163.002 42.789 163.002 37.8117C163.002 32.8329 164.505 30.3203 165.958 27.8906C167.346 25.5712 168.657 23.3801 168.657 18.9054C168.657 14.4316 167.346 12.2405 165.958 9.92107C164.505 7.4906 163.002 4.97806 163.002 0H164.815C164.815 4.47467 166.126 6.66575 167.514 8.98511C168.967 11.4149 170.47 13.9274 170.47 18.9054C170.47 23.8843 168.967 26.3968 167.514 28.8266C166.126 31.1459 164.815 33.337 164.815 37.8117C164.815 42.2856 166.126 44.476 167.514 46.7953C168.967 49.2243 170.47 51.7368 170.47 56.7149C170.47 61.6929 168.967 64.2047 167.514 66.6345C166.126 68.9538 164.815 71.1442 164.815 75.6181C164.815 80.0921 166.126 82.2832 167.514 84.6017C168.967 87.0315 170.47 89.544 170.47 94.5214Z" fill="#2F4327"/>
<path d="M278.802 94.5214H276.988C276.988 90.0474 275.677 87.8571 274.29 85.5377C272.837 83.1087 271.333 80.5962 271.333 75.6181C271.333 70.6408 272.837 68.1283 274.29 65.6985C275.677 63.3792 276.988 61.1888 276.988 56.7149C276.988 52.241 275.677 50.0506 274.29 47.7313C272.837 45.3015 271.333 42.789 271.333 37.8117C271.333 32.8329 272.837 30.3203 274.29 27.8906C275.677 25.5712 276.988 23.3801 276.988 18.9054C276.988 14.4316 275.677 12.2405 274.29 9.92107C272.837 7.4906 271.333 4.97806 271.333 0H273.148C273.148 4.47467 274.458 6.66575 275.845 8.98511C277.299 11.4149 278.802 13.9274 278.802 18.9054C278.802 23.8843 277.299 26.3968 275.845 28.8266C274.458 31.1459 273.148 33.337 273.148 37.8117C273.148 42.2856 274.458 44.476 275.845 46.7953C277.299 49.2243 278.802 51.7368 278.802 56.7149C278.802 61.6929 277.299 64.2047 275.845 66.6345C274.458 68.9538 273.148 71.1442 273.148 75.6181C273.148 80.0921 274.458 82.2832 275.845 84.6017C277.299 87.0315 278.802 89.544 278.802 94.5214Z" fill="#2F4327"/>
<path d="M265.339 94.5214H263.525C263.525 90.0474 262.214 87.8571 260.827 85.5377C259.373 83.1087 257.871 80.5962 257.871 75.6181C257.871 70.6408 259.373 68.1283 260.827 65.6985C262.214 63.3792 263.525 61.1888 263.525 56.7149C263.525 52.241 262.214 50.0506 260.827 47.7313C259.373 45.3015 257.871 42.789 257.871 37.8117C257.871 32.8329 259.373 30.3203 260.827 27.8906C262.214 25.5712 263.525 23.3801 263.525 18.9054C263.525 14.4316 262.214 12.2405 260.827 9.92107C259.373 7.4906 257.871 4.97806 257.871 0H259.685C259.685 4.47467 260.995 6.66575 262.383 8.98511C263.836 11.4149 265.339 13.9274 265.339 18.9054C265.339 23.8843 263.836 26.3968 262.383 28.8266C260.995 31.1459 259.685 33.337 259.685 37.8117C259.685 42.2856 260.995 44.476 262.383 46.7953C263.836 49.2243 265.339 51.7368 265.339 56.7149C265.339 61.6929 263.836 64.2047 262.383 66.6345C260.995 68.9538 259.685 71.1442 259.685 75.6181C259.685 80.0921 260.995 82.2832 262.383 84.6017C263.836 87.0315 265.339 89.544 265.339 94.5214Z" fill="#2F4327"/>
<path d="M251.876 94.5214H250.062C250.062 90.0474 248.752 87.8571 247.364 85.5377C245.91 83.1087 244.408 80.5962 244.408 75.6181C244.408 70.6408 245.91 68.1283 247.364 65.6985C248.752 63.3792 250.062 61.1888 250.062 56.7149C250.062 52.241 248.752 50.0506 247.364 47.7313C245.91 45.3015 244.408 42.789 244.408 37.8117C244.408 32.8329 245.91 30.3203 247.364 27.8906C248.752 25.5712 250.062 23.3801 250.062 18.9054C250.062 14.4316 248.752 12.2405 247.364 9.92107C245.91 7.4906 244.408 4.97806 244.408 0H246.221C246.221 4.47467 247.532 6.66575 248.92 8.98511C250.373 11.4149 251.876 13.9274 251.876 18.9054C251.876 23.8843 250.373 26.3968 248.92 28.8266C247.532 31.1459 246.221 33.337 246.221 37.8117C246.221 42.2856 247.532 44.476 248.92 46.7953C250.373 49.2243 251.876 51.7368 251.876 56.7149C251.876 61.6929 250.373 64.2047 248.92 66.6345C247.532 68.9538 246.221 71.1442 246.221 75.6181C246.221 80.0921 247.532 82.2832 248.92 84.6017C250.373 87.0315 251.876 89.544 251.876 94.5214Z" fill="#2F4327"/>
<path d="M237.785 170.418H235.971C235.971 165.944 234.66 163.754 233.273 161.434C231.819 159.005 230.316 156.493 230.316 151.515C230.316 146.537 231.819 144.025 233.273 141.595C234.66 139.276 235.971 137.085 235.971 132.611C235.971 128.138 234.66 125.947 233.273 123.628C231.819 121.198 230.316 118.685 230.316 113.708C230.316 108.729 231.819 106.217 233.273 103.787C234.66 101.468 235.971 99.2766 235.971 94.802C235.971 90.328 234.66 88.137 233.273 85.8175C231.819 83.3871 230.316 80.8745 230.316 75.8965H232.13C232.13 80.3712 233.441 82.5622 234.828 84.8816C236.282 87.3114 237.785 89.8239 237.785 94.802C237.785 99.7808 236.282 102.293 234.828 104.723C233.441 107.042 232.13 109.233 232.13 113.708C232.13 118.181 233.441 120.372 234.828 122.692C236.282 125.121 237.785 127.633 237.785 132.611C237.785 137.59 236.282 140.101 234.828 142.531C233.441 144.85 232.13 147.041 232.13 151.515C232.13 155.989 233.441 158.18 234.828 160.498C236.282 162.928 237.785 165.441 237.785 170.418Z" fill="#2F4327"/>
<path d="M224.322 170.418H222.508C222.508 165.944 221.197 163.754 219.81 161.434C218.356 159.005 216.854 156.493 216.854 151.515C216.854 146.537 218.356 144.025 219.81 141.595C221.197 139.276 222.508 137.085 222.508 132.611C222.508 128.138 221.197 125.947 219.81 123.628C218.356 121.198 216.854 118.685 216.854 113.708C216.854 108.729 218.356 106.217 219.81 103.787C221.197 101.468 222.508 99.2766 222.508 94.802C222.508 90.328 221.197 88.137 219.81 85.8175C218.356 83.3871 216.854 80.8745 216.854 75.8965H218.667C218.667 80.3712 219.978 82.5622 221.365 84.8816C222.819 87.3114 224.322 89.8239 224.322 94.802C224.322 99.7808 222.819 102.293 221.365 104.723C219.978 107.042 218.667 109.233 218.667 113.708C218.667 118.181 219.978 120.372 221.365 122.692C222.819 125.121 224.322 127.633 224.322 132.611C224.322 137.59 222.819 140.101 221.365 142.531C219.978 144.85 218.667 147.041 218.667 151.515C218.667 155.989 219.978 158.18 221.365 160.498C222.819 162.928 224.322 165.441 224.322 170.418Z" fill="#2F4327"/>
<path d="M210.859 170.418H209.045C209.045 165.944 207.734 163.754 206.347 161.434C204.894 159.005 203.391 156.493 203.391 151.515C203.391 146.537 204.894 144.025 206.347 141.595C207.734 139.276 209.045 137.085 209.045 132.611C209.045 128.138 207.734 125.947 206.347 123.628C204.894 121.198 203.391 118.685 203.391 113.708C203.391 108.729 204.894 106.217 206.347 103.787C207.734 101.468 209.045 99.2766 209.045 94.802C209.045 90.328 207.734 88.137 206.347 85.8175C204.894 83.3871 203.391 80.8745 203.391 75.8965H205.205C205.205 80.3712 206.515 82.5622 207.903 84.8816C209.356 87.3114 210.859 89.8239 210.859 94.802C210.859 99.7808 209.356 102.293 207.903 104.723C206.515 107.042 205.205 109.233 205.205 113.708C205.205 118.181 206.515 120.372 207.903 122.692C209.356 125.121 210.859 127.633 210.859 132.611C210.859 137.59 209.356 140.101 207.903 142.531C206.515 144.85 205.205 147.041 205.205 151.515C205.205 155.989 206.515 158.18 207.903 160.498C209.356 162.928 210.859 165.441 210.859 170.418Z" fill="#2F4327"/>
<path d="M197.396 170.418H195.582C195.582 165.944 194.272 163.754 192.884 161.434C191.431 159.005 189.928 156.493 189.928 151.515C189.928 146.537 191.431 144.025 192.884 141.595C194.272 139.276 195.582 137.085 195.582 132.611C195.582 128.138 194.272 125.947 192.884 123.628C191.431 121.198 189.928 118.685 189.928 113.708C189.928 108.729 191.431 106.217 192.884 103.787C194.272 101.468 195.582 99.2766 195.582 94.802C195.582 90.328 194.272 88.137 192.884 85.8175C191.431 83.3871 189.928 80.8745 189.928 75.8965H191.742C191.742 80.3712 193.052 82.5622 194.44 84.8816C195.893 87.3114 197.396 89.8239 197.396 94.802C197.396 99.7808 195.893 102.293 194.44 104.723C193.052 107.042 191.742 109.233 191.742 113.708C191.742 118.181 193.052 120.372 194.44 122.692C195.893 125.121 197.396 127.633 197.396 132.611C197.396 137.59 195.893 140.101 194.44 142.531C193.052 144.85 191.742 147.041 191.742 151.515C191.742 155.989 193.052 158.18 194.44 160.498C195.893 162.928 197.396 165.441 197.396 170.418Z" fill="#2F4327"/>
<path d="M183.933 170.418H182.12C182.12 165.944 180.809 163.754 179.421 161.434C177.968 159.005 176.465 156.493 176.465 151.515C176.465 146.537 177.968 144.025 179.421 141.595C180.809 139.276 182.12 137.085 182.12 132.611C182.12 128.138 180.809 125.947 179.421 123.628C177.968 121.198 176.465 118.685 176.465 113.708C176.465 108.729 177.968 106.217 179.421 103.787C180.809 101.468 182.12 99.2766 182.12 94.802C182.12 90.328 180.809 88.137 179.421 85.8175C177.968 83.3871 176.465 80.8745 176.465 75.8965H178.278C178.278 80.3712 179.589 82.5622 180.977 84.8816C182.43 87.3114 183.933 89.8239 183.933 94.802C183.933 99.7808 182.43 102.293 180.977 104.723C179.589 107.042 178.278 109.233 178.278 113.708C178.278 118.181 179.589 120.372 180.977 122.692C182.43 125.121 183.933 127.633 183.933 132.611C183.933 137.59 182.43 140.101 180.977 142.531C179.589 144.85 178.278 147.041 178.278 151.515C178.278 155.989 179.589 158.18 180.977 160.498C182.43 162.928 183.933 165.441 183.933 170.418Z" fill="#2F4327"/>
<path d="M170.47 170.418H168.657C168.657 165.944 167.346 163.754 165.958 161.434C164.505 159.005 163.002 156.493 163.002 151.515C163.002 146.537 164.505 144.025 165.958 141.595C167.346 139.276 168.657 137.085 168.657 132.611C168.657 128.138 167.346 125.947 165.958 123.628C164.505 121.198 163.002 118.685 163.002 113.708C163.002 108.729 164.505 106.217 165.958 103.787C167.346 101.468 168.657 99.2766 168.657 94.802C168.657 90.328 167.346 88.137 165.958 85.8175C164.505 83.3871 163.002 80.8745 163.002 75.8965H164.815C164.815 80.3712 166.126 82.5622 167.514 84.8816C168.967 87.3114 170.47 89.8239 170.47 94.802C170.47 99.7808 168.967 102.293 167.514 104.723C166.126 107.042 164.815 109.233 164.815 113.708C164.815 118.181 166.126 120.372 167.514 122.692C168.967 125.121 170.47 127.633 170.47 132.611C170.47 137.59 168.967 140.101 167.514 142.531C166.126 144.85 164.815 147.041 164.815 151.515C164.815 155.989 166.126 158.18 167.514 160.498C168.967 162.928 170.47 165.441 170.47 170.418Z" fill="#2F4327"/>
<path d="M278.802 170.418H276.988C276.988 165.944 275.677 163.754 274.29 161.434C272.837 159.005 271.333 156.493 271.333 151.515C271.333 146.537 272.837 144.025 274.29 141.595C275.677 139.276 276.988 137.085 276.988 132.611C276.988 128.138 275.677 125.947 274.29 123.628C272.837 121.198 271.333 118.685 271.333 113.708C271.333 108.729 272.837 106.217 274.29 103.787C275.677 101.468 276.988 99.2766 276.988 94.802C276.988 90.328 275.677 88.137 274.29 85.8175C272.837 83.3871 271.333 80.8745 271.333 75.8965H273.148C273.148 80.3712 274.458 82.5622 275.845 84.8816C277.299 87.3114 278.802 89.8239 278.802 94.802C278.802 99.7808 277.299 102.293 275.845 104.723C274.458 107.042 273.148 109.233 273.148 113.708C273.148 118.181 274.458 120.372 275.845 122.692C277.299 125.121 278.802 127.633 278.802 132.611C278.802 137.59 277.299 140.101 275.845 142.531C274.458 144.85 273.148 147.041 273.148 151.515C273.148 155.989 274.458 158.18 275.845 160.498C277.299 162.928 278.802 165.441 278.802 170.418Z" fill="#2F4327"/>
<path d="M265.339 170.418H263.525C263.525 165.944 262.214 163.754 260.827 161.434C259.373 159.005 257.871 156.493 257.871 151.515C257.871 146.537 259.373 144.025 260.827 141.595C262.214 139.276 263.525 137.085 263.525 132.611C263.525 128.138 262.214 125.947 260.827 123.628C259.373 121.198 257.871 118.685 257.871 113.708C257.871 108.729 259.373 106.217 260.827 103.787C262.214 101.468 263.525 99.2766 263.525 94.802C263.525 90.328 262.214 88.137 260.827 85.8175C259.373 83.3871 257.871 80.8745 257.871 75.8965H259.685C259.685 80.3712 260.995 82.5622 262.383 84.8816C263.836 87.3114 265.339 89.8239 265.339 94.802C265.339 99.7808 263.836 102.293 262.383 104.723C260.995 107.042 259.685 109.233 259.685 113.708C259.685 118.181 260.995 120.372 262.383 122.692C263.836 125.121 265.339 127.633 265.339 132.611C265.339 137.59 263.836 140.101 262.383 142.531C260.995 144.85 259.685 147.041 259.685 151.515C259.685 155.989 260.995 158.18 262.383 160.498C263.836 162.928 265.339 165.441 265.339 170.418Z" fill="#2F4327"/>
<path d="M251.876 170.418H250.062C250.062 165.944 248.752 163.754 247.364 161.434C245.91 159.005 244.408 156.493 244.408 151.515C244.408 146.537 245.91 144.025 247.364 141.595C248.752 139.276 250.062 137.085 250.062 132.611C250.062 128.138 248.752 125.947 247.364 123.628C245.91 121.198 244.408 118.685 244.408 113.708C244.408 108.729 245.91 106.217 247.364 103.787C248.752 101.468 250.062 99.2766 250.062 94.802C250.062 90.328 248.752 88.137 247.364 85.8175C245.91 83.3871 244.408 80.8745 244.408 75.8965H246.221C246.221 80.3712 247.532 82.5622 248.92 84.8816C250.373 87.3114 251.876 89.8239 251.876 94.802C251.876 99.7808 250.373 102.293 248.92 104.723C247.532 107.042 246.221 109.233 246.221 113.708C246.221 118.181 247.532 120.372 248.92 122.692C250.373 125.121 251.876 127.633 251.876 132.611C251.876 137.59 250.373 140.101 248.92 142.531C247.532 144.85 246.221 147.041 246.221 151.515C246.221 155.989 247.532 158.18 248.92 160.498C250.373 162.928 251.876 165.441 251.876 170.418Z" fill="#2F4327"/>
<path d="M74.9731 245.104H73.1596C73.1596 240.63 71.8487 238.439 70.4612 236.12C69.0076 233.691 67.5049 231.178 67.5049 226.2C67.5049 221.223 69.0076 218.711 70.4612 216.281C71.8487 213.961 73.1596 211.771 73.1596 207.297C73.1596 202.823 71.8487 200.633 70.4612 198.314C69.0076 195.884 67.5049 193.371 67.5049 188.394C67.5049 183.415 69.0076 180.903 70.4612 178.473C71.8487 176.154 73.1596 173.962 73.1596 169.488C73.1596 165.013 71.8487 162.823 70.4612 160.503C69.0076 158.073 67.5049 155.56 67.5049 150.582H69.3184C69.3184 155.057 70.6292 157.247 72.0168 159.567C73.4704 161.997 74.9731 164.51 74.9731 169.488C74.9731 174.467 73.4704 176.979 72.0168 179.409C70.6292 181.728 69.3184 183.919 69.3184 188.394C69.3184 192.867 70.6292 195.058 72.0168 197.378C73.4704 199.807 74.9731 202.319 74.9731 207.297C74.9731 212.275 73.4704 214.787 72.0168 217.217C70.6292 219.536 69.3184 221.726 69.3184 226.2C69.3184 230.674 70.6292 232.865 72.0168 235.184C73.4704 237.614 74.9731 240.126 74.9731 245.104Z" fill="#2F4327"/>
<path d="M61.5102 245.104H59.6967C59.6967 240.63 58.3858 238.439 56.9983 236.12C55.5447 233.691 54.042 231.178 54.042 226.2C54.042 221.223 55.5447 218.711 56.9983 216.281C58.3858 213.961 59.6967 211.771 59.6967 207.297C59.6967 202.823 58.3858 200.633 56.9983 198.314C55.5447 195.884 54.042 193.371 54.042 188.394C54.042 183.415 55.5447 180.903 56.9983 178.473C58.3858 176.154 59.6967 173.962 59.6967 169.488C59.6967 165.013 58.3858 162.823 56.9983 160.503C55.5447 158.073 54.042 155.56 54.042 150.582H55.8562C55.8562 155.057 57.1664 157.247 58.5539 159.567C60.0075 161.997 61.5102 164.51 61.5102 169.488C61.5102 174.467 60.0075 176.979 58.5539 179.409C57.1664 181.728 55.8562 183.919 55.8562 188.394C55.8562 192.867 57.1664 195.058 58.5539 197.378C60.0075 199.807 61.5102 202.319 61.5102 207.297C61.5102 212.275 60.0075 214.787 58.5539 217.217C57.1664 219.536 55.8562 221.726 55.8562 226.2C55.8562 230.674 57.1664 232.865 58.5539 235.184C60.0075 237.614 61.5102 240.126 61.5102 245.104Z" fill="#2F4327"/>
<path d="M48.0473 245.104H46.2338C46.2338 240.63 44.9229 238.439 43.5354 236.12C42.0826 233.691 40.5791 231.178 40.5791 226.2C40.5791 221.223 42.0826 218.711 43.5354 216.281C44.9229 213.961 46.2338 211.771 46.2338 207.297C46.2338 202.823 44.9229 200.633 43.5354 198.314C42.0826 195.884 40.5791 193.371 40.5791 188.394C40.5791 183.415 42.0826 180.903 43.5354 178.473C44.9229 176.154 46.2338 173.962 46.2338 169.488C46.2338 165.013 44.9229 162.823 43.5354 160.503C42.0826 158.073 40.5791 155.56 40.5791 150.582H42.3933C42.3933 155.057 43.7035 157.247 45.091 159.567C46.5446 161.997 48.0473 164.51 48.0473 169.488C48.0473 174.467 46.5446 176.979 45.091 179.409C43.7035 181.728 42.3933 183.919 42.3933 188.394C42.3933 192.867 43.7035 195.058 45.091 197.378C46.5446 199.807 48.0473 202.319 48.0473 207.297C48.0473 212.275 46.5446 214.787 45.091 217.217C43.7035 219.536 42.3933 221.726 42.3933 226.2C42.3933 230.674 43.7035 232.865 45.091 235.184C46.5446 237.614 48.0473 240.126 48.0473 245.104Z" fill="#2F4327"/>
<path d="M34.5845 245.104H32.771C32.771 240.63 31.46 238.439 30.0726 236.12C28.6197 233.691 27.1162 231.178 27.1162 226.2C27.1162 221.223 28.6197 218.711 30.0726 216.281C31.46 213.961 32.771 211.771 32.771 207.297C32.771 202.823 31.46 200.633 30.0726 198.314C28.6197 195.884 27.1162 193.371 27.1162 188.394C27.1162 183.415 28.6197 180.903 30.0726 178.473C31.46 176.154 32.771 173.962 32.771 169.488C32.771 165.013 31.46 162.823 30.0726 160.503C28.6197 158.073 27.1162 155.56 27.1162 150.582H28.9304C28.9304 155.057 30.2406 157.247 31.6281 159.567C33.0817 161.997 34.5845 164.51 34.5845 169.488C34.5845 174.467 33.0817 176.979 31.6281 179.409C30.2406 181.728 28.9304 183.919 28.9304 188.394C28.9304 192.867 30.2406 195.058 31.6281 197.378C33.0817 199.807 34.5845 202.319 34.5845 207.297C34.5845 212.275 33.0817 214.787 31.6281 217.217C30.2406 219.536 28.9304 221.726 28.9304 226.2C28.9304 230.674 30.2406 232.865 31.6281 235.184C33.0817 237.614 34.5845 240.126 34.5845 245.104Z" fill="#2F4327"/>
<path d="M21.1216 245.104H19.3081C19.3081 240.63 17.9971 238.439 16.6097 236.12C15.156 233.691 13.6533 231.178 13.6533 226.2C13.6533 221.223 15.156 218.711 16.6097 216.281C17.9971 213.961 19.3081 211.771 19.3081 207.297C19.3081 202.823 17.9971 200.633 16.6097 198.314C15.156 195.884 13.6533 193.371 13.6533 188.394C13.6533 183.415 15.156 180.903 16.6097 178.473C17.9971 176.154 19.3081 173.962 19.3081 169.488C19.3081 165.013 17.9971 162.823 16.6097 160.503C15.156 158.073 13.6533 155.56 13.6533 150.582H15.4668C15.4668 155.057 16.7777 157.247 18.1652 159.567C19.6188 161.997 21.1216 164.51 21.1216 169.488C21.1216 174.467 19.6188 176.979 18.1652 179.409C16.7777 181.728 15.4668 183.919 15.4668 188.394C15.4668 192.867 16.7777 195.058 18.1652 197.378C19.6188 199.807 21.1216 202.319 21.1216 207.297C21.1216 212.275 19.6188 214.787 18.1652 217.217C16.7777 219.536 15.4668 221.726 15.4668 226.2C15.4668 230.674 16.7777 232.865 18.1652 235.184C19.6188 237.614 21.1216 240.126 21.1216 245.104Z" fill="#2F4327"/>
<path d="M7.65868 245.104H5.84517C5.84517 240.63 4.53424 238.439 3.14678 236.12C1.69315 233.691 0.19043 231.178 0.19043 226.2C0.19043 221.223 1.69316 218.711 3.14678 216.281C4.53424 213.961 5.84517 211.771 5.84517 207.297C5.84517 202.823 4.53424 200.633 3.14678 198.314C1.69315 195.884 0.19043 193.371 0.19043 188.394C0.19043 183.415 1.69316 180.903 3.14678 178.473C4.53424 176.154 5.84517 173.962 5.84517 169.488C5.84517 165.013 4.53424 162.823 3.14678 160.503C1.69315 158.073 0.19043 155.56 0.19043 150.582H2.00394C2.00394 155.057 3.31479 157.247 4.70233 159.567C6.15596 161.997 7.65868 164.51 7.65868 169.488C7.65868 174.467 6.15595 176.979 4.70233 179.409C3.31479 181.728 2.00394 183.919 2.00394 188.394C2.00394 192.867 3.31479 195.058 4.70233 197.378C6.15596 199.807 7.65868 202.319 7.65868 207.297C7.65868 212.275 6.15595 214.787 4.70233 217.217C3.31479 219.536 2.00394 221.726 2.00394 226.2C2.00394 230.674 3.31479 232.865 4.70233 235.184C6.15596 237.614 7.65868 240.126 7.65868 245.104Z" fill="#2F4327"/>
<path d="M156.379 245.104H154.565C154.565 240.63 153.254 238.439 151.867 236.12C150.413 233.691 148.911 231.178 148.911 226.2C148.911 221.223 150.413 218.711 151.867 216.281C153.254 213.961 154.565 211.771 154.565 207.297C154.565 202.823 153.254 200.633 151.867 198.314C150.413 195.884 148.911 193.371 148.911 188.394C148.911 183.415 150.413 180.903 151.867 178.473C153.254 176.154 154.565 173.962 154.565 169.488C154.565 165.013 153.254 162.823 151.867 160.503C150.413 158.073 148.911 155.56 148.911 150.582H150.724C150.724 155.057 152.035 157.247 153.423 159.567C154.876 161.997 156.379 164.51 156.379 169.488C156.379 174.467 154.876 176.979 153.423 179.409C152.035 181.728 150.724 183.919 150.724 188.394C150.724 192.867 152.035 195.058 153.423 197.378C154.876 199.807 156.379 202.319 156.379 207.297C156.379 212.275 154.876 214.787 153.423 217.217C152.035 219.536 150.724 221.726 150.724 226.2C150.724 230.674 152.035 232.865 153.423 235.184C154.876 237.614 156.379 240.126 156.379 245.104Z" fill="#2F4327"/>
<path d="M142.916 245.104H141.102C141.102 240.63 139.792 238.439 138.404 236.12C136.95 233.691 135.448 231.178 135.448 226.2C135.448 221.223 136.95 218.711 138.404 216.281C139.792 213.961 141.102 211.771 141.102 207.297C141.102 202.823 139.792 200.633 138.404 198.314C136.95 195.884 135.448 193.371 135.448 188.394C135.448 183.415 136.95 180.903 138.404 178.473C139.792 176.154 141.102 173.962 141.102 169.488C141.102 165.013 139.792 162.823 138.404 160.503C136.95 158.073 135.448 155.56 135.448 150.582H137.261C137.261 155.057 138.572 157.247 139.96 159.567C141.413 161.997 142.916 164.51 142.916 169.488C142.916 174.467 141.413 176.979 139.96 179.409C138.572 181.728 137.261 183.919 137.261 188.394C137.261 192.867 138.572 195.058 139.96 197.378C141.413 199.807 142.916 202.319 142.916 207.297C142.916 212.275 141.413 214.787 139.96 217.217C138.572 219.536 137.261 221.726 137.261 226.2C137.261 230.674 138.572 232.865 139.96 235.184C141.413 237.614 142.916 240.126 142.916 245.104Z" fill="#2F4327"/>
<path d="M129.453 245.104H127.64C127.64 240.63 126.329 238.439 124.941 236.12C123.488 233.691 121.985 231.178 121.985 226.2C121.985 221.223 123.488 218.711 124.941 216.281C126.329 213.961 127.64 211.771 127.64 207.297C127.64 202.823 126.329 200.633 124.941 198.314C123.488 195.884 121.985 193.371 121.985 188.394C121.985 183.415 123.488 180.903 124.941 178.473C126.329 176.154 127.64 173.962 127.64 169.488C127.64 165.013 126.329 162.823 124.941 160.503C123.488 158.073 121.985 155.56 121.985 150.582H123.799C123.799 155.057 125.109 157.247 126.497 159.567C127.95 161.997 129.453 164.51 129.453 169.488C129.453 174.467 127.95 176.979 126.497 179.409C125.109 181.728 123.799 183.919 123.799 188.394C123.799 192.867 125.109 195.058 126.497 197.378C127.95 199.807 129.453 202.319 129.453 207.297C129.453 212.275 127.95 214.787 126.497 217.217C125.109 219.536 123.799 221.726 123.799 226.2C123.799 230.674 125.109 232.865 126.497 235.184C127.95 237.614 129.453 240.126 129.453 245.104Z" fill="#2F4327"/>
<path d="M115.99 245.104H114.177C114.177 240.63 112.866 238.439 111.478 236.12C110.025 233.691 108.522 231.178 108.522 226.2C108.522 221.223 110.025 218.711 111.478 216.281C112.866 213.961 114.177 211.771 114.177 207.297C114.177 202.823 112.866 200.633 111.478 198.314C110.025 195.884 108.522 193.371 108.522 188.394C108.522 183.415 110.025 180.903 111.478 178.473C112.866 176.154 114.177 173.962 114.177 169.488C114.177 165.013 112.866 162.823 111.478 160.503C110.025 158.073 108.522 155.56 108.522 150.582H110.336C110.336 155.057 111.646 157.247 113.034 159.567C114.487 161.997 115.99 164.51 115.99 169.488C115.99 174.467 114.487 176.979 113.034 179.409C111.646 181.728 110.336 183.919 110.336 188.394C110.336 192.867 111.646 195.058 113.034 197.378C114.487 199.807 115.99 202.319 115.99 207.297C115.99 212.275 114.487 214.787 113.034 217.217C111.646 219.536 110.336 221.726 110.336 226.2C110.336 230.674 111.646 232.865 113.034 235.184C114.487 237.614 115.99 240.126 115.99 245.104Z" fill="#2F4327"/>
<path d="M102.527 245.104H100.714C100.714 240.63 99.4029 238.439 98.0154 236.12C96.5618 233.691 95.0591 231.178 95.0591 226.2C95.0591 221.223 96.5618 218.711 98.0154 216.281C99.4029 213.961 100.714 211.771 100.714 207.297C100.714 202.823 99.4029 200.633 98.0154 198.314C96.5618 195.884 95.0591 193.371 95.0591 188.394C95.0591 183.415 96.5618 180.903 98.0154 178.473C99.4029 176.154 100.714 173.962 100.714 169.488C100.714 165.013 99.4029 162.823 98.0154 160.503C96.5618 158.073 95.0591 155.56 95.0591 150.582H96.8726C96.8726 155.057 98.1834 157.247 99.571 159.567C101.025 161.997 102.527 164.51 102.527 169.488C102.527 174.467 101.025 176.979 99.571 179.409C98.1834 181.728 96.8726 183.919 96.8726 188.394C96.8726 192.867 98.1834 195.058 99.571 197.378C101.025 199.807 102.527 202.319 102.527 207.297C102.527 212.275 101.025 214.787 99.571 217.217C98.1834 219.536 96.8726 221.726 96.8726 226.2C96.8726 230.674 98.1834 232.865 99.571 235.184C101.025 237.614 102.527 240.126 102.527 245.104Z" fill="#2F4327"/>
<path d="M89.0644 245.104H87.2509C87.2509 240.63 85.94 238.439 84.5525 236.12C83.0989 233.691 81.5962 231.178 81.5962 226.2C81.5962 221.223 83.0989 218.711 84.5525 216.281C85.94 213.961 87.2509 211.771 87.2509 207.297C87.2509 202.823 85.94 200.633 84.5525 198.314C83.0989 195.884 81.5962 193.371 81.5962 188.394C81.5962 183.415 83.0989 180.903 84.5525 178.473C85.94 176.154 87.2509 173.962 87.2509 169.488C87.2509 165.013 85.94 162.823 84.5525 160.503C83.0989 158.073 81.5962 155.56 81.5962 150.582H83.4097C83.4097 155.057 84.7205 157.247 86.1081 159.567C87.5617 161.997 89.0644 164.51 89.0644 169.488C89.0644 174.467 87.5617 176.979 86.1081 179.409C84.7205 181.728 83.4097 183.919 83.4097 188.394C83.4097 192.867 84.7205 195.058 86.1081 197.378C87.5617 199.807 89.0644 202.319 89.0644 207.297C89.0644 212.275 87.5617 214.787 86.1081 217.217C84.7205 219.536 83.4097 221.726 83.4097 226.2C83.4097 230.674 84.7205 232.865 86.1081 235.184C87.5617 237.614 89.0644 240.126 89.0644 245.104Z" fill="#2F4327"/>
<path d="M74.9731 321H73.1596C73.1596 316.526 71.8487 314.336 70.4612 312.016C69.0076 309.587 67.5049 307.075 67.5049 302.097C67.5049 297.119 69.0076 294.607 70.4612 292.177C71.8487 289.858 73.1596 287.667 73.1596 283.193C73.1596 278.72 71.8487 276.529 70.4612 274.21C69.0076 271.78 67.5049 269.268 67.5049 264.29C67.5049 259.311 69.0076 256.799 70.4612 254.369C71.8487 252.05 73.1596 249.859 73.1596 245.384C73.1596 240.91 71.8487 238.719 70.4612 236.4C69.0076 233.97 67.5049 231.457 67.5049 226.479H69.3184C69.3184 230.953 70.6292 233.144 72.0168 235.464C73.4704 237.893 74.9731 240.406 74.9731 245.384C74.9731 250.363 73.4704 252.875 72.0168 255.305C70.6292 257.624 69.3184 259.816 69.3184 264.29C69.3184 268.763 70.6292 270.954 72.0168 273.274C73.4704 275.703 74.9731 278.215 74.9731 283.193C74.9731 288.171 73.4704 290.683 72.0168 293.113C70.6292 295.432 69.3184 297.623 69.3184 302.097C69.3184 306.571 70.6292 308.762 72.0168 311.08C73.4704 313.51 74.9731 316.023 74.9731 321Z" fill="#2F4327"/>
<path d="M61.5102 321H59.6967C59.6967 316.526 58.3858 314.336 56.9983 312.016C55.5447 309.587 54.042 307.075 54.042 302.097C54.042 297.119 55.5447 294.607 56.9983 292.177C58.3858 289.858 59.6967 287.667 59.6967 283.193C59.6967 278.72 58.3858 276.529 56.9983 274.21C55.5447 271.78 54.042 269.268 54.042 264.29C54.042 259.311 55.5447 256.799 56.9983 254.369C58.3858 252.05 59.6967 249.859 59.6967 245.384C59.6967 240.91 58.3858 238.719 56.9983 236.4C55.5447 233.97 54.042 231.457 54.042 226.479H55.8562C55.8562 230.953 57.1664 233.144 58.5539 235.464C60.0075 237.893 61.5102 240.406 61.5102 245.384C61.5102 250.363 60.0075 252.875 58.5539 255.305C57.1664 257.624 55.8562 259.816 55.8562 264.29C55.8562 268.763 57.1664 270.954 58.5539 273.274C60.0075 275.703 61.5102 278.215 61.5102 283.193C61.5102 288.171 60.0075 290.683 58.5539 293.113C57.1664 295.432 55.8562 297.623 55.8562 302.097C55.8562 306.571 57.1664 308.762 58.5539 311.08C60.0075 313.51 61.5102 316.023 61.5102 321Z" fill="#2F4327"/>
<path d="M48.0473 321H46.2338C46.2338 316.526 44.9229 314.336 43.5354 312.016C42.0826 309.587 40.5791 307.075 40.5791 302.097C40.5791 297.119 42.0826 294.607 43.5354 292.177C44.9229 289.858 46.2338 287.667 46.2338 283.193C46.2338 278.72 44.9229 276.529 43.5354 274.21C42.0826 271.78 40.5791 269.268 40.5791 264.29C40.5791 259.311 42.0826 256.799 43.5354 254.369C44.9229 252.05 46.2338 249.859 46.2338 245.384C46.2338 240.91 44.9229 238.719 43.5354 236.4C42.0826 233.97 40.5791 231.457 40.5791 226.479H42.3933C42.3933 230.953 43.7035 233.144 45.091 235.464C46.5446 237.893 48.0473 240.406 48.0473 245.384C48.0473 250.363 46.5446 252.875 45.091 255.305C43.7035 257.624 42.3933 259.816 42.3933 264.29C42.3933 268.763 43.7035 270.954 45.091 273.274C46.5446 275.703 48.0473 278.215 48.0473 283.193C48.0473 288.171 46.5446 290.683 45.091 293.113C43.7035 295.432 42.3933 297.623 42.3933 302.097C42.3933 306.571 43.7035 308.762 45.091 311.08C46.5446 313.51 48.0473 316.023 48.0473 321Z" fill="#2F4327"/>
<path d="M34.5845 321H32.771C32.771 316.526 31.46 314.336 30.0726 312.016C28.6197 309.587 27.1162 307.075 27.1162 302.097C27.1162 297.119 28.6197 294.607 30.0726 292.177C31.46 289.858 32.771 287.667 32.771 283.193C32.771 278.72 31.46 276.529 30.0726 274.21C28.6197 271.78 27.1162 269.268 27.1162 264.29C27.1162 259.311 28.6197 256.799 30.0726 254.369C31.46 252.05 32.771 249.859 32.771 245.384C32.771 240.91 31.46 238.719 30.0726 236.4C28.6197 233.97 27.1162 231.457 27.1162 226.479H28.9304C28.9304 230.953 30.2406 233.144 31.6281 235.464C33.0817 237.893 34.5845 240.406 34.5845 245.384C34.5845 250.363 33.0817 252.875 31.6281 255.305C30.2406 257.624 28.9304 259.816 28.9304 264.29C28.9304 268.763 30.2406 270.954 31.6281 273.274C33.0817 275.703 34.5845 278.215 34.5845 283.193C34.5845 288.171 33.0817 290.683 31.6281 293.113C30.2406 295.432 28.9304 297.623 28.9304 302.097C28.9304 306.571 30.2406 308.762 31.6281 311.08C33.0817 313.51 34.5845 316.023 34.5845 321Z" fill="#2F4327"/>
<path d="M21.1216 321H19.3081C19.3081 316.526 17.9971 314.336 16.6097 312.016C15.156 309.587 13.6533 307.075 13.6533 302.097C13.6533 297.119 15.156 294.607 16.6097 292.177C17.9971 289.858 19.3081 287.667 19.3081 283.193C19.3081 278.72 17.9971 276.529 16.6097 274.21C15.156 271.78 13.6533 269.268 13.6533 264.29C13.6533 259.311 15.156 256.799 16.6097 254.369C17.9971 252.05 19.3081 249.859 19.3081 245.384C19.3081 240.91 17.9971 238.719 16.6097 236.4C15.156 233.97 13.6533 231.457 13.6533 226.479H15.4668C15.4668 230.953 16.7777 233.144 18.1652 235.464C19.6188 237.893 21.1216 240.406 21.1216 245.384C21.1216 250.363 19.6188 252.875 18.1652 255.305C16.7777 257.624 15.4668 259.816 15.4668 264.29C15.4668 268.763 16.7777 270.954 18.1652 273.274C19.6188 275.703 21.1216 278.215 21.1216 283.193C21.1216 288.171 19.6188 290.683 18.1652 293.113C16.7777 295.432 15.4668 297.623 15.4668 302.097C15.4668 306.571 16.7777 308.762 18.1652 311.08C19.6188 313.51 21.1216 316.023 21.1216 321Z" fill="#2F4327"/>
<path d="M7.65868 321H5.84517C5.84517 316.526 4.53424 314.336 3.14678 312.016C1.69315 309.587 0.19043 307.075 0.19043 302.097C0.19043 297.119 1.69316 294.607 3.14678 292.177C4.53424 289.858 5.84517 287.667 5.84517 283.193C5.84517 278.72 4.53424 276.529 3.14678 274.21C1.69315 271.78 0.19043 269.268 0.19043 264.29C0.19043 259.311 1.69316 256.799 3.14678 254.369C4.53424 252.05 5.84517 249.859 5.84517 245.384C5.84517 240.91 4.53424 238.719 3.14678 236.4C1.69315 233.97 0.19043 231.457 0.19043 226.479H2.00394C2.00394 230.953 3.31479 233.144 4.70233 235.464C6.15596 237.893 7.65868 240.406 7.65868 245.384C7.65868 250.363 6.15595 252.875 4.70233 255.305C3.31479 257.624 2.00394 259.816 2.00394 264.29C2.00394 268.763 3.31479 270.954 4.70233 273.274C6.15596 275.703 7.65868 278.215 7.65868 283.193C7.65868 288.171 6.15595 290.683 4.70233 293.113C3.31479 295.432 2.00394 297.623 2.00394 302.097C2.00394 306.571 3.31479 308.762 4.70233 311.08C6.15596 313.51 7.65868 316.023 7.65868 321Z" fill="#2F4327"/>
<path d="M156.379 321H154.565C154.565 316.526 153.254 314.336 151.867 312.016C150.413 309.587 148.911 307.075 148.911 302.097C148.911 297.119 150.413 294.607 151.867 292.177C153.254 289.858 154.565 287.667 154.565 283.193C154.565 278.72 153.254 276.529 151.867 274.21C150.413 271.78 148.911 269.268 148.911 264.29C148.911 259.311 150.413 256.799 151.867 254.369C153.254 252.05 154.565 249.859 154.565 245.384C154.565 240.91 153.254 238.719 151.867 236.4C150.413 233.97 148.911 231.457 148.911 226.479H150.724C150.724 230.953 152.035 233.144 153.423 235.464C154.876 237.893 156.379 240.406 156.379 245.384C156.379 250.363 154.876 252.875 153.423 255.305C152.035 257.624 150.724 259.816 150.724 264.29C150.724 268.763 152.035 270.954 153.423 273.274C154.876 275.703 156.379 278.215 156.379 283.193C156.379 288.171 154.876 290.683 153.423 293.113C152.035 295.432 150.724 297.623 150.724 302.097C150.724 306.571 152.035 308.762 153.423 311.08C154.876 313.51 156.379 316.023 156.379 321Z" fill="#2F4327"/>
<path d="M142.916 321H141.102C141.102 316.526 139.792 314.336 138.404 312.016C136.95 309.587 135.448 307.075 135.448 302.097C135.448 297.119 136.95 294.607 138.404 292.177C139.792 289.858 141.102 287.667 141.102 283.193C141.102 278.72 139.792 276.529 138.404 274.21C136.95 271.78 135.448 269.268 135.448 264.29C135.448 259.311 136.95 256.799 138.404 254.369C139.792 252.05 141.102 249.859 141.102 245.384C141.102 240.91 139.792 238.719 138.404 236.4C136.95 233.97 135.448 231.457 135.448 226.479H137.261C137.261 230.953 138.572 233.144 139.96 235.464C141.413 237.893 142.916 240.406 142.916 245.384C142.916 250.363 141.413 252.875 139.96 255.305C138.572 257.624 137.261 259.816 137.261 264.29C137.261 268.763 138.572 270.954 139.96 273.274C141.413 275.703 142.916 278.215 142.916 283.193C142.916 288.171 141.413 290.683 139.96 293.113C138.572 295.432 137.261 297.623 137.261 302.097C137.261 306.571 138.572 308.762 139.96 311.08C141.413 313.51 142.916 316.023 142.916 321Z" fill="#2F4327"/>
<path d="M129.453 321H127.64C127.64 316.526 126.329 314.336 124.941 312.016C123.488 309.587 121.985 307.075 121.985 302.097C121.985 297.119 123.488 294.607 124.941 292.177C126.329 289.858 127.64 287.667 127.64 283.193C127.64 278.72 126.329 276.529 124.941 274.21C123.488 271.78 121.985 269.268 121.985 264.29C121.985 259.311 123.488 256.799 124.941 254.369C126.329 252.05 127.64 249.859 127.64 245.384C127.64 240.91 126.329 238.719 124.941 236.4C123.488 233.97 121.985 231.457 121.985 226.479H123.799C123.799 230.953 125.109 233.144 126.497 235.464C127.95 237.893 129.453 240.406 129.453 245.384C129.453 250.363 127.95 252.875 126.497 255.305C125.109 257.624 123.799 259.816 123.799 264.29C123.799 268.763 125.109 270.954 126.497 273.274C127.95 275.703 129.453 278.215 129.453 283.193C129.453 288.171 127.95 290.683 126.497 293.113C125.109 295.432 123.799 297.623 123.799 302.097C123.799 306.571 125.109 308.762 126.497 311.08C127.95 313.51 129.453 316.023 129.453 321Z" fill="#2F4327"/>
<path d="M115.99 321H114.177C114.177 316.526 112.866 314.336 111.478 312.016C110.025 309.587 108.522 307.075 108.522 302.097C108.522 297.119 110.025 294.607 111.478 292.177C112.866 289.858 114.177 287.667 114.177 283.193C114.177 278.72 112.866 276.529 111.478 274.21C110.025 271.78 108.522 269.268 108.522 264.29C108.522 259.311 110.025 256.799 111.478 254.369C112.866 252.05 114.177 249.859 114.177 245.384C114.177 240.91 112.866 238.719 111.478 236.4C110.025 233.97 108.522 231.457 108.522 226.479H110.336C110.336 230.953 111.646 233.144 113.034 235.464C114.487 237.893 115.99 240.406 115.99 245.384C115.99 250.363 114.487 252.875 113.034 255.305C111.646 257.624 110.336 259.816 110.336 264.29C110.336 268.763 111.646 270.954 113.034 273.274C114.487 275.703 115.99 278.215 115.99 283.193C115.99 288.171 114.487 290.683 113.034 293.113C111.646 295.432 110.336 297.623 110.336 302.097C110.336 306.571 111.646 308.762 113.034 311.08C114.487 313.51 115.99 316.023 115.99 321Z" fill="#2F4327"/>
<path d="M102.527 321H100.714C100.714 316.526 99.4029 314.336 98.0154 312.016C96.5618 309.587 95.0591 307.075 95.0591 302.097C95.0591 297.119 96.5618 294.607 98.0154 292.177C99.4029 289.858 100.714 287.667 100.714 283.193C100.714 278.72 99.4029 276.529 98.0154 274.21C96.5618 271.78 95.0591 269.268 95.0591 264.29C95.0591 259.311 96.5618 256.799 98.0154 254.369C99.4029 252.05 100.714 249.859 100.714 245.384C100.714 240.91 99.4029 238.719 98.0154 236.4C96.5618 233.97 95.0591 231.457 95.0591 226.479H96.8726C96.8726 230.953 98.1834 233.144 99.571 235.464C101.025 237.893 102.527 240.406 102.527 245.384C102.527 250.363 101.025 252.875 99.571 255.305C98.1834 257.624 96.8726 259.816 96.8726 264.29C96.8726 268.763 98.1834 270.954 99.571 273.274C101.025 275.703 102.527 278.215 102.527 283.193C102.527 288.171 101.025 290.683 99.571 293.113C98.1834 295.432 96.8726 297.623 96.8726 302.097C96.8726 306.571 98.1834 308.762 99.571 311.08C101.025 313.51 102.527 316.023 102.527 321Z" fill="#2F4327"/>
<path d="M89.0644 321H87.2509C87.2509 316.526 85.94 314.336 84.5525 312.016C83.0989 309.587 81.5962 307.075 81.5962 302.097C81.5962 297.119 83.0989 294.607 84.5525 292.177C85.94 289.858 87.2509 287.667 87.2509 283.193C87.2509 278.72 85.94 276.529 84.5525 274.21C83.0989 271.78 81.5962 269.268 81.5962 264.29C81.5962 259.311 83.0989 256.799 84.5525 254.369C85.94 252.05 87.2509 249.859 87.2509 245.384C87.2509 240.91 85.94 238.719 84.5525 236.4C83.0989 233.97 81.5962 231.457 81.5962 226.479H83.4097C83.4097 230.953 84.7205 233.144 86.1081 235.464C87.5617 237.893 89.0644 240.406 89.0644 245.384C89.0644 250.363 87.5617 252.875 86.1081 255.305C84.7205 257.624 83.4097 259.816 83.4097 264.29C83.4097 268.763 84.7205 270.954 86.1081 273.274C87.5617 275.703 89.0644 278.215 89.0644 283.193C89.0644 288.171 87.5617 290.683 86.1081 293.113C84.7205 295.432 83.4097 297.623 83.4097 302.097C83.4097 306.571 84.7205 308.762 86.1081 311.08C87.5617 313.51 89.0644 316.023 89.0644 321Z" fill="#2F4327"/>
<path d="M237.785 245.104H235.971C235.971 240.63 234.66 238.439 233.273 236.12C231.819 233.691 230.316 231.178 230.316 226.2C230.316 221.223 231.819 218.711 233.273 216.281C234.66 213.961 235.971 211.771 235.971 207.297C235.971 202.823 234.66 200.633 233.273 198.314C231.819 195.884 230.316 193.371 230.316 188.394C230.316 183.415 231.819 180.903 233.273 178.473C234.66 176.154 235.971 173.962 235.971 169.488C235.971 165.013 234.66 162.823 233.273 160.503C231.819 158.073 230.316 155.56 230.316 150.582H232.13C232.13 155.057 233.441 157.247 234.828 159.567C236.282 161.997 237.785 164.51 237.785 169.488C237.785 174.467 236.282 176.979 234.828 179.409C233.441 181.728 232.13 183.919 232.13 188.394C232.13 192.867 233.441 195.058 234.828 197.378C236.282 199.807 237.785 202.319 237.785 207.297C237.785 212.275 236.282 214.787 234.828 217.217C233.441 219.536 232.13 221.726 232.13 226.2C232.13 230.674 233.441 232.865 234.828 235.184C236.282 237.614 237.785 240.126 237.785 245.104Z" fill="#2F4327"/>
<path d="M224.322 245.104H222.508C222.508 240.63 221.197 238.439 219.81 236.12C218.356 233.691 216.854 231.178 216.854 226.2C216.854 221.223 218.356 218.711 219.81 216.281C221.197 213.961 222.508 211.771 222.508 207.297C222.508 202.823 221.197 200.633 219.81 198.314C218.356 195.884 216.854 193.371 216.854 188.394C216.854 183.415 218.356 180.903 219.81 178.473C221.197 176.154 222.508 173.962 222.508 169.488C222.508 165.013 221.197 162.823 219.81 160.503C218.356 158.073 216.854 155.56 216.854 150.582H218.667C218.667 155.057 219.978 157.247 221.365 159.567C222.819 161.997 224.322 164.51 224.322 169.488C224.322 174.467 222.819 176.979 221.365 179.409C219.978 181.728 218.667 183.919 218.667 188.394C218.667 192.867 219.978 195.058 221.365 197.378C222.819 199.807 224.322 202.319 224.322 207.297C224.322 212.275 222.819 214.787 221.365 217.217C219.978 219.536 218.667 221.726 218.667 226.2C218.667 230.674 219.978 232.865 221.365 235.184C222.819 237.614 224.322 240.126 224.322 245.104Z" fill="#2F4327"/>
<path d="M210.859 245.104H209.045C209.045 240.63 207.734 238.439 206.347 236.12C204.894 233.691 203.391 231.178 203.391 226.2C203.391 221.223 204.894 218.711 206.347 216.281C207.734 213.961 209.045 211.771 209.045 207.297C209.045 202.823 207.734 200.633 206.347 198.314C204.894 195.884 203.391 193.371 203.391 188.394C203.391 183.415 204.894 180.903 206.347 178.473C207.734 176.154 209.045 173.962 209.045 169.488C209.045 165.013 207.734 162.823 206.347 160.503C204.894 158.073 203.391 155.56 203.391 150.582H205.205C205.205 155.057 206.515 157.247 207.903 159.567C209.356 161.997 210.859 164.51 210.859 169.488C210.859 174.467 209.356 176.979 207.903 179.409C206.515 181.728 205.205 183.919 205.205 188.394C205.205 192.867 206.515 195.058 207.903 197.378C209.356 199.807 210.859 202.319 210.859 207.297C210.859 212.275 209.356 214.787 207.903 217.217C206.515 219.536 205.205 221.726 205.205 226.2C205.205 230.674 206.515 232.865 207.903 235.184C209.356 237.614 210.859 240.126 210.859 245.104Z" fill="#2F4327"/>
<path d="M197.396 245.104H195.582C195.582 240.63 194.272 238.439 192.884 236.12C191.431 233.691 189.928 231.178 189.928 226.2C189.928 221.223 191.431 218.711 192.884 216.281C194.272 213.961 195.582 211.771 195.582 207.297C195.582 202.823 194.272 200.633 192.884 198.314C191.431 195.884 189.928 193.371 189.928 188.394C189.928 183.415 191.431 180.903 192.884 178.473C194.272 176.154 195.582 173.962 195.582 169.488C195.582 165.013 194.272 162.823 192.884 160.503C191.431 158.073 189.928 155.56 189.928 150.582H191.742C191.742 155.057 193.052 157.247 194.44 159.567C195.893 161.997 197.396 164.51 197.396 169.488C197.396 174.467 195.893 176.979 194.44 179.409C193.052 181.728 191.742 183.919 191.742 188.394C191.742 192.867 193.052 195.058 194.44 197.378C195.893 199.807 197.396 202.319 197.396 207.297C197.396 212.275 195.893 214.787 194.44 217.217C193.052 219.536 191.742 221.726 191.742 226.2C191.742 230.674 193.052 232.865 194.44 235.184C195.893 237.614 197.396 240.126 197.396 245.104Z" fill="#2F4327"/>
<path d="M183.933 245.104H182.12C182.12 240.63 180.809 238.439 179.421 236.12C177.968 233.691 176.465 231.178 176.465 226.2C176.465 221.223 177.968 218.711 179.421 216.281C180.809 213.961 182.12 211.771 182.12 207.297C182.12 202.823 180.809 200.633 179.421 198.314C177.968 195.884 176.465 193.371 176.465 188.394C176.465 183.415 177.968 180.903 179.421 178.473C180.809 176.154 182.12 173.962 182.12 169.488C182.12 165.013 180.809 162.823 179.421 160.503C177.968 158.073 176.465 155.56 176.465 150.582H178.278C178.278 155.057 179.589 157.247 180.977 159.567C182.43 161.997 183.933 164.51 183.933 169.488C183.933 174.467 182.43 176.979 180.977 179.409C179.589 181.728 178.278 183.919 178.278 188.394C178.278 192.867 179.589 195.058 180.977 197.378C182.43 199.807 183.933 202.319 183.933 207.297C183.933 212.275 182.43 214.787 180.977 217.217C179.589 219.536 178.278 221.726 178.278 226.2C178.278 230.674 179.589 232.865 180.977 235.184C182.43 237.614 183.933 240.126 183.933 245.104Z" fill="#2F4327"/>
<path d="M170.47 245.104H168.657C168.657 240.63 167.346 238.439 165.958 236.12C164.505 233.691 163.002 231.178 163.002 226.2C163.002 221.223 164.505 218.711 165.958 216.281C167.346 213.961 168.657 211.771 168.657 207.297C168.657 202.823 167.346 200.633 165.958 198.314C164.505 195.884 163.002 193.371 163.002 188.394C163.002 183.415 164.505 180.903 165.958 178.473C167.346 176.154 168.657 173.962 168.657 169.488C168.657 165.013 167.346 162.823 165.958 160.503C164.505 158.073 163.002 155.56 163.002 150.582H164.815C164.815 155.057 166.126 157.247 167.514 159.567C168.967 161.997 170.47 164.51 170.47 169.488C170.47 174.467 168.967 176.979 167.514 179.409C166.126 181.728 164.815 183.919 164.815 188.394C164.815 192.867 166.126 195.058 167.514 197.378C168.967 199.807 170.47 202.319 170.47 207.297C170.47 212.275 168.967 214.787 167.514 217.217C166.126 219.536 164.815 221.726 164.815 226.2C164.815 230.674 166.126 232.865 167.514 235.184C168.967 237.614 170.47 240.126 170.47 245.104Z" fill="#2F4327"/>
<path d="M278.802 245.104H276.988C276.988 240.63 275.677 238.439 274.29 236.12C272.837 233.691 271.333 231.178 271.333 226.2C271.333 221.223 272.837 218.711 274.29 216.281C275.677 213.961 276.988 211.771 276.988 207.297C276.988 202.823 275.677 200.633 274.29 198.314C272.837 195.884 271.333 193.371 271.333 188.394C271.333 183.415 272.837 180.903 274.29 178.473C275.677 176.154 276.988 173.962 276.988 169.488C276.988 165.013 275.677 162.823 274.29 160.503C272.837 158.073 271.333 155.56 271.333 150.582H273.148C273.148 155.057 274.458 157.247 275.845 159.567C277.299 161.997 278.802 164.51 278.802 169.488C278.802 174.467 277.299 176.979 275.845 179.409C274.458 181.728 273.148 183.919 273.148 188.394C273.148 192.867 274.458 195.058 275.845 197.378C277.299 199.807 278.802 202.319 278.802 207.297C278.802 212.275 277.299 214.787 275.845 217.217C274.458 219.536 273.148 221.726 273.148 226.2C273.148 230.674 274.458 232.865 275.845 235.184C277.299 237.614 278.802 240.126 278.802 245.104Z" fill="#2F4327"/>
<path d="M265.339 245.104H263.525C263.525 240.63 262.214 238.439 260.827 236.12C259.373 233.691 257.871 231.178 257.871 226.2C257.871 221.223 259.373 218.711 260.827 216.281C262.214 213.961 263.525 211.771 263.525 207.297C263.525 202.823 262.214 200.633 260.827 198.314C259.373 195.884 257.871 193.371 257.871 188.394C257.871 183.415 259.373 180.903 260.827 178.473C262.214 176.154 263.525 173.962 263.525 169.488C263.525 165.013 262.214 162.823 260.827 160.503C259.373 158.073 257.871 155.56 257.871 150.582H259.685C259.685 155.057 260.995 157.247 262.383 159.567C263.836 161.997 265.339 164.51 265.339 169.488C265.339 174.467 263.836 176.979 262.383 179.409C260.995 181.728 259.685 183.919 259.685 188.394C259.685 192.867 260.995 195.058 262.383 197.378C263.836 199.807 265.339 202.319 265.339 207.297C265.339 212.275 263.836 214.787 262.383 217.217C260.995 219.536 259.685 221.726 259.685 226.2C259.685 230.674 260.995 232.865 262.383 235.184C263.836 237.614 265.339 240.126 265.339 245.104Z" fill="#2F4327"/>
<path d="M251.876 245.104H250.062C250.062 240.63 248.752 238.439 247.364 236.12C245.91 233.691 244.408 231.178 244.408 226.2C244.408 221.223 245.91 218.711 247.364 216.281C248.752 213.961 250.062 211.771 250.062 207.297C250.062 202.823 248.752 200.633 247.364 198.314C245.91 195.884 244.408 193.371 244.408 188.394C244.408 183.415 245.91 180.903 247.364 178.473C248.752 176.154 250.062 173.962 250.062 169.488C250.062 165.013 248.752 162.823 247.364 160.503C245.91 158.073 244.408 155.56 244.408 150.582H246.221C246.221 155.057 247.532 157.247 248.92 159.567C250.373 161.997 251.876 164.51 251.876 169.488C251.876 174.467 250.373 176.979 248.92 179.409C247.532 181.728 246.221 183.919 246.221 188.394C246.221 192.867 247.532 195.058 248.92 197.378C250.373 199.807 251.876 202.319 251.876 207.297C251.876 212.275 250.373 214.787 248.92 217.217C247.532 219.536 246.221 221.726 246.221 226.2C246.221 230.674 247.532 232.865 248.92 235.184C250.373 237.614 251.876 240.126 251.876 245.104Z" fill="#2F4327"/>
<path d="M237.785 321H235.971C235.971 316.526 234.66 314.336 233.273 312.016C231.819 309.587 230.316 307.075 230.316 302.097C230.316 297.119 231.819 294.607 233.273 292.177C234.66 289.858 235.971 287.667 235.971 283.193C235.971 278.72 234.66 276.529 233.273 274.21C231.819 271.78 230.316 269.268 230.316 264.29C230.316 259.311 231.819 256.799 233.273 254.369C234.66 252.05 235.971 249.859 235.971 245.384C235.971 240.91 234.66 238.719 233.273 236.4C231.819 233.97 230.316 231.457 230.316 226.479H232.13C232.13 230.953 233.441 233.144 234.828 235.464C236.282 237.893 237.785 240.406 237.785 245.384C237.785 250.363 236.282 252.875 234.828 255.305C233.441 257.624 232.13 259.816 232.13 264.29C232.13 268.763 233.441 270.954 234.828 273.274C236.282 275.703 237.785 278.215 237.785 283.193C237.785 288.171 236.282 290.683 234.828 293.113C233.441 295.432 232.13 297.623 232.13 302.097C232.13 306.571 233.441 308.762 234.828 311.08C236.282 313.51 237.785 316.023 237.785 321Z" fill="#2F4327"/>
<path d="M224.322 321H222.508C222.508 316.526 221.197 314.336 219.81 312.016C218.356 309.587 216.854 307.075 216.854 302.097C216.854 297.119 218.356 294.607 219.81 292.177C221.197 289.858 222.508 287.667 222.508 283.193C222.508 278.72 221.197 276.529 219.81 274.21C218.356 271.78 216.854 269.268 216.854 264.29C216.854 259.311 218.356 256.799 219.81 254.369C221.197 252.05 222.508 249.859 222.508 245.384C222.508 240.91 221.197 238.719 219.81 236.4C218.356 233.97 216.854 231.457 216.854 226.479H218.667C218.667 230.953 219.978 233.144 221.365 235.464C222.819 237.893 224.322 240.406 224.322 245.384C224.322 250.363 222.819 252.875 221.365 255.305C219.978 257.624 218.667 259.816 218.667 264.29C218.667 268.763 219.978 270.954 221.365 273.274C222.819 275.703 224.322 278.215 224.322 283.193C224.322 288.171 222.819 290.683 221.365 293.113C219.978 295.432 218.667 297.623 218.667 302.097C218.667 306.571 219.978 308.762 221.365 311.08C222.819 313.51 224.322 316.023 224.322 321Z" fill="#2F4327"/>
<path d="M210.859 321H209.045C209.045 316.526 207.734 314.336 206.347 312.016C204.894 309.587 203.391 307.075 203.391 302.097C203.391 297.119 204.894 294.607 206.347 292.177C207.734 289.858 209.045 287.667 209.045 283.193C209.045 278.72 207.734 276.529 206.347 274.21C204.894 271.78 203.391 269.268 203.391 264.29C203.391 259.311 204.894 256.799 206.347 254.369C207.734 252.05 209.045 249.859 209.045 245.384C209.045 240.91 207.734 238.719 206.347 236.4C204.894 233.97 203.391 231.457 203.391 226.479H205.205C205.205 230.953 206.515 233.144 207.903 235.464C209.356 237.893 210.859 240.406 210.859 245.384C210.859 250.363 209.356 252.875 207.903 255.305C206.515 257.624 205.205 259.816 205.205 264.29C205.205 268.763 206.515 270.954 207.903 273.274C209.356 275.703 210.859 278.215 210.859 283.193C210.859 288.171 209.356 290.683 207.903 293.113C206.515 295.432 205.205 297.623 205.205 302.097C205.205 306.571 206.515 308.762 207.903 311.08C209.356 313.51 210.859 316.023 210.859 321Z" fill="#2F4327"/>
<path d="M197.396 321H195.582C195.582 316.526 194.272 314.336 192.884 312.016C191.431 309.587 189.928 307.075 189.928 302.097C189.928 297.119 191.431 294.607 192.884 292.177C194.272 289.858 195.582 287.667 195.582 283.193C195.582 278.72 194.272 276.529 192.884 274.21C191.431 271.78 189.928 269.268 189.928 264.29C189.928 259.311 191.431 256.799 192.884 254.369C194.272 252.05 195.582 249.859 195.582 245.384C195.582 240.91 194.272 238.719 192.884 236.4C191.431 233.97 189.928 231.457 189.928 226.479H191.742C191.742 230.953 193.052 233.144 194.44 235.464C195.893 237.893 197.396 240.406 197.396 245.384C197.396 250.363 195.893 252.875 194.44 255.305C193.052 257.624 191.742 259.816 191.742 264.29C191.742 268.763 193.052 270.954 194.44 273.274C195.893 275.703 197.396 278.215 197.396 283.193C197.396 288.171 195.893 290.683 194.44 293.113C193.052 295.432 191.742 297.623 191.742 302.097C191.742 306.571 193.052 308.762 194.44 311.08C195.893 313.51 197.396 316.023 197.396 321Z" fill="#2F4327"/>
<path d="M183.933 321H182.12C182.12 316.526 180.809 314.336 179.421 312.016C177.968 309.587 176.465 307.075 176.465 302.097C176.465 297.119 177.968 294.607 179.421 292.177C180.809 289.858 182.12 287.667 182.12 283.193C182.12 278.72 180.809 276.529 179.421 274.21C177.968 271.78 176.465 269.268 176.465 264.29C176.465 259.311 177.968 256.799 179.421 254.369C180.809 252.05 182.12 249.859 182.12 245.384C182.12 240.91 180.809 238.719 179.421 236.4C177.968 233.97 176.465 231.457 176.465 226.479H178.278C178.278 230.953 179.589 233.144 180.977 235.464C182.43 237.893 183.933 240.406 183.933 245.384C183.933 250.363 182.43 252.875 180.977 255.305C179.589 257.624 178.278 259.816 178.278 264.29C178.278 268.763 179.589 270.954 180.977 273.274C182.43 275.703 183.933 278.215 183.933 283.193C183.933 288.171 182.43 290.683 180.977 293.113C179.589 295.432 178.278 297.623 178.278 302.097C178.278 306.571 179.589 308.762 180.977 311.08C182.43 313.51 183.933 316.023 183.933 321Z" fill="#2F4327"/>
<path d="M170.47 321H168.657C168.657 316.526 167.346 314.336 165.958 312.016C164.505 309.587 163.002 307.075 163.002 302.097C163.002 297.119 164.505 294.607 165.958 292.177C167.346 289.858 168.657 287.667 168.657 283.193C168.657 278.72 167.346 276.529 165.958 274.21C164.505 271.78 163.002 269.268 163.002 264.29C163.002 259.311 164.505 256.799 165.958 254.369C167.346 252.05 168.657 249.859 168.657 245.384C168.657 240.91 167.346 238.719 165.958 236.4C164.505 233.97 163.002 231.457 163.002 226.479H164.815C164.815 230.953 166.126 233.144 167.514 235.464C168.967 237.893 170.47 240.406 170.47 245.384C170.47 250.363 168.967 252.875 167.514 255.305C166.126 257.624 164.815 259.816 164.815 264.29C164.815 268.763 166.126 270.954 167.514 273.274C168.967 275.703 170.47 278.215 170.47 283.193C170.47 288.171 168.967 290.683 167.514 293.113C166.126 295.432 164.815 297.623 164.815 302.097C164.815 306.571 166.126 308.762 167.514 311.08C168.967 313.51 170.47 316.023 170.47 321Z" fill="#2F4327"/>
<path d="M278.802 321H276.988C276.988 316.526 275.677 314.336 274.29 312.016C272.837 309.587 271.333 307.075 271.333 302.097C271.333 297.119 272.837 294.607 274.29 292.177C275.677 289.858 276.988 287.667 276.988 283.193C276.988 278.72 275.677 276.529 274.29 274.21C272.837 271.78 271.333 269.268 271.333 264.29C271.333 259.311 272.837 256.799 274.29 254.369C275.677 252.05 276.988 249.859 276.988 245.384C276.988 240.91 275.677 238.719 274.29 236.4C272.837 233.97 271.333 231.457 271.333 226.479H273.148C273.148 230.953 274.458 233.144 275.845 235.464C277.299 237.893 278.802 240.406 278.802 245.384C278.802 250.363 277.299 252.875 275.845 255.305C274.458 257.624 273.148 259.816 273.148 264.29C273.148 268.763 274.458 270.954 275.845 273.274C277.299 275.703 278.802 278.215 278.802 283.193C278.802 288.171 277.299 290.683 275.845 293.113C274.458 295.432 273.148 297.623 273.148 302.097C273.148 306.571 274.458 308.762 275.845 311.08C277.299 313.51 278.802 316.023 278.802 321Z" fill="#2F4327"/>
<path d="M265.339 321H263.525C263.525 316.526 262.214 314.336 260.827 312.016C259.373 309.587 257.871 307.075 257.871 302.097C257.871 297.119 259.373 294.607 260.827 292.177C262.214 289.858 263.525 287.667 263.525 283.193C263.525 278.72 262.214 276.529 260.827 274.21C259.373 271.78 257.871 269.268 257.871 264.29C257.871 259.311 259.373 256.799 260.827 254.369C262.214 252.05 263.525 249.859 263.525 245.384C263.525 240.91 262.214 238.719 260.827 236.4C259.373 233.97 257.871 231.457 257.871 226.479H259.685C259.685 230.953 260.995 233.144 262.383 235.464C263.836 237.893 265.339 240.406 265.339 245.384C265.339 250.363 263.836 252.875 262.383 255.305C260.995 257.624 259.685 259.816 259.685 264.29C259.685 268.763 260.995 270.954 262.383 273.274C263.836 275.703 265.339 278.215 265.339 283.193C265.339 288.171 263.836 290.683 262.383 293.113C260.995 295.432 259.685 297.623 259.685 302.097C259.685 306.571 260.995 308.762 262.383 311.08C263.836 313.51 265.339 316.023 265.339 321Z" fill="#2F4327"/>
<path d="M251.876 321H250.062C250.062 316.526 248.752 314.336 247.364 312.016C245.91 309.587 244.408 307.075 244.408 302.097C244.408 297.119 245.91 294.607 247.364 292.177C248.752 289.858 250.062 287.667 250.062 283.193C250.062 278.72 248.752 276.529 247.364 274.21C245.91 271.78 244.408 269.268 244.408 264.29C244.408 259.311 245.91 256.799 247.364 254.369C248.752 252.05 250.062 249.859 250.062 245.384C250.062 240.91 248.752 238.719 247.364 236.4C245.91 233.97 244.408 231.457 244.408 226.479H246.221C246.221 230.953 247.532 233.144 248.92 235.464C250.373 237.893 251.876 240.406 251.876 245.384C251.876 250.363 250.373 252.875 248.92 255.305C247.532 257.624 246.221 259.816 246.221 264.29C246.221 268.763 247.532 270.954 248.92 273.274C250.373 275.703 251.876 278.215 251.876 283.193C251.876 288.171 250.373 290.683 248.92 293.113C247.532 295.432 246.221 297.623 246.221 302.097C246.221 306.571 247.532 308.762 248.92 311.08C250.373 313.51 251.876 316.023 251.876 321Z" fill="#2F4327"/>
</g>
<defs>
<clipPath id="clip0_5017_2227">
<rect width="279" height="321" fill="white" transform="translate(0.19043)"/>
</clipPath>
</defs>
</svg>
